<?xml version="1.0" encoding="us-ascii" standalone="no"?><svg xmlns="http://www.w3.org/2000/svg" xmlns:xlink="http://www.w3.org/1999/xlink" contentStyleType="text/css" height="787px" preserveAspectRatio="none" style="width:754px;height:787px;background:#FFFFFF;" version="1.1" viewBox="0 0 754 787" width="754px" zoomAndPan="magnify"><defs/><g><rect fill="#FFFFFF" height="271.8125" style="stroke:#181818;stroke-width:1.0;" width="10" x="226.5" y="114.9609"/><rect fill="none" height="441.0547" style="stroke:#000000;stroke-width:1.5;" width="621" x="107" y="216.6641"/><rect fill="none" height="62.7031" style="stroke:#000000;stroke-width:1.5;" width="581" x="127" y="346.0703"/><rect fill="none" height="197.5938" style="stroke:#000000;stroke-width:1.5;" width="601" x="117" y="453.125"/><rect fill="none" height="121.8906" style="stroke:#000000;stroke-width:1.5;" width="581" x="127" y="521.8281"/><line style="stroke:#181818;stroke-width:0.5;stroke-dasharray:5.0,5.0;" x1="22" x2="22" y1="82.6094" y2="705.0703"/><line style="stroke:#181818;stroke-width:0.5;stroke-dasharray:5.0,5.0;" x1="231" x2="231" y1="82.6094" y2="705.0703"/><line style="stroke:#181818;stroke-width:0.5;stroke-dasharray:5.0,5.0;" x1="447" x2="447" y1="82.6094" y2="705.0703"/><line style="stroke:#181818;stroke-width:0.5;stroke-dasharray:5.0,5.0;" x1="616" x2="616" y1="82.6094" y2="705.0703"/><line style="stroke:#181818;stroke-width:0.5;stroke-dasharray:5.0,5.0;" x1="728" x2="728" y1="82.6094" y2="705.0703"/><text fill="#000000" font-family="sans-serif" font-size="14" lengthAdjust="spacing" textLength="29" x="5" y="79.5332">User</text><ellipse cx="22.5" cy="13.5" fill="#E2E2F0" rx="8" ry="8" style="stroke:#181818;stroke-width:0.5;"/><path d="M22.5,21.5 L22.5,48.5 M9.5,29.5 L35.5,29.5 M22.5,48.5 L9.5,63.5 M22.5,48.5 L35.5,63.5 " fill="none" style="stroke:#181818;stroke-width:0.5;"/><text fill="#000000" font-family="sans-serif" font-size="14" lengthAdjust="spacing" textLength="29" x="5" y="718.6035">User</text><ellipse cx="22.5" cy="730.1797" fill="#E2E2F0" rx="8" ry="8" style="stroke:#181818;stroke-width:0.5;"/><path d="M22.5,738.1797 L22.5,765.1797 M9.5,746.1797 L35.5,746.1797 M22.5,765.1797 L9.5,780.1797 M22.5,765.1797 L35.5,780.1797 " fill="none" style="stroke:#181818;stroke-width:0.5;"/><rect fill="#E2E2F0" height="31.6094" rx="2.5" ry="2.5" style="stroke:#181818;stroke-width:0.5;" width="189" x="137" y="50"/><text fill="#000000" font-family="sans-serif" font-size="14" lengthAdjust="spacing" textLength="175" x="144" y="71.5332">Booking Requests Manager</text><rect fill="#E2E2F0" height="31.6094" rx="2.5" ry="2.5" style="stroke:#181818;stroke-width:0.5;" width="189" x="137" y="704.0703"/><text fill="#000000" font-family="sans-serif" font-size="14" lengthAdjust="spacing" textLength="175" x="144" y="725.6035">Booking Requests Manager</text><rect fill="#E2E2F0" height="31.6094" rx="2.5" ry="2.5" style="stroke:#181818;stroke-width:0.5;" width="155" x="370" y="50"/><text fill="#000000" font-family="sans-serif" font-size="14" lengthAdjust="spacing" textLength="141" x="377" y="71.5332">Taxi Booking Manager</text><rect fill="#E2E2F0" height="31.6094" rx="2.5" ry="2.5" style="stroke:#181818;stroke-width:0.5;" width="155" x="370" y="704.0703"/><text fill="#000000" font-family="sans-serif" font-size="14" lengthAdjust="spacing" textLength="141" x="377" y="725.6035">Taxi Booking Manager</text><rect fill="#E2E2F0" height="31.6094" rx="2.5" ry="2.5" style="stroke:#181818;stroke-width:0.5;" width="163" x="535" y="50"/><text fill="#000000" font-family="sans-serif" font-size="14" lengthAdjust="spacing" textLength="149" x="542" y="71.5332">TaxiFleeT Management</text><rect fill="#E2E2F0" height="31.6094" rx="2.5" ry="2.5" style="stroke:#181818;stroke-width:0.5;" width="163" x="535" y="704.0703"/><text fill="#000000" font-family="sans-serif" font-size="14" lengthAdjust="spacing" textLength="149" x="542" y="725.6035">TaxiFleeT Management</text><rect fill="#E2E2F0" height="31.6094" rx="2.5" ry="2.5" style="stroke:#181818;stroke-width:0.5;" width="40" x="708" y="50"/><text fill="#000000" font-family="sans-serif" font-size="14" lengthAdjust="spacing" textLength="26" x="715" y="71.5332">Taxi</text><rect fill="#E2E2F0" height="31.6094" rx="2.5" ry="2.5" style="stroke:#181818;stroke-width:0.5;" width="40" x="708" y="704.0703"/><text fill="#000000" font-family="sans-serif" font-size="14" lengthAdjust="spacing" textLength="26" x="715" y="725.6035">Taxi</text><rect fill="#FFFFFF" height="271.8125" style="stroke:#181818;stroke-width:1.0;" width="10" x="226.5" y="114.9609"/><polygon fill="#181818" points="214.5,110.9609,224.5,114.9609,214.5,118.9609,218.5,114.9609" style="stroke:#181818;stroke-width:1.0;"/><line style="stroke:#181818;stroke-width:1.0;" x1="22.5" x2="220.5" y1="114.9609" y2="114.9609"/><text fill="#000000" font-family="sans-serif" font-size="13" lengthAdjust="spacing" textLength="185" x="29.5" y="110.1045">submitBookingRequest(request)</text><line style="stroke:#181818;stroke-width:1.0;" x1="236.5" x2="278.5" y1="145.3125" y2="145.3125"/><line style="stroke:#181818;stroke-width:1.0;" x1="278.5" x2="278.5" y1="145.3125" y2="158.3125"/><line style="stroke:#181818;stroke-width:1.0;" x1="237.5" x2="278.5" y1="158.3125" y2="158.3125"/><polygon fill="#181818" points="247.5,154.3125,237.5,158.3125,247.5,162.3125,243.5,158.3125" style="stroke:#181818;stroke-width:1.0;"/><text fill="#000000" font-family="sans-serif" font-size="13" lengthAdjust="spacing" textLength="162" x="243.5" y="140.4561">bookingQueue.offer(request)</text><line style="stroke:#181818;stroke-width:1.0;" x1="236.5" x2="278.5" y1="188.6641" y2="188.6641"/><line style="stroke:#181818;stroke-width:1.0;" x1="278.5" x2="278.5" y1="188.6641" y2="201.6641"/><line style="stroke:#181818;stroke-width:1.0;" x1="237.5" x2="278.5" y1="201.6641" y2="201.6641"/><polygon fill="#181818" points="247.5,197.6641,237.5,201.6641,247.5,205.6641,243.5,201.6641" style="stroke:#181818;stroke-width:1.0;"/><text fill="#000000" font-family="sans-serif" font-size="13" lengthAdjust="spacing" textLength="192" x="243.5" y="183.8076">processBookingRequest(request)</text><path d="M107,216.6641 L180,216.6641 L180,225.0156 L170,235.0156 L107,235.0156 L107,216.6641 " fill="#EEEEEE" style="stroke:#000000;stroke-width:1.5;"/><rect fill="none" height="441.0547" style="stroke:#000000;stroke-width:1.5;" width="621" x="107" y="216.6641"/><text fill="#000000" font-family="sans-serif" font-size="13" font-weight="bold" lengthAdjust="spacing" textLength="28" x="122" y="231.1592">loop</text><text fill="#000000" font-family="sans-serif" font-size="11" font-weight="bold" lengthAdjust="spacing" textLength="78" x="195" y="230.083">[until timeout]</text><polygon fill="#181818" points="435.5,253.3672,445.5,257.3672,435.5,261.3672,439.5,257.3672" style="stroke:#181818;stroke-width:1.0;"/><line style="stroke:#181818;stroke-width:1.0;" x1="236.5" x2="441.5" y1="257.3672" y2="257.3672"/><text fill="#000000" font-family="sans-serif" font-size="13" lengthAdjust="spacing" textLength="123" x="243.5" y="252.5107">getAllAvailableTaxis()</text><polygon fill="#181818" points="247.5,283.7188,237.5,287.7188,247.5,291.7188,243.5,287.7188" style="stroke:#181818;stroke-width:1.0;"/><line style="stroke:#181818;stroke-width:1.0;stroke-dasharray:2.0,2.0;" x1="241.5" x2="446.5" y1="287.7188" y2="287.7188"/><text fill="#000000" font-family="sans-serif" font-size="13" lengthAdjust="spacing" textLength="57" x="253.5" y="282.8623">list&lt;Taxi&gt;</text><line style="stroke:#181818;stroke-width:1.0;" x1="236.5" x2="278.5" y1="318.0703" y2="318.0703"/><line style="stroke:#181818;stroke-width:1.0;" x1="278.5" x2="278.5" y1="318.0703" y2="331.0703"/><line style="stroke:#181818;stroke-width:1.0;" x1="237.5" x2="278.5" y1="331.0703" y2="331.0703"/><polygon fill="#181818" points="247.5,327.0703,237.5,331.0703,247.5,335.0703,243.5,331.0703" style="stroke:#181818;stroke-width:1.0;"/><text fill="#000000" font-family="sans-serif" font-size="13" lengthAdjust="spacing" textLength="121" x="243.5" y="313.2139">selectTaxisToNotify()</text><path d="M127,346.0703 L188,346.0703 L188,354.4219 L178,364.4219 L127,364.4219 L127,346.0703 " fill="#EEEEEE" style="stroke:#000000;stroke-width:1.5;"/><rect fill="none" height="62.7031" style="stroke:#000000;stroke-width:1.5;" width="581" x="127" y="346.0703"/><text fill="#000000" font-family="sans-serif" font-size="13" font-weight="bold" lengthAdjust="spacing" textLength="16" x="142" y="360.5654">alt</text><text fill="#000000" font-family="sans-serif" font-size="11" font-weight="bold" lengthAdjust="spacing" textLength="101" x="203" y="359.4893">[No taxis available]</text><polygon fill="#181818" points="604.5,382.7734,614.5,386.7734,604.5,390.7734,608.5,386.7734" style="stroke:#181818;stroke-width:1.0;"/><line style="stroke:#181818;stroke-width:1.0;" x1="231.5" x2="610.5" y1="386.7734" y2="386.7734"/><text fill="#000000" font-family="sans-serif" font-size="13" lengthAdjust="spacing" textLength="125" x="238.5" y="381.917">noTaxiFound(request)</text><polygon fill="#181818" points="242.5,396.7734,232.5,400.7734,242.5,404.7734,238.5,400.7734" style="stroke:#181818;stroke-width:1.0;"/><line style="stroke:#181818;stroke-width:1.0;stroke-dasharray:2.0,2.0;" x1="236.5" x2="615.5" y1="400.7734" y2="400.7734"/><polygon fill="#181818" points="604.5,434.125,614.5,438.125,604.5,442.125,608.5,438.125" style="stroke:#181818;stroke-width:1.0;"/><line style="stroke:#181818;stroke-width:1.0;" x1="231.5" x2="610.5" y1="438.125" y2="438.125"/><text fill="#000000" font-family="sans-serif" font-size="13" lengthAdjust="spacing" textLength="149" x="238.5" y="433.2686">notifyTaxis(taxis, request)</text><path d="M117,453.125 L291,453.125 L291,461.4766 L281,471.4766 L117,471.4766 L117,453.125 " fill="#EEEEEE" style="stroke:#000000;stroke-width:1.5;"/><rect fill="none" height="197.5938" style="stroke:#000000;stroke-width:1.5;" width="601" x="117" y="453.125"/><text fill="#000000" font-family="sans-serif" font-size="13" font-weight="bold" lengthAdjust="spacing" textLength="129" x="132" y="467.6201">waiting for response</text><line style="stroke:#181818;stroke-width:1.0;" x1="231.5" x2="273.5" y1="493.8281" y2="493.8281"/><line style="stroke:#181818;stroke-width:1.0;" x1="273.5" x2="273.5" y1="493.8281" y2="506.8281"/><line style="stroke:#181818;stroke-width:1.0;" x1="232.5" x2="273.5" y1="506.8281" y2="506.8281"/><polygon fill="#181818" points="242.5,502.8281,232.5,506.8281,242.5,510.8281,238.5,506.8281" style="stroke:#181818;stroke-width:1.0;"/><text fill="#000000" font-family="sans-serif" font-size="13" lengthAdjust="spacing" textLength="200" x="238.5" y="488.9717">waitForAnyAcceptanceResponse()</text><path d="M127,521.8281 L188,521.8281 L188,530.1797 L178,540.1797 L127,540.1797 L127,521.8281 " fill="#EEEEEE" style="stroke:#000000;stroke-width:1.5;"/><rect fill="none" height="121.8906" style="stroke:#000000;stroke-width:1.5;" width="581" x="127" y="521.8281"/><text fill="#000000" font-family="sans-serif" font-size="13" font-weight="bold" lengthAdjust="spacing" textLength="16" x="142" y="536.3232">alt</text><text fill="#000000" font-family="sans-serif" font-size="11" font-weight="bold" lengthAdjust="spacing" textLength="83" x="203" y="535.2471">[Taxi accepted]</text><polygon fill="#181818" points="604.5,558.5313,614.5,562.5313,604.5,566.5313,608.5,562.5313" style="stroke:#181818;stroke-width:1.0;"/><line style="stroke:#181818;stroke-width:1.0;" x1="231.5" x2="610.5" y1="562.5313" y2="562.5313"/><text fill="#000000" font-family="sans-serif" font-size="13" lengthAdjust="spacing" textLength="132" x="238.5" y="557.6748">bookTaxi(request, taxi)</text><polygon fill="#181818" points="242.5,572.5313,232.5,576.5313,242.5,580.5313,238.5,576.5313" style="stroke:#181818;stroke-width:1.0;"/><line style="stroke:#181818;stroke-width:1.0;stroke-dasharray:2.0,2.0;" x1="236.5" x2="615.5" y1="576.5313" y2="576.5313"/><line style="stroke:#000000;stroke-width:1.0;stroke-dasharray:2.0,2.0;" x1="127" x2="708" y1="585.5313" y2="585.5313"/><text fill="#000000" font-family="sans-serif" font-size="11" font-weight="bold" lengthAdjust="spacing" textLength="134" x="132" y="596.9502">[All declined / timed out]</text><line style="stroke:#181818;stroke-width:1.0;" x1="231.5" x2="273.5" y1="622.7188" y2="622.7188"/><line style="stroke:#181818;stroke-width:1.0;" x1="273.5" x2="273.5" y1="622.7188" y2="635.7188"/><line style="stroke:#181818;stroke-width:1.0;" x1="232.5" x2="273.5" y1="635.7188" y2="635.7188"/><polygon fill="#181818" points="242.5,631.7188,232.5,635.7188,242.5,639.7188,238.5,635.7188" style="stroke:#181818;stroke-width:1.0;"/><text fill="#000000" font-family="sans-serif" font-size="13" lengthAdjust="spacing" textLength="142" x="238.5" y="617.8623">markTaxis as processed</text><polygon fill="#181818" points="604.5,683.0703,614.5,687.0703,604.5,691.0703,608.5,687.0703" style="stroke:#181818;stroke-width:1.0;"/><line style="stroke:#181818;stroke-width:1.0;" x1="231.5" x2="610.5" y1="687.0703" y2="687.0703"/><text fill="#000000" font-family="sans-serif" font-size="13" lengthAdjust="spacing" textLength="125" x="238.5" y="682.2139">noTaxiFound(request)</text><!--SRC=[dLF1Ri8m3BttAwoTG8BjFar8tO6TG1fY7s1IjugM9btYiF7tQz8MMYY8hL8L9S_lnNvsKB2nyE789XLQba9Mg1aUNetvbBg03NrvSknWXHeBiW-03bfmzROPahRu8pjmG0Z0QFHI4MtRq98qn-Xus32Em2NrA9ma8NsOBtfvmJCuloibjqTj6HFRhDC41SizClLhwT7FnNRDvjsJfqUJvsHFKZTebJM2dBkMX3Ac0gzPAc1Pal6SGFqD1LidQhM2E5KgtQDKk5FH8ZUPHaeND3_FG4d7Bm5TZ4WF_I95WgFergmDo_pGYgDYM1lW005srqVeKdEiURMwDh7TnkliL7-daD5OEphK4dkhuvPqblpXob13urBCVGQ3cmjhV0NVA3cCQru_0qkkCjfTAsrWL-0jZKtr8HM2AaOjQDFo9wVIWdVnMM2Ceko8t5r7cBrmtFasYvsO3eHkEtZcOdHIEO9wccgcK59J1azn1ZFefl0E3qgqCJCNdc8xwxqAksw5DVp_7vJHydu1]--></g></svg>