<?xml version="1.0" encoding="us-ascii" standalone="no"?><svg xmlns="http://www.w3.org/2000/svg" xmlns:xlink="http://www.w3.org/1999/xlink" contentStyleType="text/css" height="435px" preserveAspectRatio="none" style="width:2734px;height:435px;background:#FFFFFF;" version="1.1" viewBox="0 0 2734 435" width="2734px" zoomAndPan="magnify"><defs/><g><!--cluster Booking--><g id="cluster_Booking"><path d="M8.5,6 L67.5,6 A3.75,3.75 0 0 1 70,8.5 L77,29.6094 L569.5,29.6094 A2.5,2.5 0 0 1 572,32.1094 L572,425.5 A2.5,2.5 0 0 1 569.5,428 L8.5,428 A2.5,2.5 0 0 1 6,425.5 L6,8.5 A2.5,2.5 0 0 1 8.5,6 " fill="none" style="stroke:#000000;stroke-width:1.5;"/><line style="stroke:#000000;stroke-width:1.5;" x1="6" x2="77" y1="29.6094" y2="29.6094"/><text fill="#000000" font-family="sans-serif" font-size="14" font-weight="bold" lengthAdjust="spacing" textLength="58" x="10" y="22.5332">Booking</text></g><!--cluster Taxi--><g id="cluster_Taxi"><path d="M2166.5,6 L2195.5,6 A3.75,3.75 0 0 1 2198,8.5 L2205,29.6094 L2724.5,29.6094 A2.5,2.5 0 0 1 2727,32.1094 L2727,209.5 A2.5,2.5 0 0 1 2724.5,212 L2166.5,212 A2.5,2.5 0 0 1 2164,209.5 L2164,8.5 A2.5,2.5 0 0 1 2166.5,6 " fill="none" style="stroke:#000000;stroke-width:1.5;"/><line style="stroke:#000000;stroke-width:1.5;" x1="2164" x2="2205" y1="29.6094" y2="29.6094"/><text fill="#000000" font-family="sans-serif" font-size="14" font-weight="bold" lengthAdjust="spacing" textLength="28" x="2168" y="22.5332">Taxi</text></g><!--cluster Fleet Management--><g id="cluster_Fleet Management"><path d="M598.5,41.5 L730.5,41.5 A3.75,3.75 0 0 1 733,44 L740,65.1094 L1490.5,65.1094 A2.5,2.5 0 0 1 1493,67.6094 L1493,408 A2.5,2.5 0 0 1 1490.5,410.5 L598.5,410.5 A2.5,2.5 0 0 1 596,408 L596,44 A2.5,2.5 0 0 1 598.5,41.5 " fill="none" style="stroke:#000000;stroke-width:1.5;"/><line style="stroke:#000000;stroke-width:1.5;" x1="596" x2="740" y1="65.1094" y2="65.1094"/><text fill="#000000" font-family="sans-serif" font-size="14" font-weight="bold" lengthAdjust="spacing" textLength="131" x="600" y="58.0332">Fleet Management</text></g><!--class RequestStatus--><g id="elem_RequestStatus"><rect codeLine="17" fill="#F1F1F1" height="100.8281" id="RequestStatus" rx="2.5" ry="2.5" style="stroke:#181818;stroke-width:0.5;" width="125" x="270.5" y="68.5"/><ellipse cx="285.5" cy="84.5" fill="#EB937F" rx="11" ry="11" style="stroke:#181818;stroke-width:1.0;"/><path d="M284.3594,85.2969 L284.3594,87.7969 L288.6875,87.7969 L288.6875,86.875 Q288.6875,86.2656 288.9219,86 Q289.1719,85.7344 289.5469,85.7344 Q289.9219,85.7344 290.1563,86 Q290.3906,86.2656 290.3906,86.875 L290.3906,89.5 L282.3906,89.5 Q281.7656,89.5 281.5,89.2656 Q281.25,89.0313 281.25,88.6406 Q281.25,88.2656 281.5156,88.0313 Q281.7813,87.7969 282.3906,87.7969 L282.6563,87.7969 L282.6563,81.1406 L282.3906,81.1406 Q281.7656,81.1406 281.5,80.9063 Q281.25,80.6719 281.25,80.2813 Q281.25,79.9063 281.5,79.6719 Q281.7656,79.4375 282.3906,79.4375 L290.0156,79.4375 L290.0156,82.0313 Q290.0156,82.6406 289.7813,82.9063 Q289.5625,83.1563 289.1719,83.1563 Q288.7969,83.1563 288.5625,82.9063 Q288.3281,82.6406 288.3281,82.0313 L288.3281,81.1406 L284.3594,81.1406 L284.3594,83.5938 L285.8438,83.5938 Q285.8438,82.9375 285.9688,82.75 Q286.2344,82.3438 286.7031,82.3438 Q287.0781,82.3438 287.3125,82.6094 Q287.5469,82.8594 287.5469,83.4688 L287.5469,85.4375 Q287.5469,85.9844 287.4219,86.1719 Q287.1563,86.5625 286.7031,86.5625 Q286.2344,86.5625 285.9688,86.1563 Q285.8438,85.9688 285.8438,85.2969 L284.3594,85.2969 Z " fill="#000000"/><text fill="#000000" font-family="sans-serif" font-size="14" lengthAdjust="spacing" textLength="93" x="299.5" y="90.2285">RequestStatus</text><line style="stroke:#181818;stroke-width:0.5;" x1="271.5" x2="394.5" y1="100.5" y2="100.5"/><text fill="#000000" font-family="sans-serif" font-size="14" lengthAdjust="spacing" textLength="60" x="276.5" y="119.0332">PENDING</text><text fill="#000000" font-family="sans-serif" font-size="14" lengthAdjust="spacing" textLength="72" x="276.5" y="136.6426">REJECTED</text><text fill="#000000" font-family="sans-serif" font-size="14" lengthAdjust="spacing" textLength="58" x="276.5" y="154.252">EXPIRED</text><line style="stroke:#181818;stroke-width:0.5;" x1="271.5" x2="394.5" y1="161.3281" y2="161.3281"/></g><!--class TaxiResponse--><g id="elem_TaxiResponse"><rect codeLine="23" fill="#F1F1F1" height="83.2188" id="TaxiResponse" rx="2.5" ry="2.5" style="stroke:#181818;stroke-width:0.5;" width="122" x="431" y="77.5"/><ellipse cx="446" cy="93.5" fill="#EB937F" rx="11" ry="11" style="stroke:#181818;stroke-width:1.0;"/><path d="M444.8594,94.2969 L444.8594,96.7969 L449.1875,96.7969 L449.1875,95.875 Q449.1875,95.2656 449.4219,95 Q449.6719,94.7344 450.0469,94.7344 Q450.4219,94.7344 450.6563,95 Q450.8906,95.2656 450.8906,95.875 L450.8906,98.5 L442.8906,98.5 Q442.2656,98.5 442,98.2656 Q441.75,98.0313 441.75,97.6406 Q441.75,97.2656 442.0156,97.0313 Q442.2813,96.7969 442.8906,96.7969 L443.1563,96.7969 L443.1563,90.1406 L442.8906,90.1406 Q442.2656,90.1406 442,89.9063 Q441.75,89.6719 441.75,89.2813 Q441.75,88.9063 442,88.6719 Q442.2656,88.4375 442.8906,88.4375 L450.5156,88.4375 L450.5156,91.0313 Q450.5156,91.6406 450.2813,91.9063 Q450.0625,92.1563 449.6719,92.1563 Q449.2969,92.1563 449.0625,91.9063 Q448.8281,91.6406 448.8281,91.0313 L448.8281,90.1406 L444.8594,90.1406 L444.8594,92.5938 L446.3438,92.5938 Q446.3438,91.9375 446.4688,91.75 Q446.7344,91.3438 447.2031,91.3438 Q447.5781,91.3438 447.8125,91.6094 Q448.0469,91.8594 448.0469,92.4688 L448.0469,94.4375 Q448.0469,94.9844 447.9219,95.1719 Q447.6563,95.5625 447.2031,95.5625 Q446.7344,95.5625 446.4688,95.1563 Q446.3438,94.9688 446.3438,94.2969 L444.8594,94.2969 Z " fill="#000000"/><text fill="#000000" font-family="sans-serif" font-size="14" lengthAdjust="spacing" textLength="90" x="460" y="99.2285">TaxiResponse</text><line style="stroke:#181818;stroke-width:0.5;" x1="432" x2="552" y1="109.5" y2="109.5"/><text fill="#000000" font-family="sans-serif" font-size="14" lengthAdjust="spacing" textLength="56" x="437" y="128.0332">ACCEPT</text><text fill="#000000" font-family="sans-serif" font-size="14" lengthAdjust="spacing" textLength="58" x="437" y="145.6426">DECLINE</text><line style="stroke:#181818;stroke-width:0.5;" x1="432" x2="552" y1="152.7188" y2="152.7188"/></g><!--class BookingRequest--><g id="elem_BookingRequest"><rect codeLine="28" fill="#F1F1F1" height="153.6563" id="BookingRequest" rx="2.5" ry="2.5" style="stroke:#181818;stroke-width:0.5;" width="187" x="22.5" y="42"/><ellipse cx="60.45" cy="58" fill="#ADD1B2" rx="11" ry="11" style="stroke:#181818;stroke-width:1.0;"/><path d="M63.2156,53.875 Q63.3719,53.6563 63.5594,53.5469 Q63.7469,53.4375 63.9656,53.4375 Q64.3406,53.4375 64.575,53.7031 Q64.8094,53.9531 64.8094,54.5625 L64.8094,56.0156 Q64.8094,56.625 64.575,56.8906 Q64.3406,57.1563 63.9656,57.1563 Q63.6219,57.1563 63.4188,56.9531 Q63.2156,56.7656 63.1063,56.25 Q63.0594,55.8906 62.8719,55.7031 Q62.5438,55.3281 61.9344,55.1094 Q61.325,54.8906 60.7,54.8906 Q59.9344,54.8906 59.2938,55.2188 Q58.6688,55.5469 58.1688,56.2969 Q57.6844,57.0469 57.6844,58.0781 L57.6844,59.1719 Q57.6844,60.4063 58.575,61.2344 Q59.4656,62.0469 61.0594,62.0469 Q61.9969,62.0469 62.6531,61.7969 Q63.0438,61.6406 63.4656,61.2031 Q63.7313,60.9375 63.8719,60.8594 Q64.0281,60.7813 64.2313,60.7813 Q64.5594,60.7813 64.8094,61.0469 Q65.075,61.2969 65.075,61.6406 Q65.075,61.9844 64.7313,62.3906 Q64.2313,62.9688 63.4344,63.2969 Q62.3563,63.75 61.0594,63.75 Q59.5438,63.75 58.3406,63.125 Q57.3563,62.625 56.6688,61.5625 Q55.9813,60.4844 55.9813,59.2031 L55.9813,58.0469 Q55.9813,56.7188 56.5906,55.5781 Q57.2156,54.4219 58.3094,53.8125 Q59.4031,53.1875 60.6375,53.1875 Q61.3719,53.1875 62.0125,53.3594 Q62.6688,53.5156 63.2156,53.875 Z " fill="#000000"/><text fill="#000000" font-family="sans-serif" font-size="14" lengthAdjust="spacing" textLength="104" x="79.55" y="63.7285">BookingRequest</text><line style="stroke:#181818;stroke-width:0.5;" x1="23.5" x2="208.5" y1="74" y2="74"/><ellipse cx="33.5" cy="88.3047" fill="none" rx="3" ry="3" style="stroke:#038048;stroke-width:1.0;"/><text fill="#000000" font-family="sans-serif" font-size="14" lengthAdjust="spacing" textLength="63" x="42.5" y="92.5332">id: Integer</text><ellipse cx="33.5" cy="105.9141" fill="none" rx="3" ry="3" style="stroke:#038048;stroke-width:1.0;"/><text fill="#000000" font-family="sans-serif" font-size="14" lengthAdjust="spacing" textLength="65" x="42.5" y="110.1426">user: User</text><ellipse cx="33.5" cy="123.5234" fill="none" rx="3" ry="3" style="stroke:#038048;stroke-width:1.0;"/><text fill="#000000" font-family="sans-serif" font-size="14" lengthAdjust="spacing" textLength="157" x="42.5" y="127.752">pickupLocation: Location</text><ellipse cx="33.5" cy="141.1328" fill="none" rx="3" ry="3" style="stroke:#038048;stroke-width:1.0;"/><text fill="#000000" font-family="sans-serif" font-size="14" lengthAdjust="spacing" textLength="161" x="42.5" y="145.3613">dropoffLocation: Location</text><ellipse cx="33.5" cy="158.7422" fill="none" rx="3" ry="3" style="stroke:#038048;stroke-width:1.0;"/><text fill="#000000" font-family="sans-serif" font-size="14" lengthAdjust="spacing" textLength="148" x="42.5" y="162.9707">requestTime: DateTime</text><ellipse cx="33.5" cy="176.3516" fill="none" rx="3" ry="3" style="stroke:#038048;stroke-width:1.0;"/><text fill="#000000" font-family="sans-serif" font-size="14" lengthAdjust="spacing" textLength="139" x="42.5" y="180.5801">status: RequestStatus</text><line style="stroke:#181818;stroke-width:0.5;" x1="23.5" x2="208.5" y1="187.6563" y2="187.6563"/></g><!--class BookingResponse--><g id="elem_BookingResponse"><rect codeLine="37" fill="#F1F1F1" height="83.2188" id="BookingResponse" rx="2.5" ry="2.5" style="stroke:#181818;stroke-width:0.5;" width="179" x="243.5" y="302.5"/><ellipse cx="272.9" cy="318.5" fill="#ADD1B2" rx="11" ry="11" style="stroke:#181818;stroke-width:1.0;"/><path d="M275.6656,314.375 Q275.8219,314.1563 276.0094,314.0469 Q276.1969,313.9375 276.4156,313.9375 Q276.7906,313.9375 277.025,314.2031 Q277.2594,314.4531 277.2594,315.0625 L277.2594,316.5156 Q277.2594,317.125 277.025,317.3906 Q276.7906,317.6563 276.4156,317.6563 Q276.0719,317.6563 275.8688,317.4531 Q275.6656,317.2656 275.5563,316.75 Q275.5094,316.3906 275.3219,316.2031 Q274.9938,315.8281 274.3844,315.6094 Q273.775,315.3906 273.15,315.3906 Q272.3844,315.3906 271.7438,315.7188 Q271.1188,316.0469 270.6188,316.7969 Q270.1344,317.5469 270.1344,318.5781 L270.1344,319.6719 Q270.1344,320.9063 271.025,321.7344 Q271.9156,322.5469 273.5094,322.5469 Q274.4469,322.5469 275.1031,322.2969 Q275.4938,322.1406 275.9156,321.7031 Q276.1813,321.4375 276.3219,321.3594 Q276.4781,321.2813 276.6813,321.2813 Q277.0094,321.2813 277.2594,321.5469 Q277.525,321.7969 277.525,322.1406 Q277.525,322.4844 277.1813,322.8906 Q276.6813,323.4688 275.8844,323.7969 Q274.8063,324.25 273.5094,324.25 Q271.9938,324.25 270.7906,323.625 Q269.8063,323.125 269.1188,322.0625 Q268.4313,320.9844 268.4313,319.7031 L268.4313,318.5469 Q268.4313,317.2188 269.0406,316.0781 Q269.6656,314.9219 270.7594,314.3125 Q271.8531,313.6875 273.0875,313.6875 Q273.8219,313.6875 274.4625,313.8594 Q275.1188,314.0156 275.6656,314.375 Z " fill="#000000"/><text fill="#000000" font-family="sans-serif" font-size="14" lengthAdjust="spacing" textLength="115" x="290.1" y="324.2285">BookingResponse</text><line style="stroke:#181818;stroke-width:0.5;" x1="244.5" x2="421.5" y1="334.5" y2="334.5"/><ellipse cx="254.5" cy="348.8047" fill="none" rx="3" ry="3" style="stroke:#038048;stroke-width:1.0;"/><text fill="#000000" font-family="sans-serif" font-size="14" lengthAdjust="spacing" textLength="80" x="263.5" y="353.0332">id: requestID</text><ellipse cx="254.5" cy="366.4141" fill="none" rx="3" ry="3" style="stroke:#038048;stroke-width:1.0;"/><text fill="#000000" font-family="sans-serif" font-size="14" lengthAdjust="spacing" textLength="153" x="263.5" y="370.6426">response:TaxiResponse</text><line style="stroke:#181818;stroke-width:0.5;" x1="244.5" x2="421.5" y1="377.7188" y2="377.7188"/></g><!--class Status--><g id="elem_Status"><rect codeLine="42" fill="#F1F1F1" height="118.4375" id="Status" rx="2.5" ry="2.5" style="stroke:#181818;stroke-width:0.5;" width="98" x="458" y="285"/><ellipse cx="484.7" cy="301" fill="#EB937F" rx="11" ry="11" style="stroke:#181818;stroke-width:1.0;"/><path d="M483.5594,301.7969 L483.5594,304.2969 L487.8875,304.2969 L487.8875,303.375 Q487.8875,302.7656 488.1219,302.5 Q488.3719,302.2344 488.7469,302.2344 Q489.1219,302.2344 489.3563,302.5 Q489.5906,302.7656 489.5906,303.375 L489.5906,306 L481.5906,306 Q480.9656,306 480.7,305.7656 Q480.45,305.5313 480.45,305.1406 Q480.45,304.7656 480.7156,304.5313 Q480.9813,304.2969 481.5906,304.2969 L481.8563,304.2969 L481.8563,297.6406 L481.5906,297.6406 Q480.9656,297.6406 480.7,297.4063 Q480.45,297.1719 480.45,296.7813 Q480.45,296.4063 480.7,296.1719 Q480.9656,295.9375 481.5906,295.9375 L489.2156,295.9375 L489.2156,298.5313 Q489.2156,299.1406 488.9813,299.4063 Q488.7625,299.6563 488.3719,299.6563 Q487.9969,299.6563 487.7625,299.4063 Q487.5281,299.1406 487.5281,298.5313 L487.5281,297.6406 L483.5594,297.6406 L483.5594,300.0938 L485.0438,300.0938 Q485.0438,299.4375 485.1688,299.25 Q485.4344,298.8438 485.9031,298.8438 Q486.2781,298.8438 486.5125,299.1094 Q486.7469,299.3594 486.7469,299.9688 L486.7469,301.9375 Q486.7469,302.4844 486.6219,302.6719 Q486.3563,303.0625 485.9031,303.0625 Q485.4344,303.0625 485.1688,302.6563 Q485.0438,302.4688 485.0438,301.7969 L483.5594,301.7969 Z " fill="#000000"/><text fill="#000000" font-family="sans-serif" font-size="14" lengthAdjust="spacing" textLength="40" x="501.3" y="306.7285">Status</text><line style="stroke:#181818;stroke-width:0.5;" x1="459" x2="555" y1="317" y2="317"/><text fill="#000000" font-family="sans-serif" font-size="14" lengthAdjust="spacing" textLength="82" x="464" y="335.5332">CONFIRMED</text><text fill="#000000" font-family="sans-serif" font-size="14" lengthAdjust="spacing" textLength="65" x="464" y="353.1426">ONGOING</text><text fill="#000000" font-family="sans-serif" font-size="14" lengthAdjust="spacing" textLength="86" x="464" y="370.752">COMPLETED</text><text fill="#000000" font-family="sans-serif" font-size="14" lengthAdjust="spacing" textLength="82" x="464" y="388.3613">CANCELLED</text><line style="stroke:#181818;stroke-width:0.5;" x1="459" x2="555" y1="395.4375" y2="395.4375"/></g><!--class Booking--><g id="elem_Booking"><rect codeLine="49" fill="#F1F1F1" height="136.0469" id="Booking" rx="2.5" ry="2.5" style="stroke:#181818;stroke-width:0.5;" width="186" x="22" y="276"/><ellipse cx="85.25" cy="292" fill="#ADD1B2" rx="11" ry="11" style="stroke:#181818;stroke-width:1.0;"/><path d="M88.0156,287.875 Q88.1719,287.6563 88.3594,287.5469 Q88.5469,287.4375 88.7656,287.4375 Q89.1406,287.4375 89.375,287.7031 Q89.6094,287.9531 89.6094,288.5625 L89.6094,290.0156 Q89.6094,290.625 89.375,290.8906 Q89.1406,291.1563 88.7656,291.1563 Q88.4219,291.1563 88.2188,290.9531 Q88.0156,290.7656 87.9063,290.25 Q87.8594,289.8906 87.6719,289.7031 Q87.3438,289.3281 86.7344,289.1094 Q86.125,288.8906 85.5,288.8906 Q84.7344,288.8906 84.0938,289.2188 Q83.4688,289.5469 82.9688,290.2969 Q82.4844,291.0469 82.4844,292.0781 L82.4844,293.1719 Q82.4844,294.4063 83.375,295.2344 Q84.2656,296.0469 85.8594,296.0469 Q86.7969,296.0469 87.4531,295.7969 Q87.8438,295.6406 88.2656,295.2031 Q88.5313,294.9375 88.6719,294.8594 Q88.8281,294.7813 89.0313,294.7813 Q89.3594,294.7813 89.6094,295.0469 Q89.875,295.2969 89.875,295.6406 Q89.875,295.9844 89.5313,296.3906 Q89.0313,296.9688 88.2344,297.2969 Q87.1563,297.75 85.8594,297.75 Q84.3438,297.75 83.1406,297.125 Q82.1563,296.625 81.4688,295.5625 Q80.7813,294.4844 80.7813,293.2031 L80.7813,292.0469 Q80.7813,290.7188 81.3906,289.5781 Q82.0156,288.4219 83.1094,287.8125 Q84.2031,287.1875 85.4375,287.1875 Q86.1719,287.1875 86.8125,287.3594 Q87.4688,287.5156 88.0156,287.875 Z " fill="#000000"/><text fill="#000000" font-family="sans-serif" font-size="14" lengthAdjust="spacing" textLength="51" x="105.75" y="297.7285">Booking</text><line style="stroke:#181818;stroke-width:0.5;" x1="23" x2="207" y1="308" y2="308"/><ellipse cx="33" cy="322.3047" fill="none" rx="3" ry="3" style="stroke:#038048;stroke-width:1.0;"/><text fill="#000000" font-family="sans-serif" font-size="14" lengthAdjust="spacing" textLength="63" x="42" y="326.5332">id: Integer</text><ellipse cx="33" cy="339.9141" fill="none" rx="3" ry="3" style="stroke:#038048;stroke-width:1.0;"/><text fill="#000000" font-family="sans-serif" font-size="14" lengthAdjust="spacing" textLength="160" x="42" y="344.1426">request: BookingRequest</text><ellipse cx="33" cy="357.5234" fill="none" rx="3" ry="3" style="stroke:#038048;stroke-width:1.0;"/><text fill="#000000" font-family="sans-serif" font-size="14" lengthAdjust="spacing" textLength="55" x="42" y="361.752">taxi: Taxi</text><ellipse cx="33" cy="375.1328" fill="none" rx="3" ry="3" style="stroke:#038048;stroke-width:1.0;"/><text fill="#000000" font-family="sans-serif" font-size="14" lengthAdjust="spacing" textLength="150" x="42" y="379.3613">bookingTime: DateTime</text><ellipse cx="33" cy="392.7422" fill="none" rx="3" ry="3" style="stroke:#038048;stroke-width:1.0;"/><text fill="#000000" font-family="sans-serif" font-size="14" lengthAdjust="spacing" textLength="137" x="42" y="396.9707">status: BookingStatus</text><line style="stroke:#181818;stroke-width:0.5;" x1="23" x2="207" y1="404.0469" y2="404.0469"/></g><!--class Status--><g id="elem_Status"><rect codeLine="61" fill="#F1F1F1" height="100.8281" id="Status" rx="2.5" ry="2.5" style="stroke:#181818;stroke-width:0.5;" width="85" x="2625.5" y="68.5"/><ellipse cx="2646.35" cy="84.5" fill="#EB937F" rx="11" ry="11" style="stroke:#181818;stroke-width:1.0;"/><path d="M2645.2094,85.2969 L2645.2094,87.7969 L2649.5375,87.7969 L2649.5375,86.875 Q2649.5375,86.2656 2649.7719,86 Q2650.0219,85.7344 2650.3969,85.7344 Q2650.7719,85.7344 2651.0063,86 Q2651.2406,86.2656 2651.2406,86.875 L2651.2406,89.5 L2643.2406,89.5 Q2642.6156,89.5 2642.35,89.2656 Q2642.1,89.0313 2642.1,88.6406 Q2642.1,88.2656 2642.3656,88.0313 Q2642.6313,87.7969 2643.2406,87.7969 L2643.5063,87.7969 L2643.5063,81.1406 L2643.2406,81.1406 Q2642.6156,81.1406 2642.35,80.9063 Q2642.1,80.6719 2642.1,80.2813 Q2642.1,79.9063 2642.35,79.6719 Q2642.6156,79.4375 2643.2406,79.4375 L2650.8656,79.4375 L2650.8656,82.0313 Q2650.8656,82.6406 2650.6313,82.9063 Q2650.4125,83.1563 2650.0219,83.1563 Q2649.6469,83.1563 2649.4125,82.9063 Q2649.1781,82.6406 2649.1781,82.0313 L2649.1781,81.1406 L2645.2094,81.1406 L2645.2094,83.5938 L2646.6938,83.5938 Q2646.6938,82.9375 2646.8188,82.75 Q2647.0844,82.3438 2647.5531,82.3438 Q2647.9281,82.3438 2648.1625,82.6094 Q2648.3969,82.8594 2648.3969,83.4688 L2648.3969,85.4375 Q2648.3969,85.9844 2648.2719,86.1719 Q2648.0063,86.5625 2647.5531,86.5625 Q2647.0844,86.5625 2646.8188,86.1563 Q2646.6938,85.9688 2646.6938,85.2969 L2645.2094,85.2969 Z " fill="#000000"/><text fill="#000000" font-family="sans-serif" font-size="14" lengthAdjust="spacing" textLength="40" x="2661.65" y="90.2285">Status</text><line style="stroke:#181818;stroke-width:0.5;" x1="2626.5" x2="2709.5" y1="100.5" y2="100.5"/><text fill="#000000" font-family="sans-serif" font-size="14" lengthAdjust="spacing" textLength="73" x="2631.5" y="119.0332">AVAILABLE</text><text fill="#000000" font-family="sans-serif" font-size="14" lengthAdjust="spacing" textLength="59" x="2631.5" y="136.6426">BOOKED</text><text fill="#000000" font-family="sans-serif" font-size="14" lengthAdjust="spacing" textLength="58" x="2631.5" y="154.252">OFFLINE</text><line style="stroke:#181818;stroke-width:0.5;" x1="2626.5" x2="2709.5" y1="161.3281" y2="161.3281"/></g><!--class Taxi--><g id="elem_Taxi"><rect codeLine="67" fill="#F1F1F1" height="153.6563" id="Taxi" rx="2.5" ry="2.5" style="stroke:#181818;stroke-width:0.5;" width="410" x="2180" y="42"/><ellipse cx="2367.75" cy="58" fill="#ADD1B2" rx="11" ry="11" style="stroke:#181818;stroke-width:1.0;"/><path d="M2370.5156,53.875 Q2370.6719,53.6563 2370.8594,53.5469 Q2371.0469,53.4375 2371.2656,53.4375 Q2371.6406,53.4375 2371.875,53.7031 Q2372.1094,53.9531 2372.1094,54.5625 L2372.1094,56.0156 Q2372.1094,56.625 2371.875,56.8906 Q2371.6406,57.1563 2371.2656,57.1563 Q2370.9219,57.1563 2370.7188,56.9531 Q2370.5156,56.7656 2370.4063,56.25 Q2370.3594,55.8906 2370.1719,55.7031 Q2369.8438,55.3281 2369.2344,55.1094 Q2368.625,54.8906 2368,54.8906 Q2367.2344,54.8906 2366.5938,55.2188 Q2365.9688,55.5469 2365.4688,56.2969 Q2364.9844,57.0469 2364.9844,58.0781 L2364.9844,59.1719 Q2364.9844,60.4063 2365.875,61.2344 Q2366.7656,62.0469 2368.3594,62.0469 Q2369.2969,62.0469 2369.9531,61.7969 Q2370.3438,61.6406 2370.7656,61.2031 Q2371.0313,60.9375 2371.1719,60.8594 Q2371.3281,60.7813 2371.5313,60.7813 Q2371.8594,60.7813 2372.1094,61.0469 Q2372.375,61.2969 2372.375,61.6406 Q2372.375,61.9844 2372.0313,62.3906 Q2371.5313,62.9688 2370.7344,63.2969 Q2369.6563,63.75 2368.3594,63.75 Q2366.8438,63.75 2365.6406,63.125 Q2364.6563,62.625 2363.9688,61.5625 Q2363.2813,60.4844 2363.2813,59.2031 L2363.2813,58.0469 Q2363.2813,56.7188 2363.8906,55.5781 Q2364.5156,54.4219 2365.6094,53.8125 Q2366.7031,53.1875 2367.9375,53.1875 Q2368.6719,53.1875 2369.3125,53.3594 Q2369.9688,53.5156 2370.5156,53.875 Z " fill="#000000"/><text fill="#000000" font-family="sans-serif" font-size="14" lengthAdjust="spacing" textLength="26" x="2388.25" y="63.7285">Taxi</text><line style="stroke:#181818;stroke-width:0.5;" x1="2181" x2="2589" y1="74" y2="74"/><ellipse cx="2191" cy="88.3047" fill="none" rx="3" ry="3" style="stroke:#038048;stroke-width:1.0;"/><text fill="#000000" font-family="sans-serif" font-size="14" lengthAdjust="spacing" textLength="63" x="2200" y="92.5332">id: Integer</text><ellipse cx="2191" cy="105.9141" fill="none" rx="3" ry="3" style="stroke:#038048;stroke-width:1.0;"/><text fill="#000000" font-family="sans-serif" font-size="14" lengthAdjust="spacing" textLength="129" x="2200" y="110.1426">numberPlate : String</text><ellipse cx="2191" cy="123.5234" fill="none" rx="3" ry="3" style="stroke:#038048;stroke-width:1.0;"/><text fill="#000000" font-family="sans-serif" font-size="14" lengthAdjust="spacing" textLength="86" x="2200" y="127.752">status: Status</text><line style="stroke:#181818;stroke-width:0.5;" x1="2181" x2="2589" y1="134.8281" y2="134.8281"/><ellipse cx="2191" cy="149.1328" fill="#84BE84" rx="3" ry="3" style="stroke:#038048;stroke-width:1.0;"/><text fill="#000000" font-family="sans-serif" font-size="14" lengthAdjust="spacing" textLength="129" x="2200" y="153.3613">publishStatus(): void</text><ellipse cx="2191" cy="166.7422" fill="#84BE84" rx="3" ry="3" style="stroke:#038048;stroke-width:1.0;"/><text fill="#000000" font-family="sans-serif" font-size="14" lengthAdjust="spacing" textLength="194" x="2200" y="170.9707">getCurrentLocation(): Location</text><ellipse cx="2191" cy="184.3516" fill="#84BE84" rx="3" ry="3" style="stroke:#038048;stroke-width:1.0;"/><text fill="#000000" font-family="sans-serif" font-size="14" lengthAdjust="spacing" textLength="384" x="2200" y="188.5801">respondToBooking(request:BookingRequest): TaxiResponse</text></g><!--class Filter--><g id="elem_Filter"><rect codeLine="78" fill="#F1F1F1" height="65.6094" id="Filter" rx="2.5" ry="2.5" style="stroke:#181818;stroke-width:0.5;" width="173" x="710.5" y="86"/><ellipse cx="776.75" cy="102" fill="#ADD1B2" rx="11" ry="11" style="stroke:#181818;stroke-width:1.0;"/><path d="M779.5156,97.875 Q779.6719,97.6563 779.8594,97.5469 Q780.0469,97.4375 780.2656,97.4375 Q780.6406,97.4375 780.875,97.7031 Q781.1094,97.9531 781.1094,98.5625 L781.1094,100.0156 Q781.1094,100.625 780.875,100.8906 Q780.6406,101.1563 780.2656,101.1563 Q779.9219,101.1563 779.7188,100.9531 Q779.5156,100.7656 779.4063,100.25 Q779.3594,99.8906 779.1719,99.7031 Q778.8438,99.3281 778.2344,99.1094 Q777.625,98.8906 777,98.8906 Q776.2344,98.8906 775.5938,99.2188 Q774.9688,99.5469 774.4688,100.2969 Q773.9844,101.0469 773.9844,102.0781 L773.9844,103.1719 Q773.9844,104.4063 774.875,105.2344 Q775.7656,106.0469 777.3594,106.0469 Q778.2969,106.0469 778.9531,105.7969 Q779.3438,105.6406 779.7656,105.2031 Q780.0313,104.9375 780.1719,104.8594 Q780.3281,104.7813 780.5313,104.7813 Q780.8594,104.7813 781.1094,105.0469 Q781.375,105.2969 781.375,105.6406 Q781.375,105.9844 781.0313,106.3906 Q780.5313,106.9688 779.7344,107.2969 Q778.6563,107.75 777.3594,107.75 Q775.8438,107.75 774.6406,107.125 Q773.6563,106.625 772.9688,105.5625 Q772.2813,104.4844 772.2813,103.2031 L772.2813,102.0469 Q772.2813,100.7188 772.8906,99.5781 Q773.5156,98.4219 774.6094,97.8125 Q775.7031,97.1875 776.9375,97.1875 Q777.6719,97.1875 778.3125,97.3594 Q778.9688,97.5156 779.5156,97.875 Z " fill="#000000"/><text fill="#000000" font-family="sans-serif" font-size="14" lengthAdjust="spacing" textLength="32" x="797.25" y="107.7285">Filter</text><line style="stroke:#181818;stroke-width:0.5;" x1="711.5" x2="882.5" y1="118" y2="118"/><line style="stroke:#181818;stroke-width:0.5;" x1="711.5" x2="882.5" y1="126" y2="126"/><ellipse cx="721.5" cy="140.3047" fill="#84BE84" rx="3" ry="3" style="stroke:#038048;stroke-width:1.0;"/><text fill="#000000" font-family="sans-serif" font-size="14" lengthAdjust="spacing" textLength="147" x="730.5" y="144.5332">apply(item: T): Boolean</text></g><!--class BookingCenter--><g id="elem_BookingCenter"><rect codeLine="82" fill="#F1F1F1" height="83.2188" id="BookingCenter" rx="2.5" ry="2.5" style="stroke:#181818;stroke-width:0.5;" width="437" x="918.5" y="77.5"/><ellipse cx="1085.75" cy="93.5" fill="#ADD1B2" rx="11" ry="11" style="stroke:#181818;stroke-width:1.0;"/><path d="M1088.5156,89.375 Q1088.6719,89.1563 1088.8594,89.0469 Q1089.0469,88.9375 1089.2656,88.9375 Q1089.6406,88.9375 1089.875,89.2031 Q1090.1094,89.4531 1090.1094,90.0625 L1090.1094,91.5156 Q1090.1094,92.125 1089.875,92.3906 Q1089.6406,92.6563 1089.2656,92.6563 Q1088.9219,92.6563 1088.7188,92.4531 Q1088.5156,92.2656 1088.4063,91.75 Q1088.3594,91.3906 1088.1719,91.2031 Q1087.8438,90.8281 1087.2344,90.6094 Q1086.625,90.3906 1086,90.3906 Q1085.2344,90.3906 1084.5938,90.7188 Q1083.9688,91.0469 1083.4688,91.7969 Q1082.9844,92.5469 1082.9844,93.5781 L1082.9844,94.6719 Q1082.9844,95.9063 1083.875,96.7344 Q1084.7656,97.5469 1086.3594,97.5469 Q1087.2969,97.5469 1087.9531,97.2969 Q1088.3438,97.1406 1088.7656,96.7031 Q1089.0313,96.4375 1089.1719,96.3594 Q1089.3281,96.2813 1089.5313,96.2813 Q1089.8594,96.2813 1090.1094,96.5469 Q1090.375,96.7969 1090.375,97.1406 Q1090.375,97.4844 1090.0313,97.8906 Q1089.5313,98.4688 1088.7344,98.7969 Q1087.6563,99.25 1086.3594,99.25 Q1084.8438,99.25 1083.6406,98.625 Q1082.6563,98.125 1081.9688,97.0625 Q1081.2813,95.9844 1081.2813,94.7031 L1081.2813,93.5469 Q1081.2813,92.2188 1081.8906,91.0781 Q1082.5156,89.9219 1083.6094,89.3125 Q1084.7031,88.6875 1085.9375,88.6875 Q1086.6719,88.6875 1087.3125,88.8594 Q1087.9688,89.0156 1088.5156,89.375 Z " fill="#000000"/><text fill="#000000" font-family="sans-serif" font-size="14" lengthAdjust="spacing" textLength="94" x="1106.25" y="99.2285">BookingCenter</text><line style="stroke:#181818;stroke-width:0.5;" x1="919.5" x2="1354.5" y1="109.5" y2="109.5"/><line style="stroke:#181818;stroke-width:0.5;" x1="919.5" x2="1354.5" y1="117.5" y2="117.5"/><ellipse cx="929.5" cy="131.8047" fill="#84BE84" rx="3" ry="3" style="stroke:#038048;stroke-width:1.0;"/><text fill="#000000" font-family="sans-serif" font-size="14" lengthAdjust="spacing" textLength="302" x="938.5" y="136.0332">publishBooking(booking: BookingRequest): void</text><ellipse cx="929.5" cy="149.4141" fill="#84BE84" rx="3" ry="3" style="stroke:#038048;stroke-width:1.0;"/><text fill="#000000" font-family="sans-serif" font-size="14" lengthAdjust="spacing" textLength="411" x="938.5" y="153.6426">queryBooking(Collection&lt;Filter&lt;Booking&gt;&gt;): Collection&lt;Booking&gt;</text></g><!--class TaxiFleet--><g id="elem_TaxiFleet"><rect codeLine="87" fill="#F1F1F1" height="83.2188" id="TaxiFleet" rx="2.5" ry="2.5" style="stroke:#181818;stroke-width:0.5;" width="369" x="612.5" y="302.5"/><ellipse cx="763.75" cy="318.5" fill="#ADD1B2" rx="11" ry="11" style="stroke:#181818;stroke-width:1.0;"/><path d="M766.5156,314.375 Q766.6719,314.1563 766.8594,314.0469 Q767.0469,313.9375 767.2656,313.9375 Q767.6406,313.9375 767.875,314.2031 Q768.1094,314.4531 768.1094,315.0625 L768.1094,316.5156 Q768.1094,317.125 767.875,317.3906 Q767.6406,317.6563 767.2656,317.6563 Q766.9219,317.6563 766.7188,317.4531 Q766.5156,317.2656 766.4063,316.75 Q766.3594,316.3906 766.1719,316.2031 Q765.8438,315.8281 765.2344,315.6094 Q764.625,315.3906 764,315.3906 Q763.2344,315.3906 762.5938,315.7188 Q761.9688,316.0469 761.4688,316.7969 Q760.9844,317.5469 760.9844,318.5781 L760.9844,319.6719 Q760.9844,320.9063 761.875,321.7344 Q762.7656,322.5469 764.3594,322.5469 Q765.2969,322.5469 765.9531,322.2969 Q766.3438,322.1406 766.7656,321.7031 Q767.0313,321.4375 767.1719,321.3594 Q767.3281,321.2813 767.5313,321.2813 Q767.8594,321.2813 768.1094,321.5469 Q768.375,321.7969 768.375,322.1406 Q768.375,322.4844 768.0313,322.8906 Q767.5313,323.4688 766.7344,323.7969 Q765.6563,324.25 764.3594,324.25 Q762.8438,324.25 761.6406,323.625 Q760.6563,323.125 759.9688,322.0625 Q759.2813,320.9844 759.2813,319.7031 L759.2813,318.5469 Q759.2813,317.2188 759.8906,316.0781 Q760.5156,314.9219 761.6094,314.3125 Q762.7031,313.6875 763.9375,313.6875 Q764.6719,313.6875 765.3125,313.8594 Q765.9688,314.0156 766.5156,314.375 Z " fill="#000000"/><text fill="#000000" font-family="sans-serif" font-size="14" lengthAdjust="spacing" textLength="58" x="784.25" y="324.2285">TaxiFleet</text><line style="stroke:#181818;stroke-width:0.5;" x1="613.5" x2="980.5" y1="334.5" y2="334.5"/><line style="stroke:#181818;stroke-width:0.5;" x1="613.5" x2="980.5" y1="342.5" y2="342.5"/><ellipse cx="623.5" cy="356.8047" fill="#84BE84" rx="3" ry="3" style="stroke:#038048;stroke-width:1.0;"/><text fill="#000000" font-family="sans-serif" font-size="14" lengthAdjust="spacing" textLength="343" x="632.5" y="361.0332">queryTaxis(Collection&lt;Filter&lt;Taxi&gt;&gt;): Collection&lt;Taxi&gt;</text><ellipse cx="623.5" cy="374.4141" fill="#84BE84" rx="3" ry="3" style="stroke:#038048;stroke-width:1.0;"/><text fill="#000000" font-family="sans-serif" font-size="14" lengthAdjust="spacing" textLength="192" x="632.5" y="378.6426">getAvailableTaxis(): List&lt;Taxi&gt;</text></g><!--class CommunicationService--><g id="elem_CommunicationService"><rect codeLine="92" fill="#F1F1F1" height="100.8281" id="CommunicationService" rx="2.5" ry="2.5" style="stroke:#181818;stroke-width:0.5;" width="460" x="1017" y="293.5"/><ellipse cx="1170.75" cy="309.5" fill="#ADD1B2" rx="11" ry="11" style="stroke:#181818;stroke-width:1.0;"/><path d="M1173.5156,305.375 Q1173.6719,305.1563 1173.8594,305.0469 Q1174.0469,304.9375 1174.2656,304.9375 Q1174.6406,304.9375 1174.875,305.2031 Q1175.1094,305.4531 1175.1094,306.0625 L1175.1094,307.5156 Q1175.1094,308.125 1174.875,308.3906 Q1174.6406,308.6563 1174.2656,308.6563 Q1173.9219,308.6563 1173.7188,308.4531 Q1173.5156,308.2656 1173.4063,307.75 Q1173.3594,307.3906 1173.1719,307.2031 Q1172.8438,306.8281 1172.2344,306.6094 Q1171.625,306.3906 1171,306.3906 Q1170.2344,306.3906 1169.5938,306.7188 Q1168.9688,307.0469 1168.4688,307.7969 Q1167.9844,308.5469 1167.9844,309.5781 L1167.9844,310.6719 Q1167.9844,311.9063 1168.875,312.7344 Q1169.7656,313.5469 1171.3594,313.5469 Q1172.2969,313.5469 1172.9531,313.2969 Q1173.3438,313.1406 1173.7656,312.7031 Q1174.0313,312.4375 1174.1719,312.3594 Q1174.3281,312.2813 1174.5313,312.2813 Q1174.8594,312.2813 1175.1094,312.5469 Q1175.375,312.7969 1175.375,313.1406 Q1175.375,313.4844 1175.0313,313.8906 Q1174.5313,314.4688 1173.7344,314.7969 Q1172.6563,315.25 1171.3594,315.25 Q1169.8438,315.25 1168.6406,314.625 Q1167.6563,314.125 1166.9688,313.0625 Q1166.2813,311.9844 1166.2813,310.7031 L1166.2813,309.5469 Q1166.2813,308.2188 1166.8906,307.0781 Q1167.5156,305.9219 1168.6094,305.3125 Q1169.7031,304.6875 1170.9375,304.6875 Q1171.6719,304.6875 1172.3125,304.8594 Q1172.9688,305.0156 1173.5156,305.375 Z " fill="#000000"/><text fill="#000000" font-family="sans-serif" font-size="14" lengthAdjust="spacing" textLength="144" x="1191.25" y="315.2285">CommunicationService</text><line style="stroke:#181818;stroke-width:0.5;" x1="1018" x2="1476" y1="325.5" y2="325.5"/><line style="stroke:#181818;stroke-width:0.5;" x1="1018" x2="1476" y1="333.5" y2="333.5"/><ellipse cx="1028" cy="347.8047" fill="#84BE84" rx="3" ry="3" style="stroke:#038048;stroke-width:1.0;"/><text fill="#000000" font-family="sans-serif" font-size="14" lengthAdjust="spacing" textLength="353" x="1037" y="352.0332">publishBookingRequest(request: BookingRequest): void</text><ellipse cx="1028" cy="365.4141" fill="#84BE84" rx="3" ry="3" style="stroke:#038048;stroke-width:1.0;"/><text fill="#000000" font-family="sans-serif" font-size="14" lengthAdjust="spacing" textLength="359" x="1037" y="369.6426">handleTaxiResponse(response: BookingResponse): void</text><ellipse cx="1028" cy="383.0234" fill="#84BE84" rx="3" ry="3" style="stroke:#038048;stroke-width:1.0;"/><text fill="#000000" font-family="sans-serif" font-size="14" lengthAdjust="spacing" textLength="434" x="1037" y="387.252">notifyTaxis(taxis: List&lt;Taxi&gt;, bookingRequest: BookingRequest): void</text></g><!--class Location--><g id="elem_Location"><rect codeLine="2" fill="#F1F1F1" height="83.2188" id="Location" rx="2.5" ry="2.5" style="stroke:#181818;stroke-width:0.5;" width="135" x="1509.5" y="77.5"/><ellipse cx="1546.55" cy="93.5" fill="#ADD1B2" rx="11" ry="11" style="stroke:#181818;stroke-width:1.0;"/><path d="M1549.3156,89.375 Q1549.4719,89.1563 1549.6594,89.0469 Q1549.8469,88.9375 1550.0656,88.9375 Q1550.4406,88.9375 1550.675,89.2031 Q1550.9094,89.4531 1550.9094,90.0625 L1550.9094,91.5156 Q1550.9094,92.125 1550.675,92.3906 Q1550.4406,92.6563 1550.0656,92.6563 Q1549.7219,92.6563 1549.5188,92.4531 Q1549.3156,92.2656 1549.2063,91.75 Q1549.1594,91.3906 1548.9719,91.2031 Q1548.6438,90.8281 1548.0344,90.6094 Q1547.425,90.3906 1546.8,90.3906 Q1546.0344,90.3906 1545.3938,90.7188 Q1544.7688,91.0469 1544.2688,91.7969 Q1543.7844,92.5469 1543.7844,93.5781 L1543.7844,94.6719 Q1543.7844,95.9063 1544.675,96.7344 Q1545.5656,97.5469 1547.1594,97.5469 Q1548.0969,97.5469 1548.7531,97.2969 Q1549.1438,97.1406 1549.5656,96.7031 Q1549.8313,96.4375 1549.9719,96.3594 Q1550.1281,96.2813 1550.3313,96.2813 Q1550.6594,96.2813 1550.9094,96.5469 Q1551.175,96.7969 1551.175,97.1406 Q1551.175,97.4844 1550.8313,97.8906 Q1550.3313,98.4688 1549.5344,98.7969 Q1548.4563,99.25 1547.1594,99.25 Q1545.6438,99.25 1544.4406,98.625 Q1543.4563,98.125 1542.7688,97.0625 Q1542.0813,95.9844 1542.0813,94.7031 L1542.0813,93.5469 Q1542.0813,92.2188 1542.6906,91.0781 Q1543.3156,89.9219 1544.4094,89.3125 Q1545.5031,88.6875 1546.7375,88.6875 Q1547.4719,88.6875 1548.1125,88.8594 Q1548.7688,89.0156 1549.3156,89.375 Z " fill="#000000"/><text fill="#000000" font-family="sans-serif" font-size="14" lengthAdjust="spacing" textLength="54" x="1565.45" y="99.2285">Location</text><line style="stroke:#181818;stroke-width:0.5;" x1="1510.5" x2="1643.5" y1="109.5" y2="109.5"/><ellipse cx="1520.5" cy="123.8047" fill="none" rx="3" ry="3" style="stroke:#038048;stroke-width:1.0;"/><text fill="#000000" font-family="sans-serif" font-size="14" lengthAdjust="spacing" textLength="97" x="1529.5" y="128.0332">latitude: double</text><ellipse cx="1520.5" cy="141.4141" fill="none" rx="3" ry="3" style="stroke:#038048;stroke-width:1.0;"/><text fill="#000000" font-family="sans-serif" font-size="14" lengthAdjust="spacing" textLength="109" x="1529.5" y="145.6426">longitude: double</text><line style="stroke:#181818;stroke-width:0.5;" x1="1510.5" x2="1643.5" y1="152.7188" y2="152.7188"/></g><!--class User--><g id="elem_User"><rect codeLine="7" fill="#F1F1F1" height="136.0469" id="User" rx="2.5" ry="2.5" style="stroke:#181818;stroke-width:0.5;" width="465" x="1679.5" y="51"/><ellipse cx="1893.25" cy="67" fill="#ADD1B2" rx="11" ry="11" style="stroke:#181818;stroke-width:1.0;"/><path d="M1896.0156,62.875 Q1896.1719,62.6563 1896.3594,62.5469 Q1896.5469,62.4375 1896.7656,62.4375 Q1897.1406,62.4375 1897.375,62.7031 Q1897.6094,62.9531 1897.6094,63.5625 L1897.6094,65.0156 Q1897.6094,65.625 1897.375,65.8906 Q1897.1406,66.1563 1896.7656,66.1563 Q1896.4219,66.1563 1896.2188,65.9531 Q1896.0156,65.7656 1895.9063,65.25 Q1895.8594,64.8906 1895.6719,64.7031 Q1895.3438,64.3281 1894.7344,64.1094 Q1894.125,63.8906 1893.5,63.8906 Q1892.7344,63.8906 1892.0938,64.2188 Q1891.4688,64.5469 1890.9688,65.2969 Q1890.4844,66.0469 1890.4844,67.0781 L1890.4844,68.1719 Q1890.4844,69.4063 1891.375,70.2344 Q1892.2656,71.0469 1893.8594,71.0469 Q1894.7969,71.0469 1895.4531,70.7969 Q1895.8438,70.6406 1896.2656,70.2031 Q1896.5313,69.9375 1896.6719,69.8594 Q1896.8281,69.7813 1897.0313,69.7813 Q1897.3594,69.7813 1897.6094,70.0469 Q1897.875,70.2969 1897.875,70.6406 Q1897.875,70.9844 1897.5313,71.3906 Q1897.0313,71.9688 1896.2344,72.2969 Q1895.1563,72.75 1893.8594,72.75 Q1892.3438,72.75 1891.1406,72.125 Q1890.1563,71.625 1889.4688,70.5625 Q1888.7813,69.4844 1888.7813,68.2031 L1888.7813,67.0469 Q1888.7813,65.7188 1889.3906,64.5781 Q1890.0156,63.4219 1891.1094,62.8125 Q1892.2031,62.1875 1893.4375,62.1875 Q1894.1719,62.1875 1894.8125,62.3594 Q1895.4688,62.5156 1896.0156,62.875 Z " fill="#000000"/><text fill="#000000" font-family="sans-serif" font-size="14" lengthAdjust="spacing" textLength="29" x="1913.75" y="72.7285">User</text><line style="stroke:#181818;stroke-width:0.5;" x1="1680.5" x2="2143.5" y1="83" y2="83"/><ellipse cx="1690.5" cy="97.3047" fill="none" rx="3" ry="3" style="stroke:#038048;stroke-width:1.0;"/><text fill="#000000" font-family="sans-serif" font-size="14" lengthAdjust="spacing" textLength="63" x="1699.5" y="101.5332">id: Integer</text><ellipse cx="1690.5" cy="114.9141" fill="none" rx="3" ry="3" style="stroke:#038048;stroke-width:1.0;"/><text fill="#000000" font-family="sans-serif" font-size="14" lengthAdjust="spacing" textLength="80" x="1699.5" y="119.1426">name: String</text><line style="stroke:#181818;stroke-width:0.5;" x1="1680.5" x2="2143.5" y1="126.2188" y2="126.2188"/><ellipse cx="1690.5" cy="140.5234" fill="#84BE84" rx="3" ry="3" style="stroke:#038048;stroke-width:1.0;"/><text fill="#000000" font-family="sans-serif" font-size="14" lengthAdjust="spacing" textLength="439" x="1699.5" y="144.752">requestBooking(pickup: Location, dropoff: Location): BookingRequest</text><ellipse cx="1690.5" cy="158.1328" fill="#84BE84" rx="3" ry="3" style="stroke:#038048;stroke-width:1.0;"/><text fill="#000000" font-family="sans-serif" font-size="14" lengthAdjust="spacing" textLength="322" x="1699.5" y="162.3613">viewBookingStatus(request: BookingRequest): void</text><ellipse cx="1690.5" cy="175.7422" fill="#84BE84" rx="3" ry="3" style="stroke:#038048;stroke-width:1.0;"/><text fill="#000000" font-family="sans-serif" font-size="14" lengthAdjust="spacing" textLength="340" x="1699.5" y="179.9707">cancelBooking(cancelBooking: BookingRequest): void</text></g><!--link BookingRequest to Booking--><g id="link_BookingRequest_Booking"><path codeLine="57" d="M115.66,196.12 C115.54,221.99 115.4363,244.6901 115.3263,269.8001 " fill="none" id="BookingRequest-to-Booking" style="stroke:#181818;stroke-width:1.0;"/><polygon fill="#181818" points="115.3,275.8,119.3394,266.8176,115.3219,270.8,111.3395,266.7826,115.3,275.8" style="stroke:#181818;stroke-width:1.0;"/><text fill="#000000" font-family="sans-serif" font-size="13" lengthAdjust="spacing" textLength="55" x="116" y="242.4951">Becomes</text><text fill="#000000" font-family="sans-serif" font-size="13" lengthAdjust="spacing" textLength="7" x="108.318" y="217.2271">1</text><text fill="#000000" font-family="sans-serif" font-size="13" lengthAdjust="spacing" textLength="22" x="92.1297" y="264.9774">0..1</text></g><!--SRC=[ZLNBZfim5DtdAonMgJepQhTe52aXP4HB8CgaLRSEt6IiW4snIJkAvjzhOmCcv55M-FW-pxbSaWnpZaAMO44OHQSHai_dJ9v4bOABKbPjCp0ee_i-_34Q9NM07npAnfcaBWgeW3sK6g0ubowleYHqhv4IVbV0nOonWyJ61KaELU6sPJoWj6G5s-qww9EBZFLQ- -f0Hm9_3FugiAZus8G-DvV-HqPIxPLWca3MPE-Thld9JWkS7F0Ua6CidDEe3WUqof4nrqKO9jIpygDv4BsqvxN_pVSs_hm5_5-hO6tE7rR03VvBri0BHZbOyQQUvwysxN7kUs4G-RQt5gJVXHLW84yDLb8_jrQnmxGgZG2T59s5KUcMYP5ZGzG8pB40zTPTyveljq_VZMu6VDJjc2J1tCwhJLsRnm790xcyE5e4wwMbJnoznBQ0NhnSXRwje3UDF3yC-nhswhvB_vMXxGo4xCAjPwB3jjhs7hMzpyCkyMn4dAyEUdoS8EVBqvDyRKftvRn3mdBWZlqHg59EDuYS_fm6uNGM-YqoY-FlDg-BnUN9LP7l4YPpRg5SoJq5gBTQUgrRFUk9bakBy3UpAUoLK5_lGNXLMG8LpHmhcqiphSOftR1cWpJo3LR7XU6p5yaY0n1eYQayvJAjO_hMH2n89g2qcC15aRsFYO1SHjOBCGDChuwT9qEsQzaceAbxUtldjMuIBTyR9uzb6IIAaMTTuREvcKoaetNRm9SbrhsVpfAe6tuXXSBFuzTOJxtf4PCCon-J3gF48rnOXhqgF9Rd5ILQtLSeZoI1wsGPRlxd_r9xls6QwaAQ0HYtE-bydmsSAHDaPyXGdpwtEtb0srxgMwMeUVi7]--></g></svg>