<?xml version="1.0" encoding="us-ascii" standalone="no"?><svg xmlns="http://www.w3.org/2000/svg" xmlns:xlink="http://www.w3.org/1999/xlink" contentStyleType="text/css" height="523px" preserveAspectRatio="none" style="width:3522px;height:523px;background:#FFFFFF;" version="1.1" viewBox="0 0 3522 523" width="3522px" zoomAndPan="magnify"><defs/><g><!--cluster Booking--><g id="cluster_Booking"><path d="M8.5,6 L67.5,6 A3.75,3.75 0 0 1 70,8.5 L77,29.6094 L730.5,29.6094 A2.5,2.5 0 0 1 733,32.1094 L733,513.5 A2.5,2.5 0 0 1 730.5,516 L8.5,516 A2.5,2.5 0 0 1 6,513.5 L6,8.5 A2.5,2.5 0 0 1 8.5,6 " fill="none" style="stroke:#000000;stroke-width:1.5;"/><line style="stroke:#000000;stroke-width:1.5;" x1="6" x2="77" y1="29.6094" y2="29.6094"/><text fill="#000000" font-family="sans-serif" font-size="14" font-weight="bold" lengthAdjust="spacing" textLength="58" x="10" y="22.5332">Booking</text></g><!--cluster Taxi--><g id="cluster_Taxi"><path d="M2938.5,6 L2967.5,6 A3.75,3.75 0 0 1 2970,8.5 L2977,29.6094 L3512.5,29.6094 A2.5,2.5 0 0 1 3515,32.1094 L3515,209.5 A2.5,2.5 0 0 1 3512.5,212 L2938.5,212 A2.5,2.5 0 0 1 2936,209.5 L2936,8.5 A2.5,2.5 0 0 1 2938.5,6 " fill="none" style="stroke:#000000;stroke-width:1.5;"/><line style="stroke:#000000;stroke-width:1.5;" x1="2936" x2="2977" y1="29.6094" y2="29.6094"/><text fill="#000000" font-family="sans-serif" font-size="14" font-weight="bold" lengthAdjust="spacing" textLength="28" x="2940" y="22.5332">Taxi</text></g><!--cluster Fleet Management--><g id="cluster_Fleet Management"><path d="M759.5,32.5 L891.5,32.5 A3.75,3.75 0 0 1 894,35 L901,56.1094 L2262.5,56.1094 A2.5,2.5 0 0 1 2265,58.6094 L2265,452 A2.5,2.5 0 0 1 2262.5,454.5 L759.5,454.5 A2.5,2.5 0 0 1 757,452 L757,35 A2.5,2.5 0 0 1 759.5,32.5 " fill="none" style="stroke:#000000;stroke-width:1.5;"/><line style="stroke:#000000;stroke-width:1.5;" x1="757" x2="901" y1="56.1094" y2="56.1094"/><text fill="#000000" font-family="sans-serif" font-size="14" font-weight="bold" lengthAdjust="spacing" textLength="131" x="761" y="49.0332">Fleet Management</text></g><!--class RequestStatus--><g id="elem_RequestStatus"><rect codeLine="16" fill="#F1F1F1" height="100.8281" id="RequestStatus" rx="2.5" ry="2.5" style="stroke:#181818;stroke-width:0.5;" width="125" x="404.5" y="68.5"/><ellipse cx="419.5" cy="84.5" fill="#EB937F" rx="11" ry="11" style="stroke:#181818;stroke-width:1.0;"/><path d="M418.3594,85.2969 L418.3594,87.7969 L422.6875,87.7969 L422.6875,86.875 Q422.6875,86.2656 422.9219,86 Q423.1719,85.7344 423.5469,85.7344 Q423.9219,85.7344 424.1563,86 Q424.3906,86.2656 424.3906,86.875 L424.3906,89.5 L416.3906,89.5 Q415.7656,89.5 415.5,89.2656 Q415.25,89.0313 415.25,88.6406 Q415.25,88.2656 415.5156,88.0313 Q415.7813,87.7969 416.3906,87.7969 L416.6563,87.7969 L416.6563,81.1406 L416.3906,81.1406 Q415.7656,81.1406 415.5,80.9063 Q415.25,80.6719 415.25,80.2813 Q415.25,79.9063 415.5,79.6719 Q415.7656,79.4375 416.3906,79.4375 L424.0156,79.4375 L424.0156,82.0313 Q424.0156,82.6406 423.7813,82.9063 Q423.5625,83.1563 423.1719,83.1563 Q422.7969,83.1563 422.5625,82.9063 Q422.3281,82.6406 422.3281,82.0313 L422.3281,81.1406 L418.3594,81.1406 L418.3594,83.5938 L419.8438,83.5938 Q419.8438,82.9375 419.9688,82.75 Q420.2344,82.3438 420.7031,82.3438 Q421.0781,82.3438 421.3125,82.6094 Q421.5469,82.8594 421.5469,83.4688 L421.5469,85.4375 Q421.5469,85.9844 421.4219,86.1719 Q421.1563,86.5625 420.7031,86.5625 Q420.2344,86.5625 419.9688,86.1563 Q419.8438,85.9688 419.8438,85.2969 L418.3594,85.2969 Z " fill="#000000"/><text fill="#000000" font-family="sans-serif" font-size="14" lengthAdjust="spacing" textLength="93" x="433.5" y="90.2285">RequestStatus</text><line style="stroke:#181818;stroke-width:0.5;" x1="405.5" x2="528.5" y1="100.5" y2="100.5"/><text fill="#000000" font-family="sans-serif" font-size="14" lengthAdjust="spacing" textLength="60" x="410.5" y="119.0332">PENDING</text><text fill="#000000" font-family="sans-serif" font-size="14" lengthAdjust="spacing" textLength="72" x="410.5" y="136.6426">REJECTED</text><text fill="#000000" font-family="sans-serif" font-size="14" lengthAdjust="spacing" textLength="58" x="410.5" y="154.252">EXPIRED</text><line style="stroke:#181818;stroke-width:0.5;" x1="405.5" x2="528.5" y1="161.3281" y2="161.3281"/></g><!--class TaxiResponse--><g id="elem_TaxiResponse"><rect codeLine="22" fill="#F1F1F1" height="83.2188" id="TaxiResponse" rx="2.5" ry="2.5" style="stroke:#181818;stroke-width:0.5;" width="122" x="565" y="77.5"/><ellipse cx="580" cy="93.5" fill="#EB937F" rx="11" ry="11" style="stroke:#181818;stroke-width:1.0;"/><path d="M578.8594,94.2969 L578.8594,96.7969 L583.1875,96.7969 L583.1875,95.875 Q583.1875,95.2656 583.4219,95 Q583.6719,94.7344 584.0469,94.7344 Q584.4219,94.7344 584.6563,95 Q584.8906,95.2656 584.8906,95.875 L584.8906,98.5 L576.8906,98.5 Q576.2656,98.5 576,98.2656 Q575.75,98.0313 575.75,97.6406 Q575.75,97.2656 576.0156,97.0313 Q576.2813,96.7969 576.8906,96.7969 L577.1563,96.7969 L577.1563,90.1406 L576.8906,90.1406 Q576.2656,90.1406 576,89.9063 Q575.75,89.6719 575.75,89.2813 Q575.75,88.9063 576,88.6719 Q576.2656,88.4375 576.8906,88.4375 L584.5156,88.4375 L584.5156,91.0313 Q584.5156,91.6406 584.2813,91.9063 Q584.0625,92.1563 583.6719,92.1563 Q583.2969,92.1563 583.0625,91.9063 Q582.8281,91.6406 582.8281,91.0313 L582.8281,90.1406 L578.8594,90.1406 L578.8594,92.5938 L580.3438,92.5938 Q580.3438,91.9375 580.4688,91.75 Q580.7344,91.3438 581.2031,91.3438 Q581.5781,91.3438 581.8125,91.6094 Q582.0469,91.8594 582.0469,92.4688 L582.0469,94.4375 Q582.0469,94.9844 581.9219,95.1719 Q581.6563,95.5625 581.2031,95.5625 Q580.7344,95.5625 580.4688,95.1563 Q580.3438,94.9688 580.3438,94.2969 L578.8594,94.2969 Z " fill="#000000"/><text fill="#000000" font-family="sans-serif" font-size="14" lengthAdjust="spacing" textLength="90" x="594" y="99.2285">TaxiResponse</text><line style="stroke:#181818;stroke-width:0.5;" x1="566" x2="686" y1="109.5" y2="109.5"/><text fill="#000000" font-family="sans-serif" font-size="14" lengthAdjust="spacing" textLength="56" x="571" y="128.0332">ACCEPT</text><text fill="#000000" font-family="sans-serif" font-size="14" lengthAdjust="spacing" textLength="58" x="571" y="145.6426">DECLINE</text><line style="stroke:#181818;stroke-width:0.5;" x1="566" x2="686" y1="152.7188" y2="152.7188"/></g><!--class BookingRequest--><g id="elem_BookingRequest"><rect codeLine="27" fill="#F1F1F1" height="153.6563" id="BookingRequest" rx="2.5" ry="2.5" style="stroke:#181818;stroke-width:0.5;" width="187" x="87.5" y="42"/><ellipse cx="125.45" cy="58" fill="#ADD1B2" rx="11" ry="11" style="stroke:#181818;stroke-width:1.0;"/><path d="M128.2156,53.875 Q128.3719,53.6563 128.5594,53.5469 Q128.7469,53.4375 128.9656,53.4375 Q129.3406,53.4375 129.575,53.7031 Q129.8094,53.9531 129.8094,54.5625 L129.8094,56.0156 Q129.8094,56.625 129.575,56.8906 Q129.3406,57.1563 128.9656,57.1563 Q128.6219,57.1563 128.4188,56.9531 Q128.2156,56.7656 128.1063,56.25 Q128.0594,55.8906 127.8719,55.7031 Q127.5438,55.3281 126.9344,55.1094 Q126.325,54.8906 125.7,54.8906 Q124.9344,54.8906 124.2938,55.2188 Q123.6688,55.5469 123.1688,56.2969 Q122.6844,57.0469 122.6844,58.0781 L122.6844,59.1719 Q122.6844,60.4063 123.575,61.2344 Q124.4656,62.0469 126.0594,62.0469 Q126.9969,62.0469 127.6531,61.7969 Q128.0438,61.6406 128.4656,61.2031 Q128.7313,60.9375 128.8719,60.8594 Q129.0281,60.7813 129.2313,60.7813 Q129.5594,60.7813 129.8094,61.0469 Q130.075,61.2969 130.075,61.6406 Q130.075,61.9844 129.7313,62.3906 Q129.2313,62.9688 128.4344,63.2969 Q127.3563,63.75 126.0594,63.75 Q124.5438,63.75 123.3406,63.125 Q122.3563,62.625 121.6688,61.5625 Q120.9813,60.4844 120.9813,59.2031 L120.9813,58.0469 Q120.9813,56.7188 121.5906,55.5781 Q122.2156,54.4219 123.3094,53.8125 Q124.4031,53.1875 125.6375,53.1875 Q126.3719,53.1875 127.0125,53.3594 Q127.6688,53.5156 128.2156,53.875 Z " fill="#000000"/><text fill="#000000" font-family="sans-serif" font-size="14" lengthAdjust="spacing" textLength="104" x="144.55" y="63.7285">BookingRequest</text><line style="stroke:#181818;stroke-width:0.5;" x1="88.5" x2="273.5" y1="74" y2="74"/><ellipse cx="98.5" cy="88.3047" fill="none" rx="3" ry="3" style="stroke:#038048;stroke-width:1.0;"/><text fill="#000000" font-family="sans-serif" font-size="14" lengthAdjust="spacing" textLength="63" x="107.5" y="92.5332">id: Integer</text><ellipse cx="98.5" cy="105.9141" fill="none" rx="3" ry="3" style="stroke:#038048;stroke-width:1.0;"/><text fill="#000000" font-family="sans-serif" font-size="14" lengthAdjust="spacing" textLength="65" x="107.5" y="110.1426">user: User</text><ellipse cx="98.5" cy="123.5234" fill="none" rx="3" ry="3" style="stroke:#038048;stroke-width:1.0;"/><text fill="#000000" font-family="sans-serif" font-size="14" lengthAdjust="spacing" textLength="157" x="107.5" y="127.752">pickupLocation: Location</text><ellipse cx="98.5" cy="141.1328" fill="none" rx="3" ry="3" style="stroke:#038048;stroke-width:1.0;"/><text fill="#000000" font-family="sans-serif" font-size="14" lengthAdjust="spacing" textLength="161" x="107.5" y="145.3613">dropoffLocation: Location</text><ellipse cx="98.5" cy="158.7422" fill="none" rx="3" ry="3" style="stroke:#038048;stroke-width:1.0;"/><text fill="#000000" font-family="sans-serif" font-size="14" lengthAdjust="spacing" textLength="148" x="107.5" y="162.9707">requestTime: DateTime</text><ellipse cx="98.5" cy="176.3516" fill="none" rx="3" ry="3" style="stroke:#038048;stroke-width:1.0;"/><text fill="#000000" font-family="sans-serif" font-size="14" lengthAdjust="spacing" textLength="139" x="107.5" y="180.5801">status: RequestStatus</text><line style="stroke:#181818;stroke-width:0.5;" x1="88.5" x2="273.5" y1="187.6563" y2="187.6563"/></g><!--class BookingResponse--><g id="elem_BookingResponse"><rect codeLine="36" fill="#F1F1F1" height="83.2188" id="BookingResponse" rx="2.5" ry="2.5" style="stroke:#181818;stroke-width:0.5;" width="183" x="375.5" y="346.5"/><ellipse cx="406.7" cy="362.5" fill="#ADD1B2" rx="11" ry="11" style="stroke:#181818;stroke-width:1.0;"/><path d="M409.4656,358.375 Q409.6219,358.1563 409.8094,358.0469 Q409.9969,357.9375 410.2156,357.9375 Q410.5906,357.9375 410.825,358.2031 Q411.0594,358.4531 411.0594,359.0625 L411.0594,360.5156 Q411.0594,361.125 410.825,361.3906 Q410.5906,361.6563 410.2156,361.6563 Q409.8719,361.6563 409.6688,361.4531 Q409.4656,361.2656 409.3563,360.75 Q409.3094,360.3906 409.1219,360.2031 Q408.7938,359.8281 408.1844,359.6094 Q407.575,359.3906 406.95,359.3906 Q406.1844,359.3906 405.5438,359.7188 Q404.9188,360.0469 404.4188,360.7969 Q403.9344,361.5469 403.9344,362.5781 L403.9344,363.6719 Q403.9344,364.9063 404.825,365.7344 Q405.7156,366.5469 407.3094,366.5469 Q408.2469,366.5469 408.9031,366.2969 Q409.2938,366.1406 409.7156,365.7031 Q409.9813,365.4375 410.1219,365.3594 Q410.2781,365.2813 410.4813,365.2813 Q410.8094,365.2813 411.0594,365.5469 Q411.325,365.7969 411.325,366.1406 Q411.325,366.4844 410.9813,366.8906 Q410.4813,367.4688 409.6844,367.7969 Q408.6063,368.25 407.3094,368.25 Q405.7938,368.25 404.5906,367.625 Q403.6063,367.125 402.9188,366.0625 Q402.2313,364.9844 402.2313,363.7031 L402.2313,362.5469 Q402.2313,361.2188 402.8406,360.0781 Q403.4656,358.9219 404.5594,358.3125 Q405.6531,357.6875 406.8875,357.6875 Q407.6219,357.6875 408.2625,357.8594 Q408.9188,358.0156 409.4656,358.375 Z " fill="#000000"/><text fill="#000000" font-family="sans-serif" font-size="14" lengthAdjust="spacing" textLength="115" x="424.3" y="368.2285">BookingResponse</text><line style="stroke:#181818;stroke-width:0.5;" x1="376.5" x2="557.5" y1="378.5" y2="378.5"/><ellipse cx="386.5" cy="392.8047" fill="none" rx="3" ry="3" style="stroke:#038048;stroke-width:1.0;"/><text fill="#000000" font-family="sans-serif" font-size="14" lengthAdjust="spacing" textLength="80" x="395.5" y="397.0332">id: requestID</text><ellipse cx="386.5" cy="410.4141" fill="none" rx="3" ry="3" style="stroke:#038048;stroke-width:1.0;"/><text fill="#000000" font-family="sans-serif" font-size="14" lengthAdjust="spacing" textLength="157" x="395.5" y="414.6426">response: TaxiResponse</text><line style="stroke:#181818;stroke-width:0.5;" x1="376.5" x2="557.5" y1="421.7188" y2="421.7188"/></g><!--class BookingStatus--><g id="elem_BookingStatus"><rect codeLine="41" fill="#F1F1F1" height="118.4375" id="BookingStatus" rx="2.5" ry="2.5" style="stroke:#181818;stroke-width:0.5;" width="123" x="593.5" y="329"/><ellipse cx="608.5" cy="345" fill="#EB937F" rx="11" ry="11" style="stroke:#181818;stroke-width:1.0;"/><path d="M607.3594,345.7969 L607.3594,348.2969 L611.6875,348.2969 L611.6875,347.375 Q611.6875,346.7656 611.9219,346.5 Q612.1719,346.2344 612.5469,346.2344 Q612.9219,346.2344 613.1563,346.5 Q613.3906,346.7656 613.3906,347.375 L613.3906,350 L605.3906,350 Q604.7656,350 604.5,349.7656 Q604.25,349.5313 604.25,349.1406 Q604.25,348.7656 604.5156,348.5313 Q604.7813,348.2969 605.3906,348.2969 L605.6563,348.2969 L605.6563,341.6406 L605.3906,341.6406 Q604.7656,341.6406 604.5,341.4063 Q604.25,341.1719 604.25,340.7813 Q604.25,340.4063 604.5,340.1719 Q604.7656,339.9375 605.3906,339.9375 L613.0156,339.9375 L613.0156,342.5313 Q613.0156,343.1406 612.7813,343.4063 Q612.5625,343.6563 612.1719,343.6563 Q611.7969,343.6563 611.5625,343.4063 Q611.3281,343.1406 611.3281,342.5313 L611.3281,341.6406 L607.3594,341.6406 L607.3594,344.0938 L608.8438,344.0938 Q608.8438,343.4375 608.9688,343.25 Q609.2344,342.8438 609.7031,342.8438 Q610.0781,342.8438 610.3125,343.1094 Q610.5469,343.3594 610.5469,343.9688 L610.5469,345.9375 Q610.5469,346.4844 610.4219,346.6719 Q610.1563,347.0625 609.7031,347.0625 Q609.2344,347.0625 608.9688,346.6563 Q608.8438,346.4688 608.8438,345.7969 L607.3594,345.7969 Z " fill="#000000"/><text fill="#000000" font-family="sans-serif" font-size="14" lengthAdjust="spacing" textLength="91" x="622.5" y="350.7285">BookingStatus</text><line style="stroke:#181818;stroke-width:0.5;" x1="594.5" x2="715.5" y1="361" y2="361"/><text fill="#000000" font-family="sans-serif" font-size="14" lengthAdjust="spacing" textLength="82" x="599.5" y="379.5332">CONFIRMED</text><text fill="#000000" font-family="sans-serif" font-size="14" lengthAdjust="spacing" textLength="65" x="599.5" y="397.1426">ONGOING</text><text fill="#000000" font-family="sans-serif" font-size="14" lengthAdjust="spacing" textLength="86" x="599.5" y="414.752">COMPLETED</text><text fill="#000000" font-family="sans-serif" font-size="14" lengthAdjust="spacing" textLength="82" x="599.5" y="432.3613">CANCELLED</text><line style="stroke:#181818;stroke-width:0.5;" x1="594.5" x2="715.5" y1="439.4375" y2="439.4375"/></g><!--class Booking--><g id="elem_Booking"><rect codeLine="48" fill="#F1F1F1" height="224.0938" id="Booking" rx="2.5" ry="2.5" style="stroke:#181818;stroke-width:0.5;" width="318" x="22" y="276"/><ellipse cx="151.25" cy="292" fill="#ADD1B2" rx="11" ry="11" style="stroke:#181818;stroke-width:1.0;"/><path d="M154.0156,287.875 Q154.1719,287.6563 154.3594,287.5469 Q154.5469,287.4375 154.7656,287.4375 Q155.1406,287.4375 155.375,287.7031 Q155.6094,287.9531 155.6094,288.5625 L155.6094,290.0156 Q155.6094,290.625 155.375,290.8906 Q155.1406,291.1563 154.7656,291.1563 Q154.4219,291.1563 154.2188,290.9531 Q154.0156,290.7656 153.9063,290.25 Q153.8594,289.8906 153.6719,289.7031 Q153.3438,289.3281 152.7344,289.1094 Q152.125,288.8906 151.5,288.8906 Q150.7344,288.8906 150.0938,289.2188 Q149.4688,289.5469 148.9688,290.2969 Q148.4844,291.0469 148.4844,292.0781 L148.4844,293.1719 Q148.4844,294.4063 149.375,295.2344 Q150.2656,296.0469 151.8594,296.0469 Q152.7969,296.0469 153.4531,295.7969 Q153.8438,295.6406 154.2656,295.2031 Q154.5313,294.9375 154.6719,294.8594 Q154.8281,294.7813 155.0313,294.7813 Q155.3594,294.7813 155.6094,295.0469 Q155.875,295.2969 155.875,295.6406 Q155.875,295.9844 155.5313,296.3906 Q155.0313,296.9688 154.2344,297.2969 Q153.1563,297.75 151.8594,297.75 Q150.3438,297.75 149.1406,297.125 Q148.1563,296.625 147.4688,295.5625 Q146.7813,294.4844 146.7813,293.2031 L146.7813,292.0469 Q146.7813,290.7188 147.3906,289.5781 Q148.0156,288.4219 149.1094,287.8125 Q150.2031,287.1875 151.4375,287.1875 Q152.1719,287.1875 152.8125,287.3594 Q153.4688,287.5156 154.0156,287.875 Z " fill="#000000"/><text fill="#000000" font-family="sans-serif" font-size="14" lengthAdjust="spacing" textLength="51" x="171.75" y="297.7285">Booking</text><line style="stroke:#181818;stroke-width:0.5;" x1="23" x2="339" y1="308" y2="308"/><ellipse cx="33" cy="322.3047" fill="none" rx="3" ry="3" style="stroke:#038048;stroke-width:1.0;"/><text fill="#000000" font-family="sans-serif" font-size="14" lengthAdjust="spacing" textLength="63" x="42" y="326.5332">id: Integer</text><ellipse cx="33" cy="339.9141" fill="none" rx="3" ry="3" style="stroke:#038048;stroke-width:1.0;"/><text fill="#000000" font-family="sans-serif" font-size="14" lengthAdjust="spacing" textLength="160" x="42" y="344.1426">request: BookingRequest</text><ellipse cx="33" cy="357.5234" fill="none" rx="3" ry="3" style="stroke:#038048;stroke-width:1.0;"/><text fill="#000000" font-family="sans-serif" font-size="14" lengthAdjust="spacing" textLength="117" x="42" y="361.752">assignedTaxi: Taxi</text><ellipse cx="33" cy="375.1328" fill="none" rx="3" ry="3" style="stroke:#038048;stroke-width:1.0;"/><text fill="#000000" font-family="sans-serif" font-size="14" lengthAdjust="spacing" textLength="150" x="42" y="379.3613">bookingTime: DateTime</text><ellipse cx="33" cy="392.7422" fill="none" rx="3" ry="3" style="stroke:#038048;stroke-width:1.0;"/><text fill="#000000" font-family="sans-serif" font-size="14" lengthAdjust="spacing" textLength="137" x="42" y="396.9707">status: BookingStatus</text><line style="stroke:#181818;stroke-width:0.5;" x1="23" x2="339" y1="404.0469" y2="404.0469"/><ellipse cx="33" cy="418.3516" fill="#84BE84" rx="3" ry="3" style="stroke:#038048;stroke-width:1.0;"/><text fill="#000000" font-family="sans-serif" font-size="14" lengthAdjust="spacing" textLength="166" x="42" y="422.5801">assignTaxi(taxi: Taxi): void</text><ellipse cx="33" cy="435.9609" fill="#84BE84" rx="3" ry="3" style="stroke:#038048;stroke-width:1.0;"/><text fill="#000000" font-family="sans-serif" font-size="14" lengthAdjust="spacing" textLength="85" x="42" y="440.1895">cancel(): void</text><ellipse cx="33" cy="453.5703" fill="#84BE84" rx="3" ry="3" style="stroke:#038048;stroke-width:1.0;"/><text fill="#000000" font-family="sans-serif" font-size="14" lengthAdjust="spacing" textLength="118" x="42" y="457.7988">complete(): double</text><ellipse cx="33" cy="471.1797" fill="#84BE84" rx="3" ry="3" style="stroke:#038048;stroke-width:1.0;"/><text fill="#000000" font-family="sans-serif" font-size="14" lengthAdjust="spacing" textLength="147" x="42" y="475.4082">calculateFare(): double</text><ellipse cx="33" cy="488.7891" fill="#84BE84" rx="3" ry="3" style="stroke:#038048;stroke-width:1.0;"/><text fill="#000000" font-family="sans-serif" font-size="14" lengthAdjust="spacing" textLength="292" x="42" y="493.0176">updateStatus(newStatus: BookingStatus): void</text></g><!--class TaxiStatus--><g id="elem_TaxiStatus"><rect codeLine="65" fill="#F1F1F1" height="100.8281" id="TaxiStatus" rx="2.5" ry="2.5" style="stroke:#181818;stroke-width:0.5;" width="98" x="3401" y="68.5"/><ellipse cx="3416" cy="84.5" fill="#EB937F" rx="11" ry="11" style="stroke:#181818;stroke-width:1.0;"/><path d="M3414.8594,85.2969 L3414.8594,87.7969 L3419.1875,87.7969 L3419.1875,86.875 Q3419.1875,86.2656 3419.4219,86 Q3419.6719,85.7344 3420.0469,85.7344 Q3420.4219,85.7344 3420.6563,86 Q3420.8906,86.2656 3420.8906,86.875 L3420.8906,89.5 L3412.8906,89.5 Q3412.2656,89.5 3412,89.2656 Q3411.75,89.0313 3411.75,88.6406 Q3411.75,88.2656 3412.0156,88.0313 Q3412.2813,87.7969 3412.8906,87.7969 L3413.1563,87.7969 L3413.1563,81.1406 L3412.8906,81.1406 Q3412.2656,81.1406 3412,80.9063 Q3411.75,80.6719 3411.75,80.2813 Q3411.75,79.9063 3412,79.6719 Q3412.2656,79.4375 3412.8906,79.4375 L3420.5156,79.4375 L3420.5156,82.0313 Q3420.5156,82.6406 3420.2813,82.9063 Q3420.0625,83.1563 3419.6719,83.1563 Q3419.2969,83.1563 3419.0625,82.9063 Q3418.8281,82.6406 3418.8281,82.0313 L3418.8281,81.1406 L3414.8594,81.1406 L3414.8594,83.5938 L3416.3438,83.5938 Q3416.3438,82.9375 3416.4688,82.75 Q3416.7344,82.3438 3417.2031,82.3438 Q3417.5781,82.3438 3417.8125,82.6094 Q3418.0469,82.8594 3418.0469,83.4688 L3418.0469,85.4375 Q3418.0469,85.9844 3417.9219,86.1719 Q3417.6563,86.5625 3417.2031,86.5625 Q3416.7344,86.5625 3416.4688,86.1563 Q3416.3438,85.9688 3416.3438,85.2969 L3414.8594,85.2969 Z " fill="#000000"/><text fill="#000000" font-family="sans-serif" font-size="14" lengthAdjust="spacing" textLength="66" x="3430" y="90.2285">TaxiStatus</text><line style="stroke:#181818;stroke-width:0.5;" x1="3402" x2="3498" y1="100.5" y2="100.5"/><text fill="#000000" font-family="sans-serif" font-size="14" lengthAdjust="spacing" textLength="73" x="3407" y="119.0332">AVAILABLE</text><text fill="#000000" font-family="sans-serif" font-size="14" lengthAdjust="spacing" textLength="59" x="3407" y="136.6426">BOOKED</text><text fill="#000000" font-family="sans-serif" font-size="14" lengthAdjust="spacing" textLength="58" x="3407" y="154.252">OFFLINE</text><line style="stroke:#181818;stroke-width:0.5;" x1="3402" x2="3498" y1="161.3281" y2="161.3281"/></g><!--class Taxi--><g id="elem_Taxi"><rect codeLine="71" fill="#F1F1F1" height="153.6563" id="Taxi" rx="2.5" ry="2.5" style="stroke:#181818;stroke-width:0.5;" width="414" x="2952" y="42"/><ellipse cx="3141.75" cy="58" fill="#ADD1B2" rx="11" ry="11" style="stroke:#181818;stroke-width:1.0;"/><path d="M3144.5156,53.875 Q3144.6719,53.6563 3144.8594,53.5469 Q3145.0469,53.4375 3145.2656,53.4375 Q3145.6406,53.4375 3145.875,53.7031 Q3146.1094,53.9531 3146.1094,54.5625 L3146.1094,56.0156 Q3146.1094,56.625 3145.875,56.8906 Q3145.6406,57.1563 3145.2656,57.1563 Q3144.9219,57.1563 3144.7188,56.9531 Q3144.5156,56.7656 3144.4063,56.25 Q3144.3594,55.8906 3144.1719,55.7031 Q3143.8438,55.3281 3143.2344,55.1094 Q3142.625,54.8906 3142,54.8906 Q3141.2344,54.8906 3140.5938,55.2188 Q3139.9688,55.5469 3139.4688,56.2969 Q3138.9844,57.0469 3138.9844,58.0781 L3138.9844,59.1719 Q3138.9844,60.4063 3139.875,61.2344 Q3140.7656,62.0469 3142.3594,62.0469 Q3143.2969,62.0469 3143.9531,61.7969 Q3144.3438,61.6406 3144.7656,61.2031 Q3145.0313,60.9375 3145.1719,60.8594 Q3145.3281,60.7813 3145.5313,60.7813 Q3145.8594,60.7813 3146.1094,61.0469 Q3146.375,61.2969 3146.375,61.6406 Q3146.375,61.9844 3146.0313,62.3906 Q3145.5313,62.9688 3144.7344,63.2969 Q3143.6563,63.75 3142.3594,63.75 Q3140.8438,63.75 3139.6406,63.125 Q3138.6563,62.625 3137.9688,61.5625 Q3137.2813,60.4844 3137.2813,59.2031 L3137.2813,58.0469 Q3137.2813,56.7188 3137.8906,55.5781 Q3138.5156,54.4219 3139.6094,53.8125 Q3140.7031,53.1875 3141.9375,53.1875 Q3142.6719,53.1875 3143.3125,53.3594 Q3143.9688,53.5156 3144.5156,53.875 Z " fill="#000000"/><text fill="#000000" font-family="sans-serif" font-size="14" lengthAdjust="spacing" textLength="26" x="3162.25" y="63.7285">Taxi</text><line style="stroke:#181818;stroke-width:0.5;" x1="2953" x2="3365" y1="74" y2="74"/><ellipse cx="2963" cy="88.3047" fill="none" rx="3" ry="3" style="stroke:#038048;stroke-width:1.0;"/><text fill="#000000" font-family="sans-serif" font-size="14" lengthAdjust="spacing" textLength="63" x="2972" y="92.5332">id: Integer</text><ellipse cx="2963" cy="105.9141" fill="none" rx="3" ry="3" style="stroke:#038048;stroke-width:1.0;"/><text fill="#000000" font-family="sans-serif" font-size="14" lengthAdjust="spacing" textLength="125" x="2972" y="110.1426">numberPlate: String</text><ellipse cx="2963" cy="123.5234" fill="none" rx="3" ry="3" style="stroke:#038048;stroke-width:1.0;"/><text fill="#000000" font-family="sans-serif" font-size="14" lengthAdjust="spacing" textLength="112" x="2972" y="127.752">status: TaxiStatus</text><line style="stroke:#181818;stroke-width:0.5;" x1="2953" x2="3365" y1="134.8281" y2="134.8281"/><ellipse cx="2963" cy="149.1328" fill="#84BE84" rx="3" ry="3" style="stroke:#038048;stroke-width:1.0;"/><text fill="#000000" font-family="sans-serif" font-size="14" lengthAdjust="spacing" textLength="128" x="2972" y="153.3613">updateStatus(): void</text><ellipse cx="2963" cy="166.7422" fill="#84BE84" rx="3" ry="3" style="stroke:#038048;stroke-width:1.0;"/><text fill="#000000" font-family="sans-serif" font-size="14" lengthAdjust="spacing" textLength="194" x="2972" y="170.9707">getCurrentLocation(): Location</text><ellipse cx="2963" cy="184.3516" fill="#84BE84" rx="3" ry="3" style="stroke:#038048;stroke-width:1.0;"/><text fill="#000000" font-family="sans-serif" font-size="14" lengthAdjust="spacing" textLength="388" x="2972" y="188.5801">respondToBooking(request: BookingRequest): TaxiResponse</text></g><!--class Filter--><g id="elem_Filter"><rect codeLine="82" fill="#F1F1F1" height="65.6094" id="Filter" rx="2.5" ry="2.5" style="stroke:#181818;stroke-width:0.5;" width="173" x="916.5" y="86"/><ellipse cx="982.75" cy="102" fill="#ADD1B2" rx="11" ry="11" style="stroke:#181818;stroke-width:1.0;"/><path d="M985.5156,97.875 Q985.6719,97.6563 985.8594,97.5469 Q986.0469,97.4375 986.2656,97.4375 Q986.6406,97.4375 986.875,97.7031 Q987.1094,97.9531 987.1094,98.5625 L987.1094,100.0156 Q987.1094,100.625 986.875,100.8906 Q986.6406,101.1563 986.2656,101.1563 Q985.9219,101.1563 985.7188,100.9531 Q985.5156,100.7656 985.4063,100.25 Q985.3594,99.8906 985.1719,99.7031 Q984.8438,99.3281 984.2344,99.1094 Q983.625,98.8906 983,98.8906 Q982.2344,98.8906 981.5938,99.2188 Q980.9688,99.5469 980.4688,100.2969 Q979.9844,101.0469 979.9844,102.0781 L979.9844,103.1719 Q979.9844,104.4063 980.875,105.2344 Q981.7656,106.0469 983.3594,106.0469 Q984.2969,106.0469 984.9531,105.7969 Q985.3438,105.6406 985.7656,105.2031 Q986.0313,104.9375 986.1719,104.8594 Q986.3281,104.7813 986.5313,104.7813 Q986.8594,104.7813 987.1094,105.0469 Q987.375,105.2969 987.375,105.6406 Q987.375,105.9844 987.0313,106.3906 Q986.5313,106.9688 985.7344,107.2969 Q984.6563,107.75 983.3594,107.75 Q981.8438,107.75 980.6406,107.125 Q979.6563,106.625 978.9688,105.5625 Q978.2813,104.4844 978.2813,103.2031 L978.2813,102.0469 Q978.2813,100.7188 978.8906,99.5781 Q979.5156,98.4219 980.6094,97.8125 Q981.7031,97.1875 982.9375,97.1875 Q983.6719,97.1875 984.3125,97.3594 Q984.9688,97.5156 985.5156,97.875 Z " fill="#000000"/><text fill="#000000" font-family="sans-serif" font-size="14" lengthAdjust="spacing" textLength="32" x="1003.25" y="107.7285">Filter</text><line style="stroke:#181818;stroke-width:0.5;" x1="917.5" x2="1088.5" y1="118" y2="118"/><line style="stroke:#181818;stroke-width:0.5;" x1="917.5" x2="1088.5" y1="126" y2="126"/><ellipse cx="927.5" cy="140.3047" fill="#84BE84" rx="3" ry="3" style="stroke:#038048;stroke-width:1.0;"/><text fill="#000000" font-family="sans-serif" font-size="14" lengthAdjust="spacing" textLength="147" x="936.5" y="144.5332">apply(item: T): Boolean</text></g><!--class BookingCenter--><g id="elem_BookingCenter"><rect codeLine="86" fill="#F1F1F1" height="100.8281" id="BookingCenter" rx="2.5" ry="2.5" style="stroke:#181818;stroke-width:0.5;" width="479" x="1124.5" y="68.5"/><ellipse cx="1312.75" cy="84.5" fill="#ADD1B2" rx="11" ry="11" style="stroke:#181818;stroke-width:1.0;"/><path d="M1315.5156,80.375 Q1315.6719,80.1563 1315.8594,80.0469 Q1316.0469,79.9375 1316.2656,79.9375 Q1316.6406,79.9375 1316.875,80.2031 Q1317.1094,80.4531 1317.1094,81.0625 L1317.1094,82.5156 Q1317.1094,83.125 1316.875,83.3906 Q1316.6406,83.6563 1316.2656,83.6563 Q1315.9219,83.6563 1315.7188,83.4531 Q1315.5156,83.2656 1315.4063,82.75 Q1315.3594,82.3906 1315.1719,82.2031 Q1314.8438,81.8281 1314.2344,81.6094 Q1313.625,81.3906 1313,81.3906 Q1312.2344,81.3906 1311.5938,81.7188 Q1310.9688,82.0469 1310.4688,82.7969 Q1309.9844,83.5469 1309.9844,84.5781 L1309.9844,85.6719 Q1309.9844,86.9063 1310.875,87.7344 Q1311.7656,88.5469 1313.3594,88.5469 Q1314.2969,88.5469 1314.9531,88.2969 Q1315.3438,88.1406 1315.7656,87.7031 Q1316.0313,87.4375 1316.1719,87.3594 Q1316.3281,87.2813 1316.5313,87.2813 Q1316.8594,87.2813 1317.1094,87.5469 Q1317.375,87.7969 1317.375,88.1406 Q1317.375,88.4844 1317.0313,88.8906 Q1316.5313,89.4688 1315.7344,89.7969 Q1314.6563,90.25 1313.3594,90.25 Q1311.8438,90.25 1310.6406,89.625 Q1309.6563,89.125 1308.9688,88.0625 Q1308.2813,86.9844 1308.2813,85.7031 L1308.2813,84.5469 Q1308.2813,83.2188 1308.8906,82.0781 Q1309.5156,80.9219 1310.6094,80.3125 Q1311.7031,79.6875 1312.9375,79.6875 Q1313.6719,79.6875 1314.3125,79.8594 Q1314.9688,80.0156 1315.5156,80.375 Z " fill="#000000"/><text fill="#000000" font-family="sans-serif" font-size="14" lengthAdjust="spacing" textLength="94" x="1333.25" y="90.2285">BookingCenter</text><line style="stroke:#181818;stroke-width:0.5;" x1="1125.5" x2="1602.5" y1="100.5" y2="100.5"/><line style="stroke:#181818;stroke-width:0.5;" x1="1125.5" x2="1602.5" y1="108.5" y2="108.5"/><ellipse cx="1135.5" cy="122.8047" fill="#84BE84" rx="3" ry="3" style="stroke:#038048;stroke-width:1.0;"/><text fill="#000000" font-family="sans-serif" font-size="14" lengthAdjust="spacing" textLength="302" x="1144.5" y="127.0332">publishBooking(booking: BookingRequest): void</text><ellipse cx="1135.5" cy="140.4141" fill="#84BE84" rx="3" ry="3" style="stroke:#038048;stroke-width:1.0;"/><text fill="#000000" font-family="sans-serif" font-size="14" lengthAdjust="spacing" textLength="453" x="1144.5" y="144.6426">queryBooking(filters: Collection&lt;Filter&lt;Booking&gt;&gt;): Collection&lt;Booking&gt;</text><ellipse cx="1135.5" cy="158.0234" fill="#84BE84" rx="3" ry="3" style="stroke:#038048;stroke-width:1.0;"/><text fill="#000000" font-family="sans-serif" font-size="14" lengthAdjust="spacing" textLength="359" x="1144.5" y="162.252">handleTaxiResponse(response: BookingResponse): void</text></g><!--class TaxiFleet--><g id="elem_TaxiFleet"><rect codeLine="92" fill="#F1F1F1" height="83.2188" id="TaxiFleet" rx="2.5" ry="2.5" style="stroke:#181818;stroke-width:0.5;" width="411" x="1638.5" y="77.5"/><ellipse cx="1810.75" cy="93.5" fill="#ADD1B2" rx="11" ry="11" style="stroke:#181818;stroke-width:1.0;"/><path d="M1813.5156,89.375 Q1813.6719,89.1563 1813.8594,89.0469 Q1814.0469,88.9375 1814.2656,88.9375 Q1814.6406,88.9375 1814.875,89.2031 Q1815.1094,89.4531 1815.1094,90.0625 L1815.1094,91.5156 Q1815.1094,92.125 1814.875,92.3906 Q1814.6406,92.6563 1814.2656,92.6563 Q1813.9219,92.6563 1813.7188,92.4531 Q1813.5156,92.2656 1813.4063,91.75 Q1813.3594,91.3906 1813.1719,91.2031 Q1812.8438,90.8281 1812.2344,90.6094 Q1811.625,90.3906 1811,90.3906 Q1810.2344,90.3906 1809.5938,90.7188 Q1808.9688,91.0469 1808.4688,91.7969 Q1807.9844,92.5469 1807.9844,93.5781 L1807.9844,94.6719 Q1807.9844,95.9063 1808.875,96.7344 Q1809.7656,97.5469 1811.3594,97.5469 Q1812.2969,97.5469 1812.9531,97.2969 Q1813.3438,97.1406 1813.7656,96.7031 Q1814.0313,96.4375 1814.1719,96.3594 Q1814.3281,96.2813 1814.5313,96.2813 Q1814.8594,96.2813 1815.1094,96.5469 Q1815.375,96.7969 1815.375,97.1406 Q1815.375,97.4844 1815.0313,97.8906 Q1814.5313,98.4688 1813.7344,98.7969 Q1812.6563,99.25 1811.3594,99.25 Q1809.8438,99.25 1808.6406,98.625 Q1807.6563,98.125 1806.9688,97.0625 Q1806.2813,95.9844 1806.2813,94.7031 L1806.2813,93.5469 Q1806.2813,92.2188 1806.8906,91.0781 Q1807.5156,89.9219 1808.6094,89.3125 Q1809.7031,88.6875 1810.9375,88.6875 Q1811.6719,88.6875 1812.3125,88.8594 Q1812.9688,89.0156 1813.5156,89.375 Z " fill="#000000"/><text fill="#000000" font-family="sans-serif" font-size="14" lengthAdjust="spacing" textLength="58" x="1831.25" y="99.2285">TaxiFleet</text><line style="stroke:#181818;stroke-width:0.5;" x1="1639.5" x2="2048.5" y1="109.5" y2="109.5"/><line style="stroke:#181818;stroke-width:0.5;" x1="1639.5" x2="2048.5" y1="117.5" y2="117.5"/><ellipse cx="1649.5" cy="131.8047" fill="#84BE84" rx="3" ry="3" style="stroke:#038048;stroke-width:1.0;"/><text fill="#000000" font-family="sans-serif" font-size="14" lengthAdjust="spacing" textLength="385" x="1658.5" y="136.0332">queryTaxis(filters: Collection&lt;Filter&lt;Taxi&gt;&gt;): Collection&lt;Taxi&gt;</text><ellipse cx="1649.5" cy="149.4141" fill="#84BE84" rx="3" ry="3" style="stroke:#038048;stroke-width:1.0;"/><text fill="#000000" font-family="sans-serif" font-size="14" lengthAdjust="spacing" textLength="192" x="1658.5" y="153.6426">getAvailableTaxis(): List&lt;Taxi&gt;</text></g><!--class CommunicationService--><g id="elem_CommunicationService"><rect codeLine="97" fill="#F1F1F1" height="83.2188" id="CommunicationService" rx="2.5" ry="2.5" style="stroke:#181818;stroke-width:0.5;" width="460" x="773" y="346.5"/><ellipse cx="926.75" cy="362.5" fill="#ADD1B2" rx="11" ry="11" style="stroke:#181818;stroke-width:1.0;"/><path d="M929.5156,358.375 Q929.6719,358.1563 929.8594,358.0469 Q930.0469,357.9375 930.2656,357.9375 Q930.6406,357.9375 930.875,358.2031 Q931.1094,358.4531 931.1094,359.0625 L931.1094,360.5156 Q931.1094,361.125 930.875,361.3906 Q930.6406,361.6563 930.2656,361.6563 Q929.9219,361.6563 929.7188,361.4531 Q929.5156,361.2656 929.4063,360.75 Q929.3594,360.3906 929.1719,360.2031 Q928.8438,359.8281 928.2344,359.6094 Q927.625,359.3906 927,359.3906 Q926.2344,359.3906 925.5938,359.7188 Q924.9688,360.0469 924.4688,360.7969 Q923.9844,361.5469 923.9844,362.5781 L923.9844,363.6719 Q923.9844,364.9063 924.875,365.7344 Q925.7656,366.5469 927.3594,366.5469 Q928.2969,366.5469 928.9531,366.2969 Q929.3438,366.1406 929.7656,365.7031 Q930.0313,365.4375 930.1719,365.3594 Q930.3281,365.2813 930.5313,365.2813 Q930.8594,365.2813 931.1094,365.5469 Q931.375,365.7969 931.375,366.1406 Q931.375,366.4844 931.0313,366.8906 Q930.5313,367.4688 929.7344,367.7969 Q928.6563,368.25 927.3594,368.25 Q925.8438,368.25 924.6406,367.625 Q923.6563,367.125 922.9688,366.0625 Q922.2813,364.9844 922.2813,363.7031 L922.2813,362.5469 Q922.2813,361.2188 922.8906,360.0781 Q923.5156,358.9219 924.6094,358.3125 Q925.7031,357.6875 926.9375,357.6875 Q927.6719,357.6875 928.3125,357.8594 Q928.9688,358.0156 929.5156,358.375 Z " fill="#000000"/><text fill="#000000" font-family="sans-serif" font-size="14" lengthAdjust="spacing" textLength="144" x="947.25" y="368.2285">CommunicationService</text><line style="stroke:#181818;stroke-width:0.5;" x1="774" x2="1232" y1="378.5" y2="378.5"/><line style="stroke:#181818;stroke-width:0.5;" x1="774" x2="1232" y1="386.5" y2="386.5"/><ellipse cx="784" cy="400.8047" fill="#84BE84" rx="3" ry="3" style="stroke:#038048;stroke-width:1.0;"/><text fill="#000000" font-family="sans-serif" font-size="14" lengthAdjust="spacing" textLength="353" x="793" y="405.0332">publishBookingRequest(request: BookingRequest): void</text><ellipse cx="784" cy="418.4141" fill="#84BE84" rx="3" ry="3" style="stroke:#038048;stroke-width:1.0;"/><text fill="#000000" font-family="sans-serif" font-size="14" lengthAdjust="spacing" textLength="434" x="793" y="422.6426">notifyTaxis(taxis: List&lt;Taxi&gt;, bookingRequest: BookingRequest): void</text></g><!--class DashboardService--><g id="elem_DashboardService"><rect codeLine="102" fill="#F1F1F1" height="83.2188" id="DashboardService" rx="2.5" ry="2.5" style="stroke:#181818;stroke-width:0.5;" width="532" x="1268" y="346.5"/><ellipse cx="1471.25" cy="362.5" fill="#ADD1B2" rx="11" ry="11" style="stroke:#181818;stroke-width:1.0;"/><path d="M1474.0156,358.375 Q1474.1719,358.1563 1474.3594,358.0469 Q1474.5469,357.9375 1474.7656,357.9375 Q1475.1406,357.9375 1475.375,358.2031 Q1475.6094,358.4531 1475.6094,359.0625 L1475.6094,360.5156 Q1475.6094,361.125 1475.375,361.3906 Q1475.1406,361.6563 1474.7656,361.6563 Q1474.4219,361.6563 1474.2188,361.4531 Q1474.0156,361.2656 1473.9063,360.75 Q1473.8594,360.3906 1473.6719,360.2031 Q1473.3438,359.8281 1472.7344,359.6094 Q1472.125,359.3906 1471.5,359.3906 Q1470.7344,359.3906 1470.0938,359.7188 Q1469.4688,360.0469 1468.9688,360.7969 Q1468.4844,361.5469 1468.4844,362.5781 L1468.4844,363.6719 Q1468.4844,364.9063 1469.375,365.7344 Q1470.2656,366.5469 1471.8594,366.5469 Q1472.7969,366.5469 1473.4531,366.2969 Q1473.8438,366.1406 1474.2656,365.7031 Q1474.5313,365.4375 1474.6719,365.3594 Q1474.8281,365.2813 1475.0313,365.2813 Q1475.3594,365.2813 1475.6094,365.5469 Q1475.875,365.7969 1475.875,366.1406 Q1475.875,366.4844 1475.5313,366.8906 Q1475.0313,367.4688 1474.2344,367.7969 Q1473.1563,368.25 1471.8594,368.25 Q1470.3438,368.25 1469.1406,367.625 Q1468.1563,367.125 1467.4688,366.0625 Q1466.7813,364.9844 1466.7813,363.7031 L1466.7813,362.5469 Q1466.7813,361.2188 1467.3906,360.0781 Q1468.0156,358.9219 1469.1094,358.3125 Q1470.2031,357.6875 1471.4375,357.6875 Q1472.1719,357.6875 1472.8125,357.8594 Q1473.4688,358.0156 1474.0156,358.375 Z " fill="#000000"/><text fill="#000000" font-family="sans-serif" font-size="14" lengthAdjust="spacing" textLength="117" x="1491.75" y="368.2285">DashboardService</text><line style="stroke:#181818;stroke-width:0.5;" x1="1269" x2="1799" y1="378.5" y2="378.5"/><line style="stroke:#181818;stroke-width:0.5;" x1="1269" x2="1799" y1="386.5" y2="386.5"/><ellipse cx="1279" cy="400.8047" fill="#84BE84" rx="3" ry="3" style="stroke:#038048;stroke-width:1.0;"/><text fill="#000000" font-family="sans-serif" font-size="14" lengthAdjust="spacing" textLength="506" x="1288" y="405.0332">generateBookingStats(filters: Collection&lt;Filter&lt;Booking&gt;&gt;): Collection&lt;Booking&gt;</text><ellipse cx="1279" cy="418.4141" fill="#84BE84" rx="3" ry="3" style="stroke:#038048;stroke-width:1.0;"/><text fill="#000000" font-family="sans-serif" font-size="14" lengthAdjust="spacing" textLength="431" x="1288" y="422.6426">generateTaxiStats(filters: Collection&lt;Filter&lt;Taxi&gt;&gt;): Collection&lt;Taxi&gt;</text></g><!--class Dashboard--><g id="elem_Dashboard"><rect codeLine="107" fill="#F1F1F1" height="100.8281" id="Dashboard" rx="2.5" ry="2.5" style="stroke:#181818;stroke-width:0.5;" width="414" x="1835" y="337.5"/><ellipse cx="2002.75" cy="353.5" fill="#ADD1B2" rx="11" ry="11" style="stroke:#181818;stroke-width:1.0;"/><path d="M2005.5156,349.375 Q2005.6719,349.1563 2005.8594,349.0469 Q2006.0469,348.9375 2006.2656,348.9375 Q2006.6406,348.9375 2006.875,349.2031 Q2007.1094,349.4531 2007.1094,350.0625 L2007.1094,351.5156 Q2007.1094,352.125 2006.875,352.3906 Q2006.6406,352.6563 2006.2656,352.6563 Q2005.9219,352.6563 2005.7188,352.4531 Q2005.5156,352.2656 2005.4063,351.75 Q2005.3594,351.3906 2005.1719,351.2031 Q2004.8438,350.8281 2004.2344,350.6094 Q2003.625,350.3906 2003,350.3906 Q2002.2344,350.3906 2001.5938,350.7188 Q2000.9688,351.0469 2000.4688,351.7969 Q1999.9844,352.5469 1999.9844,353.5781 L1999.9844,354.6719 Q1999.9844,355.9063 2000.875,356.7344 Q2001.7656,357.5469 2003.3594,357.5469 Q2004.2969,357.5469 2004.9531,357.2969 Q2005.3438,357.1406 2005.7656,356.7031 Q2006.0313,356.4375 2006.1719,356.3594 Q2006.3281,356.2813 2006.5313,356.2813 Q2006.8594,356.2813 2007.1094,356.5469 Q2007.375,356.7969 2007.375,357.1406 Q2007.375,357.4844 2007.0313,357.8906 Q2006.5313,358.4688 2005.7344,358.7969 Q2004.6563,359.25 2003.3594,359.25 Q2001.8438,359.25 2000.6406,358.625 Q1999.6563,358.125 1998.9688,357.0625 Q1998.2813,355.9844 1998.2813,354.7031 L1998.2813,353.5469 Q1998.2813,352.2188 1998.8906,351.0781 Q1999.5156,349.9219 2000.6094,349.3125 Q2001.7031,348.6875 2002.9375,348.6875 Q2003.6719,348.6875 2004.3125,348.8594 Q2004.9688,349.0156 2005.5156,349.375 Z " fill="#000000"/><text fill="#000000" font-family="sans-serif" font-size="14" lengthAdjust="spacing" textLength="70" x="2023.25" y="359.2285">Dashboard</text><line style="stroke:#181818;stroke-width:0.5;" x1="1836" x2="2248" y1="369.5" y2="369.5"/><line style="stroke:#181818;stroke-width:0.5;" x1="1836" x2="2248" y1="377.5" y2="377.5"/><ellipse cx="1846" cy="391.8047" fill="#84BE84" rx="3" ry="3" style="stroke:#038048;stroke-width:1.0;"/><text fill="#000000" font-family="sans-serif" font-size="14" lengthAdjust="spacing" textLength="188" x="1855" y="396.0332">renderInitialDashboard(): void</text><ellipse cx="1846" cy="409.4141" fill="#84BE84" rx="3" ry="3" style="stroke:#038048;stroke-width:1.0;"/><text fill="#000000" font-family="sans-serif" font-size="14" lengthAdjust="spacing" textLength="388" x="1855" y="413.6426">displayBookingStats(bookingData: Collection&lt;Booking&gt;): void</text><ellipse cx="1846" cy="427.0234" fill="#84BE84" rx="3" ry="3" style="stroke:#038048;stroke-width:1.0;"/><text fill="#000000" font-family="sans-serif" font-size="14" lengthAdjust="spacing" textLength="309" x="1855" y="431.252">displayTaxiStats(taxiData: Collection&lt;Taxi&gt;): void</text></g><!--class Location--><g id="elem_Location"><rect codeLine="2" fill="#F1F1F1" height="83.2188" id="Location" rx="2.5" ry="2.5" style="stroke:#181818;stroke-width:0.5;" width="135" x="2281.5" y="77.5"/><ellipse cx="2318.55" cy="93.5" fill="#ADD1B2" rx="11" ry="11" style="stroke:#181818;stroke-width:1.0;"/><path d="M2321.3156,89.375 Q2321.4719,89.1563 2321.6594,89.0469 Q2321.8469,88.9375 2322.0656,88.9375 Q2322.4406,88.9375 2322.675,89.2031 Q2322.9094,89.4531 2322.9094,90.0625 L2322.9094,91.5156 Q2322.9094,92.125 2322.675,92.3906 Q2322.4406,92.6563 2322.0656,92.6563 Q2321.7219,92.6563 2321.5188,92.4531 Q2321.3156,92.2656 2321.2063,91.75 Q2321.1594,91.3906 2320.9719,91.2031 Q2320.6438,90.8281 2320.0344,90.6094 Q2319.425,90.3906 2318.8,90.3906 Q2318.0344,90.3906 2317.3938,90.7188 Q2316.7688,91.0469 2316.2688,91.7969 Q2315.7844,92.5469 2315.7844,93.5781 L2315.7844,94.6719 Q2315.7844,95.9063 2316.675,96.7344 Q2317.5656,97.5469 2319.1594,97.5469 Q2320.0969,97.5469 2320.7531,97.2969 Q2321.1438,97.1406 2321.5656,96.7031 Q2321.8313,96.4375 2321.9719,96.3594 Q2322.1281,96.2813 2322.3313,96.2813 Q2322.6594,96.2813 2322.9094,96.5469 Q2323.175,96.7969 2323.175,97.1406 Q2323.175,97.4844 2322.8313,97.8906 Q2322.3313,98.4688 2321.5344,98.7969 Q2320.4563,99.25 2319.1594,99.25 Q2317.6438,99.25 2316.4406,98.625 Q2315.4563,98.125 2314.7688,97.0625 Q2314.0813,95.9844 2314.0813,94.7031 L2314.0813,93.5469 Q2314.0813,92.2188 2314.6906,91.0781 Q2315.3156,89.9219 2316.4094,89.3125 Q2317.5031,88.6875 2318.7375,88.6875 Q2319.4719,88.6875 2320.1125,88.8594 Q2320.7688,89.0156 2321.3156,89.375 Z " fill="#000000"/><text fill="#000000" font-family="sans-serif" font-size="14" lengthAdjust="spacing" textLength="54" x="2337.45" y="99.2285">Location</text><line style="stroke:#181818;stroke-width:0.5;" x1="2282.5" x2="2415.5" y1="109.5" y2="109.5"/><ellipse cx="2292.5" cy="123.8047" fill="none" rx="3" ry="3" style="stroke:#038048;stroke-width:1.0;"/><text fill="#000000" font-family="sans-serif" font-size="14" lengthAdjust="spacing" textLength="97" x="2301.5" y="128.0332">latitude: double</text><ellipse cx="2292.5" cy="141.4141" fill="none" rx="3" ry="3" style="stroke:#038048;stroke-width:1.0;"/><text fill="#000000" font-family="sans-serif" font-size="14" lengthAdjust="spacing" textLength="109" x="2301.5" y="145.6426">longitude: double</text><line style="stroke:#181818;stroke-width:0.5;" x1="2282.5" x2="2415.5" y1="152.7188" y2="152.7188"/></g><!--class User--><g id="elem_User"><rect codeLine="7" fill="#F1F1F1" height="136.0469" id="User" rx="2.5" ry="2.5" style="stroke:#181818;stroke-width:0.5;" width="465" x="2451.5" y="51"/><ellipse cx="2665.25" cy="67" fill="#ADD1B2" rx="11" ry="11" style="stroke:#181818;stroke-width:1.0;"/><path d="M2668.0156,62.875 Q2668.1719,62.6563 2668.3594,62.5469 Q2668.5469,62.4375 2668.7656,62.4375 Q2669.1406,62.4375 2669.375,62.7031 Q2669.6094,62.9531 2669.6094,63.5625 L2669.6094,65.0156 Q2669.6094,65.625 2669.375,65.8906 Q2669.1406,66.1563 2668.7656,66.1563 Q2668.4219,66.1563 2668.2188,65.9531 Q2668.0156,65.7656 2667.9063,65.25 Q2667.8594,64.8906 2667.6719,64.7031 Q2667.3438,64.3281 2666.7344,64.1094 Q2666.125,63.8906 2665.5,63.8906 Q2664.7344,63.8906 2664.0938,64.2188 Q2663.4688,64.5469 2662.9688,65.2969 Q2662.4844,66.0469 2662.4844,67.0781 L2662.4844,68.1719 Q2662.4844,69.4063 2663.375,70.2344 Q2664.2656,71.0469 2665.8594,71.0469 Q2666.7969,71.0469 2667.4531,70.7969 Q2667.8438,70.6406 2668.2656,70.2031 Q2668.5313,69.9375 2668.6719,69.8594 Q2668.8281,69.7813 2669.0313,69.7813 Q2669.3594,69.7813 2669.6094,70.0469 Q2669.875,70.2969 2669.875,70.6406 Q2669.875,70.9844 2669.5313,71.3906 Q2669.0313,71.9688 2668.2344,72.2969 Q2667.1563,72.75 2665.8594,72.75 Q2664.3438,72.75 2663.1406,72.125 Q2662.1563,71.625 2661.4688,70.5625 Q2660.7813,69.4844 2660.7813,68.2031 L2660.7813,67.0469 Q2660.7813,65.7188 2661.3906,64.5781 Q2662.0156,63.4219 2663.1094,62.8125 Q2664.2031,62.1875 2665.4375,62.1875 Q2666.1719,62.1875 2666.8125,62.3594 Q2667.4688,62.5156 2668.0156,62.875 Z " fill="#000000"/><text fill="#000000" font-family="sans-serif" font-size="14" lengthAdjust="spacing" textLength="29" x="2685.75" y="72.7285">User</text><line style="stroke:#181818;stroke-width:0.5;" x1="2452.5" x2="2915.5" y1="83" y2="83"/><ellipse cx="2462.5" cy="97.3047" fill="none" rx="3" ry="3" style="stroke:#038048;stroke-width:1.0;"/><text fill="#000000" font-family="sans-serif" font-size="14" lengthAdjust="spacing" textLength="63" x="2471.5" y="101.5332">id: Integer</text><ellipse cx="2462.5" cy="114.9141" fill="none" rx="3" ry="3" style="stroke:#038048;stroke-width:1.0;"/><text fill="#000000" font-family="sans-serif" font-size="14" lengthAdjust="spacing" textLength="80" x="2471.5" y="119.1426">name: String</text><line style="stroke:#181818;stroke-width:0.5;" x1="2452.5" x2="2915.5" y1="126.2188" y2="126.2188"/><ellipse cx="2462.5" cy="140.5234" fill="#84BE84" rx="3" ry="3" style="stroke:#038048;stroke-width:1.0;"/><text fill="#000000" font-family="sans-serif" font-size="14" lengthAdjust="spacing" textLength="439" x="2471.5" y="144.752">requestBooking(pickup: Location, dropoff: Location): BookingRequest</text><ellipse cx="2462.5" cy="158.1328" fill="#84BE84" rx="3" ry="3" style="stroke:#038048;stroke-width:1.0;"/><text fill="#000000" font-family="sans-serif" font-size="14" lengthAdjust="spacing" textLength="322" x="2471.5" y="162.3613">viewBookingStatus(request: BookingRequest): void</text><ellipse cx="2462.5" cy="175.7422" fill="#84BE84" rx="3" ry="3" style="stroke:#038048;stroke-width:1.0;"/><text fill="#000000" font-family="sans-serif" font-size="14" lengthAdjust="spacing" textLength="340" x="2471.5" y="179.9707">cancelBooking(cancelBooking: BookingRequest): void</text></g><!--link BookingRequest to Booking--><g id="link_BookingRequest_Booking"><path codeLine="61" d="M181,196.15 C181,220.97 181,243.05 181,269.89 " fill="none" id="BookingRequest-to-Booking" style="stroke:#181818;stroke-width:1.0;"/><polygon fill="#181818" points="181,275.89,185,266.89,181,270.89,177,266.89,181,275.89" style="stroke:#181818;stroke-width:1.0;"/><text fill="#000000" font-family="sans-serif" font-size="13" lengthAdjust="spacing" textLength="55" x="182" y="242.4951">Becomes</text><text fill="#000000" font-family="sans-serif" font-size="13" lengthAdjust="spacing" textLength="7" x="173.6883" y="217.2598">1</text><text fill="#000000" font-family="sans-serif" font-size="13" lengthAdjust="spacing" textLength="22" x="158.2609" y="265.3239">0..1</text></g><!--SRC=[hLLHRzem47xdLqGyKQsjjjUegWGXLDbIGC2clJh9GQqQEuiTkghgVvyTEubD4ZffumcVxpv_Tz_T9IM8SozcAHAOKUzjvCdV9o9Feip0zp9M9WICbT63QtuVZT8Au3k7eWx6cUz5LC012csWw2X3jgB0zA0j1VmgWOiPOy_IDibn-bpcVaFZsiiAbhFzlZLT-PxntkXO3NJ2y6BiMu54oIS6-jnTnfyOpdHKYcWAf7xTEGt5oKnpb3wZ0tXZup4s2GCjZvvnroJCXVgjm-KyMZuqvqtuDGnsuRmnX3_NqSQSvICDu0xznXlWEQCSBBnf48JhNNESXq4SBKCxMWlYPc41TEIfZANKpwzKR6rQbLg0LehMmwXqoSN8iSEg1UP8WFhNNlEgNhvRlWlPTEfHfMCUYURskzhLTmhPgRBJEnPii5ekeisZfTDg-R2oXGnMZ-iuj9KCfiiWZ6DNIuV_Xp8CD6_h8C7mWKAcajAfjNU9Zlcer4xAvyWASI8QS7jghCcPTEtic1CGe6wibM5YI5hAZG8BLFGwb7acRytyKdZPzZ6rdpIrFUlnyPUnTtDpxuq_tzxAltNDVJcm8Fa17zjJhDAp1rYTEsqm_J6Dukai3XlBRBNwPdV5Oj4_VnRyiDpotGIAjQgDinyTlLfY0nNhY7404PH50LJKywXy-cPJJKMsO_Kc7DwTFKDaRyG50H3U8wBoT9JlrgjHrsA1YMW-3xhPyfoyJh20euJMgvq0eeE34qXC5o6NBOJvKyqykRozcp1fBLxhe7t5IvOuO8H0gefpfxdU6PVx-oldjZQtW4-8PWJiyapQrNEsjdfQk6qMNSAtCwhgXbyYgXpEMLOsfnsc9uG9IZJHgcDYp8NbwD09sF5OKgpRPGl52QSmN7jJwh_vyEgcPmBlJM9gqt2RpBMNED6Nq1pESyIV4eQAh8Vl0IWKSbwiVSB_Y_WrS3sY_w1KVp9s5dAUCoWYYWL6fF7eJd-6UKxGgvEiAQhyAA3Ub8P0siIKKftmYhuhoVle3m00]--></g></svg>