<?xml version="1.0" encoding="us-ascii" standalone="no"?><svg xmlns="http://www.w3.org/2000/svg" xmlns:xlink="http://www.w3.org/1999/xlink" contentStyleType="text/css" height="523px" preserveAspectRatio="none" style="width:3182px;height:523px;background:#FFFFFF;" version="1.1" viewBox="0 0 3182 523" width="3182px" zoomAndPan="magnify"><defs/><g><!--cluster Booking--><g id="cluster_Booking"><path d="M8.5,6 L67.5,6 A3.75,3.75 0 0 1 70,8.5 L77,29.6094 L730.5,29.6094 A2.5,2.5 0 0 1 733,32.1094 L733,513.5 A2.5,2.5 0 0 1 730.5,516 L8.5,516 A2.5,2.5 0 0 1 6,513.5 L6,8.5 A2.5,2.5 0 0 1 8.5,6 " fill="none" style="stroke:#000000;stroke-width:1.5;"/><line style="stroke:#000000;stroke-width:1.5;" x1="6" x2="77" y1="29.6094" y2="29.6094"/><text fill="#000000" font-family="sans-serif" font-size="14" font-weight="bold" lengthAdjust="spacing" textLength="58" x="10" y="22.5332">Booking</text></g><!--cluster Taxi--><g id="cluster_Taxi"><path d="M2598.5,6 L2627.5,6 A3.75,3.75 0 0 1 2630,8.5 L2637,29.6094 L3172.5,29.6094 A2.5,2.5 0 0 1 3175,32.1094 L3175,209.5 A2.5,2.5 0 0 1 3172.5,212 L2598.5,212 A2.5,2.5 0 0 1 2596,209.5 L2596,8.5 A2.5,2.5 0 0 1 2598.5,6 " fill="none" style="stroke:#000000;stroke-width:1.5;"/><line style="stroke:#000000;stroke-width:1.5;" x1="2596" x2="2637" y1="29.6094" y2="29.6094"/><text fill="#000000" font-family="sans-serif" font-size="14" font-weight="bold" lengthAdjust="spacing" textLength="28" x="2600" y="22.5332">Taxi</text></g><!--cluster Fleet Management--><g id="cluster_Fleet Management"><path d="M759.5,32.5 L891.5,32.5 A3.75,3.75 0 0 1 894,35 L901,56.1094 L1920.5,56.1094 A2.5,2.5 0 0 1 1923,58.6094 L1923,452 A2.5,2.5 0 0 1 1920.5,454.5 L759.5,454.5 A2.5,2.5 0 0 1 757,452 L757,35 A2.5,2.5 0 0 1 759.5,32.5 " fill="none" style="stroke:#000000;stroke-width:1.5;"/><line style="stroke:#000000;stroke-width:1.5;" x1="757" x2="901" y1="56.1094" y2="56.1094"/><text fill="#000000" font-family="sans-serif" font-size="14" font-weight="bold" lengthAdjust="spacing" textLength="131" x="761" y="49.0332">Fleet Management</text></g><!--class RequestStatus--><g id="elem_RequestStatus"><rect codeLine="16" fill="#F1F1F1" height="100.8281" id="RequestStatus" rx="2.5" ry="2.5" style="stroke:#181818;stroke-width:0.5;" width="125" x="404.5" y="68.5"/><ellipse cx="419.5" cy="84.5" fill="#EB937F" rx="11" ry="11" style="stroke:#181818;stroke-width:1.0;"/><path d="M418.3594,85.2969 L418.3594,87.7969 L422.6875,87.7969 L422.6875,86.875 Q422.6875,86.2656 422.9219,86 Q423.1719,85.7344 423.5469,85.7344 Q423.9219,85.7344 424.1563,86 Q424.3906,86.2656 424.3906,86.875 L424.3906,89.5 L416.3906,89.5 Q415.7656,89.5 415.5,89.2656 Q415.25,89.0313 415.25,88.6406 Q415.25,88.2656 415.5156,88.0313 Q415.7813,87.7969 416.3906,87.7969 L416.6563,87.7969 L416.6563,81.1406 L416.3906,81.1406 Q415.7656,81.1406 415.5,80.9063 Q415.25,80.6719 415.25,80.2813 Q415.25,79.9063 415.5,79.6719 Q415.7656,79.4375 416.3906,79.4375 L424.0156,79.4375 L424.0156,82.0313 Q424.0156,82.6406 423.7813,82.9063 Q423.5625,83.1563 423.1719,83.1563 Q422.7969,83.1563 422.5625,82.9063 Q422.3281,82.6406 422.3281,82.0313 L422.3281,81.1406 L418.3594,81.1406 L418.3594,83.5938 L419.8438,83.5938 Q419.8438,82.9375 419.9688,82.75 Q420.2344,82.3438 420.7031,82.3438 Q421.0781,82.3438 421.3125,82.6094 Q421.5469,82.8594 421.5469,83.4688 L421.5469,85.4375 Q421.5469,85.9844 421.4219,86.1719 Q421.1563,86.5625 420.7031,86.5625 Q420.2344,86.5625 419.9688,86.1563 Q419.8438,85.9688 419.8438,85.2969 L418.3594,85.2969 Z " fill="#000000"/><text fill="#000000" font-family="sans-serif" font-size="14" lengthAdjust="spacing" textLength="93" x="433.5" y="90.2285">RequestStatus</text><line style="stroke:#181818;stroke-width:0.5;" x1="405.5" x2="528.5" y1="100.5" y2="100.5"/><text fill="#000000" font-family="sans-serif" font-size="14" lengthAdjust="spacing" textLength="60" x="410.5" y="119.0332">PENDING</text><text fill="#000000" font-family="sans-serif" font-size="14" lengthAdjust="spacing" textLength="72" x="410.5" y="136.6426">REJECTED</text><text fill="#000000" font-family="sans-serif" font-size="14" lengthAdjust="spacing" textLength="58" x="410.5" y="154.252">EXPIRED</text><line style="stroke:#181818;stroke-width:0.5;" x1="405.5" x2="528.5" y1="161.3281" y2="161.3281"/></g><!--class TaxiResponse--><g id="elem_TaxiResponse"><rect codeLine="22" fill="#F1F1F1" height="83.2188" id="TaxiResponse" rx="2.5" ry="2.5" style="stroke:#181818;stroke-width:0.5;" width="122" x="565" y="77.5"/><ellipse cx="580" cy="93.5" fill="#EB937F" rx="11" ry="11" style="stroke:#181818;stroke-width:1.0;"/><path d="M578.8594,94.2969 L578.8594,96.7969 L583.1875,96.7969 L583.1875,95.875 Q583.1875,95.2656 583.4219,95 Q583.6719,94.7344 584.0469,94.7344 Q584.4219,94.7344 584.6563,95 Q584.8906,95.2656 584.8906,95.875 L584.8906,98.5 L576.8906,98.5 Q576.2656,98.5 576,98.2656 Q575.75,98.0313 575.75,97.6406 Q575.75,97.2656 576.0156,97.0313 Q576.2813,96.7969 576.8906,96.7969 L577.1563,96.7969 L577.1563,90.1406 L576.8906,90.1406 Q576.2656,90.1406 576,89.9063 Q575.75,89.6719 575.75,89.2813 Q575.75,88.9063 576,88.6719 Q576.2656,88.4375 576.8906,88.4375 L584.5156,88.4375 L584.5156,91.0313 Q584.5156,91.6406 584.2813,91.9063 Q584.0625,92.1563 583.6719,92.1563 Q583.2969,92.1563 583.0625,91.9063 Q582.8281,91.6406 582.8281,91.0313 L582.8281,90.1406 L578.8594,90.1406 L578.8594,92.5938 L580.3438,92.5938 Q580.3438,91.9375 580.4688,91.75 Q580.7344,91.3438 581.2031,91.3438 Q581.5781,91.3438 581.8125,91.6094 Q582.0469,91.8594 582.0469,92.4688 L582.0469,94.4375 Q582.0469,94.9844 581.9219,95.1719 Q581.6563,95.5625 581.2031,95.5625 Q580.7344,95.5625 580.4688,95.1563 Q580.3438,94.9688 580.3438,94.2969 L578.8594,94.2969 Z " fill="#000000"/><text fill="#000000" font-family="sans-serif" font-size="14" lengthAdjust="spacing" textLength="90" x="594" y="99.2285">TaxiResponse</text><line style="stroke:#181818;stroke-width:0.5;" x1="566" x2="686" y1="109.5" y2="109.5"/><text fill="#000000" font-family="sans-serif" font-size="14" lengthAdjust="spacing" textLength="56" x="571" y="128.0332">ACCEPT</text><text fill="#000000" font-family="sans-serif" font-size="14" lengthAdjust="spacing" textLength="58" x="571" y="145.6426">DECLINE</text><line style="stroke:#181818;stroke-width:0.5;" x1="566" x2="686" y1="152.7188" y2="152.7188"/></g><!--class BookingRequest--><g id="elem_BookingRequest"><rect codeLine="27" fill="#F1F1F1" height="153.6563" id="BookingRequest" rx="2.5" ry="2.5" style="stroke:#181818;stroke-width:0.5;" width="187" x="87.5" y="42"/><ellipse cx="125.45" cy="58" fill="#ADD1B2" rx="11" ry="11" style="stroke:#181818;stroke-width:1.0;"/><path d="M128.2156,53.875 Q128.3719,53.6563 128.5594,53.5469 Q128.7469,53.4375 128.9656,53.4375 Q129.3406,53.4375 129.575,53.7031 Q129.8094,53.9531 129.8094,54.5625 L129.8094,56.0156 Q129.8094,56.625 129.575,56.8906 Q129.3406,57.1563 128.9656,57.1563 Q128.6219,57.1563 128.4188,56.9531 Q128.2156,56.7656 128.1063,56.25 Q128.0594,55.8906 127.8719,55.7031 Q127.5438,55.3281 126.9344,55.1094 Q126.325,54.8906 125.7,54.8906 Q124.9344,54.8906 124.2938,55.2188 Q123.6688,55.5469 123.1688,56.2969 Q122.6844,57.0469 122.6844,58.0781 L122.6844,59.1719 Q122.6844,60.4063 123.575,61.2344 Q124.4656,62.0469 126.0594,62.0469 Q126.9969,62.0469 127.6531,61.7969 Q128.0438,61.6406 128.4656,61.2031 Q128.7313,60.9375 128.8719,60.8594 Q129.0281,60.7813 129.2313,60.7813 Q129.5594,60.7813 129.8094,61.0469 Q130.075,61.2969 130.075,61.6406 Q130.075,61.9844 129.7313,62.3906 Q129.2313,62.9688 128.4344,63.2969 Q127.3563,63.75 126.0594,63.75 Q124.5438,63.75 123.3406,63.125 Q122.3563,62.625 121.6688,61.5625 Q120.9813,60.4844 120.9813,59.2031 L120.9813,58.0469 Q120.9813,56.7188 121.5906,55.5781 Q122.2156,54.4219 123.3094,53.8125 Q124.4031,53.1875 125.6375,53.1875 Q126.3719,53.1875 127.0125,53.3594 Q127.6688,53.5156 128.2156,53.875 Z " fill="#000000"/><text fill="#000000" font-family="sans-serif" font-size="14" lengthAdjust="spacing" textLength="104" x="144.55" y="63.7285">BookingRequest</text><line style="stroke:#181818;stroke-width:0.5;" x1="88.5" x2="273.5" y1="74" y2="74"/><ellipse cx="98.5" cy="88.3047" fill="none" rx="3" ry="3" style="stroke:#038048;stroke-width:1.0;"/><text fill="#000000" font-family="sans-serif" font-size="14" lengthAdjust="spacing" textLength="63" x="107.5" y="92.5332">id: Integer</text><ellipse cx="98.5" cy="105.9141" fill="none" rx="3" ry="3" style="stroke:#038048;stroke-width:1.0;"/><text fill="#000000" font-family="sans-serif" font-size="14" lengthAdjust="spacing" textLength="65" x="107.5" y="110.1426">user: User</text><ellipse cx="98.5" cy="123.5234" fill="none" rx="3" ry="3" style="stroke:#038048;stroke-width:1.0;"/><text fill="#000000" font-family="sans-serif" font-size="14" lengthAdjust="spacing" textLength="157" x="107.5" y="127.752">pickupLocation: Location</text><ellipse cx="98.5" cy="141.1328" fill="none" rx="3" ry="3" style="stroke:#038048;stroke-width:1.0;"/><text fill="#000000" font-family="sans-serif" font-size="14" lengthAdjust="spacing" textLength="161" x="107.5" y="145.3613">dropoffLocation: Location</text><ellipse cx="98.5" cy="158.7422" fill="none" rx="3" ry="3" style="stroke:#038048;stroke-width:1.0;"/><text fill="#000000" font-family="sans-serif" font-size="14" lengthAdjust="spacing" textLength="148" x="107.5" y="162.9707">requestTime: DateTime</text><ellipse cx="98.5" cy="176.3516" fill="none" rx="3" ry="3" style="stroke:#038048;stroke-width:1.0;"/><text fill="#000000" font-family="sans-serif" font-size="14" lengthAdjust="spacing" textLength="139" x="107.5" y="180.5801">status: RequestStatus</text><line style="stroke:#181818;stroke-width:0.5;" x1="88.5" x2="273.5" y1="187.6563" y2="187.6563"/></g><!--class BookingResponse--><g id="elem_BookingResponse"><rect codeLine="36" fill="#F1F1F1" height="83.2188" id="BookingResponse" rx="2.5" ry="2.5" style="stroke:#181818;stroke-width:0.5;" width="183" x="375.5" y="346.5"/><ellipse cx="406.7" cy="362.5" fill="#ADD1B2" rx="11" ry="11" style="stroke:#181818;stroke-width:1.0;"/><path d="M409.4656,358.375 Q409.6219,358.1563 409.8094,358.0469 Q409.9969,357.9375 410.2156,357.9375 Q410.5906,357.9375 410.825,358.2031 Q411.0594,358.4531 411.0594,359.0625 L411.0594,360.5156 Q411.0594,361.125 410.825,361.3906 Q410.5906,361.6563 410.2156,361.6563 Q409.8719,361.6563 409.6688,361.4531 Q409.4656,361.2656 409.3563,360.75 Q409.3094,360.3906 409.1219,360.2031 Q408.7938,359.8281 408.1844,359.6094 Q407.575,359.3906 406.95,359.3906 Q406.1844,359.3906 405.5438,359.7188 Q404.9188,360.0469 404.4188,360.7969 Q403.9344,361.5469 403.9344,362.5781 L403.9344,363.6719 Q403.9344,364.9063 404.825,365.7344 Q405.7156,366.5469 407.3094,366.5469 Q408.2469,366.5469 408.9031,366.2969 Q409.2938,366.1406 409.7156,365.7031 Q409.9813,365.4375 410.1219,365.3594 Q410.2781,365.2813 410.4813,365.2813 Q410.8094,365.2813 411.0594,365.5469 Q411.325,365.7969 411.325,366.1406 Q411.325,366.4844 410.9813,366.8906 Q410.4813,367.4688 409.6844,367.7969 Q408.6063,368.25 407.3094,368.25 Q405.7938,368.25 404.5906,367.625 Q403.6063,367.125 402.9188,366.0625 Q402.2313,364.9844 402.2313,363.7031 L402.2313,362.5469 Q402.2313,361.2188 402.8406,360.0781 Q403.4656,358.9219 404.5594,358.3125 Q405.6531,357.6875 406.8875,357.6875 Q407.6219,357.6875 408.2625,357.8594 Q408.9188,358.0156 409.4656,358.375 Z " fill="#000000"/><text fill="#000000" font-family="sans-serif" font-size="14" lengthAdjust="spacing" textLength="115" x="424.3" y="368.2285">BookingResponse</text><line style="stroke:#181818;stroke-width:0.5;" x1="376.5" x2="557.5" y1="378.5" y2="378.5"/><ellipse cx="386.5" cy="392.8047" fill="none" rx="3" ry="3" style="stroke:#038048;stroke-width:1.0;"/><text fill="#000000" font-family="sans-serif" font-size="14" lengthAdjust="spacing" textLength="80" x="395.5" y="397.0332">id: requestID</text><ellipse cx="386.5" cy="410.4141" fill="none" rx="3" ry="3" style="stroke:#038048;stroke-width:1.0;"/><text fill="#000000" font-family="sans-serif" font-size="14" lengthAdjust="spacing" textLength="157" x="395.5" y="414.6426">response: TaxiResponse</text><line style="stroke:#181818;stroke-width:0.5;" x1="376.5" x2="557.5" y1="421.7188" y2="421.7188"/></g><!--class BookingStatus--><g id="elem_BookingStatus"><rect codeLine="41" fill="#F1F1F1" height="118.4375" id="BookingStatus" rx="2.5" ry="2.5" style="stroke:#181818;stroke-width:0.5;" width="123" x="593.5" y="329"/><ellipse cx="608.5" cy="345" fill="#EB937F" rx="11" ry="11" style="stroke:#181818;stroke-width:1.0;"/><path d="M607.3594,345.7969 L607.3594,348.2969 L611.6875,348.2969 L611.6875,347.375 Q611.6875,346.7656 611.9219,346.5 Q612.1719,346.2344 612.5469,346.2344 Q612.9219,346.2344 613.1563,346.5 Q613.3906,346.7656 613.3906,347.375 L613.3906,350 L605.3906,350 Q604.7656,350 604.5,349.7656 Q604.25,349.5313 604.25,349.1406 Q604.25,348.7656 604.5156,348.5313 Q604.7813,348.2969 605.3906,348.2969 L605.6563,348.2969 L605.6563,341.6406 L605.3906,341.6406 Q604.7656,341.6406 604.5,341.4063 Q604.25,341.1719 604.25,340.7813 Q604.25,340.4063 604.5,340.1719 Q604.7656,339.9375 605.3906,339.9375 L613.0156,339.9375 L613.0156,342.5313 Q613.0156,343.1406 612.7813,343.4063 Q612.5625,343.6563 612.1719,343.6563 Q611.7969,343.6563 611.5625,343.4063 Q611.3281,343.1406 611.3281,342.5313 L611.3281,341.6406 L607.3594,341.6406 L607.3594,344.0938 L608.8438,344.0938 Q608.8438,343.4375 608.9688,343.25 Q609.2344,342.8438 609.7031,342.8438 Q610.0781,342.8438 610.3125,343.1094 Q610.5469,343.3594 610.5469,343.9688 L610.5469,345.9375 Q610.5469,346.4844 610.4219,346.6719 Q610.1563,347.0625 609.7031,347.0625 Q609.2344,347.0625 608.9688,346.6563 Q608.8438,346.4688 608.8438,345.7969 L607.3594,345.7969 Z " fill="#000000"/><text fill="#000000" font-family="sans-serif" font-size="14" lengthAdjust="spacing" textLength="91" x="622.5" y="350.7285">BookingStatus</text><line style="stroke:#181818;stroke-width:0.5;" x1="594.5" x2="715.5" y1="361" y2="361"/><text fill="#000000" font-family="sans-serif" font-size="14" lengthAdjust="spacing" textLength="82" x="599.5" y="379.5332">CONFIRMED</text><text fill="#000000" font-family="sans-serif" font-size="14" lengthAdjust="spacing" textLength="65" x="599.5" y="397.1426">ONGOING</text><text fill="#000000" font-family="sans-serif" font-size="14" lengthAdjust="spacing" textLength="86" x="599.5" y="414.752">COMPLETED</text><text fill="#000000" font-family="sans-serif" font-size="14" lengthAdjust="spacing" textLength="82" x="599.5" y="432.3613">CANCELLED</text><line style="stroke:#181818;stroke-width:0.5;" x1="594.5" x2="715.5" y1="439.4375" y2="439.4375"/></g><!--class Booking--><g id="elem_Booking"><rect codeLine="48" fill="#F1F1F1" height="224.0938" id="Booking" rx="2.5" ry="2.5" style="stroke:#181818;stroke-width:0.5;" width="318" x="22" y="276"/><ellipse cx="151.25" cy="292" fill="#ADD1B2" rx="11" ry="11" style="stroke:#181818;stroke-width:1.0;"/><path d="M154.0156,287.875 Q154.1719,287.6563 154.3594,287.5469 Q154.5469,287.4375 154.7656,287.4375 Q155.1406,287.4375 155.375,287.7031 Q155.6094,287.9531 155.6094,288.5625 L155.6094,290.0156 Q155.6094,290.625 155.375,290.8906 Q155.1406,291.1563 154.7656,291.1563 Q154.4219,291.1563 154.2188,290.9531 Q154.0156,290.7656 153.9063,290.25 Q153.8594,289.8906 153.6719,289.7031 Q153.3438,289.3281 152.7344,289.1094 Q152.125,288.8906 151.5,288.8906 Q150.7344,288.8906 150.0938,289.2188 Q149.4688,289.5469 148.9688,290.2969 Q148.4844,291.0469 148.4844,292.0781 L148.4844,293.1719 Q148.4844,294.4063 149.375,295.2344 Q150.2656,296.0469 151.8594,296.0469 Q152.7969,296.0469 153.4531,295.7969 Q153.8438,295.6406 154.2656,295.2031 Q154.5313,294.9375 154.6719,294.8594 Q154.8281,294.7813 155.0313,294.7813 Q155.3594,294.7813 155.6094,295.0469 Q155.875,295.2969 155.875,295.6406 Q155.875,295.9844 155.5313,296.3906 Q155.0313,296.9688 154.2344,297.2969 Q153.1563,297.75 151.8594,297.75 Q150.3438,297.75 149.1406,297.125 Q148.1563,296.625 147.4688,295.5625 Q146.7813,294.4844 146.7813,293.2031 L146.7813,292.0469 Q146.7813,290.7188 147.3906,289.5781 Q148.0156,288.4219 149.1094,287.8125 Q150.2031,287.1875 151.4375,287.1875 Q152.1719,287.1875 152.8125,287.3594 Q153.4688,287.5156 154.0156,287.875 Z " fill="#000000"/><text fill="#000000" font-family="sans-serif" font-size="14" lengthAdjust="spacing" textLength="51" x="171.75" y="297.7285">Booking</text><line style="stroke:#181818;stroke-width:0.5;" x1="23" x2="339" y1="308" y2="308"/><ellipse cx="33" cy="322.3047" fill="none" rx="3" ry="3" style="stroke:#038048;stroke-width:1.0;"/><text fill="#000000" font-family="sans-serif" font-size="14" lengthAdjust="spacing" textLength="63" x="42" y="326.5332">id: Integer</text><ellipse cx="33" cy="339.9141" fill="none" rx="3" ry="3" style="stroke:#038048;stroke-width:1.0;"/><text fill="#000000" font-family="sans-serif" font-size="14" lengthAdjust="spacing" textLength="160" x="42" y="344.1426">request: BookingRequest</text><ellipse cx="33" cy="357.5234" fill="none" rx="3" ry="3" style="stroke:#038048;stroke-width:1.0;"/><text fill="#000000" font-family="sans-serif" font-size="14" lengthAdjust="spacing" textLength="117" x="42" y="361.752">assignedTaxi: Taxi</text><ellipse cx="33" cy="375.1328" fill="none" rx="3" ry="3" style="stroke:#038048;stroke-width:1.0;"/><text fill="#000000" font-family="sans-serif" font-size="14" lengthAdjust="spacing" textLength="150" x="42" y="379.3613">bookingTime: DateTime</text><ellipse cx="33" cy="392.7422" fill="none" rx="3" ry="3" style="stroke:#038048;stroke-width:1.0;"/><text fill="#000000" font-family="sans-serif" font-size="14" lengthAdjust="spacing" textLength="137" x="42" y="396.9707">status: BookingStatus</text><line style="stroke:#181818;stroke-width:0.5;" x1="23" x2="339" y1="404.0469" y2="404.0469"/><ellipse cx="33" cy="418.3516" fill="#84BE84" rx="3" ry="3" style="stroke:#038048;stroke-width:1.0;"/><text fill="#000000" font-family="sans-serif" font-size="14" lengthAdjust="spacing" textLength="166" x="42" y="422.5801">assignTaxi(taxi: Taxi): void</text><ellipse cx="33" cy="435.9609" fill="#84BE84" rx="3" ry="3" style="stroke:#038048;stroke-width:1.0;"/><text fill="#000000" font-family="sans-serif" font-size="14" lengthAdjust="spacing" textLength="85" x="42" y="440.1895">cancel(): void</text><ellipse cx="33" cy="453.5703" fill="#84BE84" rx="3" ry="3" style="stroke:#038048;stroke-width:1.0;"/><text fill="#000000" font-family="sans-serif" font-size="14" lengthAdjust="spacing" textLength="118" x="42" y="457.7988">complete(): double</text><ellipse cx="33" cy="471.1797" fill="#84BE84" rx="3" ry="3" style="stroke:#038048;stroke-width:1.0;"/><text fill="#000000" font-family="sans-serif" font-size="14" lengthAdjust="spacing" textLength="147" x="42" y="475.4082">calculateFare(): double</text><ellipse cx="33" cy="488.7891" fill="#84BE84" rx="3" ry="3" style="stroke:#038048;stroke-width:1.0;"/><text fill="#000000" font-family="sans-serif" font-size="14" lengthAdjust="spacing" textLength="292" x="42" y="493.0176">updateStatus(newStatus: BookingStatus): void</text></g><!--class TaxiStatus--><g id="elem_TaxiStatus"><rect codeLine="65" fill="#F1F1F1" height="100.8281" id="TaxiStatus" rx="2.5" ry="2.5" style="stroke:#181818;stroke-width:0.5;" width="98" x="3061" y="68.5"/><ellipse cx="3076" cy="84.5" fill="#EB937F" rx="11" ry="11" style="stroke:#181818;stroke-width:1.0;"/><path d="M3074.8594,85.2969 L3074.8594,87.7969 L3079.1875,87.7969 L3079.1875,86.875 Q3079.1875,86.2656 3079.4219,86 Q3079.6719,85.7344 3080.0469,85.7344 Q3080.4219,85.7344 3080.6563,86 Q3080.8906,86.2656 3080.8906,86.875 L3080.8906,89.5 L3072.8906,89.5 Q3072.2656,89.5 3072,89.2656 Q3071.75,89.0313 3071.75,88.6406 Q3071.75,88.2656 3072.0156,88.0313 Q3072.2813,87.7969 3072.8906,87.7969 L3073.1563,87.7969 L3073.1563,81.1406 L3072.8906,81.1406 Q3072.2656,81.1406 3072,80.9063 Q3071.75,80.6719 3071.75,80.2813 Q3071.75,79.9063 3072,79.6719 Q3072.2656,79.4375 3072.8906,79.4375 L3080.5156,79.4375 L3080.5156,82.0313 Q3080.5156,82.6406 3080.2813,82.9063 Q3080.0625,83.1563 3079.6719,83.1563 Q3079.2969,83.1563 3079.0625,82.9063 Q3078.8281,82.6406 3078.8281,82.0313 L3078.8281,81.1406 L3074.8594,81.1406 L3074.8594,83.5938 L3076.3438,83.5938 Q3076.3438,82.9375 3076.4688,82.75 Q3076.7344,82.3438 3077.2031,82.3438 Q3077.5781,82.3438 3077.8125,82.6094 Q3078.0469,82.8594 3078.0469,83.4688 L3078.0469,85.4375 Q3078.0469,85.9844 3077.9219,86.1719 Q3077.6563,86.5625 3077.2031,86.5625 Q3076.7344,86.5625 3076.4688,86.1563 Q3076.3438,85.9688 3076.3438,85.2969 L3074.8594,85.2969 Z " fill="#000000"/><text fill="#000000" font-family="sans-serif" font-size="14" lengthAdjust="spacing" textLength="66" x="3090" y="90.2285">TaxiStatus</text><line style="stroke:#181818;stroke-width:0.5;" x1="3062" x2="3158" y1="100.5" y2="100.5"/><text fill="#000000" font-family="sans-serif" font-size="14" lengthAdjust="spacing" textLength="73" x="3067" y="119.0332">AVAILABLE</text><text fill="#000000" font-family="sans-serif" font-size="14" lengthAdjust="spacing" textLength="59" x="3067" y="136.6426">BOOKED</text><text fill="#000000" font-family="sans-serif" font-size="14" lengthAdjust="spacing" textLength="58" x="3067" y="154.252">OFFLINE</text><line style="stroke:#181818;stroke-width:0.5;" x1="3062" x2="3158" y1="161.3281" y2="161.3281"/></g><!--class Taxi--><g id="elem_Taxi"><rect codeLine="71" fill="#F1F1F1" height="153.6563" id="Taxi" rx="2.5" ry="2.5" style="stroke:#181818;stroke-width:0.5;" width="414" x="2612" y="42"/><ellipse cx="2801.75" cy="58" fill="#ADD1B2" rx="11" ry="11" style="stroke:#181818;stroke-width:1.0;"/><path d="M2804.5156,53.875 Q2804.6719,53.6563 2804.8594,53.5469 Q2805.0469,53.4375 2805.2656,53.4375 Q2805.6406,53.4375 2805.875,53.7031 Q2806.1094,53.9531 2806.1094,54.5625 L2806.1094,56.0156 Q2806.1094,56.625 2805.875,56.8906 Q2805.6406,57.1563 2805.2656,57.1563 Q2804.9219,57.1563 2804.7188,56.9531 Q2804.5156,56.7656 2804.4063,56.25 Q2804.3594,55.8906 2804.1719,55.7031 Q2803.8438,55.3281 2803.2344,55.1094 Q2802.625,54.8906 2802,54.8906 Q2801.2344,54.8906 2800.5938,55.2188 Q2799.9688,55.5469 2799.4688,56.2969 Q2798.9844,57.0469 2798.9844,58.0781 L2798.9844,59.1719 Q2798.9844,60.4063 2799.875,61.2344 Q2800.7656,62.0469 2802.3594,62.0469 Q2803.2969,62.0469 2803.9531,61.7969 Q2804.3438,61.6406 2804.7656,61.2031 Q2805.0313,60.9375 2805.1719,60.8594 Q2805.3281,60.7813 2805.5313,60.7813 Q2805.8594,60.7813 2806.1094,61.0469 Q2806.375,61.2969 2806.375,61.6406 Q2806.375,61.9844 2806.0313,62.3906 Q2805.5313,62.9688 2804.7344,63.2969 Q2803.6563,63.75 2802.3594,63.75 Q2800.8438,63.75 2799.6406,63.125 Q2798.6563,62.625 2797.9688,61.5625 Q2797.2813,60.4844 2797.2813,59.2031 L2797.2813,58.0469 Q2797.2813,56.7188 2797.8906,55.5781 Q2798.5156,54.4219 2799.6094,53.8125 Q2800.7031,53.1875 2801.9375,53.1875 Q2802.6719,53.1875 2803.3125,53.3594 Q2803.9688,53.5156 2804.5156,53.875 Z " fill="#000000"/><text fill="#000000" font-family="sans-serif" font-size="14" lengthAdjust="spacing" textLength="26" x="2822.25" y="63.7285">Taxi</text><line style="stroke:#181818;stroke-width:0.5;" x1="2613" x2="3025" y1="74" y2="74"/><ellipse cx="2623" cy="88.3047" fill="none" rx="3" ry="3" style="stroke:#038048;stroke-width:1.0;"/><text fill="#000000" font-family="sans-serif" font-size="14" lengthAdjust="spacing" textLength="63" x="2632" y="92.5332">id: Integer</text><ellipse cx="2623" cy="105.9141" fill="none" rx="3" ry="3" style="stroke:#038048;stroke-width:1.0;"/><text fill="#000000" font-family="sans-serif" font-size="14" lengthAdjust="spacing" textLength="125" x="2632" y="110.1426">numberPlate: String</text><ellipse cx="2623" cy="123.5234" fill="none" rx="3" ry="3" style="stroke:#038048;stroke-width:1.0;"/><text fill="#000000" font-family="sans-serif" font-size="14" lengthAdjust="spacing" textLength="112" x="2632" y="127.752">status: TaxiStatus</text><line style="stroke:#181818;stroke-width:0.5;" x1="2613" x2="3025" y1="134.8281" y2="134.8281"/><ellipse cx="2623" cy="149.1328" fill="#84BE84" rx="3" ry="3" style="stroke:#038048;stroke-width:1.0;"/><text fill="#000000" font-family="sans-serif" font-size="14" lengthAdjust="spacing" textLength="128" x="2632" y="153.3613">updateStatus(): void</text><ellipse cx="2623" cy="166.7422" fill="#84BE84" rx="3" ry="3" style="stroke:#038048;stroke-width:1.0;"/><text fill="#000000" font-family="sans-serif" font-size="14" lengthAdjust="spacing" textLength="194" x="2632" y="170.9707">getCurrentLocation(): Location</text><ellipse cx="2623" cy="184.3516" fill="#84BE84" rx="3" ry="3" style="stroke:#038048;stroke-width:1.0;"/><text fill="#000000" font-family="sans-serif" font-size="14" lengthAdjust="spacing" textLength="388" x="2632" y="188.5801">respondToBooking(request: BookingRequest): TaxiResponse</text></g><!--class Filter--><g id="elem_Filter"><rect codeLine="82" fill="#F1F1F1" height="65.6094" id="Filter" rx="2.5" ry="2.5" style="stroke:#181818;stroke-width:0.5;" width="173" x="773.5" y="86"/><ellipse cx="839.75" cy="102" fill="#ADD1B2" rx="11" ry="11" style="stroke:#181818;stroke-width:1.0;"/><path d="M842.5156,97.875 Q842.6719,97.6563 842.8594,97.5469 Q843.0469,97.4375 843.2656,97.4375 Q843.6406,97.4375 843.875,97.7031 Q844.1094,97.9531 844.1094,98.5625 L844.1094,100.0156 Q844.1094,100.625 843.875,100.8906 Q843.6406,101.1563 843.2656,101.1563 Q842.9219,101.1563 842.7188,100.9531 Q842.5156,100.7656 842.4063,100.25 Q842.3594,99.8906 842.1719,99.7031 Q841.8438,99.3281 841.2344,99.1094 Q840.625,98.8906 840,98.8906 Q839.2344,98.8906 838.5938,99.2188 Q837.9688,99.5469 837.4688,100.2969 Q836.9844,101.0469 836.9844,102.0781 L836.9844,103.1719 Q836.9844,104.4063 837.875,105.2344 Q838.7656,106.0469 840.3594,106.0469 Q841.2969,106.0469 841.9531,105.7969 Q842.3438,105.6406 842.7656,105.2031 Q843.0313,104.9375 843.1719,104.8594 Q843.3281,104.7813 843.5313,104.7813 Q843.8594,104.7813 844.1094,105.0469 Q844.375,105.2969 844.375,105.6406 Q844.375,105.9844 844.0313,106.3906 Q843.5313,106.9688 842.7344,107.2969 Q841.6563,107.75 840.3594,107.75 Q838.8438,107.75 837.6406,107.125 Q836.6563,106.625 835.9688,105.5625 Q835.2813,104.4844 835.2813,103.2031 L835.2813,102.0469 Q835.2813,100.7188 835.8906,99.5781 Q836.5156,98.4219 837.6094,97.8125 Q838.7031,97.1875 839.9375,97.1875 Q840.6719,97.1875 841.3125,97.3594 Q841.9688,97.5156 842.5156,97.875 Z " fill="#000000"/><text fill="#000000" font-family="sans-serif" font-size="14" lengthAdjust="spacing" textLength="32" x="860.25" y="107.7285">Filter</text><line style="stroke:#181818;stroke-width:0.5;" x1="774.5" x2="945.5" y1="118" y2="118"/><line style="stroke:#181818;stroke-width:0.5;" x1="774.5" x2="945.5" y1="126" y2="126"/><ellipse cx="784.5" cy="140.3047" fill="#84BE84" rx="3" ry="3" style="stroke:#038048;stroke-width:1.0;"/><text fill="#000000" font-family="sans-serif" font-size="14" lengthAdjust="spacing" textLength="147" x="793.5" y="144.5332">apply(item: T): Boolean</text></g><!--class BookingCenter--><g id="elem_BookingCenter"><rect codeLine="86" fill="#F1F1F1" height="100.8281" id="BookingCenter" rx="2.5" ry="2.5" style="stroke:#181818;stroke-width:0.5;" width="479" x="981.5" y="68.5"/><ellipse cx="1169.75" cy="84.5" fill="#ADD1B2" rx="11" ry="11" style="stroke:#181818;stroke-width:1.0;"/><path d="M1172.5156,80.375 Q1172.6719,80.1563 1172.8594,80.0469 Q1173.0469,79.9375 1173.2656,79.9375 Q1173.6406,79.9375 1173.875,80.2031 Q1174.1094,80.4531 1174.1094,81.0625 L1174.1094,82.5156 Q1174.1094,83.125 1173.875,83.3906 Q1173.6406,83.6563 1173.2656,83.6563 Q1172.9219,83.6563 1172.7188,83.4531 Q1172.5156,83.2656 1172.4063,82.75 Q1172.3594,82.3906 1172.1719,82.2031 Q1171.8438,81.8281 1171.2344,81.6094 Q1170.625,81.3906 1170,81.3906 Q1169.2344,81.3906 1168.5938,81.7188 Q1167.9688,82.0469 1167.4688,82.7969 Q1166.9844,83.5469 1166.9844,84.5781 L1166.9844,85.6719 Q1166.9844,86.9063 1167.875,87.7344 Q1168.7656,88.5469 1170.3594,88.5469 Q1171.2969,88.5469 1171.9531,88.2969 Q1172.3438,88.1406 1172.7656,87.7031 Q1173.0313,87.4375 1173.1719,87.3594 Q1173.3281,87.2813 1173.5313,87.2813 Q1173.8594,87.2813 1174.1094,87.5469 Q1174.375,87.7969 1174.375,88.1406 Q1174.375,88.4844 1174.0313,88.8906 Q1173.5313,89.4688 1172.7344,89.7969 Q1171.6563,90.25 1170.3594,90.25 Q1168.8438,90.25 1167.6406,89.625 Q1166.6563,89.125 1165.9688,88.0625 Q1165.2813,86.9844 1165.2813,85.7031 L1165.2813,84.5469 Q1165.2813,83.2188 1165.8906,82.0781 Q1166.5156,80.9219 1167.6094,80.3125 Q1168.7031,79.6875 1169.9375,79.6875 Q1170.6719,79.6875 1171.3125,79.8594 Q1171.9688,80.0156 1172.5156,80.375 Z " fill="#000000"/><text fill="#000000" font-family="sans-serif" font-size="14" lengthAdjust="spacing" textLength="94" x="1190.25" y="90.2285">BookingCenter</text><line style="stroke:#181818;stroke-width:0.5;" x1="982.5" x2="1459.5" y1="100.5" y2="100.5"/><line style="stroke:#181818;stroke-width:0.5;" x1="982.5" x2="1459.5" y1="108.5" y2="108.5"/><ellipse cx="992.5" cy="122.8047" fill="#84BE84" rx="3" ry="3" style="stroke:#038048;stroke-width:1.0;"/><text fill="#000000" font-family="sans-serif" font-size="14" lengthAdjust="spacing" textLength="302" x="1001.5" y="127.0332">publishBooking(booking: BookingRequest): void</text><ellipse cx="992.5" cy="140.4141" fill="#84BE84" rx="3" ry="3" style="stroke:#038048;stroke-width:1.0;"/><text fill="#000000" font-family="sans-serif" font-size="14" lengthAdjust="spacing" textLength="453" x="1001.5" y="144.6426">queryBooking(filters: Collection&lt;Filter&lt;Booking&gt;&gt;): Collection&lt;Booking&gt;</text><ellipse cx="992.5" cy="158.0234" fill="#84BE84" rx="3" ry="3" style="stroke:#038048;stroke-width:1.0;"/><text fill="#000000" font-family="sans-serif" font-size="14" lengthAdjust="spacing" textLength="359" x="1001.5" y="162.252">handleTaxiResponse(response: BookingResponse): void</text></g><!--class TaxiFleet--><g id="elem_TaxiFleet"><rect codeLine="92" fill="#F1F1F1" height="83.2188" id="TaxiFleet" rx="2.5" ry="2.5" style="stroke:#181818;stroke-width:0.5;" width="411" x="1495.5" y="77.5"/><ellipse cx="1667.75" cy="93.5" fill="#ADD1B2" rx="11" ry="11" style="stroke:#181818;stroke-width:1.0;"/><path d="M1670.5156,89.375 Q1670.6719,89.1563 1670.8594,89.0469 Q1671.0469,88.9375 1671.2656,88.9375 Q1671.6406,88.9375 1671.875,89.2031 Q1672.1094,89.4531 1672.1094,90.0625 L1672.1094,91.5156 Q1672.1094,92.125 1671.875,92.3906 Q1671.6406,92.6563 1671.2656,92.6563 Q1670.9219,92.6563 1670.7188,92.4531 Q1670.5156,92.2656 1670.4063,91.75 Q1670.3594,91.3906 1670.1719,91.2031 Q1669.8438,90.8281 1669.2344,90.6094 Q1668.625,90.3906 1668,90.3906 Q1667.2344,90.3906 1666.5938,90.7188 Q1665.9688,91.0469 1665.4688,91.7969 Q1664.9844,92.5469 1664.9844,93.5781 L1664.9844,94.6719 Q1664.9844,95.9063 1665.875,96.7344 Q1666.7656,97.5469 1668.3594,97.5469 Q1669.2969,97.5469 1669.9531,97.2969 Q1670.3438,97.1406 1670.7656,96.7031 Q1671.0313,96.4375 1671.1719,96.3594 Q1671.3281,96.2813 1671.5313,96.2813 Q1671.8594,96.2813 1672.1094,96.5469 Q1672.375,96.7969 1672.375,97.1406 Q1672.375,97.4844 1672.0313,97.8906 Q1671.5313,98.4688 1670.7344,98.7969 Q1669.6563,99.25 1668.3594,99.25 Q1666.8438,99.25 1665.6406,98.625 Q1664.6563,98.125 1663.9688,97.0625 Q1663.2813,95.9844 1663.2813,94.7031 L1663.2813,93.5469 Q1663.2813,92.2188 1663.8906,91.0781 Q1664.5156,89.9219 1665.6094,89.3125 Q1666.7031,88.6875 1667.9375,88.6875 Q1668.6719,88.6875 1669.3125,88.8594 Q1669.9688,89.0156 1670.5156,89.375 Z " fill="#000000"/><text fill="#000000" font-family="sans-serif" font-size="14" lengthAdjust="spacing" textLength="58" x="1688.25" y="99.2285">TaxiFleet</text><line style="stroke:#181818;stroke-width:0.5;" x1="1496.5" x2="1905.5" y1="109.5" y2="109.5"/><line style="stroke:#181818;stroke-width:0.5;" x1="1496.5" x2="1905.5" y1="117.5" y2="117.5"/><ellipse cx="1506.5" cy="131.8047" fill="#84BE84" rx="3" ry="3" style="stroke:#038048;stroke-width:1.0;"/><text fill="#000000" font-family="sans-serif" font-size="14" lengthAdjust="spacing" textLength="385" x="1515.5" y="136.0332">queryTaxis(filters: Collection&lt;Filter&lt;Taxi&gt;&gt;): Collection&lt;Taxi&gt;</text><ellipse cx="1506.5" cy="149.4141" fill="#84BE84" rx="3" ry="3" style="stroke:#038048;stroke-width:1.0;"/><text fill="#000000" font-family="sans-serif" font-size="14" lengthAdjust="spacing" textLength="192" x="1515.5" y="153.6426">getAvailableTaxis(): List&lt;Taxi&gt;</text></g><!--class CommunicationService--><g id="elem_CommunicationService"><rect codeLine="97" fill="#F1F1F1" height="83.2188" id="CommunicationService" rx="2.5" ry="2.5" style="stroke:#181818;stroke-width:0.5;" width="460" x="773" y="346.5"/><ellipse cx="926.75" cy="362.5" fill="#ADD1B2" rx="11" ry="11" style="stroke:#181818;stroke-width:1.0;"/><path d="M929.5156,358.375 Q929.6719,358.1563 929.8594,358.0469 Q930.0469,357.9375 930.2656,357.9375 Q930.6406,357.9375 930.875,358.2031 Q931.1094,358.4531 931.1094,359.0625 L931.1094,360.5156 Q931.1094,361.125 930.875,361.3906 Q930.6406,361.6563 930.2656,361.6563 Q929.9219,361.6563 929.7188,361.4531 Q929.5156,361.2656 929.4063,360.75 Q929.3594,360.3906 929.1719,360.2031 Q928.8438,359.8281 928.2344,359.6094 Q927.625,359.3906 927,359.3906 Q926.2344,359.3906 925.5938,359.7188 Q924.9688,360.0469 924.4688,360.7969 Q923.9844,361.5469 923.9844,362.5781 L923.9844,363.6719 Q923.9844,364.9063 924.875,365.7344 Q925.7656,366.5469 927.3594,366.5469 Q928.2969,366.5469 928.9531,366.2969 Q929.3438,366.1406 929.7656,365.7031 Q930.0313,365.4375 930.1719,365.3594 Q930.3281,365.2813 930.5313,365.2813 Q930.8594,365.2813 931.1094,365.5469 Q931.375,365.7969 931.375,366.1406 Q931.375,366.4844 931.0313,366.8906 Q930.5313,367.4688 929.7344,367.7969 Q928.6563,368.25 927.3594,368.25 Q925.8438,368.25 924.6406,367.625 Q923.6563,367.125 922.9688,366.0625 Q922.2813,364.9844 922.2813,363.7031 L922.2813,362.5469 Q922.2813,361.2188 922.8906,360.0781 Q923.5156,358.9219 924.6094,358.3125 Q925.7031,357.6875 926.9375,357.6875 Q927.6719,357.6875 928.3125,357.8594 Q928.9688,358.0156 929.5156,358.375 Z " fill="#000000"/><text fill="#000000" font-family="sans-serif" font-size="14" lengthAdjust="spacing" textLength="144" x="947.25" y="368.2285">CommunicationService</text><line style="stroke:#181818;stroke-width:0.5;" x1="774" x2="1232" y1="378.5" y2="378.5"/><line style="stroke:#181818;stroke-width:0.5;" x1="774" x2="1232" y1="386.5" y2="386.5"/><ellipse cx="784" cy="400.8047" fill="#84BE84" rx="3" ry="3" style="stroke:#038048;stroke-width:1.0;"/><text fill="#000000" font-family="sans-serif" font-size="14" lengthAdjust="spacing" textLength="353" x="793" y="405.0332">publishBookingRequest(request: BookingRequest): void</text><ellipse cx="784" cy="418.4141" fill="#84BE84" rx="3" ry="3" style="stroke:#038048;stroke-width:1.0;"/><text fill="#000000" font-family="sans-serif" font-size="14" lengthAdjust="spacing" textLength="434" x="793" y="422.6426">notifyTaxis(taxis: List&lt;Taxi&gt;, bookingRequest: BookingRequest): void</text></g><!--class Dashboard--><g id="elem_Dashboard"><rect codeLine="102" fill="#F1F1F1" height="100.8281" id="Dashboard" rx="2.5" ry="2.5" style="stroke:#181818;stroke-width:0.5;" width="587" x="1268.5" y="337.5"/><ellipse cx="1522.75" cy="353.5" fill="#ADD1B2" rx="11" ry="11" style="stroke:#181818;stroke-width:1.0;"/><path d="M1525.5156,349.375 Q1525.6719,349.1563 1525.8594,349.0469 Q1526.0469,348.9375 1526.2656,348.9375 Q1526.6406,348.9375 1526.875,349.2031 Q1527.1094,349.4531 1527.1094,350.0625 L1527.1094,351.5156 Q1527.1094,352.125 1526.875,352.3906 Q1526.6406,352.6563 1526.2656,352.6563 Q1525.9219,352.6563 1525.7188,352.4531 Q1525.5156,352.2656 1525.4063,351.75 Q1525.3594,351.3906 1525.1719,351.2031 Q1524.8438,350.8281 1524.2344,350.6094 Q1523.625,350.3906 1523,350.3906 Q1522.2344,350.3906 1521.5938,350.7188 Q1520.9688,351.0469 1520.4688,351.7969 Q1519.9844,352.5469 1519.9844,353.5781 L1519.9844,354.6719 Q1519.9844,355.9063 1520.875,356.7344 Q1521.7656,357.5469 1523.3594,357.5469 Q1524.2969,357.5469 1524.9531,357.2969 Q1525.3438,357.1406 1525.7656,356.7031 Q1526.0313,356.4375 1526.1719,356.3594 Q1526.3281,356.2813 1526.5313,356.2813 Q1526.8594,356.2813 1527.1094,356.5469 Q1527.375,356.7969 1527.375,357.1406 Q1527.375,357.4844 1527.0313,357.8906 Q1526.5313,358.4688 1525.7344,358.7969 Q1524.6563,359.25 1523.3594,359.25 Q1521.8438,359.25 1520.6406,358.625 Q1519.6563,358.125 1518.9688,357.0625 Q1518.2813,355.9844 1518.2813,354.7031 L1518.2813,353.5469 Q1518.2813,352.2188 1518.8906,351.0781 Q1519.5156,349.9219 1520.6094,349.3125 Q1521.7031,348.6875 1522.9375,348.6875 Q1523.6719,348.6875 1524.3125,348.8594 Q1524.9688,349.0156 1525.5156,349.375 Z " fill="#000000"/><text fill="#000000" font-family="sans-serif" font-size="14" lengthAdjust="spacing" textLength="70" x="1543.25" y="359.2285">Dashboard</text><line style="stroke:#181818;stroke-width:0.5;" x1="1269.5" x2="1854.5" y1="369.5" y2="369.5"/><line style="stroke:#181818;stroke-width:0.5;" x1="1269.5" x2="1854.5" y1="377.5" y2="377.5"/><ellipse cx="1279.5" cy="391.8047" fill="#84BE84" rx="3" ry="3" style="stroke:#038048;stroke-width:1.0;"/><text fill="#000000" font-family="sans-serif" font-size="14" lengthAdjust="spacing" textLength="156" x="1288.5" y="396.0332">renderDashboard(): void</text><ellipse cx="1279.5" cy="409.4141" fill="#84BE84" rx="3" ry="3" style="stroke:#038048;stroke-width:1.0;"/><text fill="#000000" font-family="sans-serif" font-size="14" lengthAdjust="spacing" textLength="561" x="1288.5" y="413.6426">generateBookingStats(bookingFilters: Collection&lt;Filter&lt;Booking&gt;&gt;): Collection&lt;Booking&gt;</text><ellipse cx="1279.5" cy="427.0234" fill="#84BE84" rx="3" ry="3" style="stroke:#038048;stroke-width:1.0;"/><text fill="#000000" font-family="sans-serif" font-size="14" lengthAdjust="spacing" textLength="457" x="1288.5" y="431.252">generateTaxiStats(taxiFilters: Collection&lt;Filter&lt;Taxi&gt;&gt;): Collection&lt;Taxi&gt;</text></g><!--class Location--><g id="elem_Location"><rect codeLine="2" fill="#F1F1F1" height="83.2188" id="Location" rx="2.5" ry="2.5" style="stroke:#181818;stroke-width:0.5;" width="135" x="1941.5" y="77.5"/><ellipse cx="1978.55" cy="93.5" fill="#ADD1B2" rx="11" ry="11" style="stroke:#181818;stroke-width:1.0;"/><path d="M1981.3156,89.375 Q1981.4719,89.1563 1981.6594,89.0469 Q1981.8469,88.9375 1982.0656,88.9375 Q1982.4406,88.9375 1982.675,89.2031 Q1982.9094,89.4531 1982.9094,90.0625 L1982.9094,91.5156 Q1982.9094,92.125 1982.675,92.3906 Q1982.4406,92.6563 1982.0656,92.6563 Q1981.7219,92.6563 1981.5188,92.4531 Q1981.3156,92.2656 1981.2063,91.75 Q1981.1594,91.3906 1980.9719,91.2031 Q1980.6438,90.8281 1980.0344,90.6094 Q1979.425,90.3906 1978.8,90.3906 Q1978.0344,90.3906 1977.3938,90.7188 Q1976.7688,91.0469 1976.2688,91.7969 Q1975.7844,92.5469 1975.7844,93.5781 L1975.7844,94.6719 Q1975.7844,95.9063 1976.675,96.7344 Q1977.5656,97.5469 1979.1594,97.5469 Q1980.0969,97.5469 1980.7531,97.2969 Q1981.1438,97.1406 1981.5656,96.7031 Q1981.8313,96.4375 1981.9719,96.3594 Q1982.1281,96.2813 1982.3313,96.2813 Q1982.6594,96.2813 1982.9094,96.5469 Q1983.175,96.7969 1983.175,97.1406 Q1983.175,97.4844 1982.8313,97.8906 Q1982.3313,98.4688 1981.5344,98.7969 Q1980.4563,99.25 1979.1594,99.25 Q1977.6438,99.25 1976.4406,98.625 Q1975.4563,98.125 1974.7688,97.0625 Q1974.0813,95.9844 1974.0813,94.7031 L1974.0813,93.5469 Q1974.0813,92.2188 1974.6906,91.0781 Q1975.3156,89.9219 1976.4094,89.3125 Q1977.5031,88.6875 1978.7375,88.6875 Q1979.4719,88.6875 1980.1125,88.8594 Q1980.7688,89.0156 1981.3156,89.375 Z " fill="#000000"/><text fill="#000000" font-family="sans-serif" font-size="14" lengthAdjust="spacing" textLength="54" x="1997.45" y="99.2285">Location</text><line style="stroke:#181818;stroke-width:0.5;" x1="1942.5" x2="2075.5" y1="109.5" y2="109.5"/><ellipse cx="1952.5" cy="123.8047" fill="none" rx="3" ry="3" style="stroke:#038048;stroke-width:1.0;"/><text fill="#000000" font-family="sans-serif" font-size="14" lengthAdjust="spacing" textLength="97" x="1961.5" y="128.0332">latitude: double</text><ellipse cx="1952.5" cy="141.4141" fill="none" rx="3" ry="3" style="stroke:#038048;stroke-width:1.0;"/><text fill="#000000" font-family="sans-serif" font-size="14" lengthAdjust="spacing" textLength="109" x="1961.5" y="145.6426">longitude: double</text><line style="stroke:#181818;stroke-width:0.5;" x1="1942.5" x2="2075.5" y1="152.7188" y2="152.7188"/></g><!--class User--><g id="elem_User"><rect codeLine="7" fill="#F1F1F1" height="136.0469" id="User" rx="2.5" ry="2.5" style="stroke:#181818;stroke-width:0.5;" width="465" x="2111.5" y="51"/><ellipse cx="2325.25" cy="67" fill="#ADD1B2" rx="11" ry="11" style="stroke:#181818;stroke-width:1.0;"/><path d="M2328.0156,62.875 Q2328.1719,62.6563 2328.3594,62.5469 Q2328.5469,62.4375 2328.7656,62.4375 Q2329.1406,62.4375 2329.375,62.7031 Q2329.6094,62.9531 2329.6094,63.5625 L2329.6094,65.0156 Q2329.6094,65.625 2329.375,65.8906 Q2329.1406,66.1563 2328.7656,66.1563 Q2328.4219,66.1563 2328.2188,65.9531 Q2328.0156,65.7656 2327.9063,65.25 Q2327.8594,64.8906 2327.6719,64.7031 Q2327.3438,64.3281 2326.7344,64.1094 Q2326.125,63.8906 2325.5,63.8906 Q2324.7344,63.8906 2324.0938,64.2188 Q2323.4688,64.5469 2322.9688,65.2969 Q2322.4844,66.0469 2322.4844,67.0781 L2322.4844,68.1719 Q2322.4844,69.4063 2323.375,70.2344 Q2324.2656,71.0469 2325.8594,71.0469 Q2326.7969,71.0469 2327.4531,70.7969 Q2327.8438,70.6406 2328.2656,70.2031 Q2328.5313,69.9375 2328.6719,69.8594 Q2328.8281,69.7813 2329.0313,69.7813 Q2329.3594,69.7813 2329.6094,70.0469 Q2329.875,70.2969 2329.875,70.6406 Q2329.875,70.9844 2329.5313,71.3906 Q2329.0313,71.9688 2328.2344,72.2969 Q2327.1563,72.75 2325.8594,72.75 Q2324.3438,72.75 2323.1406,72.125 Q2322.1563,71.625 2321.4688,70.5625 Q2320.7813,69.4844 2320.7813,68.2031 L2320.7813,67.0469 Q2320.7813,65.7188 2321.3906,64.5781 Q2322.0156,63.4219 2323.1094,62.8125 Q2324.2031,62.1875 2325.4375,62.1875 Q2326.1719,62.1875 2326.8125,62.3594 Q2327.4688,62.5156 2328.0156,62.875 Z " fill="#000000"/><text fill="#000000" font-family="sans-serif" font-size="14" lengthAdjust="spacing" textLength="29" x="2345.75" y="72.7285">User</text><line style="stroke:#181818;stroke-width:0.5;" x1="2112.5" x2="2575.5" y1="83" y2="83"/><ellipse cx="2122.5" cy="97.3047" fill="none" rx="3" ry="3" style="stroke:#038048;stroke-width:1.0;"/><text fill="#000000" font-family="sans-serif" font-size="14" lengthAdjust="spacing" textLength="63" x="2131.5" y="101.5332">id: Integer</text><ellipse cx="2122.5" cy="114.9141" fill="none" rx="3" ry="3" style="stroke:#038048;stroke-width:1.0;"/><text fill="#000000" font-family="sans-serif" font-size="14" lengthAdjust="spacing" textLength="80" x="2131.5" y="119.1426">name: String</text><line style="stroke:#181818;stroke-width:0.5;" x1="2112.5" x2="2575.5" y1="126.2188" y2="126.2188"/><ellipse cx="2122.5" cy="140.5234" fill="#84BE84" rx="3" ry="3" style="stroke:#038048;stroke-width:1.0;"/><text fill="#000000" font-family="sans-serif" font-size="14" lengthAdjust="spacing" textLength="439" x="2131.5" y="144.752">requestBooking(pickup: Location, dropoff: Location): BookingRequest</text><ellipse cx="2122.5" cy="158.1328" fill="#84BE84" rx="3" ry="3" style="stroke:#038048;stroke-width:1.0;"/><text fill="#000000" font-family="sans-serif" font-size="14" lengthAdjust="spacing" textLength="322" x="2131.5" y="162.3613">viewBookingStatus(request: BookingRequest): void</text><ellipse cx="2122.5" cy="175.7422" fill="#84BE84" rx="3" ry="3" style="stroke:#038048;stroke-width:1.0;"/><text fill="#000000" font-family="sans-serif" font-size="14" lengthAdjust="spacing" textLength="340" x="2131.5" y="179.9707">cancelBooking(cancelBooking: BookingRequest): void</text></g><!--link BookingRequest to Booking--><g id="link_BookingRequest_Booking"><path codeLine="61" d="M181,196.15 C181,220.97 181,243.05 181,269.89 " fill="none" id="BookingRequest-to-Booking" style="stroke:#181818;stroke-width:1.0;"/><polygon fill="#181818" points="181,275.89,185,266.89,181,270.89,177,266.89,181,275.89" style="stroke:#181818;stroke-width:1.0;"/><text fill="#000000" font-family="sans-serif" font-size="13" lengthAdjust="spacing" textLength="55" x="182" y="242.4951">Becomes</text><text fill="#000000" font-family="sans-serif" font-size="13" lengthAdjust="spacing" textLength="7" x="173.6883" y="217.2598">1</text><text fill="#000000" font-family="sans-serif" font-size="13" lengthAdjust="spacing" textLength="22" x="158.2609" y="265.3239">0..1</text></g><!--SRC=[hLLHRvim47xlhq1vIhMssbvHLIabKB7H94hIQQy6BgbLi9bjqbNL_ljiRC1E89scvIa-ttt-xhwx8oiGvrv2CoGm9TxxXIT_dmfv4dKElfVJEYt0M2dPk-RV5nTP0_34WRN1EFUzc0ZO0zC6WaePiX4CaxssCFXP0nVtbBv8sxJ2sKjT-HsDAozdjAAxNM-wz3tZlTQn6kY0uTNODmA9cayDzB6xZ3zGdEke394CYlPrvpGM9pEjKFQ2zk1DZCV490oaBZtZhacO2_LRXOjvl7ZepklmQnXimtbd27-iuhKvoqSwm2twXTV0AqeuM7Yp80XNs-uu3uCaNeHsj1R4pS82E96dCTPIFxzHiRTfLLe1UYbw3wFIEHSZnnQh5fWZ0UfVVysRUlbk-SvaSrAF9XtpI3ottzMklbF8aoexlMF11ij55AyVBPsMYuUbBMImV5mbeQraC5i4OPAuMZhyFvHXf7bx1mc6zmHobPHEhRzBTSn7fNPIFaPMY5FHWTjJOqtEzDHEowe00Uh6MXacfiXgkL4WGcpGeQvoUMlcby3hPeYf_QIfxL6FJxvClElhEs_o-UP6_crhxik11SaF-CIUOfMUFS3gVD86i- -pE9dT9s5dkLyklzbT4KN3ysV1Zyijtqs1hLHjdFtewDKJ6wdOYHXx447D613HpgFo6PfDDHNvbhQRS7nt3WoHlH6Z0a1uZuZ8KodVRLUZhaM42z5z7dIpLLNnDiK2IWcjLti1Y8mEJY0nNOHAjX3cpotpzFpsxiAabRsrGRk6bonnG8i2CbMSMytrrhZStLqwjwsv1tn692_0Bi-qNpr7QskWXVjcqILyFwAgRlWveihXc6LZSzfXTa2uGAacsdHCWhcm71qw0ItBcc3TBXjW1vp1UErDgV_cmwkRdWgyCucfJSDjCbTUwaIVGtCupn5_JYbYkKrKZa0EhBiQcXG2J4wIjMbusqlHV-YE5h-TOPrnzAzogg7x0m00]--></g></svg>