<?xml version="1.0" encoding="us-ascii" standalone="no"?><svg xmlns="http://www.w3.org/2000/svg" xmlns:xlink="http://www.w3.org/1999/xlink" contentStyleType="text/css" height="539px" preserveAspectRatio="none" style="width:2359px;height:539px;background:#FFFFFF;" version="1.1" viewBox="0 0 2359 539" width="2359px" zoomAndPan="magnify"><defs/><g><!--cluster Booking--><g id="cluster_Booking"><path d="M8.5,6 L67.5,6 A3.75,3.75 0 0 1 70,8.5 L77,29.6094 L598.5,29.6094 A2.5,2.5 0 0 1 601,32.1094 L601,476.5 A2.5,2.5 0 0 1 598.5,479 L8.5,479 A2.5,2.5 0 0 1 6,476.5 L6,8.5 A2.5,2.5 0 0 1 8.5,6 " fill="none" style="stroke:#000000;stroke-width:1.5;"/><line style="stroke:#000000;stroke-width:1.5;" x1="6" x2="77" y1="29.6094" y2="29.6094"/><text fill="#000000" font-family="sans-serif" font-size="14" font-weight="bold" lengthAdjust="spacing" textLength="58" x="10" y="22.5332">Booking</text></g><!--cluster Taxi--><g id="cluster_Taxi"><path d="M2037.5,24 L2066.5,24 A3.75,3.75 0 0 1 2069,26.5 L2076,47.6094 L2349.5,47.6094 A2.5,2.5 0 0 1 2352,50.1094 L2352,191.5 A2.5,2.5 0 0 1 2349.5,194 L2037.5,194 A2.5,2.5 0 0 1 2035,191.5 L2035,26.5 A2.5,2.5 0 0 1 2037.5,24 " fill="none" style="stroke:#000000;stroke-width:1.5;"/><line style="stroke:#000000;stroke-width:1.5;" x1="2035" x2="2076" y1="47.6094" y2="47.6094"/><text fill="#000000" font-family="sans-serif" font-size="14" font-weight="bold" lengthAdjust="spacing" textLength="28" x="2039" y="40.5332">Taxi</text></g><!--cluster Fleet Management System--><g id="cluster_Fleet Management System"><path d="M627.5,15 L813.5,15 A3.75,3.75 0 0 1 816,17.5 L823,38.6094 L1689.5,38.6094 A2.5,2.5 0 0 1 1692,41.1094 L1692,529.5 A2.5,2.5 0 0 1 1689.5,532 L627.5,532 A2.5,2.5 0 0 1 625,529.5 L625,17.5 A2.5,2.5 0 0 1 627.5,15 " fill="none" style="stroke:#000000;stroke-width:1.5;"/><line style="stroke:#000000;stroke-width:1.5;" x1="625" x2="823" y1="38.6094" y2="38.6094"/><text fill="#000000" font-family="sans-serif" font-size="14" font-weight="bold" lengthAdjust="spacing" textLength="185" x="629" y="31.5332">Fleet Management System</text></g><!--class RequestStatus--><g id="elem_RequestStatus"><rect codeLine="16" fill="#F1F1F1" height="100.8281" id="RequestStatus" rx="2.5" ry="2.5" style="stroke:#181818;stroke-width:0.5;" width="125" x="272.5" y="68.5"/><ellipse cx="287.5" cy="84.5" fill="#EB937F" rx="11" ry="11" style="stroke:#181818;stroke-width:1.0;"/><path d="M286.3594,85.2969 L286.3594,87.7969 L290.6875,87.7969 L290.6875,86.875 Q290.6875,86.2656 290.9219,86 Q291.1719,85.7344 291.5469,85.7344 Q291.9219,85.7344 292.1563,86 Q292.3906,86.2656 292.3906,86.875 L292.3906,89.5 L284.3906,89.5 Q283.7656,89.5 283.5,89.2656 Q283.25,89.0313 283.25,88.6406 Q283.25,88.2656 283.5156,88.0313 Q283.7813,87.7969 284.3906,87.7969 L284.6563,87.7969 L284.6563,81.1406 L284.3906,81.1406 Q283.7656,81.1406 283.5,80.9063 Q283.25,80.6719 283.25,80.2813 Q283.25,79.9063 283.5,79.6719 Q283.7656,79.4375 284.3906,79.4375 L292.0156,79.4375 L292.0156,82.0313 Q292.0156,82.6406 291.7813,82.9063 Q291.5625,83.1563 291.1719,83.1563 Q290.7969,83.1563 290.5625,82.9063 Q290.3281,82.6406 290.3281,82.0313 L290.3281,81.1406 L286.3594,81.1406 L286.3594,83.5938 L287.8438,83.5938 Q287.8438,82.9375 287.9688,82.75 Q288.2344,82.3438 288.7031,82.3438 Q289.0781,82.3438 289.3125,82.6094 Q289.5469,82.8594 289.5469,83.4688 L289.5469,85.4375 Q289.5469,85.9844 289.4219,86.1719 Q289.1563,86.5625 288.7031,86.5625 Q288.2344,86.5625 287.9688,86.1563 Q287.8438,85.9688 287.8438,85.2969 L286.3594,85.2969 Z " fill="#000000"/><text fill="#000000" font-family="sans-serif" font-size="14" lengthAdjust="spacing" textLength="93" x="301.5" y="90.2285">RequestStatus</text><line style="stroke:#181818;stroke-width:0.5;" x1="273.5" x2="396.5" y1="100.5" y2="100.5"/><text fill="#000000" font-family="sans-serif" font-size="14" lengthAdjust="spacing" textLength="60" x="278.5" y="119.0332">PENDING</text><text fill="#000000" font-family="sans-serif" font-size="14" lengthAdjust="spacing" textLength="72" x="278.5" y="136.6426">REJECTED</text><text fill="#000000" font-family="sans-serif" font-size="14" lengthAdjust="spacing" textLength="58" x="278.5" y="154.252">EXPIRED</text><line style="stroke:#181818;stroke-width:0.5;" x1="273.5" x2="396.5" y1="161.3281" y2="161.3281"/></g><!--class TaxiResponse--><g id="elem_TaxiResponse"><rect codeLine="22" fill="#F1F1F1" height="83.2188" id="TaxiResponse" rx="2.5" ry="2.5" style="stroke:#181818;stroke-width:0.5;" width="122" x="433" y="77.5"/><ellipse cx="448" cy="93.5" fill="#EB937F" rx="11" ry="11" style="stroke:#181818;stroke-width:1.0;"/><path d="M446.8594,94.2969 L446.8594,96.7969 L451.1875,96.7969 L451.1875,95.875 Q451.1875,95.2656 451.4219,95 Q451.6719,94.7344 452.0469,94.7344 Q452.4219,94.7344 452.6563,95 Q452.8906,95.2656 452.8906,95.875 L452.8906,98.5 L444.8906,98.5 Q444.2656,98.5 444,98.2656 Q443.75,98.0313 443.75,97.6406 Q443.75,97.2656 444.0156,97.0313 Q444.2813,96.7969 444.8906,96.7969 L445.1563,96.7969 L445.1563,90.1406 L444.8906,90.1406 Q444.2656,90.1406 444,89.9063 Q443.75,89.6719 443.75,89.2813 Q443.75,88.9063 444,88.6719 Q444.2656,88.4375 444.8906,88.4375 L452.5156,88.4375 L452.5156,91.0313 Q452.5156,91.6406 452.2813,91.9063 Q452.0625,92.1563 451.6719,92.1563 Q451.2969,92.1563 451.0625,91.9063 Q450.8281,91.6406 450.8281,91.0313 L450.8281,90.1406 L446.8594,90.1406 L446.8594,92.5938 L448.3438,92.5938 Q448.3438,91.9375 448.4688,91.75 Q448.7344,91.3438 449.2031,91.3438 Q449.5781,91.3438 449.8125,91.6094 Q450.0469,91.8594 450.0469,92.4688 L450.0469,94.4375 Q450.0469,94.9844 449.9219,95.1719 Q449.6563,95.5625 449.2031,95.5625 Q448.7344,95.5625 448.4688,95.1563 Q448.3438,94.9688 448.3438,94.2969 L446.8594,94.2969 Z " fill="#000000"/><text fill="#000000" font-family="sans-serif" font-size="14" lengthAdjust="spacing" textLength="90" x="462" y="99.2285">TaxiResponse</text><line style="stroke:#181818;stroke-width:0.5;" x1="434" x2="554" y1="109.5" y2="109.5"/><text fill="#000000" font-family="sans-serif" font-size="14" lengthAdjust="spacing" textLength="56" x="439" y="128.0332">ACCEPT</text><text fill="#000000" font-family="sans-serif" font-size="14" lengthAdjust="spacing" textLength="58" x="439" y="145.6426">DECLINE</text><line style="stroke:#181818;stroke-width:0.5;" x1="434" x2="554" y1="152.7188" y2="152.7188"/></g><!--class BookingRequest--><g id="elem_BookingRequest"><rect codeLine="27" fill="#F1F1F1" height="153.6563" id="BookingRequest" rx="2.5" ry="2.5" style="stroke:#181818;stroke-width:0.5;" width="187" x="22.5" y="42"/><ellipse cx="60.45" cy="58" fill="#ADD1B2" rx="11" ry="11" style="stroke:#181818;stroke-width:1.0;"/><path d="M63.2156,53.875 Q63.3719,53.6563 63.5594,53.5469 Q63.7469,53.4375 63.9656,53.4375 Q64.3406,53.4375 64.575,53.7031 Q64.8094,53.9531 64.8094,54.5625 L64.8094,56.0156 Q64.8094,56.625 64.575,56.8906 Q64.3406,57.1563 63.9656,57.1563 Q63.6219,57.1563 63.4188,56.9531 Q63.2156,56.7656 63.1063,56.25 Q63.0594,55.8906 62.8719,55.7031 Q62.5438,55.3281 61.9344,55.1094 Q61.325,54.8906 60.7,54.8906 Q59.9344,54.8906 59.2938,55.2188 Q58.6688,55.5469 58.1688,56.2969 Q57.6844,57.0469 57.6844,58.0781 L57.6844,59.1719 Q57.6844,60.4063 58.575,61.2344 Q59.4656,62.0469 61.0594,62.0469 Q61.9969,62.0469 62.6531,61.7969 Q63.0438,61.6406 63.4656,61.2031 Q63.7313,60.9375 63.8719,60.8594 Q64.0281,60.7813 64.2313,60.7813 Q64.5594,60.7813 64.8094,61.0469 Q65.075,61.2969 65.075,61.6406 Q65.075,61.9844 64.7313,62.3906 Q64.2313,62.9688 63.4344,63.2969 Q62.3563,63.75 61.0594,63.75 Q59.5438,63.75 58.3406,63.125 Q57.3563,62.625 56.6688,61.5625 Q55.9813,60.4844 55.9813,59.2031 L55.9813,58.0469 Q55.9813,56.7188 56.5906,55.5781 Q57.2156,54.4219 58.3094,53.8125 Q59.4031,53.1875 60.6375,53.1875 Q61.3719,53.1875 62.0125,53.3594 Q62.6688,53.5156 63.2156,53.875 Z " fill="#000000"/><text fill="#000000" font-family="sans-serif" font-size="14" lengthAdjust="spacing" textLength="104" x="79.55" y="63.7285">BookingRequest</text><line style="stroke:#181818;stroke-width:0.5;" x1="23.5" x2="208.5" y1="74" y2="74"/><ellipse cx="33.5" cy="88.3047" fill="none" rx="3" ry="3" style="stroke:#038048;stroke-width:1.0;"/><text fill="#000000" font-family="sans-serif" font-size="14" lengthAdjust="spacing" textLength="50" x="42.5" y="92.5332">id: UUID</text><ellipse cx="33.5" cy="105.9141" fill="none" rx="3" ry="3" style="stroke:#038048;stroke-width:1.0;"/><text fill="#000000" font-family="sans-serif" font-size="14" lengthAdjust="spacing" textLength="80" x="42.5" y="110.1426">userID: UUID</text><ellipse cx="33.5" cy="123.5234" fill="none" rx="3" ry="3" style="stroke:#038048;stroke-width:1.0;"/><text fill="#000000" font-family="sans-serif" font-size="14" lengthAdjust="spacing" textLength="157" x="42.5" y="127.752">pickupLocation: Location</text><ellipse cx="33.5" cy="141.1328" fill="none" rx="3" ry="3" style="stroke:#038048;stroke-width:1.0;"/><text fill="#000000" font-family="sans-serif" font-size="14" lengthAdjust="spacing" textLength="161" x="42.5" y="145.3613">dropoffLocation: Location</text><ellipse cx="33.5" cy="158.7422" fill="none" rx="3" ry="3" style="stroke:#038048;stroke-width:1.0;"/><text fill="#000000" font-family="sans-serif" font-size="14" lengthAdjust="spacing" textLength="148" x="42.5" y="162.9707">requestTime: DateTime</text><ellipse cx="33.5" cy="176.3516" fill="none" rx="3" ry="3" style="stroke:#038048;stroke-width:1.0;"/><text fill="#000000" font-family="sans-serif" font-size="14" lengthAdjust="spacing" textLength="139" x="42.5" y="180.5801">status: RequestStatus</text><line style="stroke:#181818;stroke-width:0.5;" x1="23.5" x2="208.5" y1="187.6563" y2="187.6563"/></g><!--class BookingResponse--><g id="elem_BookingResponse"><rect codeLine="36" fill="#F1F1F1" height="100.8281" id="BookingResponse" rx="2.5" ry="2.5" style="stroke:#181818;stroke-width:0.5;" width="183" x="243.5" y="344.5"/><ellipse cx="274.7" cy="360.5" fill="#ADD1B2" rx="11" ry="11" style="stroke:#181818;stroke-width:1.0;"/><path d="M277.4656,356.375 Q277.6219,356.1563 277.8094,356.0469 Q277.9969,355.9375 278.2156,355.9375 Q278.5906,355.9375 278.825,356.2031 Q279.0594,356.4531 279.0594,357.0625 L279.0594,358.5156 Q279.0594,359.125 278.825,359.3906 Q278.5906,359.6563 278.2156,359.6563 Q277.8719,359.6563 277.6688,359.4531 Q277.4656,359.2656 277.3563,358.75 Q277.3094,358.3906 277.1219,358.2031 Q276.7938,357.8281 276.1844,357.6094 Q275.575,357.3906 274.95,357.3906 Q274.1844,357.3906 273.5438,357.7188 Q272.9188,358.0469 272.4188,358.7969 Q271.9344,359.5469 271.9344,360.5781 L271.9344,361.6719 Q271.9344,362.9063 272.825,363.7344 Q273.7156,364.5469 275.3094,364.5469 Q276.2469,364.5469 276.9031,364.2969 Q277.2938,364.1406 277.7156,363.7031 Q277.9813,363.4375 278.1219,363.3594 Q278.2781,363.2813 278.4813,363.2813 Q278.8094,363.2813 279.0594,363.5469 Q279.325,363.7969 279.325,364.1406 Q279.325,364.4844 278.9813,364.8906 Q278.4813,365.4688 277.6844,365.7969 Q276.6063,366.25 275.3094,366.25 Q273.7938,366.25 272.5906,365.625 Q271.6063,365.125 270.9188,364.0625 Q270.2313,362.9844 270.2313,361.7031 L270.2313,360.5469 Q270.2313,359.2188 270.8406,358.0781 Q271.4656,356.9219 272.5594,356.3125 Q273.6531,355.6875 274.8875,355.6875 Q275.6219,355.6875 276.2625,355.8594 Q276.9188,356.0156 277.4656,356.375 Z " fill="#000000"/><text fill="#000000" font-family="sans-serif" font-size="14" lengthAdjust="spacing" textLength="115" x="292.3" y="366.2285">BookingResponse</text><line style="stroke:#181818;stroke-width:0.5;" x1="244.5" x2="425.5" y1="376.5" y2="376.5"/><ellipse cx="254.5" cy="390.8047" fill="none" rx="3" ry="3" style="stroke:#038048;stroke-width:1.0;"/><text fill="#000000" font-family="sans-serif" font-size="14" lengthAdjust="spacing" textLength="130" x="263.5" y="395.0332">requestID: requestID</text><ellipse cx="254.5" cy="408.4141" fill="none" rx="3" ry="3" style="stroke:#038048;stroke-width:1.0;"/><text fill="#000000" font-family="sans-serif" font-size="14" lengthAdjust="spacing" textLength="73" x="263.5" y="412.6426">taxiID: UUID</text><ellipse cx="254.5" cy="426.0234" fill="none" rx="3" ry="3" style="stroke:#038048;stroke-width:1.0;"/><text fill="#000000" font-family="sans-serif" font-size="14" lengthAdjust="spacing" textLength="157" x="263.5" y="430.252">response: TaxiResponse</text><line style="stroke:#181818;stroke-width:0.5;" x1="244.5" x2="425.5" y1="437.3281" y2="437.3281"/></g><!--class BookingStatus--><g id="elem_BookingStatus"><rect codeLine="42" fill="#F1F1F1" height="118.4375" id="BookingStatus" rx="2.5" ry="2.5" style="stroke:#181818;stroke-width:0.5;" width="123" x="461.5" y="336"/><ellipse cx="476.5" cy="352" fill="#EB937F" rx="11" ry="11" style="stroke:#181818;stroke-width:1.0;"/><path d="M475.3594,352.7969 L475.3594,355.2969 L479.6875,355.2969 L479.6875,354.375 Q479.6875,353.7656 479.9219,353.5 Q480.1719,353.2344 480.5469,353.2344 Q480.9219,353.2344 481.1563,353.5 Q481.3906,353.7656 481.3906,354.375 L481.3906,357 L473.3906,357 Q472.7656,357 472.5,356.7656 Q472.25,356.5313 472.25,356.1406 Q472.25,355.7656 472.5156,355.5313 Q472.7813,355.2969 473.3906,355.2969 L473.6563,355.2969 L473.6563,348.6406 L473.3906,348.6406 Q472.7656,348.6406 472.5,348.4063 Q472.25,348.1719 472.25,347.7813 Q472.25,347.4063 472.5,347.1719 Q472.7656,346.9375 473.3906,346.9375 L481.0156,346.9375 L481.0156,349.5313 Q481.0156,350.1406 480.7813,350.4063 Q480.5625,350.6563 480.1719,350.6563 Q479.7969,350.6563 479.5625,350.4063 Q479.3281,350.1406 479.3281,349.5313 L479.3281,348.6406 L475.3594,348.6406 L475.3594,351.0938 L476.8438,351.0938 Q476.8438,350.4375 476.9688,350.25 Q477.2344,349.8438 477.7031,349.8438 Q478.0781,349.8438 478.3125,350.1094 Q478.5469,350.3594 478.5469,350.9688 L478.5469,352.9375 Q478.5469,353.4844 478.4219,353.6719 Q478.1563,354.0625 477.7031,354.0625 Q477.2344,354.0625 476.9688,353.6563 Q476.8438,353.4688 476.8438,352.7969 L475.3594,352.7969 Z " fill="#000000"/><text fill="#000000" font-family="sans-serif" font-size="14" lengthAdjust="spacing" textLength="91" x="490.5" y="357.7285">BookingStatus</text><line style="stroke:#181818;stroke-width:0.5;" x1="462.5" x2="583.5" y1="368" y2="368"/><text fill="#000000" font-family="sans-serif" font-size="14" lengthAdjust="spacing" textLength="82" x="467.5" y="386.5332">CONFIRMED</text><text fill="#000000" font-family="sans-serif" font-size="14" lengthAdjust="spacing" textLength="65" x="467.5" y="404.1426">ONGOING</text><text fill="#000000" font-family="sans-serif" font-size="14" lengthAdjust="spacing" textLength="86" x="467.5" y="421.752">COMPLETED</text><text fill="#000000" font-family="sans-serif" font-size="14" lengthAdjust="spacing" textLength="82" x="467.5" y="439.3613">CANCELLED</text><line style="stroke:#181818;stroke-width:0.5;" x1="462.5" x2="583.5" y1="446.4375" y2="446.4375"/></g><!--class Booking--><g id="elem_Booking"><rect codeLine="49" fill="#F1F1F1" height="136.0469" id="Booking" rx="2.5" ry="2.5" style="stroke:#181818;stroke-width:0.5;" width="186" x="22" y="327"/><ellipse cx="85.25" cy="343" fill="#ADD1B2" rx="11" ry="11" style="stroke:#181818;stroke-width:1.0;"/><path d="M88.0156,338.875 Q88.1719,338.6563 88.3594,338.5469 Q88.5469,338.4375 88.7656,338.4375 Q89.1406,338.4375 89.375,338.7031 Q89.6094,338.9531 89.6094,339.5625 L89.6094,341.0156 Q89.6094,341.625 89.375,341.8906 Q89.1406,342.1563 88.7656,342.1563 Q88.4219,342.1563 88.2188,341.9531 Q88.0156,341.7656 87.9063,341.25 Q87.8594,340.8906 87.6719,340.7031 Q87.3438,340.3281 86.7344,340.1094 Q86.125,339.8906 85.5,339.8906 Q84.7344,339.8906 84.0938,340.2188 Q83.4688,340.5469 82.9688,341.2969 Q82.4844,342.0469 82.4844,343.0781 L82.4844,344.1719 Q82.4844,345.4063 83.375,346.2344 Q84.2656,347.0469 85.8594,347.0469 Q86.7969,347.0469 87.4531,346.7969 Q87.8438,346.6406 88.2656,346.2031 Q88.5313,345.9375 88.6719,345.8594 Q88.8281,345.7813 89.0313,345.7813 Q89.3594,345.7813 89.6094,346.0469 Q89.875,346.2969 89.875,346.6406 Q89.875,346.9844 89.5313,347.3906 Q89.0313,347.9688 88.2344,348.2969 Q87.1563,348.75 85.8594,348.75 Q84.3438,348.75 83.1406,348.125 Q82.1563,347.625 81.4688,346.5625 Q80.7813,345.4844 80.7813,344.2031 L80.7813,343.0469 Q80.7813,341.7188 81.3906,340.5781 Q82.0156,339.4219 83.1094,338.8125 Q84.2031,338.1875 85.4375,338.1875 Q86.1719,338.1875 86.8125,338.3594 Q87.4688,338.5156 88.0156,338.875 Z " fill="#000000"/><text fill="#000000" font-family="sans-serif" font-size="14" lengthAdjust="spacing" textLength="51" x="105.75" y="348.7285">Booking</text><line style="stroke:#181818;stroke-width:0.5;" x1="23" x2="207" y1="359" y2="359"/><ellipse cx="33" cy="373.3047" fill="none" rx="3" ry="3" style="stroke:#038048;stroke-width:1.0;"/><text fill="#000000" font-family="sans-serif" font-size="14" lengthAdjust="spacing" textLength="66" x="42" y="377.5332">uuid: UUID</text><ellipse cx="33" cy="390.9141" fill="none" rx="3" ry="3" style="stroke:#038048;stroke-width:1.0;"/><text fill="#000000" font-family="sans-serif" font-size="14" lengthAdjust="spacing" textLength="160" x="42" y="395.1426">request: BookingRequest</text><ellipse cx="33" cy="408.5234" fill="none" rx="3" ry="3" style="stroke:#038048;stroke-width:1.0;"/><text fill="#000000" font-family="sans-serif" font-size="14" lengthAdjust="spacing" textLength="117" x="42" y="412.752">assignedTaxi: Taxi</text><ellipse cx="33" cy="426.1328" fill="none" rx="3" ry="3" style="stroke:#038048;stroke-width:1.0;"/><text fill="#000000" font-family="sans-serif" font-size="14" lengthAdjust="spacing" textLength="150" x="42" y="430.3613">bookingTime: DateTime</text><ellipse cx="33" cy="443.7422" fill="none" rx="3" ry="3" style="stroke:#038048;stroke-width:1.0;"/><text fill="#000000" font-family="sans-serif" font-size="14" lengthAdjust="spacing" textLength="137" x="42" y="447.9707">status: BookingStatus</text><line style="stroke:#181818;stroke-width:0.5;" x1="23" x2="207" y1="455.0469" y2="455.0469"/></g><!--class TaxiStatus--><g id="elem_TaxiStatus"><rect codeLine="61" fill="#F1F1F1" height="118.4375" id="TaxiStatus" rx="2.5" ry="2.5" style="stroke:#181818;stroke-width:0.5;" width="98" x="2238" y="60"/><ellipse cx="2253" cy="76" fill="#EB937F" rx="11" ry="11" style="stroke:#181818;stroke-width:1.0;"/><path d="M2251.8594,76.7969 L2251.8594,79.2969 L2256.1875,79.2969 L2256.1875,78.375 Q2256.1875,77.7656 2256.4219,77.5 Q2256.6719,77.2344 2257.0469,77.2344 Q2257.4219,77.2344 2257.6563,77.5 Q2257.8906,77.7656 2257.8906,78.375 L2257.8906,81 L2249.8906,81 Q2249.2656,81 2249,80.7656 Q2248.75,80.5313 2248.75,80.1406 Q2248.75,79.7656 2249.0156,79.5313 Q2249.2813,79.2969 2249.8906,79.2969 L2250.1563,79.2969 L2250.1563,72.6406 L2249.8906,72.6406 Q2249.2656,72.6406 2249,72.4063 Q2248.75,72.1719 2248.75,71.7813 Q2248.75,71.4063 2249,71.1719 Q2249.2656,70.9375 2249.8906,70.9375 L2257.5156,70.9375 L2257.5156,73.5313 Q2257.5156,74.1406 2257.2813,74.4063 Q2257.0625,74.6563 2256.6719,74.6563 Q2256.2969,74.6563 2256.0625,74.4063 Q2255.8281,74.1406 2255.8281,73.5313 L2255.8281,72.6406 L2251.8594,72.6406 L2251.8594,75.0938 L2253.3438,75.0938 Q2253.3438,74.4375 2253.4688,74.25 Q2253.7344,73.8438 2254.2031,73.8438 Q2254.5781,73.8438 2254.8125,74.1094 Q2255.0469,74.3594 2255.0469,74.9688 L2255.0469,76.9375 Q2255.0469,77.4844 2254.9219,77.6719 Q2254.6563,78.0625 2254.2031,78.0625 Q2253.7344,78.0625 2253.4688,77.6563 Q2253.3438,77.4688 2253.3438,76.7969 L2251.8594,76.7969 Z " fill="#000000"/><text fill="#000000" font-family="sans-serif" font-size="14" lengthAdjust="spacing" textLength="66" x="2267" y="81.7285">TaxiStatus</text><line style="stroke:#181818;stroke-width:0.5;" x1="2239" x2="2335" y1="92" y2="92"/><text fill="#000000" font-family="sans-serif" font-size="14" lengthAdjust="spacing" textLength="73" x="2244" y="110.5332">AVAILABLE</text><text fill="#000000" font-family="sans-serif" font-size="14" lengthAdjust="spacing" textLength="59" x="2244" y="128.1426">BOOKED</text><text fill="#000000" font-family="sans-serif" font-size="14" lengthAdjust="spacing" textLength="46" x="2244" y="145.752">RIDING</text><text fill="#000000" font-family="sans-serif" font-size="14" lengthAdjust="spacing" textLength="58" x="2244" y="163.3613">OFFLINE</text><line style="stroke:#181818;stroke-width:0.5;" x1="2239" x2="2335" y1="170.4375" y2="170.4375"/></g><!--class Taxi--><g id="elem_Taxi"><rect codeLine="68" fill="#F1F1F1" height="100.8281" id="Taxi" rx="2.5" ry="2.5" style="stroke:#181818;stroke-width:0.5;" width="151" x="2051.5" y="68.5"/><ellipse cx="2109.75" cy="84.5" fill="#ADD1B2" rx="11" ry="11" style="stroke:#181818;stroke-width:1.0;"/><path d="M2112.5156,80.375 Q2112.6719,80.1563 2112.8594,80.0469 Q2113.0469,79.9375 2113.2656,79.9375 Q2113.6406,79.9375 2113.875,80.2031 Q2114.1094,80.4531 2114.1094,81.0625 L2114.1094,82.5156 Q2114.1094,83.125 2113.875,83.3906 Q2113.6406,83.6563 2113.2656,83.6563 Q2112.9219,83.6563 2112.7188,83.4531 Q2112.5156,83.2656 2112.4063,82.75 Q2112.3594,82.3906 2112.1719,82.2031 Q2111.8438,81.8281 2111.2344,81.6094 Q2110.625,81.3906 2110,81.3906 Q2109.2344,81.3906 2108.5938,81.7188 Q2107.9688,82.0469 2107.4688,82.7969 Q2106.9844,83.5469 2106.9844,84.5781 L2106.9844,85.6719 Q2106.9844,86.9063 2107.875,87.7344 Q2108.7656,88.5469 2110.3594,88.5469 Q2111.2969,88.5469 2111.9531,88.2969 Q2112.3438,88.1406 2112.7656,87.7031 Q2113.0313,87.4375 2113.1719,87.3594 Q2113.3281,87.2813 2113.5313,87.2813 Q2113.8594,87.2813 2114.1094,87.5469 Q2114.375,87.7969 2114.375,88.1406 Q2114.375,88.4844 2114.0313,88.8906 Q2113.5313,89.4688 2112.7344,89.7969 Q2111.6563,90.25 2110.3594,90.25 Q2108.8438,90.25 2107.6406,89.625 Q2106.6563,89.125 2105.9688,88.0625 Q2105.2813,86.9844 2105.2813,85.7031 L2105.2813,84.5469 Q2105.2813,83.2188 2105.8906,82.0781 Q2106.5156,80.9219 2107.6094,80.3125 Q2108.7031,79.6875 2109.9375,79.6875 Q2110.6719,79.6875 2111.3125,79.8594 Q2111.9688,80.0156 2112.5156,80.375 Z " fill="#000000"/><text fill="#000000" font-family="sans-serif" font-size="14" lengthAdjust="spacing" textLength="26" x="2130.25" y="90.2285">Taxi</text><line style="stroke:#181818;stroke-width:0.5;" x1="2052.5" x2="2201.5" y1="100.5" y2="100.5"/><ellipse cx="2062.5" cy="114.8047" fill="none" rx="3" ry="3" style="stroke:#038048;stroke-width:1.0;"/><text fill="#000000" font-family="sans-serif" font-size="14" lengthAdjust="spacing" textLength="63" x="2071.5" y="119.0332">id: Integer</text><ellipse cx="2062.5" cy="132.4141" fill="none" rx="3" ry="3" style="stroke:#038048;stroke-width:1.0;"/><text fill="#000000" font-family="sans-serif" font-size="14" lengthAdjust="spacing" textLength="125" x="2071.5" y="136.6426">numberPlate: String</text><ellipse cx="2062.5" cy="150.0234" fill="none" rx="3" ry="3" style="stroke:#038048;stroke-width:1.0;"/><text fill="#000000" font-family="sans-serif" font-size="14" lengthAdjust="spacing" textLength="112" x="2071.5" y="154.252">status: TaxiStatus</text><line style="stroke:#181818;stroke-width:0.5;" x1="2052.5" x2="2201.5" y1="161.3281" y2="161.3281"/></g><!--class CommunicationService--><g id="elem_CommunicationService"><rect codeLine="77" fill="#F1F1F1" height="83.2188" id="CommunicationService" rx="2.5" ry="2.5" style="stroke:#181818;stroke-width:0.5;" width="500" x="641" y="77.5"/><ellipse cx="814.75" cy="93.5" fill="#ADD1B2" rx="11" ry="11" style="stroke:#181818;stroke-width:1.0;"/><path d="M817.5156,89.375 Q817.6719,89.1563 817.8594,89.0469 Q818.0469,88.9375 818.2656,88.9375 Q818.6406,88.9375 818.875,89.2031 Q819.1094,89.4531 819.1094,90.0625 L819.1094,91.5156 Q819.1094,92.125 818.875,92.3906 Q818.6406,92.6563 818.2656,92.6563 Q817.9219,92.6563 817.7188,92.4531 Q817.5156,92.2656 817.4063,91.75 Q817.3594,91.3906 817.1719,91.2031 Q816.8438,90.8281 816.2344,90.6094 Q815.625,90.3906 815,90.3906 Q814.2344,90.3906 813.5938,90.7188 Q812.9688,91.0469 812.4688,91.7969 Q811.9844,92.5469 811.9844,93.5781 L811.9844,94.6719 Q811.9844,95.9063 812.875,96.7344 Q813.7656,97.5469 815.3594,97.5469 Q816.2969,97.5469 816.9531,97.2969 Q817.3438,97.1406 817.7656,96.7031 Q818.0313,96.4375 818.1719,96.3594 Q818.3281,96.2813 818.5313,96.2813 Q818.8594,96.2813 819.1094,96.5469 Q819.375,96.7969 819.375,97.1406 Q819.375,97.4844 819.0313,97.8906 Q818.5313,98.4688 817.7344,98.7969 Q816.6563,99.25 815.3594,99.25 Q813.8438,99.25 812.6406,98.625 Q811.6563,98.125 810.9688,97.0625 Q810.2813,95.9844 810.2813,94.7031 L810.2813,93.5469 Q810.2813,92.2188 810.8906,91.0781 Q811.5156,89.9219 812.6094,89.3125 Q813.7031,88.6875 814.9375,88.6875 Q815.6719,88.6875 816.3125,88.8594 Q816.9688,89.0156 817.5156,89.375 Z " fill="#000000"/><text fill="#000000" font-family="sans-serif" font-size="14" lengthAdjust="spacing" textLength="144" x="835.25" y="99.2285">CommunicationService</text><line style="stroke:#181818;stroke-width:0.5;" x1="642" x2="1140" y1="109.5" y2="109.5"/><line style="stroke:#181818;stroke-width:0.5;" x1="642" x2="1140" y1="117.5" y2="117.5"/><ellipse cx="652" cy="131.8047" fill="#84BE84" rx="3" ry="3" style="stroke:#038048;stroke-width:1.0;"/><text fill="#000000" font-family="sans-serif" font-size="14" lengthAdjust="spacing" textLength="474" x="661" y="136.0332">notifyTaxis(taxis: Collection&lt;Taxi&gt;, bookingRequest: BookingRequest): void</text><ellipse cx="652" cy="149.4141" fill="#84BE84" rx="3" ry="3" style="stroke:#038048;stroke-width:1.0;"/><text fill="#000000" font-family="sans-serif" font-size="14" lengthAdjust="spacing" textLength="349" x="661" y="153.6426">notifyTaxi(booking: Booking, taxi: Taxi, user: User): void</text></g><!--class TaxiFleetManagement--><g id="elem_TaxiFleetManagement"><rect codeLine="81" fill="#F1F1F1" height="136.0469" id="TaxiFleetManagement" rx="2.5" ry="2.5" style="stroke:#181818;stroke-width:0.5;" width="500" x="1176" y="51"/><ellipse cx="1351.75" cy="67" fill="#ADD1B2" rx="11" ry="11" style="stroke:#181818;stroke-width:1.0;"/><path d="M1354.5156,62.875 Q1354.6719,62.6563 1354.8594,62.5469 Q1355.0469,62.4375 1355.2656,62.4375 Q1355.6406,62.4375 1355.875,62.7031 Q1356.1094,62.9531 1356.1094,63.5625 L1356.1094,65.0156 Q1356.1094,65.625 1355.875,65.8906 Q1355.6406,66.1563 1355.2656,66.1563 Q1354.9219,66.1563 1354.7188,65.9531 Q1354.5156,65.7656 1354.4063,65.25 Q1354.3594,64.8906 1354.1719,64.7031 Q1353.8438,64.3281 1353.2344,64.1094 Q1352.625,63.8906 1352,63.8906 Q1351.2344,63.8906 1350.5938,64.2188 Q1349.9688,64.5469 1349.4688,65.2969 Q1348.9844,66.0469 1348.9844,67.0781 L1348.9844,68.1719 Q1348.9844,69.4063 1349.875,70.2344 Q1350.7656,71.0469 1352.3594,71.0469 Q1353.2969,71.0469 1353.9531,70.7969 Q1354.3438,70.6406 1354.7656,70.2031 Q1355.0313,69.9375 1355.1719,69.8594 Q1355.3281,69.7813 1355.5313,69.7813 Q1355.8594,69.7813 1356.1094,70.0469 Q1356.375,70.2969 1356.375,70.6406 Q1356.375,70.9844 1356.0313,71.3906 Q1355.5313,71.9688 1354.7344,72.2969 Q1353.6563,72.75 1352.3594,72.75 Q1350.8438,72.75 1349.6406,72.125 Q1348.6563,71.625 1347.9688,70.5625 Q1347.2813,69.4844 1347.2813,68.2031 L1347.2813,67.0469 Q1347.2813,65.7188 1347.8906,64.5781 Q1348.5156,63.4219 1349.6094,62.8125 Q1350.7031,62.1875 1351.9375,62.1875 Q1352.6719,62.1875 1353.3125,62.3594 Q1353.9688,62.5156 1354.5156,62.875 Z " fill="#000000"/><text fill="#000000" font-family="sans-serif" font-size="14" lengthAdjust="spacing" textLength="140" x="1372.25" y="72.7285">TaxiFleetManagement</text><line style="stroke:#181818;stroke-width:0.5;" x1="1177" x2="1675" y1="83" y2="83"/><line style="stroke:#181818;stroke-width:0.5;" x1="1177" x2="1675" y1="91" y2="91"/><ellipse cx="1187" cy="105.3047" fill="#84BE84" rx="3" ry="3" style="stroke:#038048;stroke-width:1.0;"/><text fill="#000000" font-family="sans-serif" font-size="14" lengthAdjust="spacing" textLength="93" x="1196" y="109.5332">initialize(): void</text><ellipse cx="1187" cy="122.9141" fill="#84BE84" rx="3" ry="3" style="stroke:#038048;stroke-width:1.0;"/><text fill="#000000" font-family="sans-serif" font-size="14" lengthAdjust="spacing" textLength="302" x="1196" y="127.1426">publishBooking(booking: BookingRequest): void</text><ellipse cx="1187" cy="140.5234" fill="#84BE84" rx="3" ry="3" style="stroke:#038048;stroke-width:1.0;"/><text fill="#000000" font-family="sans-serif" font-size="14" lengthAdjust="spacing" textLength="474" x="1196" y="144.752">notifyTaxis(taxis: Collection&lt;Taxi&gt;, bookingRequest: BookingRequest): void</text><ellipse cx="1187" cy="158.1328" fill="#84BE84" rx="3" ry="3" style="stroke:#038048;stroke-width:1.0;"/><text fill="#000000" font-family="sans-serif" font-size="14" lengthAdjust="spacing" textLength="328" x="1196" y="162.3613">bookTaxi(request:BookingRequest, taxi : Taxi) : void</text><ellipse cx="1187" cy="175.7422" fill="#84BE84" rx="3" ry="3" style="stroke:#038048;stroke-width:1.0;"/><text fill="#000000" font-family="sans-serif" font-size="14" lengthAdjust="spacing" textLength="366" x="1196" y="179.9707">processTaxiResponse(response: BookingResponse): void</text></g><!--class IPersistenceService--><g id="elem_IPersistenceService"><rect codeLine="89" fill="#F1F1F1" height="241.7031" id="IPersistenceService" rx="2.5" ry="2.5" style="stroke:#181818;stroke-width:0.5;" width="374" x="704" y="274"/><ellipse cx="824.75" cy="290" fill="#B4A7E5" rx="11" ry="11" style="stroke:#181818;stroke-width:1.0;"/><path d="M825.7031,286.6406 L825.7031,293.2969 L827.4219,293.2969 Q828.0313,293.2969 828.2969,293.5313 Q828.5625,293.7656 828.5625,294.1563 Q828.5625,294.5313 828.2969,294.7656 Q828.0313,295 827.4219,295 L822.2813,295 Q821.6719,295 821.4063,294.7656 Q821.1406,294.5313 821.1406,294.1406 Q821.1406,293.7656 821.4063,293.5313 Q821.6719,293.2969 822.2813,293.2969 L824,293.2969 L824,286.6406 L822.2813,286.6406 Q821.6719,286.6406 821.4063,286.4063 Q821.1406,286.1719 821.1406,285.7813 Q821.1406,285.4063 821.4063,285.1719 Q821.6719,284.9375 822.2813,284.9375 L827.4219,284.9375 Q828.0313,284.9375 828.2969,285.1719 Q828.5625,285.4063 828.5625,285.7813 Q828.5625,286.1719 828.2969,286.4063 Q828.0313,286.6406 827.4219,286.6406 L825.7031,286.6406 Z " fill="#000000"/><text fill="#000000" font-family="sans-serif" font-size="14" font-style="italic" lengthAdjust="spacing" textLength="124" x="845.25" y="295.7285">IPersistenceService</text><line style="stroke:#181818;stroke-width:0.5;" x1="705" x2="1077" y1="306" y2="306"/><line style="stroke:#181818;stroke-width:0.5;" x1="705" x2="1077" y1="314" y2="314"/><ellipse cx="715" cy="328.3047" fill="#84BE84" rx="3" ry="3" style="stroke:#038048;stroke-width:1.0;"/><text fill="#000000" font-family="sans-serif" font-size="14" lengthAdjust="spacing" textLength="348" x="724" y="332.5332">createBookingRequest(request: BookingRequest): void</text><ellipse cx="715" cy="345.9141" fill="#84BE84" rx="3" ry="3" style="stroke:#038048;stroke-width:1.0;"/><text fill="#000000" font-family="sans-serif" font-size="14" lengthAdjust="spacing" textLength="338" x="724" y="350.1426">saveBookingRequest(request: BookingRequest): void</text><ellipse cx="715" cy="363.5234" fill="#84BE84" rx="3" ry="3" style="stroke:#038048;stroke-width:1.0;"/><text fill="#000000" font-family="sans-serif" font-size="14" lengthAdjust="spacing" textLength="346" x="724" y="367.752">getAllBookingRequests(): Collection&lt;BookingRequest&gt;</text><ellipse cx="715" cy="381.1328" fill="#84BE84" rx="3" ry="3" style="stroke:#038048;stroke-width:1.0;"/><text fill="#000000" font-family="sans-serif" font-size="14" lengthAdjust="spacing" textLength="234" x="724" y="385.3613">saveBooking(booking: Booking): void</text><ellipse cx="715" cy="398.7422" fill="#84BE84" rx="3" ry="3" style="stroke:#038048;stroke-width:1.0;"/><text fill="#000000" font-family="sans-serif" font-size="14" lengthAdjust="spacing" textLength="240" x="724" y="402.9707">getAllBookings(): Collection&lt;Booking&gt;</text><ellipse cx="715" cy="416.3516" fill="#84BE84" rx="3" ry="3" style="stroke:#038048;stroke-width:1.0;"/><text fill="#000000" font-family="sans-serif" font-size="14" lengthAdjust="spacing" textLength="155" x="724" y="420.5801">saveTaxi(taxi: Taxi): void</text><ellipse cx="715" cy="433.9609" fill="#84BE84" rx="3" ry="3" style="stroke:#038048;stroke-width:1.0;"/><text fill="#000000" font-family="sans-serif" font-size="14" lengthAdjust="spacing" textLength="209" x="724" y="438.1895">updateTaxiStatus(taxi: Taxi): void</text><ellipse cx="715" cy="451.5703" fill="#84BE84" rx="3" ry="3" style="stroke:#038048;stroke-width:1.0;"/><text fill="#000000" font-family="sans-serif" font-size="14" lengthAdjust="spacing" textLength="247" x="724" y="455.7988">getAllAvailableTaxis(): Collection&lt;Taxi&gt;</text><ellipse cx="715" cy="469.1797" fill="#84BE84" rx="3" ry="3" style="stroke:#038048;stroke-width:1.0;"/><text fill="#000000" font-family="sans-serif" font-size="14" lengthAdjust="spacing" textLength="190" x="724" y="473.4082">getAllTaxis(): Collection&lt;Taxi&gt;</text><ellipse cx="715" cy="486.7891" fill="#84BE84" rx="3" ry="3" style="stroke:#038048;stroke-width:1.0;"/><text fill="#000000" font-family="sans-serif" font-size="14" lengthAdjust="spacing" textLength="231" x="724" y="491.0176">getLocations(): Collection&lt;Location&gt;</text><ellipse cx="715" cy="504.3984" fill="#84BE84" rx="3" ry="3" style="stroke:#038048;stroke-width:1.0;"/><text fill="#000000" font-family="sans-serif" font-size="14" lengthAdjust="spacing" textLength="181" x="724" y="508.627">getUsers(): Collection&lt;User&gt;</text></g><!--class Location--><g id="elem_Location"><rect codeLine="2" fill="#F1F1F1" height="118.4375" id="Location" rx="2.5" ry="2.5" style="stroke:#181818;stroke-width:0.5;" width="163" x="1711.5" y="60"/><ellipse cx="1761.75" cy="76" fill="#ADD1B2" rx="11" ry="11" style="stroke:#181818;stroke-width:1.0;"/><path d="M1764.5156,71.875 Q1764.6719,71.6563 1764.8594,71.5469 Q1765.0469,71.4375 1765.2656,71.4375 Q1765.6406,71.4375 1765.875,71.7031 Q1766.1094,71.9531 1766.1094,72.5625 L1766.1094,74.0156 Q1766.1094,74.625 1765.875,74.8906 Q1765.6406,75.1563 1765.2656,75.1563 Q1764.9219,75.1563 1764.7188,74.9531 Q1764.5156,74.7656 1764.4063,74.25 Q1764.3594,73.8906 1764.1719,73.7031 Q1763.8438,73.3281 1763.2344,73.1094 Q1762.625,72.8906 1762,72.8906 Q1761.2344,72.8906 1760.5938,73.2188 Q1759.9688,73.5469 1759.4688,74.2969 Q1758.9844,75.0469 1758.9844,76.0781 L1758.9844,77.1719 Q1758.9844,78.4063 1759.875,79.2344 Q1760.7656,80.0469 1762.3594,80.0469 Q1763.2969,80.0469 1763.9531,79.7969 Q1764.3438,79.6406 1764.7656,79.2031 Q1765.0313,78.9375 1765.1719,78.8594 Q1765.3281,78.7813 1765.5313,78.7813 Q1765.8594,78.7813 1766.1094,79.0469 Q1766.375,79.2969 1766.375,79.6406 Q1766.375,79.9844 1766.0313,80.3906 Q1765.5313,80.9688 1764.7344,81.2969 Q1763.6563,81.75 1762.3594,81.75 Q1760.8438,81.75 1759.6406,81.125 Q1758.6563,80.625 1757.9688,79.5625 Q1757.2813,78.4844 1757.2813,77.2031 L1757.2813,76.0469 Q1757.2813,74.7188 1757.8906,73.5781 Q1758.5156,72.4219 1759.6094,71.8125 Q1760.7031,71.1875 1761.9375,71.1875 Q1762.6719,71.1875 1763.3125,71.3594 Q1763.9688,71.5156 1764.5156,71.875 Z " fill="#000000"/><text fill="#000000" font-family="sans-serif" font-size="14" lengthAdjust="spacing" textLength="54" x="1782.25" y="81.7285">Location</text><line style="stroke:#181818;stroke-width:0.5;" x1="1712.5" x2="1873.5" y1="92" y2="92"/><ellipse cx="1722.5" cy="106.3047" fill="none" rx="3" ry="3" style="stroke:#038048;stroke-width:1.0;"/><text fill="#000000" font-family="sans-serif" font-size="14" lengthAdjust="spacing" textLength="63" x="1731.5" y="110.5332">id: Integer</text><ellipse cx="1722.5" cy="123.9141" fill="none" rx="3" ry="3" style="stroke:#038048;stroke-width:1.0;"/><text fill="#000000" font-family="sans-serif" font-size="14" lengthAdjust="spacing" textLength="137" x="1731.5" y="128.1426">readableName: String</text><ellipse cx="1722.5" cy="141.5234" fill="none" rx="3" ry="3" style="stroke:#038048;stroke-width:1.0;"/><text fill="#000000" font-family="sans-serif" font-size="14" lengthAdjust="spacing" textLength="97" x="1731.5" y="145.752">latitude: double</text><ellipse cx="1722.5" cy="159.1328" fill="none" rx="3" ry="3" style="stroke:#038048;stroke-width:1.0;"/><text fill="#000000" font-family="sans-serif" font-size="14" lengthAdjust="spacing" textLength="109" x="1731.5" y="163.3613">longitude: double</text><line style="stroke:#181818;stroke-width:0.5;" x1="1712.5" x2="1873.5" y1="170.4375" y2="170.4375"/></g><!--class User--><g id="elem_User"><rect codeLine="9" fill="#F1F1F1" height="83.2188" id="User" rx="2.5" ry="2.5" style="stroke:#181818;stroke-width:0.5;" width="106" x="1910" y="77.5"/><ellipse cx="1945.25" cy="93.5" fill="#ADD1B2" rx="11" ry="11" style="stroke:#181818;stroke-width:1.0;"/><path d="M1948.0156,89.375 Q1948.1719,89.1563 1948.3594,89.0469 Q1948.5469,88.9375 1948.7656,88.9375 Q1949.1406,88.9375 1949.375,89.2031 Q1949.6094,89.4531 1949.6094,90.0625 L1949.6094,91.5156 Q1949.6094,92.125 1949.375,92.3906 Q1949.1406,92.6563 1948.7656,92.6563 Q1948.4219,92.6563 1948.2188,92.4531 Q1948.0156,92.2656 1947.9063,91.75 Q1947.8594,91.3906 1947.6719,91.2031 Q1947.3438,90.8281 1946.7344,90.6094 Q1946.125,90.3906 1945.5,90.3906 Q1944.7344,90.3906 1944.0938,90.7188 Q1943.4688,91.0469 1942.9688,91.7969 Q1942.4844,92.5469 1942.4844,93.5781 L1942.4844,94.6719 Q1942.4844,95.9063 1943.375,96.7344 Q1944.2656,97.5469 1945.8594,97.5469 Q1946.7969,97.5469 1947.4531,97.2969 Q1947.8438,97.1406 1948.2656,96.7031 Q1948.5313,96.4375 1948.6719,96.3594 Q1948.8281,96.2813 1949.0313,96.2813 Q1949.3594,96.2813 1949.6094,96.5469 Q1949.875,96.7969 1949.875,97.1406 Q1949.875,97.4844 1949.5313,97.8906 Q1949.0313,98.4688 1948.2344,98.7969 Q1947.1563,99.25 1945.8594,99.25 Q1944.3438,99.25 1943.1406,98.625 Q1942.1563,98.125 1941.4688,97.0625 Q1940.7813,95.9844 1940.7813,94.7031 L1940.7813,93.5469 Q1940.7813,92.2188 1941.3906,91.0781 Q1942.0156,89.9219 1943.1094,89.3125 Q1944.2031,88.6875 1945.4375,88.6875 Q1946.1719,88.6875 1946.8125,88.8594 Q1947.4688,89.0156 1948.0156,89.375 Z " fill="#000000"/><text fill="#000000" font-family="sans-serif" font-size="14" lengthAdjust="spacing" textLength="29" x="1963.75" y="99.2285">User</text><line style="stroke:#181818;stroke-width:0.5;" x1="1911" x2="2015" y1="109.5" y2="109.5"/><ellipse cx="1921" cy="123.8047" fill="none" rx="3" ry="3" style="stroke:#038048;stroke-width:1.0;"/><text fill="#000000" font-family="sans-serif" font-size="14" lengthAdjust="spacing" textLength="63" x="1930" y="128.0332">id: Integer</text><ellipse cx="1921" cy="141.4141" fill="none" rx="3" ry="3" style="stroke:#038048;stroke-width:1.0;"/><text fill="#000000" font-family="sans-serif" font-size="14" lengthAdjust="spacing" textLength="80" x="1930" y="145.6426">name: String</text><line style="stroke:#181818;stroke-width:0.5;" x1="1911" x2="2015" y1="152.7188" y2="152.7188"/></g><!--link BookingRequest to Booking--><g id="link_BookingRequest_Booking"><path codeLine="57" d="M115.72,196.32 C115.57,237.34 115.4128,281.44 115.2628,320.94 " fill="none" id="BookingRequest-to-Booking" style="stroke:#181818;stroke-width:1.0;"/><polygon fill="#181818" points="115.24,326.94,119.2741,317.9553,115.259,321.94,111.2742,317.9249,115.24,326.94" style="stroke:#181818;stroke-width:1.0;"/><text fill="#000000" font-family="sans-serif" font-size="13" lengthAdjust="spacing" textLength="55" x="116" y="240.4951">Becomes</text><text fill="#000000" font-family="sans-serif" font-size="13" lengthAdjust="spacing" textLength="7" x="108.3952" y="217.1772">1</text><text fill="#000000" font-family="sans-serif" font-size="13" lengthAdjust="spacing" textLength="22" x="92.0631" y="316.1327">0..1</text></g><!--SRC=[hLPRRvim57xFhx1uIjMBjbSqHQA4L6mKeYITzkh0IMOLR6QRQDsq_pwRgmrfMatZ9VZutBxlN4YQOo5Gn58i2QFezmofvvfaBWgfX2FmHi01PtYVGumBSD5MSaAFpKsk36MLAMd6AgNHIXazsk8_irbQnteIm5-DGqt_ocHMulGP7m4vzumzAw7JcWAj2hI17nK8kPLOLgAzqCywY9TX_D2VDy7dmDy5oruGV5k7c_QielGET_WdsO0e6HLW-FDyFrZl-kCoyACm3aph1bgROvkMuQ06-lGK3XbSLug6S3cMbYHzhigk76vVc44ZuwnaXyCb5Tx4tn7DvH9Bq6_3jQZfSctsBe2PqD45qEdthyEjL2HEaV7MZskHFAb06tLIKZ-9L-7cqQXX4ZyaPf7zv74T1MQLVI_sWoYowso1Cq5LrRH8BJftLDb1GVaYHmgPnjGW6-xsZSrRPR0GcvcEkidvwA3RsmLoFjpTgTSEWQj60r9MW73qm7JpebCnHqMV9wHwNxqmykwZe9VS9yaNWy5DQCrHibgTRtmZsjcvRcQxAlR0rsfXs2l4OcF8iurYO79MEO14ZvYgKm5KeksBa53edM0auxEYg2Xffc8B_4HIgtifa-JmeWE9kUvL5TLdUGwfrl-avOiRjBV87pV0bOjEZ6JdVCvRozxa1ic-EMwG7dktte6cZpyZBckW1awJMaeamJdv1VD95gNQj4HyRmDFCdax-Vz7Y5QlwUX6oDPlI44DArTe0eIp58GmDyLyM22ZpMGJMVyGrNlyW5NTmpLmGLINq1JEz4AgFcmIxDpc_9qO1Jxzg-aHf9VdjfBG1JM8jsyNP-DEQdmvqYiXHhxhkWrDEt5PbPdUPlsaNj9jmdidJ7Bz_w5figjfWuqjtgVOVVl6cftSrjPJDzRKiaM_Qlu2]--></g></svg>