<?xml version="1.0" encoding="us-ascii" standalone="no"?><svg xmlns="http://www.w3.org/2000/svg" xmlns:xlink="http://www.w3.org/1999/xlink" contentStyleType="text/css" height="470px" preserveAspectRatio="none" style="width:2827px;height:470px;background:#FFFFFF;" version="1.1" viewBox="0 0 2827 470" width="2827px" zoomAndPan="magnify"><defs/><g><!--cluster Booking--><g id="cluster_Booking"><path d="M8.5,6 L67.5,6 A3.75,3.75 0 0 1 70,8.5 L77,29.6094 L604.5,29.6094 A2.5,2.5 0 0 1 607,32.1094 L607,460.5 A2.5,2.5 0 0 1 604.5,463 L8.5,463 A2.5,2.5 0 0 1 6,460.5 L6,8.5 A2.5,2.5 0 0 1 8.5,6 " fill="none" style="stroke:#000000;stroke-width:1.5;"/><line style="stroke:#000000;stroke-width:1.5;" x1="6" x2="77" y1="29.6094" y2="29.6094"/><text fill="#000000" font-family="sans-serif" font-size="14" font-weight="bold" lengthAdjust="spacing" textLength="58" x="10" y="22.5332">Booking</text></g><!--cluster Taxi--><g id="cluster_Taxi"><path d="M2243.5,6 L2272.5,6 A3.75,3.75 0 0 1 2275,8.5 L2282,29.6094 L2817.5,29.6094 A2.5,2.5 0 0 1 2820,32.1094 L2820,209.5 A2.5,2.5 0 0 1 2817.5,212 L2243.5,212 A2.5,2.5 0 0 1 2241,209.5 L2241,8.5 A2.5,2.5 0 0 1 2243.5,6 " fill="none" style="stroke:#000000;stroke-width:1.5;"/><line style="stroke:#000000;stroke-width:1.5;" x1="2241" x2="2282" y1="29.6094" y2="29.6094"/><text fill="#000000" font-family="sans-serif" font-size="14" font-weight="bold" lengthAdjust="spacing" textLength="28" x="2245" y="22.5332">Taxi</text></g><!--cluster Fleet Management--><g id="cluster_Fleet Management"><path d="M633.5,41.5 L765.5,41.5 A3.75,3.75 0 0 1 768,44 L775,65.1094 L1567.5,65.1094 A2.5,2.5 0 0 1 1570,67.6094 L1570,425.5 A2.5,2.5 0 0 1 1567.5,428 L633.5,428 A2.5,2.5 0 0 1 631,425.5 L631,44 A2.5,2.5 0 0 1 633.5,41.5 " fill="none" style="stroke:#000000;stroke-width:1.5;"/><line style="stroke:#000000;stroke-width:1.5;" x1="631" x2="775" y1="65.1094" y2="65.1094"/><text fill="#000000" font-family="sans-serif" font-size="14" font-weight="bold" lengthAdjust="spacing" textLength="131" x="635" y="58.0332">Fleet Management</text></g><!--class RequestStatus--><g id="elem_RequestStatus"><rect codeLine="16" fill="#F1F1F1" height="100.8281" id="RequestStatus" rx="2.5" ry="2.5" style="stroke:#181818;stroke-width:0.5;" width="125" x="278.5" y="68.5"/><ellipse cx="293.5" cy="84.5" fill="#EB937F" rx="11" ry="11" style="stroke:#181818;stroke-width:1.0;"/><path d="M292.3594,85.2969 L292.3594,87.7969 L296.6875,87.7969 L296.6875,86.875 Q296.6875,86.2656 296.9219,86 Q297.1719,85.7344 297.5469,85.7344 Q297.9219,85.7344 298.1563,86 Q298.3906,86.2656 298.3906,86.875 L298.3906,89.5 L290.3906,89.5 Q289.7656,89.5 289.5,89.2656 Q289.25,89.0313 289.25,88.6406 Q289.25,88.2656 289.5156,88.0313 Q289.7813,87.7969 290.3906,87.7969 L290.6563,87.7969 L290.6563,81.1406 L290.3906,81.1406 Q289.7656,81.1406 289.5,80.9063 Q289.25,80.6719 289.25,80.2813 Q289.25,79.9063 289.5,79.6719 Q289.7656,79.4375 290.3906,79.4375 L298.0156,79.4375 L298.0156,82.0313 Q298.0156,82.6406 297.7813,82.9063 Q297.5625,83.1563 297.1719,83.1563 Q296.7969,83.1563 296.5625,82.9063 Q296.3281,82.6406 296.3281,82.0313 L296.3281,81.1406 L292.3594,81.1406 L292.3594,83.5938 L293.8438,83.5938 Q293.8438,82.9375 293.9688,82.75 Q294.2344,82.3438 294.7031,82.3438 Q295.0781,82.3438 295.3125,82.6094 Q295.5469,82.8594 295.5469,83.4688 L295.5469,85.4375 Q295.5469,85.9844 295.4219,86.1719 Q295.1563,86.5625 294.7031,86.5625 Q294.2344,86.5625 293.9688,86.1563 Q293.8438,85.9688 293.8438,85.2969 L292.3594,85.2969 Z " fill="#000000"/><text fill="#000000" font-family="sans-serif" font-size="14" lengthAdjust="spacing" textLength="93" x="307.5" y="90.2285">RequestStatus</text><line style="stroke:#181818;stroke-width:0.5;" x1="279.5" x2="402.5" y1="100.5" y2="100.5"/><text fill="#000000" font-family="sans-serif" font-size="14" lengthAdjust="spacing" textLength="60" x="284.5" y="119.0332">PENDING</text><text fill="#000000" font-family="sans-serif" font-size="14" lengthAdjust="spacing" textLength="72" x="284.5" y="136.6426">REJECTED</text><text fill="#000000" font-family="sans-serif" font-size="14" lengthAdjust="spacing" textLength="58" x="284.5" y="154.252">EXPIRED</text><line style="stroke:#181818;stroke-width:0.5;" x1="279.5" x2="402.5" y1="161.3281" y2="161.3281"/></g><!--class TaxiResponse--><g id="elem_TaxiResponse"><rect codeLine="22" fill="#F1F1F1" height="83.2188" id="TaxiResponse" rx="2.5" ry="2.5" style="stroke:#181818;stroke-width:0.5;" width="122" x="439" y="77.5"/><ellipse cx="454" cy="93.5" fill="#EB937F" rx="11" ry="11" style="stroke:#181818;stroke-width:1.0;"/><path d="M452.8594,94.2969 L452.8594,96.7969 L457.1875,96.7969 L457.1875,95.875 Q457.1875,95.2656 457.4219,95 Q457.6719,94.7344 458.0469,94.7344 Q458.4219,94.7344 458.6563,95 Q458.8906,95.2656 458.8906,95.875 L458.8906,98.5 L450.8906,98.5 Q450.2656,98.5 450,98.2656 Q449.75,98.0313 449.75,97.6406 Q449.75,97.2656 450.0156,97.0313 Q450.2813,96.7969 450.8906,96.7969 L451.1563,96.7969 L451.1563,90.1406 L450.8906,90.1406 Q450.2656,90.1406 450,89.9063 Q449.75,89.6719 449.75,89.2813 Q449.75,88.9063 450,88.6719 Q450.2656,88.4375 450.8906,88.4375 L458.5156,88.4375 L458.5156,91.0313 Q458.5156,91.6406 458.2813,91.9063 Q458.0625,92.1563 457.6719,92.1563 Q457.2969,92.1563 457.0625,91.9063 Q456.8281,91.6406 456.8281,91.0313 L456.8281,90.1406 L452.8594,90.1406 L452.8594,92.5938 L454.3438,92.5938 Q454.3438,91.9375 454.4688,91.75 Q454.7344,91.3438 455.2031,91.3438 Q455.5781,91.3438 455.8125,91.6094 Q456.0469,91.8594 456.0469,92.4688 L456.0469,94.4375 Q456.0469,94.9844 455.9219,95.1719 Q455.6563,95.5625 455.2031,95.5625 Q454.7344,95.5625 454.4688,95.1563 Q454.3438,94.9688 454.3438,94.2969 L452.8594,94.2969 Z " fill="#000000"/><text fill="#000000" font-family="sans-serif" font-size="14" lengthAdjust="spacing" textLength="90" x="468" y="99.2285">TaxiResponse</text><line style="stroke:#181818;stroke-width:0.5;" x1="440" x2="560" y1="109.5" y2="109.5"/><text fill="#000000" font-family="sans-serif" font-size="14" lengthAdjust="spacing" textLength="56" x="445" y="128.0332">ACCEPT</text><text fill="#000000" font-family="sans-serif" font-size="14" lengthAdjust="spacing" textLength="58" x="445" y="145.6426">DECLINE</text><line style="stroke:#181818;stroke-width:0.5;" x1="440" x2="560" y1="152.7188" y2="152.7188"/></g><!--class BookingRequest--><g id="elem_BookingRequest"><rect codeLine="27" fill="#F1F1F1" height="153.6563" id="BookingRequest" rx="2.5" ry="2.5" style="stroke:#181818;stroke-width:0.5;" width="187" x="24.5" y="42"/><ellipse cx="62.45" cy="58" fill="#ADD1B2" rx="11" ry="11" style="stroke:#181818;stroke-width:1.0;"/><path d="M65.2156,53.875 Q65.3719,53.6563 65.5594,53.5469 Q65.7469,53.4375 65.9656,53.4375 Q66.3406,53.4375 66.575,53.7031 Q66.8094,53.9531 66.8094,54.5625 L66.8094,56.0156 Q66.8094,56.625 66.575,56.8906 Q66.3406,57.1563 65.9656,57.1563 Q65.6219,57.1563 65.4188,56.9531 Q65.2156,56.7656 65.1063,56.25 Q65.0594,55.8906 64.8719,55.7031 Q64.5438,55.3281 63.9344,55.1094 Q63.325,54.8906 62.7,54.8906 Q61.9344,54.8906 61.2938,55.2188 Q60.6688,55.5469 60.1688,56.2969 Q59.6844,57.0469 59.6844,58.0781 L59.6844,59.1719 Q59.6844,60.4063 60.575,61.2344 Q61.4656,62.0469 63.0594,62.0469 Q63.9969,62.0469 64.6531,61.7969 Q65.0438,61.6406 65.4656,61.2031 Q65.7313,60.9375 65.8719,60.8594 Q66.0281,60.7813 66.2313,60.7813 Q66.5594,60.7813 66.8094,61.0469 Q67.075,61.2969 67.075,61.6406 Q67.075,61.9844 66.7313,62.3906 Q66.2313,62.9688 65.4344,63.2969 Q64.3563,63.75 63.0594,63.75 Q61.5438,63.75 60.3406,63.125 Q59.3563,62.625 58.6688,61.5625 Q57.9813,60.4844 57.9813,59.2031 L57.9813,58.0469 Q57.9813,56.7188 58.5906,55.5781 Q59.2156,54.4219 60.3094,53.8125 Q61.4031,53.1875 62.6375,53.1875 Q63.3719,53.1875 64.0125,53.3594 Q64.6688,53.5156 65.2156,53.875 Z " fill="#000000"/><text fill="#000000" font-family="sans-serif" font-size="14" lengthAdjust="spacing" textLength="104" x="81.55" y="63.7285">BookingRequest</text><line style="stroke:#181818;stroke-width:0.5;" x1="25.5" x2="210.5" y1="74" y2="74"/><ellipse cx="35.5" cy="88.3047" fill="none" rx="3" ry="3" style="stroke:#038048;stroke-width:1.0;"/><text fill="#000000" font-family="sans-serif" font-size="14" lengthAdjust="spacing" textLength="63" x="44.5" y="92.5332">id: Integer</text><ellipse cx="35.5" cy="105.9141" fill="none" rx="3" ry="3" style="stroke:#038048;stroke-width:1.0;"/><text fill="#000000" font-family="sans-serif" font-size="14" lengthAdjust="spacing" textLength="65" x="44.5" y="110.1426">user: User</text><ellipse cx="35.5" cy="123.5234" fill="none" rx="3" ry="3" style="stroke:#038048;stroke-width:1.0;"/><text fill="#000000" font-family="sans-serif" font-size="14" lengthAdjust="spacing" textLength="157" x="44.5" y="127.752">pickupLocation: Location</text><ellipse cx="35.5" cy="141.1328" fill="none" rx="3" ry="3" style="stroke:#038048;stroke-width:1.0;"/><text fill="#000000" font-family="sans-serif" font-size="14" lengthAdjust="spacing" textLength="161" x="44.5" y="145.3613">dropoffLocation: Location</text><ellipse cx="35.5" cy="158.7422" fill="none" rx="3" ry="3" style="stroke:#038048;stroke-width:1.0;"/><text fill="#000000" font-family="sans-serif" font-size="14" lengthAdjust="spacing" textLength="148" x="44.5" y="162.9707">requestTime: DateTime</text><ellipse cx="35.5" cy="176.3516" fill="none" rx="3" ry="3" style="stroke:#038048;stroke-width:1.0;"/><text fill="#000000" font-family="sans-serif" font-size="14" lengthAdjust="spacing" textLength="139" x="44.5" y="180.5801">status: RequestStatus</text><line style="stroke:#181818;stroke-width:0.5;" x1="25.5" x2="210.5" y1="187.6563" y2="187.6563"/></g><!--class BookingResponse--><g id="elem_BookingResponse"><rect codeLine="36" fill="#F1F1F1" height="83.2188" id="BookingResponse" rx="2.5" ry="2.5" style="stroke:#181818;stroke-width:0.5;" width="183" x="249.5" y="320"/><ellipse cx="280.7" cy="336" fill="#ADD1B2" rx="11" ry="11" style="stroke:#181818;stroke-width:1.0;"/><path d="M283.4656,331.875 Q283.6219,331.6563 283.8094,331.5469 Q283.9969,331.4375 284.2156,331.4375 Q284.5906,331.4375 284.825,331.7031 Q285.0594,331.9531 285.0594,332.5625 L285.0594,334.0156 Q285.0594,334.625 284.825,334.8906 Q284.5906,335.1563 284.2156,335.1563 Q283.8719,335.1563 283.6688,334.9531 Q283.4656,334.7656 283.3563,334.25 Q283.3094,333.8906 283.1219,333.7031 Q282.7938,333.3281 282.1844,333.1094 Q281.575,332.8906 280.95,332.8906 Q280.1844,332.8906 279.5438,333.2188 Q278.9188,333.5469 278.4188,334.2969 Q277.9344,335.0469 277.9344,336.0781 L277.9344,337.1719 Q277.9344,338.4063 278.825,339.2344 Q279.7156,340.0469 281.3094,340.0469 Q282.2469,340.0469 282.9031,339.7969 Q283.2938,339.6406 283.7156,339.2031 Q283.9813,338.9375 284.1219,338.8594 Q284.2781,338.7813 284.4813,338.7813 Q284.8094,338.7813 285.0594,339.0469 Q285.325,339.2969 285.325,339.6406 Q285.325,339.9844 284.9813,340.3906 Q284.4813,340.9688 283.6844,341.2969 Q282.6063,341.75 281.3094,341.75 Q279.7938,341.75 278.5906,341.125 Q277.6063,340.625 276.9188,339.5625 Q276.2313,338.4844 276.2313,337.2031 L276.2313,336.0469 Q276.2313,334.7188 276.8406,333.5781 Q277.4656,332.4219 278.5594,331.8125 Q279.6531,331.1875 280.8875,331.1875 Q281.6219,331.1875 282.2625,331.3594 Q282.9188,331.5156 283.4656,331.875 Z " fill="#000000"/><text fill="#000000" font-family="sans-serif" font-size="14" lengthAdjust="spacing" textLength="115" x="298.3" y="341.7285">BookingResponse</text><line style="stroke:#181818;stroke-width:0.5;" x1="250.5" x2="431.5" y1="352" y2="352"/><ellipse cx="260.5" cy="366.3047" fill="none" rx="3" ry="3" style="stroke:#038048;stroke-width:1.0;"/><text fill="#000000" font-family="sans-serif" font-size="14" lengthAdjust="spacing" textLength="80" x="269.5" y="370.5332">id: requestID</text><ellipse cx="260.5" cy="383.9141" fill="none" rx="3" ry="3" style="stroke:#038048;stroke-width:1.0;"/><text fill="#000000" font-family="sans-serif" font-size="14" lengthAdjust="spacing" textLength="157" x="269.5" y="388.1426">response: TaxiResponse</text><line style="stroke:#181818;stroke-width:0.5;" x1="250.5" x2="431.5" y1="395.2188" y2="395.2188"/></g><!--class BookingStatus--><g id="elem_BookingStatus"><rect codeLine="41" fill="#F1F1F1" height="118.4375" id="BookingStatus" rx="2.5" ry="2.5" style="stroke:#181818;stroke-width:0.5;" width="123" x="467.5" y="302.5"/><ellipse cx="482.5" cy="318.5" fill="#EB937F" rx="11" ry="11" style="stroke:#181818;stroke-width:1.0;"/><path d="M481.3594,319.2969 L481.3594,321.7969 L485.6875,321.7969 L485.6875,320.875 Q485.6875,320.2656 485.9219,320 Q486.1719,319.7344 486.5469,319.7344 Q486.9219,319.7344 487.1563,320 Q487.3906,320.2656 487.3906,320.875 L487.3906,323.5 L479.3906,323.5 Q478.7656,323.5 478.5,323.2656 Q478.25,323.0313 478.25,322.6406 Q478.25,322.2656 478.5156,322.0313 Q478.7813,321.7969 479.3906,321.7969 L479.6563,321.7969 L479.6563,315.1406 L479.3906,315.1406 Q478.7656,315.1406 478.5,314.9063 Q478.25,314.6719 478.25,314.2813 Q478.25,313.9063 478.5,313.6719 Q478.7656,313.4375 479.3906,313.4375 L487.0156,313.4375 L487.0156,316.0313 Q487.0156,316.6406 486.7813,316.9063 Q486.5625,317.1563 486.1719,317.1563 Q485.7969,317.1563 485.5625,316.9063 Q485.3281,316.6406 485.3281,316.0313 L485.3281,315.1406 L481.3594,315.1406 L481.3594,317.5938 L482.8438,317.5938 Q482.8438,316.9375 482.9688,316.75 Q483.2344,316.3438 483.7031,316.3438 Q484.0781,316.3438 484.3125,316.6094 Q484.5469,316.8594 484.5469,317.4688 L484.5469,319.4375 Q484.5469,319.9844 484.4219,320.1719 Q484.1563,320.5625 483.7031,320.5625 Q483.2344,320.5625 482.9688,320.1563 Q482.8438,319.9688 482.8438,319.2969 L481.3594,319.2969 Z " fill="#000000"/><text fill="#000000" font-family="sans-serif" font-size="14" lengthAdjust="spacing" textLength="91" x="496.5" y="324.2285">BookingStatus</text><line style="stroke:#181818;stroke-width:0.5;" x1="468.5" x2="589.5" y1="334.5" y2="334.5"/><text fill="#000000" font-family="sans-serif" font-size="14" lengthAdjust="spacing" textLength="82" x="473.5" y="353.0332">CONFIRMED</text><text fill="#000000" font-family="sans-serif" font-size="14" lengthAdjust="spacing" textLength="65" x="473.5" y="370.6426">ONGOING</text><text fill="#000000" font-family="sans-serif" font-size="14" lengthAdjust="spacing" textLength="86" x="473.5" y="388.252">COMPLETED</text><text fill="#000000" font-family="sans-serif" font-size="14" lengthAdjust="spacing" textLength="82" x="473.5" y="405.8613">CANCELLED</text><line style="stroke:#181818;stroke-width:0.5;" x1="468.5" x2="589.5" y1="412.9375" y2="412.9375"/></g><!--class Booking--><g id="elem_Booking"><rect codeLine="48" fill="#F1F1F1" height="171.2656" id="Booking" rx="2.5" ry="2.5" style="stroke:#181818;stroke-width:0.5;" width="192" x="22" y="276"/><ellipse cx="88.25" cy="292" fill="#ADD1B2" rx="11" ry="11" style="stroke:#181818;stroke-width:1.0;"/><path d="M91.0156,287.875 Q91.1719,287.6563 91.3594,287.5469 Q91.5469,287.4375 91.7656,287.4375 Q92.1406,287.4375 92.375,287.7031 Q92.6094,287.9531 92.6094,288.5625 L92.6094,290.0156 Q92.6094,290.625 92.375,290.8906 Q92.1406,291.1563 91.7656,291.1563 Q91.4219,291.1563 91.2188,290.9531 Q91.0156,290.7656 90.9063,290.25 Q90.8594,289.8906 90.6719,289.7031 Q90.3438,289.3281 89.7344,289.1094 Q89.125,288.8906 88.5,288.8906 Q87.7344,288.8906 87.0938,289.2188 Q86.4688,289.5469 85.9688,290.2969 Q85.4844,291.0469 85.4844,292.0781 L85.4844,293.1719 Q85.4844,294.4063 86.375,295.2344 Q87.2656,296.0469 88.8594,296.0469 Q89.7969,296.0469 90.4531,295.7969 Q90.8438,295.6406 91.2656,295.2031 Q91.5313,294.9375 91.6719,294.8594 Q91.8281,294.7813 92.0313,294.7813 Q92.3594,294.7813 92.6094,295.0469 Q92.875,295.2969 92.875,295.6406 Q92.875,295.9844 92.5313,296.3906 Q92.0313,296.9688 91.2344,297.2969 Q90.1563,297.75 88.8594,297.75 Q87.3438,297.75 86.1406,297.125 Q85.1563,296.625 84.4688,295.5625 Q83.7813,294.4844 83.7813,293.2031 L83.7813,292.0469 Q83.7813,290.7188 84.3906,289.5781 Q85.0156,288.4219 86.1094,287.8125 Q87.2031,287.1875 88.4375,287.1875 Q89.1719,287.1875 89.8125,287.3594 Q90.4688,287.5156 91.0156,287.875 Z " fill="#000000"/><text fill="#000000" font-family="sans-serif" font-size="14" lengthAdjust="spacing" textLength="51" x="108.75" y="297.7285">Booking</text><line style="stroke:#181818;stroke-width:0.5;" x1="23" x2="213" y1="308" y2="308"/><ellipse cx="33" cy="322.3047" fill="none" rx="3" ry="3" style="stroke:#038048;stroke-width:1.0;"/><text fill="#000000" font-family="sans-serif" font-size="14" lengthAdjust="spacing" textLength="63" x="42" y="326.5332">id: Integer</text><ellipse cx="33" cy="339.9141" fill="none" rx="3" ry="3" style="stroke:#038048;stroke-width:1.0;"/><text fill="#000000" font-family="sans-serif" font-size="14" lengthAdjust="spacing" textLength="160" x="42" y="344.1426">request: BookingRequest</text><ellipse cx="33" cy="357.5234" fill="none" rx="3" ry="3" style="stroke:#038048;stroke-width:1.0;"/><text fill="#000000" font-family="sans-serif" font-size="14" lengthAdjust="spacing" textLength="55" x="42" y="361.752">taxi: Taxi</text><ellipse cx="33" cy="375.1328" fill="none" rx="3" ry="3" style="stroke:#038048;stroke-width:1.0;"/><text fill="#000000" font-family="sans-serif" font-size="14" lengthAdjust="spacing" textLength="150" x="42" y="379.3613">bookingTime: DateTime</text><ellipse cx="33" cy="392.7422" fill="none" rx="3" ry="3" style="stroke:#038048;stroke-width:1.0;"/><text fill="#000000" font-family="sans-serif" font-size="14" lengthAdjust="spacing" textLength="137" x="42" y="396.9707">status: BookingStatus</text><line style="stroke:#181818;stroke-width:0.5;" x1="23" x2="213" y1="404.0469" y2="404.0469"/><ellipse cx="33" cy="418.3516" fill="#84BE84" rx="3" ry="3" style="stroke:#038048;stroke-width:1.0;"/><text fill="#000000" font-family="sans-serif" font-size="14" lengthAdjust="spacing" textLength="166" x="42" y="422.5801">assignTaxi(taxi: Taxi): void</text><ellipse cx="33" cy="435.9609" fill="#84BE84" rx="3" ry="3" style="stroke:#038048;stroke-width:1.0;"/><text fill="#000000" font-family="sans-serif" font-size="14" lengthAdjust="spacing" textLength="136" x="42" y="440.1895">cancelBooking(): void</text></g><!--class TaxiStatus--><g id="elem_TaxiStatus"><rect codeLine="62" fill="#F1F1F1" height="100.8281" id="TaxiStatus" rx="2.5" ry="2.5" style="stroke:#181818;stroke-width:0.5;" width="98" x="2706" y="68.5"/><ellipse cx="2721" cy="84.5" fill="#EB937F" rx="11" ry="11" style="stroke:#181818;stroke-width:1.0;"/><path d="M2719.8594,85.2969 L2719.8594,87.7969 L2724.1875,87.7969 L2724.1875,86.875 Q2724.1875,86.2656 2724.4219,86 Q2724.6719,85.7344 2725.0469,85.7344 Q2725.4219,85.7344 2725.6563,86 Q2725.8906,86.2656 2725.8906,86.875 L2725.8906,89.5 L2717.8906,89.5 Q2717.2656,89.5 2717,89.2656 Q2716.75,89.0313 2716.75,88.6406 Q2716.75,88.2656 2717.0156,88.0313 Q2717.2813,87.7969 2717.8906,87.7969 L2718.1563,87.7969 L2718.1563,81.1406 L2717.8906,81.1406 Q2717.2656,81.1406 2717,80.9063 Q2716.75,80.6719 2716.75,80.2813 Q2716.75,79.9063 2717,79.6719 Q2717.2656,79.4375 2717.8906,79.4375 L2725.5156,79.4375 L2725.5156,82.0313 Q2725.5156,82.6406 2725.2813,82.9063 Q2725.0625,83.1563 2724.6719,83.1563 Q2724.2969,83.1563 2724.0625,82.9063 Q2723.8281,82.6406 2723.8281,82.0313 L2723.8281,81.1406 L2719.8594,81.1406 L2719.8594,83.5938 L2721.3438,83.5938 Q2721.3438,82.9375 2721.4688,82.75 Q2721.7344,82.3438 2722.2031,82.3438 Q2722.5781,82.3438 2722.8125,82.6094 Q2723.0469,82.8594 2723.0469,83.4688 L2723.0469,85.4375 Q2723.0469,85.9844 2722.9219,86.1719 Q2722.6563,86.5625 2722.2031,86.5625 Q2721.7344,86.5625 2721.4688,86.1563 Q2721.3438,85.9688 2721.3438,85.2969 L2719.8594,85.2969 Z " fill="#000000"/><text fill="#000000" font-family="sans-serif" font-size="14" lengthAdjust="spacing" textLength="66" x="2735" y="90.2285">TaxiStatus</text><line style="stroke:#181818;stroke-width:0.5;" x1="2707" x2="2803" y1="100.5" y2="100.5"/><text fill="#000000" font-family="sans-serif" font-size="14" lengthAdjust="spacing" textLength="73" x="2712" y="119.0332">AVAILABLE</text><text fill="#000000" font-family="sans-serif" font-size="14" lengthAdjust="spacing" textLength="59" x="2712" y="136.6426">BOOKED</text><text fill="#000000" font-family="sans-serif" font-size="14" lengthAdjust="spacing" textLength="58" x="2712" y="154.252">OFFLINE</text><line style="stroke:#181818;stroke-width:0.5;" x1="2707" x2="2803" y1="161.3281" y2="161.3281"/></g><!--class Taxi--><g id="elem_Taxi"><rect codeLine="68" fill="#F1F1F1" height="153.6563" id="Taxi" rx="2.5" ry="2.5" style="stroke:#181818;stroke-width:0.5;" width="414" x="2257" y="42"/><ellipse cx="2446.75" cy="58" fill="#ADD1B2" rx="11" ry="11" style="stroke:#181818;stroke-width:1.0;"/><path d="M2449.5156,53.875 Q2449.6719,53.6563 2449.8594,53.5469 Q2450.0469,53.4375 2450.2656,53.4375 Q2450.6406,53.4375 2450.875,53.7031 Q2451.1094,53.9531 2451.1094,54.5625 L2451.1094,56.0156 Q2451.1094,56.625 2450.875,56.8906 Q2450.6406,57.1563 2450.2656,57.1563 Q2449.9219,57.1563 2449.7188,56.9531 Q2449.5156,56.7656 2449.4063,56.25 Q2449.3594,55.8906 2449.1719,55.7031 Q2448.8438,55.3281 2448.2344,55.1094 Q2447.625,54.8906 2447,54.8906 Q2446.2344,54.8906 2445.5938,55.2188 Q2444.9688,55.5469 2444.4688,56.2969 Q2443.9844,57.0469 2443.9844,58.0781 L2443.9844,59.1719 Q2443.9844,60.4063 2444.875,61.2344 Q2445.7656,62.0469 2447.3594,62.0469 Q2448.2969,62.0469 2448.9531,61.7969 Q2449.3438,61.6406 2449.7656,61.2031 Q2450.0313,60.9375 2450.1719,60.8594 Q2450.3281,60.7813 2450.5313,60.7813 Q2450.8594,60.7813 2451.1094,61.0469 Q2451.375,61.2969 2451.375,61.6406 Q2451.375,61.9844 2451.0313,62.3906 Q2450.5313,62.9688 2449.7344,63.2969 Q2448.6563,63.75 2447.3594,63.75 Q2445.8438,63.75 2444.6406,63.125 Q2443.6563,62.625 2442.9688,61.5625 Q2442.2813,60.4844 2442.2813,59.2031 L2442.2813,58.0469 Q2442.2813,56.7188 2442.8906,55.5781 Q2443.5156,54.4219 2444.6094,53.8125 Q2445.7031,53.1875 2446.9375,53.1875 Q2447.6719,53.1875 2448.3125,53.3594 Q2448.9688,53.5156 2449.5156,53.875 Z " fill="#000000"/><text fill="#000000" font-family="sans-serif" font-size="14" lengthAdjust="spacing" textLength="26" x="2467.25" y="63.7285">Taxi</text><line style="stroke:#181818;stroke-width:0.5;" x1="2258" x2="2670" y1="74" y2="74"/><ellipse cx="2268" cy="88.3047" fill="none" rx="3" ry="3" style="stroke:#038048;stroke-width:1.0;"/><text fill="#000000" font-family="sans-serif" font-size="14" lengthAdjust="spacing" textLength="63" x="2277" y="92.5332">id: Integer</text><ellipse cx="2268" cy="105.9141" fill="none" rx="3" ry="3" style="stroke:#038048;stroke-width:1.0;"/><text fill="#000000" font-family="sans-serif" font-size="14" lengthAdjust="spacing" textLength="125" x="2277" y="110.1426">numberPlate: String</text><ellipse cx="2268" cy="123.5234" fill="none" rx="3" ry="3" style="stroke:#038048;stroke-width:1.0;"/><text fill="#000000" font-family="sans-serif" font-size="14" lengthAdjust="spacing" textLength="112" x="2277" y="127.752">status: TaxiStatus</text><line style="stroke:#181818;stroke-width:0.5;" x1="2258" x2="2670" y1="134.8281" y2="134.8281"/><ellipse cx="2268" cy="149.1328" fill="#84BE84" rx="3" ry="3" style="stroke:#038048;stroke-width:1.0;"/><text fill="#000000" font-family="sans-serif" font-size="14" lengthAdjust="spacing" textLength="128" x="2277" y="153.3613">updateStatus(): void</text><ellipse cx="2268" cy="166.7422" fill="#84BE84" rx="3" ry="3" style="stroke:#038048;stroke-width:1.0;"/><text fill="#000000" font-family="sans-serif" font-size="14" lengthAdjust="spacing" textLength="194" x="2277" y="170.9707">getCurrentLocation(): Location</text><ellipse cx="2268" cy="184.3516" fill="#84BE84" rx="3" ry="3" style="stroke:#038048;stroke-width:1.0;"/><text fill="#000000" font-family="sans-serif" font-size="14" lengthAdjust="spacing" textLength="388" x="2277" y="188.5801">respondToBooking(request: BookingRequest): TaxiResponse</text></g><!--class Filter--><g id="elem_Filter"><rect codeLine="79" fill="#F1F1F1" height="65.6094" id="Filter" rx="2.5" ry="2.5" style="stroke:#181818;stroke-width:0.5;" width="173" x="766.5" y="86"/><ellipse cx="832.75" cy="102" fill="#ADD1B2" rx="11" ry="11" style="stroke:#181818;stroke-width:1.0;"/><path d="M835.5156,97.875 Q835.6719,97.6563 835.8594,97.5469 Q836.0469,97.4375 836.2656,97.4375 Q836.6406,97.4375 836.875,97.7031 Q837.1094,97.9531 837.1094,98.5625 L837.1094,100.0156 Q837.1094,100.625 836.875,100.8906 Q836.6406,101.1563 836.2656,101.1563 Q835.9219,101.1563 835.7188,100.9531 Q835.5156,100.7656 835.4063,100.25 Q835.3594,99.8906 835.1719,99.7031 Q834.8438,99.3281 834.2344,99.1094 Q833.625,98.8906 833,98.8906 Q832.2344,98.8906 831.5938,99.2188 Q830.9688,99.5469 830.4688,100.2969 Q829.9844,101.0469 829.9844,102.0781 L829.9844,103.1719 Q829.9844,104.4063 830.875,105.2344 Q831.7656,106.0469 833.3594,106.0469 Q834.2969,106.0469 834.9531,105.7969 Q835.3438,105.6406 835.7656,105.2031 Q836.0313,104.9375 836.1719,104.8594 Q836.3281,104.7813 836.5313,104.7813 Q836.8594,104.7813 837.1094,105.0469 Q837.375,105.2969 837.375,105.6406 Q837.375,105.9844 837.0313,106.3906 Q836.5313,106.9688 835.7344,107.2969 Q834.6563,107.75 833.3594,107.75 Q831.8438,107.75 830.6406,107.125 Q829.6563,106.625 828.9688,105.5625 Q828.2813,104.4844 828.2813,103.2031 L828.2813,102.0469 Q828.2813,100.7188 828.8906,99.5781 Q829.5156,98.4219 830.6094,97.8125 Q831.7031,97.1875 832.9375,97.1875 Q833.6719,97.1875 834.3125,97.3594 Q834.9688,97.5156 835.5156,97.875 Z " fill="#000000"/><text fill="#000000" font-family="sans-serif" font-size="14" lengthAdjust="spacing" textLength="32" x="853.25" y="107.7285">Filter</text><line style="stroke:#181818;stroke-width:0.5;" x1="767.5" x2="938.5" y1="118" y2="118"/><line style="stroke:#181818;stroke-width:0.5;" x1="767.5" x2="938.5" y1="126" y2="126"/><ellipse cx="777.5" cy="140.3047" fill="#84BE84" rx="3" ry="3" style="stroke:#038048;stroke-width:1.0;"/><text fill="#000000" font-family="sans-serif" font-size="14" lengthAdjust="spacing" textLength="147" x="786.5" y="144.5332">apply(item: T): Boolean</text></g><!--class BookingCenter--><g id="elem_BookingCenter"><rect codeLine="83" fill="#F1F1F1" height="83.2188" id="BookingCenter" rx="2.5" ry="2.5" style="stroke:#181818;stroke-width:0.5;" width="479" x="974.5" y="77.5"/><ellipse cx="1162.75" cy="93.5" fill="#ADD1B2" rx="11" ry="11" style="stroke:#181818;stroke-width:1.0;"/><path d="M1165.5156,89.375 Q1165.6719,89.1563 1165.8594,89.0469 Q1166.0469,88.9375 1166.2656,88.9375 Q1166.6406,88.9375 1166.875,89.2031 Q1167.1094,89.4531 1167.1094,90.0625 L1167.1094,91.5156 Q1167.1094,92.125 1166.875,92.3906 Q1166.6406,92.6563 1166.2656,92.6563 Q1165.9219,92.6563 1165.7188,92.4531 Q1165.5156,92.2656 1165.4063,91.75 Q1165.3594,91.3906 1165.1719,91.2031 Q1164.8438,90.8281 1164.2344,90.6094 Q1163.625,90.3906 1163,90.3906 Q1162.2344,90.3906 1161.5938,90.7188 Q1160.9688,91.0469 1160.4688,91.7969 Q1159.9844,92.5469 1159.9844,93.5781 L1159.9844,94.6719 Q1159.9844,95.9063 1160.875,96.7344 Q1161.7656,97.5469 1163.3594,97.5469 Q1164.2969,97.5469 1164.9531,97.2969 Q1165.3438,97.1406 1165.7656,96.7031 Q1166.0313,96.4375 1166.1719,96.3594 Q1166.3281,96.2813 1166.5313,96.2813 Q1166.8594,96.2813 1167.1094,96.5469 Q1167.375,96.7969 1167.375,97.1406 Q1167.375,97.4844 1167.0313,97.8906 Q1166.5313,98.4688 1165.7344,98.7969 Q1164.6563,99.25 1163.3594,99.25 Q1161.8438,99.25 1160.6406,98.625 Q1159.6563,98.125 1158.9688,97.0625 Q1158.2813,95.9844 1158.2813,94.7031 L1158.2813,93.5469 Q1158.2813,92.2188 1158.8906,91.0781 Q1159.5156,89.9219 1160.6094,89.3125 Q1161.7031,88.6875 1162.9375,88.6875 Q1163.6719,88.6875 1164.3125,88.8594 Q1164.9688,89.0156 1165.5156,89.375 Z " fill="#000000"/><text fill="#000000" font-family="sans-serif" font-size="14" lengthAdjust="spacing" textLength="94" x="1183.25" y="99.2285">BookingCenter</text><line style="stroke:#181818;stroke-width:0.5;" x1="975.5" x2="1452.5" y1="109.5" y2="109.5"/><line style="stroke:#181818;stroke-width:0.5;" x1="975.5" x2="1452.5" y1="117.5" y2="117.5"/><ellipse cx="985.5" cy="131.8047" fill="#84BE84" rx="3" ry="3" style="stroke:#038048;stroke-width:1.0;"/><text fill="#000000" font-family="sans-serif" font-size="14" lengthAdjust="spacing" textLength="302" x="994.5" y="136.0332">publishBooking(booking: BookingRequest): void</text><ellipse cx="985.5" cy="149.4141" fill="#84BE84" rx="3" ry="3" style="stroke:#038048;stroke-width:1.0;"/><text fill="#000000" font-family="sans-serif" font-size="14" lengthAdjust="spacing" textLength="453" x="994.5" y="153.6426">queryBooking(filters: Collection&lt;Filter&lt;Booking&gt;&gt;): Collection&lt;Booking&gt;</text></g><!--class TaxiFleet--><g id="elem_TaxiFleet"><rect codeLine="88" fill="#F1F1F1" height="83.2188" id="TaxiFleet" rx="2.5" ry="2.5" style="stroke:#181818;stroke-width:0.5;" width="411" x="647.5" y="320"/><ellipse cx="819.75" cy="336" fill="#ADD1B2" rx="11" ry="11" style="stroke:#181818;stroke-width:1.0;"/><path d="M822.5156,331.875 Q822.6719,331.6563 822.8594,331.5469 Q823.0469,331.4375 823.2656,331.4375 Q823.6406,331.4375 823.875,331.7031 Q824.1094,331.9531 824.1094,332.5625 L824.1094,334.0156 Q824.1094,334.625 823.875,334.8906 Q823.6406,335.1563 823.2656,335.1563 Q822.9219,335.1563 822.7188,334.9531 Q822.5156,334.7656 822.4063,334.25 Q822.3594,333.8906 822.1719,333.7031 Q821.8438,333.3281 821.2344,333.1094 Q820.625,332.8906 820,332.8906 Q819.2344,332.8906 818.5938,333.2188 Q817.9688,333.5469 817.4688,334.2969 Q816.9844,335.0469 816.9844,336.0781 L816.9844,337.1719 Q816.9844,338.4063 817.875,339.2344 Q818.7656,340.0469 820.3594,340.0469 Q821.2969,340.0469 821.9531,339.7969 Q822.3438,339.6406 822.7656,339.2031 Q823.0313,338.9375 823.1719,338.8594 Q823.3281,338.7813 823.5313,338.7813 Q823.8594,338.7813 824.1094,339.0469 Q824.375,339.2969 824.375,339.6406 Q824.375,339.9844 824.0313,340.3906 Q823.5313,340.9688 822.7344,341.2969 Q821.6563,341.75 820.3594,341.75 Q818.8438,341.75 817.6406,341.125 Q816.6563,340.625 815.9688,339.5625 Q815.2813,338.4844 815.2813,337.2031 L815.2813,336.0469 Q815.2813,334.7188 815.8906,333.5781 Q816.5156,332.4219 817.6094,331.8125 Q818.7031,331.1875 819.9375,331.1875 Q820.6719,331.1875 821.3125,331.3594 Q821.9688,331.5156 822.5156,331.875 Z " fill="#000000"/><text fill="#000000" font-family="sans-serif" font-size="14" lengthAdjust="spacing" textLength="58" x="840.25" y="341.7285">TaxiFleet</text><line style="stroke:#181818;stroke-width:0.5;" x1="648.5" x2="1057.5" y1="352" y2="352"/><line style="stroke:#181818;stroke-width:0.5;" x1="648.5" x2="1057.5" y1="360" y2="360"/><ellipse cx="658.5" cy="374.3047" fill="#84BE84" rx="3" ry="3" style="stroke:#038048;stroke-width:1.0;"/><text fill="#000000" font-family="sans-serif" font-size="14" lengthAdjust="spacing" textLength="385" x="667.5" y="378.5332">queryTaxis(filters: Collection&lt;Filter&lt;Taxi&gt;&gt;): Collection&lt;Taxi&gt;</text><ellipse cx="658.5" cy="391.9141" fill="#84BE84" rx="3" ry="3" style="stroke:#038048;stroke-width:1.0;"/><text fill="#000000" font-family="sans-serif" font-size="14" lengthAdjust="spacing" textLength="192" x="667.5" y="396.1426">getAvailableTaxis(): List&lt;Taxi&gt;</text></g><!--class CommunicationService--><g id="elem_CommunicationService"><rect codeLine="93" fill="#F1F1F1" height="100.8281" id="CommunicationService" rx="2.5" ry="2.5" style="stroke:#181818;stroke-width:0.5;" width="460" x="1094" y="311"/><ellipse cx="1247.75" cy="327" fill="#ADD1B2" rx="11" ry="11" style="stroke:#181818;stroke-width:1.0;"/><path d="M1250.5156,322.875 Q1250.6719,322.6563 1250.8594,322.5469 Q1251.0469,322.4375 1251.2656,322.4375 Q1251.6406,322.4375 1251.875,322.7031 Q1252.1094,322.9531 1252.1094,323.5625 L1252.1094,325.0156 Q1252.1094,325.625 1251.875,325.8906 Q1251.6406,326.1563 1251.2656,326.1563 Q1250.9219,326.1563 1250.7188,325.9531 Q1250.5156,325.7656 1250.4063,325.25 Q1250.3594,324.8906 1250.1719,324.7031 Q1249.8438,324.3281 1249.2344,324.1094 Q1248.625,323.8906 1248,323.8906 Q1247.2344,323.8906 1246.5938,324.2188 Q1245.9688,324.5469 1245.4688,325.2969 Q1244.9844,326.0469 1244.9844,327.0781 L1244.9844,328.1719 Q1244.9844,329.4063 1245.875,330.2344 Q1246.7656,331.0469 1248.3594,331.0469 Q1249.2969,331.0469 1249.9531,330.7969 Q1250.3438,330.6406 1250.7656,330.2031 Q1251.0313,329.9375 1251.1719,329.8594 Q1251.3281,329.7813 1251.5313,329.7813 Q1251.8594,329.7813 1252.1094,330.0469 Q1252.375,330.2969 1252.375,330.6406 Q1252.375,330.9844 1252.0313,331.3906 Q1251.5313,331.9688 1250.7344,332.2969 Q1249.6563,332.75 1248.3594,332.75 Q1246.8438,332.75 1245.6406,332.125 Q1244.6563,331.625 1243.9688,330.5625 Q1243.2813,329.4844 1243.2813,328.2031 L1243.2813,327.0469 Q1243.2813,325.7188 1243.8906,324.5781 Q1244.5156,323.4219 1245.6094,322.8125 Q1246.7031,322.1875 1247.9375,322.1875 Q1248.6719,322.1875 1249.3125,322.3594 Q1249.9688,322.5156 1250.5156,322.875 Z " fill="#000000"/><text fill="#000000" font-family="sans-serif" font-size="14" lengthAdjust="spacing" textLength="144" x="1268.25" y="332.7285">CommunicationService</text><line style="stroke:#181818;stroke-width:0.5;" x1="1095" x2="1553" y1="343" y2="343"/><line style="stroke:#181818;stroke-width:0.5;" x1="1095" x2="1553" y1="351" y2="351"/><ellipse cx="1105" cy="365.3047" fill="#84BE84" rx="3" ry="3" style="stroke:#038048;stroke-width:1.0;"/><text fill="#000000" font-family="sans-serif" font-size="14" lengthAdjust="spacing" textLength="353" x="1114" y="369.5332">publishBookingRequest(request: BookingRequest): void</text><ellipse cx="1105" cy="382.9141" fill="#84BE84" rx="3" ry="3" style="stroke:#038048;stroke-width:1.0;"/><text fill="#000000" font-family="sans-serif" font-size="14" lengthAdjust="spacing" textLength="359" x="1114" y="387.1426">handleTaxiResponse(response: BookingResponse): void</text><ellipse cx="1105" cy="400.5234" fill="#84BE84" rx="3" ry="3" style="stroke:#038048;stroke-width:1.0;"/><text fill="#000000" font-family="sans-serif" font-size="14" lengthAdjust="spacing" textLength="434" x="1114" y="404.752">notifyTaxis(taxis: List&lt;Taxi&gt;, bookingRequest: BookingRequest): void</text></g><!--class Location--><g id="elem_Location"><rect codeLine="2" fill="#F1F1F1" height="83.2188" id="Location" rx="2.5" ry="2.5" style="stroke:#181818;stroke-width:0.5;" width="135" x="1586.5" y="77.5"/><ellipse cx="1623.55" cy="93.5" fill="#ADD1B2" rx="11" ry="11" style="stroke:#181818;stroke-width:1.0;"/><path d="M1626.3156,89.375 Q1626.4719,89.1563 1626.6594,89.0469 Q1626.8469,88.9375 1627.0656,88.9375 Q1627.4406,88.9375 1627.675,89.2031 Q1627.9094,89.4531 1627.9094,90.0625 L1627.9094,91.5156 Q1627.9094,92.125 1627.675,92.3906 Q1627.4406,92.6563 1627.0656,92.6563 Q1626.7219,92.6563 1626.5188,92.4531 Q1626.3156,92.2656 1626.2063,91.75 Q1626.1594,91.3906 1625.9719,91.2031 Q1625.6438,90.8281 1625.0344,90.6094 Q1624.425,90.3906 1623.8,90.3906 Q1623.0344,90.3906 1622.3938,90.7188 Q1621.7688,91.0469 1621.2688,91.7969 Q1620.7844,92.5469 1620.7844,93.5781 L1620.7844,94.6719 Q1620.7844,95.9063 1621.675,96.7344 Q1622.5656,97.5469 1624.1594,97.5469 Q1625.0969,97.5469 1625.7531,97.2969 Q1626.1438,97.1406 1626.5656,96.7031 Q1626.8313,96.4375 1626.9719,96.3594 Q1627.1281,96.2813 1627.3313,96.2813 Q1627.6594,96.2813 1627.9094,96.5469 Q1628.175,96.7969 1628.175,97.1406 Q1628.175,97.4844 1627.8313,97.8906 Q1627.3313,98.4688 1626.5344,98.7969 Q1625.4563,99.25 1624.1594,99.25 Q1622.6438,99.25 1621.4406,98.625 Q1620.4563,98.125 1619.7688,97.0625 Q1619.0813,95.9844 1619.0813,94.7031 L1619.0813,93.5469 Q1619.0813,92.2188 1619.6906,91.0781 Q1620.3156,89.9219 1621.4094,89.3125 Q1622.5031,88.6875 1623.7375,88.6875 Q1624.4719,88.6875 1625.1125,88.8594 Q1625.7688,89.0156 1626.3156,89.375 Z " fill="#000000"/><text fill="#000000" font-family="sans-serif" font-size="14" lengthAdjust="spacing" textLength="54" x="1642.45" y="99.2285">Location</text><line style="stroke:#181818;stroke-width:0.5;" x1="1587.5" x2="1720.5" y1="109.5" y2="109.5"/><ellipse cx="1597.5" cy="123.8047" fill="none" rx="3" ry="3" style="stroke:#038048;stroke-width:1.0;"/><text fill="#000000" font-family="sans-serif" font-size="14" lengthAdjust="spacing" textLength="97" x="1606.5" y="128.0332">latitude: double</text><ellipse cx="1597.5" cy="141.4141" fill="none" rx="3" ry="3" style="stroke:#038048;stroke-width:1.0;"/><text fill="#000000" font-family="sans-serif" font-size="14" lengthAdjust="spacing" textLength="109" x="1606.5" y="145.6426">longitude: double</text><line style="stroke:#181818;stroke-width:0.5;" x1="1587.5" x2="1720.5" y1="152.7188" y2="152.7188"/></g><!--class User--><g id="elem_User"><rect codeLine="7" fill="#F1F1F1" height="136.0469" id="User" rx="2.5" ry="2.5" style="stroke:#181818;stroke-width:0.5;" width="465" x="1756.5" y="51"/><ellipse cx="1970.25" cy="67" fill="#ADD1B2" rx="11" ry="11" style="stroke:#181818;stroke-width:1.0;"/><path d="M1973.0156,62.875 Q1973.1719,62.6563 1973.3594,62.5469 Q1973.5469,62.4375 1973.7656,62.4375 Q1974.1406,62.4375 1974.375,62.7031 Q1974.6094,62.9531 1974.6094,63.5625 L1974.6094,65.0156 Q1974.6094,65.625 1974.375,65.8906 Q1974.1406,66.1563 1973.7656,66.1563 Q1973.4219,66.1563 1973.2188,65.9531 Q1973.0156,65.7656 1972.9063,65.25 Q1972.8594,64.8906 1972.6719,64.7031 Q1972.3438,64.3281 1971.7344,64.1094 Q1971.125,63.8906 1970.5,63.8906 Q1969.7344,63.8906 1969.0938,64.2188 Q1968.4688,64.5469 1967.9688,65.2969 Q1967.4844,66.0469 1967.4844,67.0781 L1967.4844,68.1719 Q1967.4844,69.4063 1968.375,70.2344 Q1969.2656,71.0469 1970.8594,71.0469 Q1971.7969,71.0469 1972.4531,70.7969 Q1972.8438,70.6406 1973.2656,70.2031 Q1973.5313,69.9375 1973.6719,69.8594 Q1973.8281,69.7813 1974.0313,69.7813 Q1974.3594,69.7813 1974.6094,70.0469 Q1974.875,70.2969 1974.875,70.6406 Q1974.875,70.9844 1974.5313,71.3906 Q1974.0313,71.9688 1973.2344,72.2969 Q1972.1563,72.75 1970.8594,72.75 Q1969.3438,72.75 1968.1406,72.125 Q1967.1563,71.625 1966.4688,70.5625 Q1965.7813,69.4844 1965.7813,68.2031 L1965.7813,67.0469 Q1965.7813,65.7188 1966.3906,64.5781 Q1967.0156,63.4219 1968.1094,62.8125 Q1969.2031,62.1875 1970.4375,62.1875 Q1971.1719,62.1875 1971.8125,62.3594 Q1972.4688,62.5156 1973.0156,62.875 Z " fill="#000000"/><text fill="#000000" font-family="sans-serif" font-size="14" lengthAdjust="spacing" textLength="29" x="1990.75" y="72.7285">User</text><line style="stroke:#181818;stroke-width:0.5;" x1="1757.5" x2="2220.5" y1="83" y2="83"/><ellipse cx="1767.5" cy="97.3047" fill="none" rx="3" ry="3" style="stroke:#038048;stroke-width:1.0;"/><text fill="#000000" font-family="sans-serif" font-size="14" lengthAdjust="spacing" textLength="63" x="1776.5" y="101.5332">id: Integer</text><ellipse cx="1767.5" cy="114.9141" fill="none" rx="3" ry="3" style="stroke:#038048;stroke-width:1.0;"/><text fill="#000000" font-family="sans-serif" font-size="14" lengthAdjust="spacing" textLength="80" x="1776.5" y="119.1426">name: String</text><line style="stroke:#181818;stroke-width:0.5;" x1="1757.5" x2="2220.5" y1="126.2188" y2="126.2188"/><ellipse cx="1767.5" cy="140.5234" fill="#84BE84" rx="3" ry="3" style="stroke:#038048;stroke-width:1.0;"/><text fill="#000000" font-family="sans-serif" font-size="14" lengthAdjust="spacing" textLength="439" x="1776.5" y="144.752">requestBooking(pickup: Location, dropoff: Location): BookingRequest</text><ellipse cx="1767.5" cy="158.1328" fill="#84BE84" rx="3" ry="3" style="stroke:#038048;stroke-width:1.0;"/><text fill="#000000" font-family="sans-serif" font-size="14" lengthAdjust="spacing" textLength="322" x="1776.5" y="162.3613">viewBookingStatus(request: BookingRequest): void</text><ellipse cx="1767.5" cy="175.7422" fill="#84BE84" rx="3" ry="3" style="stroke:#038048;stroke-width:1.0;"/><text fill="#000000" font-family="sans-serif" font-size="14" lengthAdjust="spacing" textLength="340" x="1776.5" y="179.9707">cancelBooking(cancelBooking: BookingRequest): void</text></g><!--link BookingRequest to Booking--><g id="link_BookingRequest_Booking"><path codeLine="58" d="M118,196.1 C118,221.42 118,243.77 118,269.71 " fill="none" id="BookingRequest-to-Booking" style="stroke:#181818;stroke-width:1.0;"/><polygon fill="#181818" points="118,275.71,122,266.71,118,270.71,114,266.71,118,275.71" style="stroke:#181818;stroke-width:1.0;"/><text fill="#000000" font-family="sans-serif" font-size="13" lengthAdjust="spacing" textLength="55" x="119" y="242.4951">Becomes</text><text fill="#000000" font-family="sans-serif" font-size="13" lengthAdjust="spacing" textLength="7" x="110.6883" y="217.2053">1</text><text fill="#000000" font-family="sans-serif" font-size="13" lengthAdjust="spacing" textLength="22" x="95.0547" y="265.1487">0..1</text></g><!--SRC=[ZLLBZvim4BxdLrWvPTNTLNj5gqW98IjQyb0shNfrOC9Q0PjYatQrwd-lZGtO8MJB2O_d-NqpupZ3dAE8nLWGHj7x2CdlKoPFeah0Gmch3XaOAQEfA_ux6iMrW-ySoiQO91uAgO0KIYsWE9ScBw8aDDMI4dvLmCMSiPEKJGeIdwh2QzEuHqd92dOyTg8x3ndjdRRLZiu4VXlvYy2YuXFZ-b9TsfyPIRHLZ6aCMHFTEGtPoKeB79zm2cXiDCQcOA1LZeowJi9Sg6yRh1VX-hazxuAlWRyF5gqW-BaDT-OiWxGEz_WFsG4l6ELW-PlvVh3TjyT5u4VXEh2jDI5k5PQ37Zsri9ByUJMBdKopqX3GKT5f69PkgHWwzaIrm08BK7_TDQ_nybpuRbJJmwCknmG95tPShUevGFPGTdh7Skjlrijmjx9usgoVDpQH_cQrZGARIN-szeCeShbqyl-GXe7cxHI4B4QNrCaEMlSZY9rIkskP7acfyZZfdDlJScLYx6jJvqM_ZR-CqSF358q_FpxAtwP-JmuFn2m7FhOdIeMqXqcTUvJCVip2Q3QFWbOotso-sGmjbzTdmN8_3BsCUu1oApUVkwiS3Bl4hD4f4cbZjayFk1I4NvKbKD7CXjAvDYUgGvCzQp0UtcDN6jhUJiiCGA0LflAKoxZDcj9OB4acsbMj6w0eihS94P1BrthDPe3fO1FxqgVheP1l0U6lJUQ7svkqDPFIygqnEjPvIOXzbcKGAt2UTAvFHcKwlNDk6_5rlZKAxnVHr0s_5KifN0QgPGwZipCc6POFeFQd22LSM8fEEZxByueIpVWBb6SImp1y1gt_USTgwrTC4vr8qnEJRlTTxCsUCMM270qgQlgvNSazEZYXRwMYMl0V]--></g></svg>