<?xml version="1.0" encoding="us-ascii" standalone="no"?><svg xmlns="http://www.w3.org/2000/svg" xmlns:xlink="http://www.w3.org/1999/xlink" contentStyleType="text/css" height="1062px" preserveAspectRatio="none" style="width:975px;height:1062px;background:#FFFFFF;" version="1.1" viewBox="0 0 975 1062" width="975px" zoomAndPan="magnify"><defs/><g><line style="stroke:#181818;stroke-width:0.5;stroke-dasharray:5.0,5.0;" x1="87" x2="87" y1="82.6094" y2="980.4531"/><line style="stroke:#181818;stroke-width:0.5;stroke-dasharray:5.0,5.0;" x1="260" x2="260" y1="82.6094" y2="980.4531"/><line style="stroke:#181818;stroke-width:0.5;stroke-dasharray:5.0,5.0;" x1="530.5" x2="530.5" y1="82.6094" y2="980.4531"/><line style="stroke:#181818;stroke-width:0.5;stroke-dasharray:5.0,5.0;" x1="675" x2="675" y1="82.6094" y2="980.4531"/><line style="stroke:#181818;stroke-width:0.5;stroke-dasharray:5.0,5.0;" x1="775" x2="775" y1="82.6094" y2="980.4531"/><line style="stroke:#181818;stroke-width:0.5;stroke-dasharray:5.0,5.0;" x1="895.5" x2="895.5" y1="82.6094" y2="980.4531"/><text fill="#000000" font-family="sans-serif" font-size="14" lengthAdjust="spacing" textLength="158" x="5" y="79.5332">Fleet Management Team</text><ellipse cx="87" cy="13.5" fill="#E2E2F0" rx="8" ry="8" style="stroke:#181818;stroke-width:0.5;"/><path d="M87,21.5 L87,48.5 M74,29.5 L100,29.5 M87,48.5 L74,63.5 M87,48.5 L100,63.5 " fill="none" style="stroke:#181818;stroke-width:0.5;"/><text fill="#000000" font-family="sans-serif" font-size="14" lengthAdjust="spacing" textLength="158" x="5" y="993.9863">Fleet Management Team</text><ellipse cx="87" cy="1005.5625" fill="#E2E2F0" rx="8" ry="8" style="stroke:#181818;stroke-width:0.5;"/><path d="M87,1013.5625 L87,1040.5625 M74,1021.5625 L100,1021.5625 M87,1040.5625 L74,1055.5625 M87,1040.5625 L100,1055.5625 " fill="none" style="stroke:#181818;stroke-width:0.5;"/><rect fill="#E2E2F0" height="31.6094" rx="2.5" ry="2.5" style="stroke:#181818;stroke-width:0.5;" width="84" x="218" y="50"/><text fill="#000000" font-family="sans-serif" font-size="14" lengthAdjust="spacing" textLength="70" x="225" y="71.5332">Dashboard</text><rect fill="#E2E2F0" height="31.6094" rx="2.5" ry="2.5" style="stroke:#181818;stroke-width:0.5;" width="84" x="218" y="979.4531"/><text fill="#000000" font-family="sans-serif" font-size="14" lengthAdjust="spacing" textLength="70" x="225" y="1000.9863">Dashboard</text><rect fill="#E2E2F0" height="31.6094" rx="2.5" ry="2.5" style="stroke:#181818;stroke-width:0.5;" width="131" x="465.5" y="50"/><text fill="#000000" font-family="sans-serif" font-size="14" lengthAdjust="spacing" textLength="117" x="472.5" y="71.5332">DashboardService</text><rect fill="#E2E2F0" height="31.6094" rx="2.5" ry="2.5" style="stroke:#181818;stroke-width:0.5;" width="131" x="465.5" y="979.4531"/><text fill="#000000" font-family="sans-serif" font-size="14" lengthAdjust="spacing" textLength="117" x="472.5" y="1000.9863">DashboardService</text><rect fill="#E2E2F0" height="31.6094" rx="2.5" ry="2.5" style="stroke:#181818;stroke-width:0.5;" width="108" x="621" y="50"/><text fill="#000000" font-family="sans-serif" font-size="14" lengthAdjust="spacing" textLength="94" x="628" y="71.5332">BookingCenter</text><rect fill="#E2E2F0" height="31.6094" rx="2.5" ry="2.5" style="stroke:#181818;stroke-width:0.5;" width="108" x="621" y="979.4531"/><text fill="#000000" font-family="sans-serif" font-size="14" lengthAdjust="spacing" textLength="94" x="628" y="1000.9863">BookingCenter</text><rect fill="#E2E2F0" height="31.6094" rx="2.5" ry="2.5" style="stroke:#181818;stroke-width:0.5;" width="72" x="739" y="50"/><text fill="#000000" font-family="sans-serif" font-size="14" lengthAdjust="spacing" textLength="58" x="746" y="71.5332">TaxiFleet</text><rect fill="#E2E2F0" height="31.6094" rx="2.5" ry="2.5" style="stroke:#181818;stroke-width:0.5;" width="72" x="739" y="979.4531"/><text fill="#000000" font-family="sans-serif" font-size="14" lengthAdjust="spacing" textLength="58" x="746" y="1000.9863">TaxiFleet</text><rect fill="#E2E2F0" height="31.6094" rx="2.5" ry="2.5" style="stroke:#181818;stroke-width:0.5;" width="135" x="828.5" y="50"/><text fill="#000000" font-family="sans-serif" font-size="14" lengthAdjust="spacing" textLength="121" x="835.5" y="71.5332">PersistenceService</text><rect fill="#E2E2F0" height="31.6094" rx="2.5" ry="2.5" style="stroke:#181818;stroke-width:0.5;" width="135" x="828.5" y="979.4531"/><text fill="#000000" font-family="sans-serif" font-size="14" lengthAdjust="spacing" textLength="121" x="835.5" y="1000.9863">PersistenceService</text><rect fill="#EEEEEE" height="3" style="stroke:#EEEEEE;stroke-width:1.0;" width="968.5" x="0" y="113.7852"/><line style="stroke:#000000;stroke-width:1.0;" x1="0" x2="968.5" y1="113.7852" y2="113.7852"/><line style="stroke:#000000;stroke-width:1.0;" x1="0" x2="968.5" y1="116.7852" y2="116.7852"/><rect fill="#EEEEEE" height="24.3516" style="stroke:#000000;stroke-width:2.0;" width="141" x="413.75" y="102.6094"/><text fill="#000000" font-family="sans-serif" font-size="13" font-weight="bold" lengthAdjust="spacing" textLength="123" x="419.75" y="120.1045">Initial UI Rendering</text><polygon fill="#181818" points="248,155.3125,258,159.3125,248,163.3125,252,159.3125" style="stroke:#181818;stroke-width:1.0;"/><line style="stroke:#181818;stroke-width:1.0;" x1="87" x2="254" y1="159.3125" y2="159.3125"/><text fill="#000000" font-family="sans-serif" font-size="13" lengthAdjust="spacing" textLength="136" x="94" y="154.4561">renderInitialDashboard()</text><polygon fill="#181818" points="519,185.6641,529,189.6641,519,193.6641,523,189.6641" style="stroke:#181818;stroke-width:1.0;"/><line style="stroke:#181818;stroke-width:1.0;" x1="260" x2="525" y1="189.6641" y2="189.6641"/><text fill="#000000" font-family="sans-serif" font-size="13" lengthAdjust="spacing" textLength="167" x="267" y="184.8076">generateBookingStats(filters)</text><polygon fill="#181818" points="663,216.0156,673,220.0156,663,224.0156,667,220.0156" style="stroke:#181818;stroke-width:1.0;"/><line style="stroke:#181818;stroke-width:1.0;" x1="531" x2="669" y1="220.0156" y2="220.0156"/><text fill="#000000" font-family="sans-serif" font-size="13" lengthAdjust="spacing" textLength="118" x="538" y="215.1592">queryBooking(filters)</text><polygon fill="#181818" points="884,246.3672,894,250.3672,884,254.3672,888,250.3672" style="stroke:#181818;stroke-width:1.0;"/><line style="stroke:#181818;stroke-width:1.0;" x1="675" x2="890" y1="250.3672" y2="250.3672"/><text fill="#000000" font-family="sans-serif" font-size="13" lengthAdjust="spacing" textLength="111" x="682" y="245.5107">getBookings(filters)</text><polygon fill="#181818" points="686,276.7188,676,280.7188,686,284.7188,682,280.7188" style="stroke:#181818;stroke-width:1.0;"/><line style="stroke:#181818;stroke-width:1.0;" x1="680" x2="895" y1="280.7188" y2="280.7188"/><text fill="#000000" font-family="sans-serif" font-size="13" lengthAdjust="spacing" textLength="120" x="692" y="275.8623">Collection&lt;Booking&gt;</text><polygon fill="#181818" points="542,307.0703,532,311.0703,542,315.0703,538,311.0703" style="stroke:#181818;stroke-width:1.0;"/><line style="stroke:#181818;stroke-width:1.0;" x1="536" x2="674" y1="311.0703" y2="311.0703"/><text fill="#000000" font-family="sans-serif" font-size="13" lengthAdjust="spacing" textLength="120" x="548" y="306.2139">Collection&lt;Booking&gt;</text><polygon fill="#181818" points="271,337.4219,261,341.4219,271,345.4219,267,341.4219" style="stroke:#181818;stroke-width:1.0;"/><line style="stroke:#181818;stroke-width:1.0;" x1="265" x2="530" y1="341.4219" y2="341.4219"/><text fill="#000000" font-family="sans-serif" font-size="13" lengthAdjust="spacing" textLength="247" x="277" y="336.5654">displayBookingStats(Collection&lt;Booking&gt;)</text><polygon fill="#181818" points="519,367.7734,529,371.7734,519,375.7734,523,371.7734" style="stroke:#181818;stroke-width:1.0;"/><line style="stroke:#181818;stroke-width:1.0;" x1="260" x2="525" y1="371.7734" y2="371.7734"/><text fill="#000000" font-family="sans-serif" font-size="13" lengthAdjust="spacing" textLength="144" x="267" y="366.917">generateTaxiStats(filters)</text><polygon fill="#181818" points="763,398.125,773,402.125,763,406.125,767,402.125" style="stroke:#181818;stroke-width:1.0;"/><line style="stroke:#181818;stroke-width:1.0;" x1="531" x2="769" y1="402.125" y2="402.125"/><text fill="#000000" font-family="sans-serif" font-size="13" lengthAdjust="spacing" textLength="102" x="538" y="397.2686">queryTaxis(filters)</text><polygon fill="#181818" points="884,428.4766,894,432.4766,884,436.4766,888,432.4766" style="stroke:#181818;stroke-width:1.0;"/><line style="stroke:#181818;stroke-width:1.0;" x1="775" x2="890" y1="432.4766" y2="432.4766"/><text fill="#000000" font-family="sans-serif" font-size="13" lengthAdjust="spacing" textLength="88" x="782" y="427.6201">getTaxis(filters)</text><polygon fill="#181818" points="786,458.8281,776,462.8281,786,466.8281,782,462.8281" style="stroke:#181818;stroke-width:1.0;"/><line style="stroke:#181818;stroke-width:1.0;" x1="780" x2="895" y1="462.8281" y2="462.8281"/><text fill="#000000" font-family="sans-serif" font-size="13" lengthAdjust="spacing" textLength="97" x="792" y="457.9717">Collection&lt;Taxi&gt;</text><polygon fill="#181818" points="542,489.1797,532,493.1797,542,497.1797,538,493.1797" style="stroke:#181818;stroke-width:1.0;"/><line style="stroke:#181818;stroke-width:1.0;" x1="536" x2="774" y1="493.1797" y2="493.1797"/><text fill="#000000" font-family="sans-serif" font-size="13" lengthAdjust="spacing" textLength="97" x="548" y="488.3232">Collection&lt;Taxi&gt;</text><polygon fill="#181818" points="271,519.5313,261,523.5313,271,527.5313,267,523.5313" style="stroke:#181818;stroke-width:1.0;"/><line style="stroke:#181818;stroke-width:1.0;" x1="265" x2="530" y1="523.5313" y2="523.5313"/><text fill="#000000" font-family="sans-serif" font-size="13" lengthAdjust="spacing" textLength="201" x="277" y="518.6748">displayTaxiStats(Collection&lt;Taxi&gt;)</text><rect fill="#EEEEEE" height="3" style="stroke:#EEEEEE;stroke-width:1.0;" width="968.5" x="0" y="552.707"/><line style="stroke:#000000;stroke-width:1.0;" x1="0" x2="968.5" y1="552.707" y2="552.707"/><line style="stroke:#000000;stroke-width:1.0;" x1="0" x2="968.5" y1="555.707" y2="555.707"/><rect fill="#EEEEEE" height="24.3516" style="stroke:#000000;stroke-width:2.0;" width="235" x="366.75" y="541.5313"/><text fill="#000000" font-family="sans-serif" font-size="13" font-weight="bold" lengthAdjust="spacing" textLength="217" x="372.75" y="559.0264">Fleet Management Updates Filters</text><polygon fill="#181818" points="248,594.2344,258,598.2344,248,602.2344,252,598.2344" style="stroke:#181818;stroke-width:1.0;"/><line style="stroke:#181818;stroke-width:1.0;" x1="87" x2="254" y1="598.2344" y2="598.2344"/><text fill="#000000" font-family="sans-serif" font-size="13" lengthAdjust="spacing" textLength="149" x="94" y="593.3779">updatesFilters(newFilters)</text><polygon fill="#181818" points="519,624.5859,529,628.5859,519,632.5859,523,628.5859" style="stroke:#181818;stroke-width:1.0;"/><line style="stroke:#181818;stroke-width:1.0;" x1="260" x2="525" y1="628.5859" y2="628.5859"/><text fill="#000000" font-family="sans-serif" font-size="13" lengthAdjust="spacing" textLength="167" x="267" y="623.7295">generateBookingStats(filters)</text><polygon fill="#181818" points="663,654.9375,673,658.9375,663,662.9375,667,658.9375" style="stroke:#181818;stroke-width:1.0;"/><line style="stroke:#181818;stroke-width:1.0;" x1="531" x2="669" y1="658.9375" y2="658.9375"/><text fill="#000000" font-family="sans-serif" font-size="13" lengthAdjust="spacing" textLength="118" x="538" y="654.0811">queryBooking(filters)</text><polygon fill="#181818" points="884,685.2891,894,689.2891,884,693.2891,888,689.2891" style="stroke:#181818;stroke-width:1.0;"/><line style="stroke:#181818;stroke-width:1.0;" x1="675" x2="890" y1="689.2891" y2="689.2891"/><text fill="#000000" font-family="sans-serif" font-size="13" lengthAdjust="spacing" textLength="111" x="682" y="684.4326">getBookings(filters)</text><polygon fill="#181818" points="686,715.6406,676,719.6406,686,723.6406,682,719.6406" style="stroke:#181818;stroke-width:1.0;"/><line style="stroke:#181818;stroke-width:1.0;" x1="680" x2="895" y1="719.6406" y2="719.6406"/><text fill="#000000" font-family="sans-serif" font-size="13" lengthAdjust="spacing" textLength="120" x="692" y="714.7842">Collection&lt;Booking&gt;</text><polygon fill="#181818" points="542,745.9922,532,749.9922,542,753.9922,538,749.9922" style="stroke:#181818;stroke-width:1.0;"/><line style="stroke:#181818;stroke-width:1.0;" x1="536" x2="674" y1="749.9922" y2="749.9922"/><text fill="#000000" font-family="sans-serif" font-size="13" lengthAdjust="spacing" textLength="120" x="548" y="745.1357">Collection&lt;Booking&gt;</text><polygon fill="#181818" points="271,776.3438,261,780.3438,271,784.3438,267,780.3438" style="stroke:#181818;stroke-width:1.0;"/><line style="stroke:#181818;stroke-width:1.0;" x1="265" x2="530" y1="780.3438" y2="780.3438"/><text fill="#000000" font-family="sans-serif" font-size="13" lengthAdjust="spacing" textLength="247" x="277" y="775.4873">displayBookingStats(Collection&lt;Booking&gt;)</text><polygon fill="#181818" points="519,806.6953,529,810.6953,519,814.6953,523,810.6953" style="stroke:#181818;stroke-width:1.0;"/><line style="stroke:#181818;stroke-width:1.0;" x1="260" x2="525" y1="810.6953" y2="810.6953"/><text fill="#000000" font-family="sans-serif" font-size="13" lengthAdjust="spacing" textLength="144" x="267" y="805.8389">generateTaxiStats(filters)</text><polygon fill="#181818" points="763,837.0469,773,841.0469,763,845.0469,767,841.0469" style="stroke:#181818;stroke-width:1.0;"/><line style="stroke:#181818;stroke-width:1.0;" x1="531" x2="769" y1="841.0469" y2="841.0469"/><text fill="#000000" font-family="sans-serif" font-size="13" lengthAdjust="spacing" textLength="102" x="538" y="836.1904">queryTaxis(filters)</text><polygon fill="#181818" points="884,867.3984,894,871.3984,884,875.3984,888,871.3984" style="stroke:#181818;stroke-width:1.0;"/><line style="stroke:#181818;stroke-width:1.0;" x1="775" x2="890" y1="871.3984" y2="871.3984"/><text fill="#000000" font-family="sans-serif" font-size="13" lengthAdjust="spacing" textLength="88" x="782" y="866.542">getTaxis(filters)</text><polygon fill="#181818" points="786,897.75,776,901.75,786,905.75,782,901.75" style="stroke:#181818;stroke-width:1.0;"/><line style="stroke:#181818;stroke-width:1.0;" x1="780" x2="895" y1="901.75" y2="901.75"/><text fill="#000000" font-family="sans-serif" font-size="13" lengthAdjust="spacing" textLength="97" x="792" y="896.8936">Collection&lt;Taxi&gt;</text><polygon fill="#181818" points="542,928.1016,532,932.1016,542,936.1016,538,932.1016" style="stroke:#181818;stroke-width:1.0;"/><line style="stroke:#181818;stroke-width:1.0;" x1="536" x2="774" y1="932.1016" y2="932.1016"/><text fill="#000000" font-family="sans-serif" font-size="13" lengthAdjust="spacing" textLength="97" x="548" y="927.2451">Collection&lt;Taxi&gt;</text><polygon fill="#181818" points="271,958.4531,261,962.4531,271,966.4531,267,962.4531" style="stroke:#181818;stroke-width:1.0;"/><line style="stroke:#181818;stroke-width:1.0;" x1="265" x2="530" y1="962.4531" y2="962.4531"/><text fill="#000000" font-family="sans-serif" font-size="13" lengthAdjust="spacing" textLength="201" x="277" y="957.5967">displayTaxiStats(Collection&lt;Taxi&gt;)</text><!--SRC=[xLH1RiCW4Bpp2kIJVUW7gjg7fegKGwIgIHwmjRSkgWCkaBRvVJ4cDiJKyhLIZkpEx30Z5YYra3HPDuYQRe53ZKVackuHZWa5HMsdEv4Mf6ObQy6qaoTGxwy2P6L1m-aFq0xb5oinnBfYI7aKueFnUcNkWDBYWqe8tiCFi_UpmE4KWfvHAgOqyXBzQqpBX90yfnlED8E67ZRq1Nc5qcZJF2Ta28BU5QC9Ua-bXJdUq4WpCe9yXbCpn1evIj3e7EuqQ9M-iSRuL1xxGZ13WYpCXCyJohChZimGPMXJhrPTEw0d6a56P5UYQR3KJF07rogceX73CLxCffzknLJRm3d8A38d8ulZxjx9Wgo7vtJ9kIjudB4_a_0L9nwlh-HPwyf5A3EVQKzO6EYOmlM4pEx1v4Suj9K9ptm8lPdvdJZrO8TDENwl9rdVjkAs5VzfAtu1]--></g></svg>