<?xml version="1.0" encoding="us-ascii" standalone="no"?><svg xmlns="http://www.w3.org/2000/svg" xmlns:xlink="http://www.w3.org/1999/xlink" contentStyleType="text/css" height="579px" preserveAspectRatio="none" style="width:956px;height:579px;background:#FFFFFF;" version="1.1" viewBox="0 0 956 579" width="956px" zoomAndPan="magnify"><defs/><g><line style="stroke:#181818;stroke-width:0.5;stroke-dasharray:5.0,5.0;" x1="87" x2="87" y1="82.6094" y2="497.1797"/><line style="stroke:#181818;stroke-width:0.5;stroke-dasharray:5.0,5.0;" x1="247" x2="247" y1="82.6094" y2="497.1797"/><line style="stroke:#181818;stroke-width:0.5;stroke-dasharray:5.0,5.0;" x1="517.5" x2="517.5" y1="82.6094" y2="497.1797"/><line style="stroke:#181818;stroke-width:0.5;stroke-dasharray:5.0,5.0;" x1="662" x2="662" y1="82.6094" y2="497.1797"/><line style="stroke:#181818;stroke-width:0.5;stroke-dasharray:5.0,5.0;" x1="762" x2="762" y1="82.6094" y2="497.1797"/><line style="stroke:#181818;stroke-width:0.5;stroke-dasharray:5.0,5.0;" x1="882.5" x2="882.5" y1="82.6094" y2="497.1797"/><text fill="#000000" font-family="sans-serif" font-size="14" lengthAdjust="spacing" textLength="158" x="5" y="79.5332">Fleet Management Team</text><ellipse cx="87" cy="13.5" fill="#E2E2F0" rx="8" ry="8" style="stroke:#181818;stroke-width:0.5;"/><path d="M87,21.5 L87,48.5 M74,29.5 L100,29.5 M87,48.5 L74,63.5 M87,48.5 L100,63.5 " fill="none" style="stroke:#181818;stroke-width:0.5;"/><text fill="#000000" font-family="sans-serif" font-size="14" lengthAdjust="spacing" textLength="158" x="5" y="510.7129">Fleet Management Team</text><ellipse cx="87" cy="522.2891" fill="#E2E2F0" rx="8" ry="8" style="stroke:#181818;stroke-width:0.5;"/><path d="M87,530.2891 L87,557.2891 M74,538.2891 L100,538.2891 M87,557.2891 L74,572.2891 M87,557.2891 L100,572.2891 " fill="none" style="stroke:#181818;stroke-width:0.5;"/><rect fill="#E2E2F0" height="31.6094" rx="2.5" ry="2.5" style="stroke:#181818;stroke-width:0.5;" width="84" x="205" y="50"/><text fill="#000000" font-family="sans-serif" font-size="14" lengthAdjust="spacing" textLength="70" x="212" y="71.5332">Dashboard</text><rect fill="#E2E2F0" height="31.6094" rx="2.5" ry="2.5" style="stroke:#181818;stroke-width:0.5;" width="84" x="205" y="496.1797"/><text fill="#000000" font-family="sans-serif" font-size="14" lengthAdjust="spacing" textLength="70" x="212" y="517.7129">Dashboard</text><rect fill="#E2E2F0" height="31.6094" rx="2.5" ry="2.5" style="stroke:#181818;stroke-width:0.5;" width="131" x="452.5" y="50"/><text fill="#000000" font-family="sans-serif" font-size="14" lengthAdjust="spacing" textLength="117" x="459.5" y="71.5332">DashboardService</text><rect fill="#E2E2F0" height="31.6094" rx="2.5" ry="2.5" style="stroke:#181818;stroke-width:0.5;" width="131" x="452.5" y="496.1797"/><text fill="#000000" font-family="sans-serif" font-size="14" lengthAdjust="spacing" textLength="117" x="459.5" y="517.7129">DashboardService</text><rect fill="#E2E2F0" height="31.6094" rx="2.5" ry="2.5" style="stroke:#181818;stroke-width:0.5;" width="108" x="608" y="50"/><text fill="#000000" font-family="sans-serif" font-size="14" lengthAdjust="spacing" textLength="94" x="615" y="71.5332">BookingCenter</text><rect fill="#E2E2F0" height="31.6094" rx="2.5" ry="2.5" style="stroke:#181818;stroke-width:0.5;" width="108" x="608" y="496.1797"/><text fill="#000000" font-family="sans-serif" font-size="14" lengthAdjust="spacing" textLength="94" x="615" y="517.7129">BookingCenter</text><rect fill="#E2E2F0" height="31.6094" rx="2.5" ry="2.5" style="stroke:#181818;stroke-width:0.5;" width="72" x="726" y="50"/><text fill="#000000" font-family="sans-serif" font-size="14" lengthAdjust="spacing" textLength="58" x="733" y="71.5332">TaxiFleet</text><rect fill="#E2E2F0" height="31.6094" rx="2.5" ry="2.5" style="stroke:#181818;stroke-width:0.5;" width="72" x="726" y="496.1797"/><text fill="#000000" font-family="sans-serif" font-size="14" lengthAdjust="spacing" textLength="58" x="733" y="517.7129">TaxiFleet</text><rect fill="#E2E2F0" height="31.6094" rx="2.5" ry="2.5" style="stroke:#181818;stroke-width:0.5;" width="135" x="815.5" y="50"/><text fill="#000000" font-family="sans-serif" font-size="14" lengthAdjust="spacing" textLength="121" x="822.5" y="71.5332">PersistenceService</text><rect fill="#E2E2F0" height="31.6094" rx="2.5" ry="2.5" style="stroke:#181818;stroke-width:0.5;" width="135" x="815.5" y="496.1797"/><text fill="#000000" font-family="sans-serif" font-size="14" lengthAdjust="spacing" textLength="121" x="822.5" y="517.7129">PersistenceService</text><polygon fill="#181818" points="235,110.9609,245,114.9609,235,118.9609,239,114.9609" style="stroke:#181818;stroke-width:1.0;"/><line style="stroke:#181818;stroke-width:1.0;" x1="87" x2="241" y1="114.9609" y2="114.9609"/><text fill="#000000" font-family="sans-serif" font-size="13" lengthAdjust="spacing" textLength="136" x="94" y="110.1045">renderInitialDashboard()</text><polygon fill="#181818" points="506,141.3125,516,145.3125,506,149.3125,510,145.3125" style="stroke:#181818;stroke-width:1.0;"/><line style="stroke:#181818;stroke-width:1.0;" x1="247" x2="512" y1="145.3125" y2="145.3125"/><text fill="#000000" font-family="sans-serif" font-size="13" lengthAdjust="spacing" textLength="136" x="254" y="140.4561">generateBookingStats()</text><polygon fill="#181818" points="650,171.6641,660,175.6641,650,179.6641,654,175.6641" style="stroke:#181818;stroke-width:1.0;"/><line style="stroke:#181818;stroke-width:1.0;" x1="518" x2="656" y1="175.6641" y2="175.6641"/><text fill="#000000" font-family="sans-serif" font-size="13" lengthAdjust="spacing" textLength="87" x="525" y="170.8076">queryBooking()</text><polygon fill="#181818" points="871,202.0156,881,206.0156,871,210.0156,875,206.0156" style="stroke:#181818;stroke-width:1.0;"/><line style="stroke:#181818;stroke-width:1.0;" x1="662" x2="877" y1="206.0156" y2="206.0156"/><text fill="#000000" font-family="sans-serif" font-size="13" lengthAdjust="spacing" textLength="95" x="669" y="201.1592">getAllBookings()</text><polygon fill="#181818" points="673,232.3672,663,236.3672,673,240.3672,669,236.3672" style="stroke:#181818;stroke-width:1.0;"/><line style="stroke:#181818;stroke-width:1.0;" x1="667" x2="882" y1="236.3672" y2="236.3672"/><text fill="#000000" font-family="sans-serif" font-size="13" lengthAdjust="spacing" textLength="120" x="679" y="231.5107">Collection&lt;Booking&gt;</text><polygon fill="#181818" points="529,262.7188,519,266.7188,529,270.7188,525,266.7188" style="stroke:#181818;stroke-width:1.0;"/><line style="stroke:#181818;stroke-width:1.0;" x1="523" x2="661" y1="266.7188" y2="266.7188"/><text fill="#000000" font-family="sans-serif" font-size="13" lengthAdjust="spacing" textLength="120" x="535" y="261.8623">Collection&lt;Booking&gt;</text><polygon fill="#181818" points="258,293.0703,248,297.0703,258,301.0703,254,297.0703" style="stroke:#181818;stroke-width:1.0;"/><line style="stroke:#181818;stroke-width:1.0;" x1="252" x2="517" y1="297.0703" y2="297.0703"/><text fill="#000000" font-family="sans-serif" font-size="13" lengthAdjust="spacing" textLength="247" x="264" y="292.2139">displayBookingStats(Collection&lt;Booking&gt;)</text><polygon fill="#181818" points="506,323.4219,516,327.4219,506,331.4219,510,327.4219" style="stroke:#181818;stroke-width:1.0;"/><line style="stroke:#181818;stroke-width:1.0;" x1="247" x2="512" y1="327.4219" y2="327.4219"/><text fill="#000000" font-family="sans-serif" font-size="13" lengthAdjust="spacing" textLength="113" x="254" y="322.5654">generateTaxiStats()</text><polygon fill="#181818" points="750,353.7734,760,357.7734,750,361.7734,754,357.7734" style="stroke:#181818;stroke-width:1.0;"/><line style="stroke:#181818;stroke-width:1.0;" x1="518" x2="756" y1="357.7734" y2="357.7734"/><text fill="#000000" font-family="sans-serif" font-size="13" lengthAdjust="spacing" textLength="71" x="525" y="352.917">queryTaxis()</text><polygon fill="#181818" points="871,384.125,881,388.125,871,392.125,875,388.125" style="stroke:#181818;stroke-width:1.0;"/><line style="stroke:#181818;stroke-width:1.0;" x1="762" x2="877" y1="388.125" y2="388.125"/><text fill="#000000" font-family="sans-serif" font-size="13" lengthAdjust="spacing" textLength="72" x="769" y="383.2686">getAllTaxis()</text><polygon fill="#181818" points="773,414.4766,763,418.4766,773,422.4766,769,418.4766" style="stroke:#181818;stroke-width:1.0;"/><line style="stroke:#181818;stroke-width:1.0;" x1="767" x2="882" y1="418.4766" y2="418.4766"/><text fill="#000000" font-family="sans-serif" font-size="13" lengthAdjust="spacing" textLength="97" x="779" y="413.6201">Collection&lt;Taxi&gt;</text><polygon fill="#181818" points="529,444.8281,519,448.8281,529,452.8281,525,448.8281" style="stroke:#181818;stroke-width:1.0;"/><line style="stroke:#181818;stroke-width:1.0;" x1="523" x2="761" y1="448.8281" y2="448.8281"/><text fill="#000000" font-family="sans-serif" font-size="13" lengthAdjust="spacing" textLength="97" x="535" y="443.9717">Collection&lt;Taxi&gt;</text><polygon fill="#181818" points="258,475.1797,248,479.1797,258,483.1797,254,479.1797" style="stroke:#181818;stroke-width:1.0;"/><line style="stroke:#181818;stroke-width:1.0;" x1="252" x2="517" y1="479.1797" y2="479.1797"/><text fill="#000000" font-family="sans-serif" font-size="13" lengthAdjust="spacing" textLength="201" x="264" y="474.3232">displayTaxiStats(Collection&lt;Taxi&gt;)</text><!--SRC=[ZLJ1Rjim3BthAuYSuaEA9EkAmHY2hMcpfOY7O7PxPnmk4wP8cKmRozzFSXt7MhoWHvBlaNnFX31dOs6mK4GC2MhSqPuqGqQu7m0MK5Ty90veMURoWAuyUC3YvyQWtTQWDleFA2LRoPn2R9CCAVV6_99wDtSxaAtnGIO4P_X7rllLm3OAGMkoXIoOT4xTDIxJGeXMB8ncvqKX1ajwItQf9KjKRM4OYJEeosWwEkAED5baQbIaZ5nqQIUaOmT27VLtIVRO91qbB3lyfO9w7dzMgi7wIJsedbbpenJbB8t-s9HcbmDxvFNn-hHrlTpAug3m63ZIqoSIRpRNl_mrPzlBEBdg4nvyBbptyuJlDxFRlYF4fsVXYEiElXBUQDzPyxyT8l79NQiGQ-Nk_pbPGUMtDXecDzFnzFRctN1X9Ine0vCx64_YoJWUluTbce4lHsBuPRsgfb2OqhhfRXnRkIbz_qWyOONmlTGiznI3ZuPP4a7wU4h2ewwaDTf_8kBf9Na5mLV3wS5m3Rwx7TrB1Y_FtTLB8Xxe1vQA7JKtM_VqCJndYz47iKAzAzs750DfCJTkW3t6iFps5m00]--></g></svg>