<?xml version="1.0" encoding="us-ascii" standalone="no"?><svg xmlns="http://www.w3.org/2000/svg" xmlns:xlink="http://www.w3.org/1999/xlink" contentStyleType="text/css" height="1341px" preserveAspectRatio="none" style="width:1169px;height:1341px;background:#FFFFFF;" version="1.1" viewBox="0 0 1169 1341" width="1169px" zoomAndPan="magnify"><defs/><g><line style="stroke:#181818;stroke-width:0.5;stroke-dasharray:5.0,5.0;" x1="87" x2="87" y1="82.6094" y2="1259.2656"/><line style="stroke:#181818;stroke-width:0.5;stroke-dasharray:5.0,5.0;" x1="260" x2="260" y1="82.6094" y2="1259.2656"/><line style="stroke:#181818;stroke-width:0.5;stroke-dasharray:5.0,5.0;" x1="482.5" x2="482.5" y1="82.6094" y2="1259.2656"/><line style="stroke:#181818;stroke-width:0.5;stroke-dasharray:5.0,5.0;" x1="625" x2="625" y1="82.6094" y2="1259.2656"/><line style="stroke:#181818;stroke-width:0.5;stroke-dasharray:5.0,5.0;" x1="778" x2="778" y1="82.6094" y2="1259.2656"/><line style="stroke:#181818;stroke-width:0.5;stroke-dasharray:5.0,5.0;" x1="987" x2="987" y1="82.6094" y2="1259.2656"/><line style="stroke:#181818;stroke-width:0.5;stroke-dasharray:5.0,5.0;" x1="1096" x2="1096" y1="82.6094" y2="1259.2656"/><text fill="#000000" font-family="sans-serif" font-size="14" lengthAdjust="spacing" textLength="158" x="5" y="79.5332">Fleet Management Team</text><ellipse cx="87" cy="13.5" fill="#E2E2F0" rx="8" ry="8" style="stroke:#181818;stroke-width:0.5;"/><path d="M87,21.5 L87,48.5 M74,29.5 L100,29.5 M87,48.5 L74,63.5 M87,48.5 L100,63.5 " fill="none" style="stroke:#181818;stroke-width:0.5;"/><text fill="#000000" font-family="sans-serif" font-size="14" lengthAdjust="spacing" textLength="158" x="5" y="1272.7988">Fleet Management Team</text><ellipse cx="87" cy="1284.375" fill="#E2E2F0" rx="8" ry="8" style="stroke:#181818;stroke-width:0.5;"/><path d="M87,1292.375 L87,1319.375 M74,1300.375 L100,1300.375 M87,1319.375 L74,1334.375 M87,1319.375 L100,1334.375 " fill="none" style="stroke:#181818;stroke-width:0.5;"/><rect fill="#E2E2F0" height="31.6094" rx="2.5" ry="2.5" style="stroke:#181818;stroke-width:0.5;" width="84" x="218" y="50"/><text fill="#000000" font-family="sans-serif" font-size="14" lengthAdjust="spacing" textLength="70" x="225" y="71.5332">Dashboard</text><rect fill="#E2E2F0" height="31.6094" rx="2.5" ry="2.5" style="stroke:#181818;stroke-width:0.5;" width="84" x="218" y="1258.2656"/><text fill="#000000" font-family="sans-serif" font-size="14" lengthAdjust="spacing" textLength="70" x="225" y="1279.7988">Dashboard</text><rect fill="#E2E2F0" height="31.6094" rx="2.5" ry="2.5" style="stroke:#181818;stroke-width:0.5;" width="131" x="417.5" y="50"/><text fill="#000000" font-family="sans-serif" font-size="14" lengthAdjust="spacing" textLength="117" x="424.5" y="71.5332">DashboardService</text><rect fill="#E2E2F0" height="31.6094" rx="2.5" ry="2.5" style="stroke:#181818;stroke-width:0.5;" width="131" x="417.5" y="1258.2656"/><text fill="#000000" font-family="sans-serif" font-size="14" lengthAdjust="spacing" textLength="117" x="424.5" y="1279.7988">DashboardService</text><rect fill="#E2E2F0" height="31.6094" rx="2.5" ry="2.5" style="stroke:#181818;stroke-width:0.5;" width="108" x="571" y="50"/><text fill="#000000" font-family="sans-serif" font-size="14" lengthAdjust="spacing" textLength="94" x="578" y="71.5332">BookingCenter</text><rect fill="#E2E2F0" height="31.6094" rx="2.5" ry="2.5" style="stroke:#181818;stroke-width:0.5;" width="108" x="571" y="1258.2656"/><text fill="#000000" font-family="sans-serif" font-size="14" lengthAdjust="spacing" textLength="94" x="578" y="1279.7988">BookingCenter</text><rect fill="#E2E2F0" height="31.6094" rx="2.5" ry="2.5" style="stroke:#181818;stroke-width:0.5;" width="72" x="742" y="50"/><text fill="#000000" font-family="sans-serif" font-size="14" lengthAdjust="spacing" textLength="58" x="749" y="71.5332">TaxiFleet</text><rect fill="#E2E2F0" height="31.6094" rx="2.5" ry="2.5" style="stroke:#181818;stroke-width:0.5;" width="72" x="742" y="1258.2656"/><text fill="#000000" font-family="sans-serif" font-size="14" lengthAdjust="spacing" textLength="58" x="749" y="1279.7988">TaxiFleet</text><rect fill="#E2E2F0" height="31.6094" rx="2.5" ry="2.5" style="stroke:#181818;stroke-width:0.5;" width="158" x="908" y="50"/><text fill="#000000" font-family="sans-serif" font-size="14" lengthAdjust="spacing" textLength="144" x="915" y="71.5332">CommunicationService</text><rect fill="#E2E2F0" height="31.6094" rx="2.5" ry="2.5" style="stroke:#181818;stroke-width:0.5;" width="158" x="908" y="1258.2656"/><text fill="#000000" font-family="sans-serif" font-size="14" lengthAdjust="spacing" textLength="144" x="915" y="1279.7988">CommunicationService</text><rect fill="#E2E2F0" height="31.6094" rx="2.5" ry="2.5" style="stroke:#181818;stroke-width:0.5;" width="40" x="1076" y="50"/><text fill="#000000" font-family="sans-serif" font-size="14" lengthAdjust="spacing" textLength="26" x="1083" y="71.5332">Taxi</text><rect fill="#E2E2F0" height="31.6094" rx="2.5" ry="2.5" style="stroke:#181818;stroke-width:0.5;" width="40" x="1076" y="1258.2656"/><text fill="#000000" font-family="sans-serif" font-size="14" lengthAdjust="spacing" textLength="26" x="1083" y="1279.7988">Taxi</text><rect fill="#EEEEEE" height="3" style="stroke:#EEEEEE;stroke-width:1.0;" width="1162" x="0" y="113.7852"/><line style="stroke:#000000;stroke-width:1.0;" x1="0" x2="1162" y1="113.7852" y2="113.7852"/><line style="stroke:#000000;stroke-width:1.0;" x1="0" x2="1162" y1="116.7852" y2="116.7852"/><rect fill="#EEEEEE" height="24.3516" style="stroke:#000000;stroke-width:2.0;" width="141" x="510.5" y="102.6094"/><text fill="#000000" font-family="sans-serif" font-size="13" font-weight="bold" lengthAdjust="spacing" textLength="123" x="516.5" y="120.1045">Initial UI Rendering</text><polygon fill="#181818" points="248,155.3125,258,159.3125,248,163.3125,252,159.3125" style="stroke:#181818;stroke-width:1.0;"/><line style="stroke:#181818;stroke-width:1.0;" x1="87" x2="254" y1="159.3125" y2="159.3125"/><text fill="#000000" font-family="sans-serif" font-size="13" lengthAdjust="spacing" textLength="136" x="94" y="154.4561">renderInitialDashboard()</text><polygon fill="#181818" points="471,185.6641,481,189.6641,471,193.6641,475,189.6641" style="stroke:#181818;stroke-width:1.0;"/><line style="stroke:#181818;stroke-width:1.0;" x1="260" x2="477" y1="189.6641" y2="189.6641"/><text fill="#000000" font-family="sans-serif" font-size="13" lengthAdjust="spacing" textLength="167" x="267" y="184.8076">generateBookingStats(filters)</text><polygon fill="#181818" points="613,216.0156,623,220.0156,613,224.0156,617,220.0156" style="stroke:#181818;stroke-width:1.0;"/><line style="stroke:#181818;stroke-width:1.0;" x1="483" x2="619" y1="220.0156" y2="220.0156"/><text fill="#000000" font-family="sans-serif" font-size="13" lengthAdjust="spacing" textLength="118" x="490" y="215.1592">queryBooking(filters)</text><line style="stroke:#181818;stroke-width:1.0;" x1="625" x2="667" y1="250.3672" y2="250.3672"/><line style="stroke:#181818;stroke-width:1.0;" x1="667" x2="667" y1="250.3672" y2="263.3672"/><line style="stroke:#181818;stroke-width:1.0;" x1="626" x2="667" y1="263.3672" y2="263.3672"/><polygon fill="#181818" points="636,259.3672,626,263.3672,636,267.3672,632,263.3672" style="stroke:#181818;stroke-width:1.0;"/><text fill="#000000" font-family="sans-serif" font-size="13" lengthAdjust="spacing" textLength="139" x="632" y="245.5107">retrieve filtered bookings</text><polygon fill="#181818" points="494,289.7188,484,293.7188,494,297.7188,490,293.7188" style="stroke:#181818;stroke-width:1.0;"/><line style="stroke:#181818;stroke-width:1.0;" x1="488" x2="624" y1="293.7188" y2="293.7188"/><text fill="#000000" font-family="sans-serif" font-size="13" lengthAdjust="spacing" textLength="111" x="500" y="288.8623">return booking data</text><polygon fill="#181818" points="271,320.0703,261,324.0703,271,328.0703,267,324.0703" style="stroke:#181818;stroke-width:1.0;"/><line style="stroke:#181818;stroke-width:1.0;" x1="265" x2="482" y1="324.0703" y2="324.0703"/><text fill="#000000" font-family="sans-serif" font-size="13" lengthAdjust="spacing" textLength="199" x="277" y="319.2139">displayBookingStats(bookingData)</text><polygon fill="#181818" points="471,350.4219,481,354.4219,471,358.4219,475,354.4219" style="stroke:#181818;stroke-width:1.0;"/><line style="stroke:#181818;stroke-width:1.0;" x1="260" x2="477" y1="354.4219" y2="354.4219"/><text fill="#000000" font-family="sans-serif" font-size="13" lengthAdjust="spacing" textLength="144" x="267" y="349.5654">generateTaxiStats(filters)</text><polygon fill="#181818" points="766,380.7734,776,384.7734,766,388.7734,770,384.7734" style="stroke:#181818;stroke-width:1.0;"/><line style="stroke:#181818;stroke-width:1.0;" x1="483" x2="772" y1="384.7734" y2="384.7734"/><text fill="#000000" font-family="sans-serif" font-size="13" lengthAdjust="spacing" textLength="102" x="490" y="379.917">queryTaxis(filters)</text><line style="stroke:#181818;stroke-width:1.0;" x1="778" x2="820" y1="415.125" y2="415.125"/><line style="stroke:#181818;stroke-width:1.0;" x1="820" x2="820" y1="415.125" y2="428.125"/><line style="stroke:#181818;stroke-width:1.0;" x1="779" x2="820" y1="428.125" y2="428.125"/><polygon fill="#181818" points="789,424.125,779,428.125,789,432.125,785,428.125" style="stroke:#181818;stroke-width:1.0;"/><text fill="#000000" font-family="sans-serif" font-size="13" lengthAdjust="spacing" textLength="115" x="785" y="410.2686">retrieve filtered taxis</text><polygon fill="#181818" points="975,454.4766,985,458.4766,975,462.4766,979,458.4766" style="stroke:#181818;stroke-width:1.0;"/><line style="stroke:#181818;stroke-width:1.0;" x1="778" x2="981" y1="458.4766" y2="458.4766"/><text fill="#000000" font-family="sans-serif" font-size="13" lengthAdjust="spacing" textLength="96" x="785" y="453.6201">getLocation(taxi)</text><path d="M992,471.4766 L992,513.4766 L1157,513.4766 L1157,481.4766 L1147,471.4766 L992,471.4766 " fill="#FEFFDD" style="stroke:#181818;stroke-width:0.5;"/><path d="M1147,471.4766 L1147,481.4766 L1157,481.4766 L1147,471.4766 " fill="#FEFFDD" style="stroke:#181818;stroke-width:0.5;"/><text fill="#000000" font-family="sans-serif" font-size="13" lengthAdjust="spacing" textLength="115" x="998" y="489.9717">Asynchronous Task</text><text fill="#000000" font-family="sans-serif" font-size="13" lengthAdjust="spacing" textLength="140" x="1002" y="506.3232">(using separate threads)</text><polygon fill="#181818" points="1084,537.5313,1094,541.5313,1084,545.5313,1088,541.5313" style="stroke:#181818;stroke-width:1.0;"/><line style="stroke:#181818;stroke-width:1.0;" x1="987" x2="1090" y1="541.5313" y2="541.5313"/><text fill="#000000" font-family="sans-serif" font-size="13" lengthAdjust="spacing" textLength="75" x="994" y="536.6748">getLocation()</text><polygon fill="#181818" points="998,567.8828,988,571.8828,998,575.8828,994,571.8828" style="stroke:#181818;stroke-width:1.0;"/><line style="stroke:#181818;stroke-width:1.0;" x1="992" x2="1095" y1="571.8828" y2="571.8828"/><text fill="#000000" font-family="sans-serif" font-size="13" lengthAdjust="spacing" textLength="82" x="1004" y="567.0264">return location</text><polygon fill="#181818" points="789,598.2344,779,602.2344,789,606.2344,785,602.2344" style="stroke:#181818;stroke-width:1.0;"/><line style="stroke:#181818;stroke-width:1.0;" x1="783" x2="986" y1="602.2344" y2="602.2344"/><text fill="#000000" font-family="sans-serif" font-size="13" lengthAdjust="spacing" textLength="185" x="795" y="597.3779">return locations of queried taxis.</text><polygon fill="#181818" points="494,628.5859,484,632.5859,494,636.5859,490,632.5859" style="stroke:#181818;stroke-width:1.0;"/><line style="stroke:#181818;stroke-width:1.0;" x1="488" x2="777" y1="632.5859" y2="632.5859"/><text fill="#000000" font-family="sans-serif" font-size="13" lengthAdjust="spacing" textLength="170" x="500" y="627.7295">return taxi data with locations</text><polygon fill="#181818" points="271,658.9375,261,662.9375,271,666.9375,267,662.9375" style="stroke:#181818;stroke-width:1.0;"/><line style="stroke:#181818;stroke-width:1.0;" x1="265" x2="482" y1="662.9375" y2="662.9375"/><text fill="#000000" font-family="sans-serif" font-size="13" lengthAdjust="spacing" textLength="152" x="277" y="658.0811">displayTaxiStats(taxiData)</text><rect fill="#EEEEEE" height="3" style="stroke:#EEEEEE;stroke-width:1.0;" width="1162" x="0" y="692.1133"/><line style="stroke:#000000;stroke-width:1.0;" x1="0" x2="1162" y1="692.1133" y2="692.1133"/><line style="stroke:#000000;stroke-width:1.0;" x1="0" x2="1162" y1="695.1133" y2="695.1133"/><rect fill="#EEEEEE" height="24.3516" style="stroke:#000000;stroke-width:2.0;" width="235" x="463.5" y="680.9375"/><text fill="#000000" font-family="sans-serif" font-size="13" font-weight="bold" lengthAdjust="spacing" textLength="217" x="469.5" y="698.4326">Fleet Management Updates Filters</text><polygon fill="#181818" points="248,733.6406,258,737.6406,248,741.6406,252,737.6406" style="stroke:#181818;stroke-width:1.0;"/><line style="stroke:#181818;stroke-width:1.0;" x1="87" x2="254" y1="737.6406" y2="737.6406"/><text fill="#000000" font-family="sans-serif" font-size="13" lengthAdjust="spacing" textLength="149" x="94" y="732.7842">updatesFilters(newFilters)</text><polygon fill="#181818" points="471,763.9922,481,767.9922,471,771.9922,475,767.9922" style="stroke:#181818;stroke-width:1.0;"/><line style="stroke:#181818;stroke-width:1.0;" x1="260" x2="477" y1="767.9922" y2="767.9922"/><text fill="#000000" font-family="sans-serif" font-size="13" lengthAdjust="spacing" textLength="167" x="267" y="763.1357">generateBookingStats(filters)</text><polygon fill="#181818" points="613,794.3438,623,798.3438,613,802.3438,617,798.3438" style="stroke:#181818;stroke-width:1.0;"/><line style="stroke:#181818;stroke-width:1.0;" x1="483" x2="619" y1="798.3438" y2="798.3438"/><text fill="#000000" font-family="sans-serif" font-size="13" lengthAdjust="spacing" textLength="118" x="490" y="793.4873">queryBooking(filters)</text><line style="stroke:#181818;stroke-width:1.0;" x1="625" x2="667" y1="828.6953" y2="828.6953"/><line style="stroke:#181818;stroke-width:1.0;" x1="667" x2="667" y1="828.6953" y2="841.6953"/><line style="stroke:#181818;stroke-width:1.0;" x1="626" x2="667" y1="841.6953" y2="841.6953"/><polygon fill="#181818" points="636,837.6953,626,841.6953,636,845.6953,632,841.6953" style="stroke:#181818;stroke-width:1.0;"/><text fill="#000000" font-family="sans-serif" font-size="13" lengthAdjust="spacing" textLength="139" x="632" y="823.8389">retrieve filtered bookings</text><polygon fill="#181818" points="494,868.0469,484,872.0469,494,876.0469,490,872.0469" style="stroke:#181818;stroke-width:1.0;"/><line style="stroke:#181818;stroke-width:1.0;" x1="488" x2="624" y1="872.0469" y2="872.0469"/><text fill="#000000" font-family="sans-serif" font-size="13" lengthAdjust="spacing" textLength="111" x="500" y="867.1904">return booking data</text><polygon fill="#181818" points="271,898.3984,261,902.3984,271,906.3984,267,902.3984" style="stroke:#181818;stroke-width:1.0;"/><line style="stroke:#181818;stroke-width:1.0;" x1="265" x2="482" y1="902.3984" y2="902.3984"/><text fill="#000000" font-family="sans-serif" font-size="13" lengthAdjust="spacing" textLength="199" x="277" y="897.542">displayBookingStats(bookingData)</text><polygon fill="#181818" points="471,928.75,481,932.75,471,936.75,475,932.75" style="stroke:#181818;stroke-width:1.0;"/><line style="stroke:#181818;stroke-width:1.0;" x1="260" x2="477" y1="932.75" y2="932.75"/><text fill="#000000" font-family="sans-serif" font-size="13" lengthAdjust="spacing" textLength="144" x="267" y="927.8936">generateTaxiStats(filters)</text><polygon fill="#181818" points="766,959.1016,776,963.1016,766,967.1016,770,963.1016" style="stroke:#181818;stroke-width:1.0;"/><line style="stroke:#181818;stroke-width:1.0;" x1="483" x2="772" y1="963.1016" y2="963.1016"/><text fill="#000000" font-family="sans-serif" font-size="13" lengthAdjust="spacing" textLength="102" x="490" y="958.2451">queryTaxis(filters)</text><line style="stroke:#181818;stroke-width:1.0;" x1="778" x2="820" y1="993.4531" y2="993.4531"/><line style="stroke:#181818;stroke-width:1.0;" x1="820" x2="820" y1="993.4531" y2="1006.4531"/><line style="stroke:#181818;stroke-width:1.0;" x1="779" x2="820" y1="1006.4531" y2="1006.4531"/><polygon fill="#181818" points="789,1002.4531,779,1006.4531,789,1010.4531,785,1006.4531" style="stroke:#181818;stroke-width:1.0;"/><text fill="#000000" font-family="sans-serif" font-size="13" lengthAdjust="spacing" textLength="115" x="785" y="988.5967">retrieve filtered taxis</text><polygon fill="#181818" points="975,1032.8047,985,1036.8047,975,1040.8047,979,1036.8047" style="stroke:#181818;stroke-width:1.0;"/><line style="stroke:#181818;stroke-width:1.0;" x1="778" x2="981" y1="1036.8047" y2="1036.8047"/><text fill="#000000" font-family="sans-serif" font-size="13" lengthAdjust="spacing" textLength="96" x="785" y="1031.9482">getLocation(taxi)</text><path d="M992,1049.8047 L992,1091.8047 L1157,1091.8047 L1157,1059.8047 L1147,1049.8047 L992,1049.8047 " fill="#FEFFDD" style="stroke:#181818;stroke-width:0.5;"/><path d="M1147,1049.8047 L1147,1059.8047 L1157,1059.8047 L1147,1049.8047 " fill="#FEFFDD" style="stroke:#181818;stroke-width:0.5;"/><text fill="#000000" font-family="sans-serif" font-size="13" lengthAdjust="spacing" textLength="115" x="998" y="1068.2998">Asynchronous Task</text><text fill="#000000" font-family="sans-serif" font-size="13" lengthAdjust="spacing" textLength="140" x="1002" y="1084.6514">(using separate threads)</text><polygon fill="#181818" points="1084,1115.8594,1094,1119.8594,1084,1123.8594,1088,1119.8594" style="stroke:#181818;stroke-width:1.0;"/><line style="stroke:#181818;stroke-width:1.0;" x1="987" x2="1090" y1="1119.8594" y2="1119.8594"/><text fill="#000000" font-family="sans-serif" font-size="13" lengthAdjust="spacing" textLength="75" x="994" y="1115.0029">getLocation()</text><polygon fill="#181818" points="998,1146.2109,988,1150.2109,998,1154.2109,994,1150.2109" style="stroke:#181818;stroke-width:1.0;"/><line style="stroke:#181818;stroke-width:1.0;" x1="992" x2="1095" y1="1150.2109" y2="1150.2109"/><text fill="#000000" font-family="sans-serif" font-size="13" lengthAdjust="spacing" textLength="82" x="1004" y="1145.3545">return location</text><polygon fill="#181818" points="789,1176.5625,779,1180.5625,789,1184.5625,785,1180.5625" style="stroke:#181818;stroke-width:1.0;"/><line style="stroke:#181818;stroke-width:1.0;" x1="783" x2="986" y1="1180.5625" y2="1180.5625"/><text fill="#000000" font-family="sans-serif" font-size="13" lengthAdjust="spacing" textLength="185" x="795" y="1175.7061">return locations of queried taxis.</text><polygon fill="#181818" points="494,1206.9141,484,1210.9141,494,1214.9141,490,1210.9141" style="stroke:#181818;stroke-width:1.0;"/><line style="stroke:#181818;stroke-width:1.0;" x1="488" x2="777" y1="1210.9141" y2="1210.9141"/><text fill="#000000" font-family="sans-serif" font-size="13" lengthAdjust="spacing" textLength="170" x="500" y="1206.0576">return taxi data with locations</text><polygon fill="#181818" points="271,1237.2656,261,1241.2656,271,1245.2656,267,1241.2656" style="stroke:#181818;stroke-width:1.0;"/><line style="stroke:#181818;stroke-width:1.0;" x1="265" x2="482" y1="1241.2656" y2="1241.2656"/><text fill="#000000" font-family="sans-serif" font-size="13" lengthAdjust="spacing" textLength="152" x="277" y="1236.4092">displayTaxiStats(taxiData)</text><!--SRC=[xPEnRi8m48RtFCM9AGpj0rHAfHQ4XDGk1ROkHt8a5ecTsXSeRr-R69AGW9WwCSR-lyj_l-ymPgLXDCk963vHOae5IOObOJ42D72ySLz144Kmbu85vh2QmnV9XBIGAKHH49nbyFGAKpJPMg5Eu0NqKUQvyqKu3XfHcrYGtecOB9YI98rCxqfjxLyMZ6p2ZSYPj6dH9y0MySg9zK_QLlYfI1_yOKDsLGEO9jQ2TWGrGWciQuNfimE-BLvfUM8WGSP1j-sG4c7A70-TLds1gUN7mTrfBV5Nt16LazLlxcDo1osckRyGzyDXHtQ1YIgAIeeOMIZPziWVgZuC7JKEf682BTACGMskOM_c8EDCAwagOxsOBNnB22lZqZLKeciREDE4YNK-LCJtS66XxlA6N_-IkGS6Im_aqsQCwyi5B4v9FNUZkZv0JdsS7jWBpfgAzmvJCmckaXyZkyAzLL-LzYzaDxr-_DlhNDLYhmqbxMUzENiiz6EX7mlzBmlz1m00]--></g></svg>