<?xml version="1.0" encoding="us-ascii" standalone="no"?><svg xmlns="http://www.w3.org/2000/svg" xmlns:xlink="http://www.w3.org/1999/xlink" contentStyleType="text/css" height="542px" preserveAspectRatio="none" style="width:382px;height:542px;background:#FFFFFF;" version="1.1" viewBox="0 0 382 542" width="382px" zoomAndPan="magnify"><defs/><g><!--cluster Web Layer--><g id="cluster_Web Layer"><path d="M51.5,79 L125.5,79 A3.75,3.75 0 0 1 128,81.5 L135,102.6094 L254.5,102.6094 A2.5,2.5 0 0 1 257,105.1094 L257,176.5 A2.5,2.5 0 0 1 254.5,179 L51.5,179 A2.5,2.5 0 0 1 49,176.5 L49,81.5 A2.5,2.5 0 0 1 51.5,79 " fill="none" style="stroke:#000000;stroke-width:1.5;"/><line style="stroke:#000000;stroke-width:1.5;" x1="49" x2="135" y1="102.6094" y2="102.6094"/><text fill="#000000" font-family="sans-serif" font-size="14" font-weight="bold" lengthAdjust="spacing" textLength="73" x="53" y="95.5332">Web Layer</text></g><!--cluster Models--><g id="cluster_Models"><path d="M8.5,327 L61.5,327 A3.75,3.75 0 0 1 64,329.5 L71,350.6094 L200.5,350.6094 A2.5,2.5 0 0 1 203,353.1094 L203,532.5 A2.5,2.5 0 0 1 200.5,535 L8.5,535 A2.5,2.5 0 0 1 6,532.5 L6,329.5 A2.5,2.5 0 0 1 8.5,327 " fill="none" style="stroke:#000000;stroke-width:1.5;"/><line style="stroke:#000000;stroke-width:1.5;" x1="6" x2="71" y1="350.6094" y2="350.6094"/><text fill="#000000" font-family="sans-serif" font-size="14" font-weight="bold" lengthAdjust="spacing" textLength="52" x="10" y="343.5332">Models</text></g><!--cluster System Layer--><g id="cluster_System Layer"><path d="M97.5,203 L190.5,203 A3.75,3.75 0 0 1 193,205.5 L200,226.6094 L208.5,226.6094 A2.5,2.5 0 0 1 211,229.1094 L211,300.5 A2.5,2.5 0 0 1 208.5,303 L97.5,303 A2.5,2.5 0 0 1 95,300.5 L95,205.5 A2.5,2.5 0 0 1 97.5,203 " fill="none" style="stroke:#000000;stroke-width:1.5;"/><line style="stroke:#000000;stroke-width:1.5;" x1="95" x2="200" y1="226.6094" y2="226.6094"/><text fill="#000000" font-family="sans-serif" font-size="14" font-weight="bold" lengthAdjust="spacing" textLength="92" x="99" y="219.5332">System Layer</text></g><!--cluster Persistence Layer--><g id="cluster_Persistence Layer"><path d="M229.5,327 L356.5,327 A3.75,3.75 0 0 1 359,329.5 L366,350.6094 L372.5,350.6094 A2.5,2.5 0 0 1 375,353.1094 L375,532.5 A2.5,2.5 0 0 1 372.5,535 L229.5,535 A2.5,2.5 0 0 1 227,532.5 L227,329.5 A2.5,2.5 0 0 1 229.5,327 " fill="none" style="stroke:#000000;stroke-width:1.5;"/><line style="stroke:#000000;stroke-width:1.5;" x1="227" x2="366" y1="350.6094" y2="350.6094"/><text fill="#000000" font-family="sans-serif" font-size="14" font-weight="bold" lengthAdjust="spacing" textLength="126" x="231" y="343.5332">Persistence Layer</text></g><!--entity management-webapp--><g id="elem_management-webapp"><rect fill="#F1F1F1" height="47.6094" rx="2.5" ry="2.5" style="stroke:#181818;stroke-width:0.5;" width="176" x="65" y="115"/><rect fill="#F1F1F1" height="10" style="stroke:#181818;stroke-width:0.5;" width="15" x="221" y="120"/><rect fill="#F1F1F1" height="2" style="stroke:#181818;stroke-width:0.5;" width="4" x="219" y="122"/><rect fill="#F1F1F1" height="2" style="stroke:#181818;stroke-width:0.5;" width="4" x="219" y="126"/><text fill="#000000" font-family="sans-serif" font-size="14" lengthAdjust="spacing" textLength="136" x="80" y="149.5332">management-webapp</text></g><!--entity user--><g id="elem_user"><rect fill="#F1F1F1" height="47.6094" rx="2.5" ry="2.5" style="stroke:#181818;stroke-width:0.5;" width="68" x="119" y="363"/><rect fill="#F1F1F1" height="10" style="stroke:#181818;stroke-width:0.5;" width="15" x="167" y="368"/><rect fill="#F1F1F1" height="2" style="stroke:#181818;stroke-width:0.5;" width="4" x="165" y="370"/><rect fill="#F1F1F1" height="2" style="stroke:#181818;stroke-width:0.5;" width="4" x="165" y="374"/><text fill="#000000" font-family="sans-serif" font-size="14" lengthAdjust="spacing" textLength="28" x="134" y="397.5332">user</text></g><!--entity taxi--><g id="elem_taxi"><rect fill="#F1F1F1" height="47.6094" rx="2.5" ry="2.5" style="stroke:#181818;stroke-width:0.5;" width="61" x="22.5" y="363"/><rect fill="#F1F1F1" height="10" style="stroke:#181818;stroke-width:0.5;" width="15" x="63.5" y="368"/><rect fill="#F1F1F1" height="2" style="stroke:#181818;stroke-width:0.5;" width="4" x="61.5" y="370"/><rect fill="#F1F1F1" height="2" style="stroke:#181818;stroke-width:0.5;" width="4" x="61.5" y="374"/><text fill="#000000" font-family="sans-serif" font-size="14" lengthAdjust="spacing" textLength="21" x="37.5" y="397.5332">taxi</text></g><!--entity common--><g id="elem_common"><rect fill="#F1F1F1" height="47.6094" rx="2.5" ry="2.5" style="stroke:#181818;stroke-width:0.5;" width="93" x="57.5" y="471"/><rect fill="#F1F1F1" height="10" style="stroke:#181818;stroke-width:0.5;" width="15" x="130.5" y="476"/><rect fill="#F1F1F1" height="2" style="stroke:#181818;stroke-width:0.5;" width="4" x="128.5" y="478"/><rect fill="#F1F1F1" height="2" style="stroke:#181818;stroke-width:0.5;" width="4" x="128.5" y="482"/><text fill="#000000" font-family="sans-serif" font-size="14" lengthAdjust="spacing" textLength="53" x="72.5" y="505.5332">common</text></g><!--entity system--><g id="elem_system"><rect fill="#F1F1F1" height="47.6094" rx="2.5" ry="2.5" style="stroke:#181818;stroke-width:0.5;" width="84" x="111" y="239"/><rect fill="#F1F1F1" height="10" style="stroke:#181818;stroke-width:0.5;" width="15" x="175" y="244"/><rect fill="#F1F1F1" height="2" style="stroke:#181818;stroke-width:0.5;" width="4" x="173" y="246"/><rect fill="#F1F1F1" height="2" style="stroke:#181818;stroke-width:0.5;" width="4" x="173" y="250"/><text fill="#000000" font-family="sans-serif" font-size="14" lengthAdjust="spacing" textLength="44" x="126" y="273.5332">system</text></g><!--entity persistence--><g id="elem_persistence"><rect fill="#F1F1F1" height="47.6094" rx="2.5" ry="2.5" style="stroke:#181818;stroke-width:0.5;" width="113" x="243.5" y="363"/><rect fill="#F1F1F1" height="10" style="stroke:#181818;stroke-width:0.5;" width="15" x="336.5" y="368"/><rect fill="#F1F1F1" height="2" style="stroke:#181818;stroke-width:0.5;" width="4" x="334.5" y="370"/><rect fill="#F1F1F1" height="2" style="stroke:#181818;stroke-width:0.5;" width="4" x="334.5" y="374"/><text fill="#000000" font-family="sans-serif" font-size="14" lengthAdjust="spacing" textLength="73" x="258.5" y="397.5332">persistence</text></g><!--entity PostgresDB--><g id="elem_PostgresDB"><rect fill="#F1F1F1" height="47.6094" rx="2.5" ry="2.5" style="stroke:#181818;stroke-width:0.5;" width="115" x="243.5" y="471"/><rect fill="#F1F1F1" height="10" style="stroke:#181818;stroke-width:0.5;" width="15" x="338.5" y="476"/><rect fill="#F1F1F1" height="2" style="stroke:#181818;stroke-width:0.5;" width="4" x="336.5" y="478"/><rect fill="#F1F1F1" height="2" style="stroke:#181818;stroke-width:0.5;" width="4" x="336.5" y="482"/><text fill="#000000" font-family="sans-serif" font-size="14" lengthAdjust="spacing" textLength="75" x="258.5" y="505.5332">PostgresDB</text></g><!--entity taxi-fleet-frontend--><g id="elem_taxi-fleet-frontend"><rect fill="#F1F1F1" height="47.6094" rx="2.5" ry="2.5" style="stroke:#181818;stroke-width:0.5;" width="151" x="77.5" y="7"/><rect fill="#F1F1F1" height="10" style="stroke:#181818;stroke-width:0.5;" width="15" x="208.5" y="12"/><rect fill="#F1F1F1" height="2" style="stroke:#181818;stroke-width:0.5;" width="4" x="206.5" y="14"/><rect fill="#F1F1F1" height="2" style="stroke:#181818;stroke-width:0.5;" width="4" x="206.5" y="18"/><text fill="#000000" font-family="sans-serif" font-size="14" lengthAdjust="spacing" textLength="111" x="92.5" y="41.5332">taxi-fleet-frontend</text></g><!--link management-webapp to system--><g id="link_management-webapp_system"><path d="M153,163.23 C153,184.94 153,211.17 153,232.85 " fill="none" id="management-webapp-to-system" style="stroke:#181818;stroke-width:1.0;"/><polygon fill="#181818" points="153,238.85,157,229.85,153,233.85,149,229.85,153,238.85" style="stroke:#181818;stroke-width:1.0;"/></g><!--link taxi-fleet-frontend to management-webapp--><g id="link_taxi-fleet-frontend_management-webapp"><path d="M153,55 C153,72.66 153,90.94 153,108.68 " fill="none" id="taxi-fleet-frontend-to-management-webapp" style="stroke:#181818;stroke-width:1.0;"/><polygon fill="#181818" points="153,114.68,157,105.68,153,109.68,149,105.68,153,114.68" style="stroke:#181818;stroke-width:1.0;"/></g><!--link system to user--><g id="link_system_user"><path d="M153,287.23 C153,308.94 153,335.17 153,356.85 " fill="none" id="system-to-user" style="stroke:#181818;stroke-width:1.0;"/><polygon fill="#181818" points="153,362.85,157,353.85,153,357.85,149,353.85,153,362.85" style="stroke:#181818;stroke-width:1.0;"/></g><!--link system to taxi--><g id="link_system_taxi"><path d="M129.75,287.18 C120.5,296.76 109.94,308.15 101,319 C89.44,333.02 80.9432,344.6785 71.8732,357.8485 " fill="none" id="system-to-taxi" style="stroke:#181818;stroke-width:1.0;"/><polygon fill="#181818" points="68.47,362.79,76.8691,357.6465,71.306,358.6721,70.2804,353.109,68.47,362.79" style="stroke:#181818;stroke-width:1.0;"/></g><!--link user to common--><g id="link_user_common"><path d="M142.37,411 C134.21,428.66 125.4975,447.4937 117.2975,465.2337 " fill="none" id="user-to-common" style="stroke:#181818;stroke-width:1.0;"/><polygon fill="#181818" points="114.78,470.68,122.1871,464.1888,116.8779,466.1414,114.9253,460.8322,114.78,470.68" style="stroke:#181818;stroke-width:1.0;"/></g><!--link taxi to common--><g id="link_taxi_common"><path d="M64.07,411 C72.56,428.66 81.6499,447.5326 90.1799,465.2726 " fill="none" id="taxi-to-common" style="stroke:#181818;stroke-width:1.0;"/><polygon fill="#181818" points="92.78,470.68,92.4848,460.8356,90.6133,466.1739,85.275,464.3023,92.78,470.68" style="stroke:#181818;stroke-width:1.0;"/></g><!--link system to persistence--><g id="link_system_persistence"><path d="M181,287.23 C207.15,308.94 241.3731,337.3379 267.4931,359.0179 " fill="none" id="system-to-persistence" style="stroke:#181818;stroke-width:1.0;"/><polygon fill="#181818" points="272.11,362.85,267.7394,354.024,268.2626,359.6566,262.63,360.1798,272.11,362.85" style="stroke:#181818;stroke-width:1.0;"/></g><!--link persistence to PostgresDB--><g id="link_persistence_PostgresDB"><path d="M300.22,411 C300.38,428.66 300.5525,446.9403 300.7225,464.6803 " fill="none" id="persistence-to-PostgresDB" style="stroke:#181818;stroke-width:1.0;"/><polygon fill="#181818" points="300.78,470.68,304.6936,461.6421,300.7321,465.6802,296.6939,461.7187,300.78,470.68" style="stroke:#181818;stroke-width:1.0;"/></g><!--SRC=[bL2z3i8W4Dvv2jATLt0mZfeqSN0m7MXxRHhBJpYCDiPtbt3KIjD5fkFxEpwiR6wo1rvSeEP7EO4h-8lnSAvAwi0eq5uye9RMLkpDc9qD9zF2Y5_r7S5LD7hv7DBO6AMCpetd2JserJACOFLlLWaEX-3K3Qm2xS8aVsdGzmxmi8yP6_su4BlbAN6tw4O0BpfdTCXgasJZQzZi8mLLo37gGXGXSoMYLbZcpUfaD-9_otq0]--></g></svg>