<?xml version="1.0" encoding="us-ascii" standalone="no"?><svg xmlns="http://www.w3.org/2000/svg" xmlns:xlink="http://www.w3.org/1999/xlink" contentStyleType="text/css" height="669px" preserveAspectRatio="none" style="width:937px;height:669px;background:#FFFFFF;" version="1.1" viewBox="0 0 937 669" width="937px" zoomAndPan="magnify"><defs/><g><rect fill="none" height="200.4609" style="stroke:#000000;stroke-width:1.5;" width="751.5" x="10" y="370.4219"/><line style="stroke:#181818;stroke-width:0.5;stroke-dasharray:5.0,5.0;" x1="36" x2="36" y1="82.6094" y2="587.8828"/><line style="stroke:#181818;stroke-width:0.5;stroke-dasharray:5.0,5.0;" x1="218" x2="218" y1="82.6094" y2="587.8828"/><line style="stroke:#181818;stroke-width:0.5;stroke-dasharray:5.0,5.0;" x1="451" x2="451" y1="82.6094" y2="587.8828"/><line style="stroke:#181818;stroke-width:0.5;stroke-dasharray:5.0,5.0;" x1="683.5" x2="683.5" y1="82.6094" y2="587.8828"/><line style="stroke:#181818;stroke-width:0.5;stroke-dasharray:5.0,5.0;" x1="843.5" x2="843.5" y1="82.6094" y2="587.8828"/><text fill="#000000" font-family="sans-serif" font-size="14" lengthAdjust="spacing" textLength="26" x="20" y="79.5332">Taxi</text><ellipse cx="36" cy="13.5" fill="#E2E2F0" rx="8" ry="8" style="stroke:#181818;stroke-width:0.5;"/><path d="M36,21.5 L36,48.5 M23,29.5 L49,29.5 M36,48.5 L23,63.5 M36,48.5 L49,63.5 " fill="none" style="stroke:#181818;stroke-width:0.5;"/><text fill="#000000" font-family="sans-serif" font-size="14" lengthAdjust="spacing" textLength="26" x="20" y="601.416">Taxi</text><ellipse cx="36" cy="612.9922" fill="#E2E2F0" rx="8" ry="8" style="stroke:#181818;stroke-width:0.5;"/><path d="M36,620.9922 L36,647.9922 M23,628.9922 L49,628.9922 M36,647.9922 L23,662.9922 M36,647.9922 L49,662.9922 " fill="none" style="stroke:#181818;stroke-width:0.5;"/><rect fill="#E2E2F0" height="31.6094" rx="2.5" ry="2.5" style="stroke:#181818;stroke-width:0.5;" width="158" x="139" y="50"/><text fill="#000000" font-family="sans-serif" font-size="14" lengthAdjust="spacing" textLength="144" x="146" y="71.5332">CommunicationService</text><rect fill="#E2E2F0" height="31.6094" rx="2.5" ry="2.5" style="stroke:#181818;stroke-width:0.5;" width="158" x="139" y="586.8828"/><text fill="#000000" font-family="sans-serif" font-size="14" lengthAdjust="spacing" textLength="144" x="146" y="608.416">CommunicationService</text><rect fill="#E2E2F0" height="31.6094" rx="2.5" ry="2.5" style="stroke:#181818;stroke-width:0.5;" width="72" x="415" y="50"/><text fill="#000000" font-family="sans-serif" font-size="14" lengthAdjust="spacing" textLength="58" x="422" y="71.5332">TaxiFleet</text><rect fill="#E2E2F0" height="31.6094" rx="2.5" ry="2.5" style="stroke:#181818;stroke-width:0.5;" width="72" x="415" y="586.8828"/><text fill="#000000" font-family="sans-serif" font-size="14" lengthAdjust="spacing" textLength="58" x="422" y="608.416">TaxiFleet</text><rect fill="#E2E2F0" height="31.6094" rx="2.5" ry="2.5" style="stroke:#181818;stroke-width:0.5;" width="135" x="616.5" y="50"/><text fill="#000000" font-family="sans-serif" font-size="14" lengthAdjust="spacing" textLength="121" x="623.5" y="71.5332">PersistenceService</text><rect fill="#E2E2F0" height="31.6094" rx="2.5" ry="2.5" style="stroke:#181818;stroke-width:0.5;" width="135" x="616.5" y="586.8828"/><text fill="#000000" font-family="sans-serif" font-size="14" lengthAdjust="spacing" textLength="121" x="623.5" y="608.416">PersistenceService</text><text fill="#000000" font-family="sans-serif" font-size="14" lengthAdjust="spacing" textLength="158" x="761.5" y="79.5332">Fleet Management Team</text><ellipse cx="843.5" cy="13.5" fill="#E2E2F0" rx="8" ry="8" style="stroke:#181818;stroke-width:0.5;"/><path d="M843.5,21.5 L843.5,48.5 M830.5,29.5 L856.5,29.5 M843.5,48.5 L830.5,63.5 M843.5,48.5 L856.5,63.5 " fill="none" style="stroke:#181818;stroke-width:0.5;"/><text fill="#000000" font-family="sans-serif" font-size="14" lengthAdjust="spacing" textLength="158" x="761.5" y="601.416">Fleet Management Team</text><ellipse cx="843.5" cy="612.9922" fill="#E2E2F0" rx="8" ry="8" style="stroke:#181818;stroke-width:0.5;"/><path d="M843.5,620.9922 L843.5,647.9922 M830.5,628.9922 L856.5,628.9922 M843.5,647.9922 L830.5,662.9922 M843.5,647.9922 L856.5,662.9922 " fill="none" style="stroke:#181818;stroke-width:0.5;"/><rect fill="#EEEEEE" height="3" style="stroke:#EEEEEE;stroke-width:1.0;" width="930.5" x="0" y="113.7852"/><line style="stroke:#000000;stroke-width:1.0;" x1="0" x2="930.5" y1="113.7852" y2="113.7852"/><line style="stroke:#000000;stroke-width:1.0;" x1="0" x2="930.5" y1="116.7852" y2="116.7852"/><rect fill="#EEEEEE" height="24.3516" style="stroke:#000000;stroke-width:2.0;" width="144" x="393.25" y="102.6094"/><text fill="#000000" font-family="sans-serif" font-size="13" font-weight="bold" lengthAdjust="spacing" textLength="126" x="399.25" y="120.1045">Taxi Updates Status</text><polygon fill="#181818" points="206,155.3125,216,159.3125,206,163.3125,210,159.3125" style="stroke:#181818;stroke-width:1.0;"/><line style="stroke:#181818;stroke-width:1.0;" x1="36" x2="212" y1="159.3125" y2="159.3125"/><text fill="#000000" font-family="sans-serif" font-size="13" lengthAdjust="spacing" textLength="148" x="43" y="154.4561">publishStatus(newStatus)</text><polygon fill="#181818" points="439,185.6641,449,189.6641,439,193.6641,443,189.6641" style="stroke:#181818;stroke-width:1.0;"/><line style="stroke:#181818;stroke-width:1.0;" x1="218" x2="445" y1="189.6641" y2="189.6641"/><text fill="#000000" font-family="sans-serif" font-size="13" lengthAdjust="spacing" textLength="209" x="225" y="184.8076">updateTaxiStatus(taxiId, newStatus)</text><polygon fill="#181818" points="672,216.0156,682,220.0156,672,224.0156,676,220.0156" style="stroke:#181818;stroke-width:1.0;"/><line style="stroke:#181818;stroke-width:1.0;" x1="451" x2="678" y1="220.0156" y2="220.0156"/><text fill="#000000" font-family="sans-serif" font-size="13" lengthAdjust="spacing" textLength="209" x="458" y="215.1592">persistTaxiStatus(taxiId, newStatus)</text><polygon fill="#181818" points="462,246.3672,452,250.3672,462,254.3672,458,250.3672" style="stroke:#181818;stroke-width:1.0;"/><line style="stroke:#181818;stroke-width:1.0;" x1="456" x2="683" y1="250.3672" y2="250.3672"/><text fill="#000000" font-family="sans-serif" font-size="13" lengthAdjust="spacing" textLength="113" x="468" y="245.5107">confirm persistence</text><polygon fill="#181818" points="229,276.7188,219,280.7188,229,284.7188,225,280.7188" style="stroke:#181818;stroke-width:1.0;"/><line style="stroke:#181818;stroke-width:1.0;" x1="223" x2="450" y1="280.7188" y2="280.7188"/><text fill="#000000" font-family="sans-serif" font-size="13" lengthAdjust="spacing" textLength="85" x="235" y="275.8623">confirm update</text><polygon fill="#181818" points="47,307.0703,37,311.0703,47,315.0703,43,311.0703" style="stroke:#181818;stroke-width:1.0;"/><line style="stroke:#181818;stroke-width:1.0;" x1="41" x2="217" y1="311.0703" y2="311.0703"/><text fill="#000000" font-family="sans-serif" font-size="13" lengthAdjust="spacing" textLength="158" x="53" y="306.2139">acknowledge status update</text><rect fill="#EEEEEE" height="3" style="stroke:#EEEEEE;stroke-width:1.0;" width="930.5" x="0" y="340.2461"/><line style="stroke:#000000;stroke-width:1.0;" x1="0" x2="930.5" y1="340.2461" y2="340.2461"/><line style="stroke:#000000;stroke-width:1.0;" x1="0" x2="930.5" y1="343.2461" y2="343.2461"/><rect fill="#EEEEEE" height="24.3516" style="stroke:#000000;stroke-width:2.0;" width="340" x="295.25" y="329.0703"/><text fill="#000000" font-family="sans-serif" font-size="13" font-weight="bold" lengthAdjust="spacing" textLength="322" x="301.25" y="346.5654">Taxi Fleet System Periodically Queries Taxi Status</text><path d="M10,370.4219 L83,370.4219 L83,378.7734 L73,388.7734 L10,388.7734 L10,370.4219 " fill="#EEEEEE" style="stroke:#000000;stroke-width:1.5;"/><rect fill="none" height="200.4609" style="stroke:#000000;stroke-width:1.5;" width="751.5" x="10" y="370.4219"/><text fill="#000000" font-family="sans-serif" font-size="13" font-weight="bold" lengthAdjust="spacing" textLength="28" x="25" y="384.917">loop</text><text fill="#000000" font-family="sans-serif" font-size="11" font-weight="bold" lengthAdjust="spacing" textLength="157" x="98" y="383.8408">[Periodic Taxi Status Update]</text><polygon fill="#181818" points="229,407.125,219,411.125,229,415.125,225,411.125" style="stroke:#181818;stroke-width:1.0;"/><line style="stroke:#181818;stroke-width:1.0;" x1="223" x2="450" y1="411.125" y2="411.125"/><text fill="#000000" font-family="sans-serif" font-size="13" lengthAdjust="spacing" textLength="88" x="235" y="406.2686">getTaxiStatus()</text><polygon fill="#181818" points="47,437.4766,37,441.4766,47,445.4766,43,441.4766" style="stroke:#181818;stroke-width:1.0;"/><line style="stroke:#181818;stroke-width:1.0;" x1="41" x2="217" y1="441.4766" y2="441.4766"/><text fill="#000000" font-family="sans-serif" font-size="13" lengthAdjust="spacing" textLength="64" x="53" y="436.6201">getStatus()</text><polygon fill="#181818" points="206,467.8281,216,471.8281,206,475.8281,210,471.8281" style="stroke:#181818;stroke-width:1.0;"/><line style="stroke:#181818;stroke-width:1.0;" x1="36" x2="212" y1="471.8281" y2="471.8281"/><text fill="#000000" font-family="sans-serif" font-size="13" lengthAdjust="spacing" textLength="157" x="43" y="466.9717">returnStatus(currentStatus)</text><polygon fill="#181818" points="439,498.1797,449,502.1797,439,506.1797,443,502.1797" style="stroke:#181818;stroke-width:1.0;"/><line style="stroke:#181818;stroke-width:1.0;" x1="218" x2="445" y1="502.1797" y2="502.1797"/><text fill="#000000" font-family="sans-serif" font-size="13" lengthAdjust="spacing" textLength="130" x="225" y="497.3232">updateTaxiStatus(taxi)</text><polygon fill="#181818" points="672,528.5313,682,532.5313,672,536.5313,676,532.5313" style="stroke:#181818;stroke-width:1.0;"/><line style="stroke:#181818;stroke-width:1.0;" x1="451" x2="678" y1="532.5313" y2="532.5313"/><text fill="#000000" font-family="sans-serif" font-size="13" lengthAdjust="spacing" textLength="130" x="458" y="527.6748">updateTaxiStatus(taxi)</text><polygon fill="#181818" points="462,558.8828,452,562.8828,462,566.8828,458,562.8828" style="stroke:#181818;stroke-width:1.0;"/><line style="stroke:#181818;stroke-width:1.0;" x1="456" x2="683" y1="562.8828" y2="562.8828"/><text fill="#000000" font-family="sans-serif" font-size="13" lengthAdjust="spacing" textLength="113" x="468" y="558.0264">confirm persistence</text><!--SRC=[XP5DJiCm48NtFiMeAoB11Ig5JQL8B9224WumE4EmIEp8FvJUdecT57j1wShf- -RfpHkKtbWuzFYj3e0EreTOq7ebrOBQm-5avZbe9T4hepkoNqfIH4zT2QwZpKJaar5JgYrPfvmdBIatQJk1AK8SXMVKED9CFD8Jpf69olebH5t7XF2w3EZ9GUVH1mTrBKJy_-6HOy4Hbl0sAVUHv3jDv_Ig1AlCz0qp8NgiOnlc-Vaqt4E6CyXu6otJ0hVvzjTU6lskxBpFhOjlTZ7XBgSKUwvrXoEW_DJcFD4m4hYquOPT2qXjTHSsde6xLMRW4qtJ1Lu2Vr6wPDxFPCno9GirbIc0Vrd0aV9TgoWNAHaenE80bdomUjDbi9OlkfUKEVrvXogB4-k_GVrJEkb1_000]--></g></svg>