<?xml version="1.0" encoding="us-ascii" standalone="no"?><svg xmlns="http://www.w3.org/2000/svg" xmlns:xlink="http://www.w3.org/1999/xlink" contentStyleType="text/css" height="216px" preserveAspectRatio="none" style="width:1938px;height:216px;background:#FFFFFF;" version="1.1" viewBox="0 0 1938 216" width="1938px" zoomAndPan="magnify"><defs/><g><!--cluster Passenger Module--><g id="cluster_Passenger Module"><rect fill="none" height="91" rx="2.5" ry="2.5" style="stroke:#181818;stroke-width:1.0;" width="561" x="1371" y="113.5"/><text fill="#000000" font-family="sans-serif" font-size="14" font-weight="bold" lengthAdjust="spacing" textLength="132" x="1585.5" y="130.0332">Passenger Module</text></g><!--cluster Fleet Management Module--><g id="cluster_Fleet Management Module"><rect fill="none" height="102" rx="2.5" ry="2.5" style="stroke:#181818;stroke-width:1.0;" width="819" x="7" y="108"/><text fill="#000000" font-family="sans-serif" font-size="14" font-weight="bold" lengthAdjust="spacing" textLength="188" x="322.5" y="124.5332">Fleet Management Module</text></g><!--cluster Taxi Module--><g id="cluster_Taxi Module"><rect fill="none" height="103" rx="2.5" ry="2.5" style="stroke:#181818;stroke-width:1.0;" width="497" x="850" y="107.5"/><text fill="#000000" font-family="sans-serif" font-size="14" font-weight="bold" lengthAdjust="spacing" textLength="85" x="1056" y="124.0332">Taxi Module</text></g><g id="elem_Request Ride"><ellipse cx="1845.957" cy="168.7914" fill="#F1F1F1" rx="69.457" ry="16.2914" style="stroke:#181818;stroke-width:0.5;"/><text fill="#000000" font-family="sans-serif" font-size="14" lengthAdjust="spacing" textLength="86" x="1799.957" y="173.308">Request Ride</text></g><g id="elem_View Booking Status"><ellipse cx="1656.1926" cy="169.0385" fill="#F1F1F1" rx="85.6926" ry="19.5385" style="stroke:#181818;stroke-width:0.5;"/><text fill="#000000" font-family="sans-serif" font-size="14" lengthAdjust="spacing" textLength="128" x="1592.1926" y="172.767">View Booking Status</text></g><g id="elem_Cancel Booking"><ellipse cx="1461.1111" cy="169.2222" fill="#F1F1F1" rx="74.1111" ry="17.2222" style="stroke:#181818;stroke-width:0.5;"/><text fill="#000000" font-family="sans-serif" font-size="14" lengthAdjust="spacing" textLength="99" x="1408.6111" y="173.7388">Cancel Booking</text></g><g id="elem_List All Taxis"><ellipse cx="742.7537" cy="168.7507" fill="#F1F1F1" rx="66.7537" ry="15.7507" style="stroke:#181818;stroke-width:0.5;"/><text fill="#000000" font-family="sans-serif" font-size="14" lengthAdjust="spacing" textLength="78" x="700.7537" y="173.2673">List All Taxis</text></g><g id="elem_Publish New Booking Request"><ellipse cx="527.7614" cy="168.8523" fill="#F1F1F1" rx="112.2614" ry="24.8523" style="stroke:#181818;stroke-width:0.5;"/><text fill="#000000" font-family="sans-serif" font-size="14" lengthAdjust="spacing" textLength="188" x="433.7614" y="172.5808">Publish New Booking Request</text></g><g id="elem_Create New Booking"><ellipse cx="295.1926" cy="169.0385" fill="#F1F1F1" rx="85.6926" ry="19.5385" style="stroke:#181818;stroke-width:0.5;"/><text fill="#000000" font-family="sans-serif" font-size="14" lengthAdjust="spacing" textLength="128" x="231.1926" y="172.767">Create New Booking</text></g><g id="elem_View Dashboard"><ellipse cx="99.1002" cy="169.02" fill="#F1F1F1" rx="75.6002" ry="17.52" style="stroke:#181818;stroke-width:0.5;"/><text fill="#000000" font-family="sans-serif" font-size="14" lengthAdjust="spacing" textLength="103" x="44.6002" y="173.5366">View Dashboard</text></g><g id="elem_Accept / Decline Booking"><ellipse cx="1231.7802" cy="169.056" fill="#F1F1F1" rx="98.2802" ry="22.056" style="stroke:#181818;stroke-width:0.5;"/><text fill="#000000" font-family="sans-serif" font-size="14" lengthAdjust="spacing" textLength="157" x="1153.2802" y="172.7846">Accept / Decline Booking</text></g><g id="elem_Update location and Availability"><ellipse cx="981.9339" cy="169.0868" fill="#F1F1F1" rx="115.9339" ry="25.5868" style="stroke:#181818;stroke-width:0.5;"/><text fill="#000000" font-family="sans-serif" font-size="14" lengthAdjust="spacing" textLength="196" x="883.9339" y="172.8153">Update location and Availability</text></g><!--entity BookingCenter--><g id="elem_BookingCenter"><ellipse cx="412" cy="14" fill="#F1F1F1" rx="8" ry="8" style="stroke:#181818;stroke-width:0.5;"/><path d="M412,22 L412,49 M399,30 L425,30 M412,49 L399,64 M412,49 L425,64 " fill="none" style="stroke:#181818;stroke-width:0.5;"/><text fill="#000000" font-family="sans-serif" font-size="14" lengthAdjust="spacing" textLength="98" x="363" y="80.0332">Booking Center</text></g><!--entity Taxi--><g id="elem_Taxi"><ellipse cx="1107" cy="14" fill="#F1F1F1" rx="8" ry="8" style="stroke:#181818;stroke-width:0.5;"/><path d="M1107,22 L1107,49 M1094,30 L1120,30 M1107,49 L1094,64 M1107,49 L1120,64 " fill="none" style="stroke:#181818;stroke-width:0.5;"/><text fill="#000000" font-family="sans-serif" font-size="14" lengthAdjust="spacing" textLength="26" x="1094" y="80.0332">Taxi</text></g><!--entity Passenger--><g id="elem_Passenger"><ellipse cx="1656" cy="14" fill="#F1F1F1" rx="8" ry="8" style="stroke:#181818;stroke-width:0.5;"/><path d="M1656,22 L1656,49 M1643,30 L1669,30 M1656,49 L1643,64 M1656,49 L1669,64 " fill="none" style="stroke:#181818;stroke-width:0.5;"/><text fill="#000000" font-family="sans-serif" font-size="14" lengthAdjust="spacing" textLength="68" x="1622" y="80.0332">Passenger</text></g><!--link Passenger to Request Ride--><g id="link_Passenger_Request Ride"><path d="M1690.28,61.49 C1710.76,71.53 1736.97,85.23 1759,99.5 C1784.49,116.02 1807.1001,134.3403 1824.1601,148.9303 " fill="none" id="Passenger-to-Request Ride" style="stroke:#181818;stroke-width:1.0;"/><polygon fill="#181818" points="1828.72,152.83,1824.48,143.9406,1824.9201,149.5803,1819.2804,150.0204,1828.72,152.83" style="stroke:#181818;stroke-width:1.0;"/></g><!--link Passenger to View Booking Status--><g id="link_Passenger_View Booking Status"><path d="M1656,83.59 C1656,105.5 1656,126.05 1656,143.45 " fill="none" id="Passenger-to-View Booking Status" style="stroke:#181818;stroke-width:1.0;"/><polygon fill="#181818" points="1656,149.45,1660,140.45,1656,144.45,1652,140.45,1656,149.45" style="stroke:#181818;stroke-width:1.0;"/></g><!--link Passenger to Cancel Booking--><g id="link_Passenger_Cancel Booking"><path d="M1621.85,61.71 C1601.43,71.82 1575.22,85.53 1553,99.5 C1526.7,116.04 1502.9782,134.1156 1484.7982,148.6356 " fill="none" id="Passenger-to-Cancel Booking" style="stroke:#181818;stroke-width:1.0;"/><polygon fill="#181818" points="1480.11,152.38,1489.6386,149.8889,1484.0169,149.2597,1484.6461,143.6379,1480.11,152.38" style="stroke:#181818;stroke-width:1.0;"/></g><!--link BookingCenter to List All Taxis--><g id="link_BookingCenter_List All Taxis"><path d="M461.31,49.61 C512.59,55.38 594.13,68.87 658,99.5 C686.2,113.02 709.1174,133.3274 724.8574,149.0674 " fill="none" id="BookingCenter-to-List All Taxis" style="stroke:#181818;stroke-width:1.0;"/><polygon fill="#181818" points="729.1,153.31,725.5645,144.1176,725.5645,149.7745,719.9076,149.7745,729.1,153.31" style="stroke:#181818;stroke-width:1.0;"/></g><!--link BookingCenter to Publish New Booking Request--><g id="link_BookingCenter_Publish New Booking Request"><path d="M448.07,83.59 C466.82,103.39 485.0442,122.6337 501.3342,139.8337 " fill="none" id="BookingCenter-to-Publish New Booking Request" style="stroke:#181818;stroke-width:1.0;"/><polygon fill="#181818" points="505.46,144.19,502.1755,134.905,502.0218,140.5597,496.367,140.4061,505.46,144.19" style="stroke:#181818;stroke-width:1.0;"/></g><!--link BookingCenter to Create New Booking--><g id="link_BookingCenter_Create New Booking"><path d="M375.62,83.59 C354.56,105.64 333.153,128.05 316.543,145.45 " fill="none" id="BookingCenter-to-Create New Booking" style="stroke:#181818;stroke-width:1.0;"/><polygon fill="#181818" points="312.4,149.79,321.5078,146.042,315.8525,146.1733,315.7211,140.518,312.4,149.79" style="stroke:#181818;stroke-width:1.0;"/></g><!--link BookingCenter to View Dashboard--><g id="link_BookingCenter_View Dashboard"><path d="M362.95,51.88 C317.11,59.13 247.57,73.49 192,99.5 C163.12,113.02 138.7457,132.2078 121.0057,147.8078 " fill="none" id="BookingCenter-to-View Dashboard" style="stroke:#181818;stroke-width:1.0;"/><polygon fill="#181818" points="116.5,151.77,125.9,148.8305,120.2547,148.4682,120.6171,142.823,116.5,151.77" style="stroke:#181818;stroke-width:1.0;"/></g><!--link Taxi to Accept / Decline Booking--><g id="link_Taxi_Accept / Decline Booking"><path d="M1120.85,59.08 C1142.72,80.51 1181.095,118.1102 1206.735,143.2402 " fill="none" id="Taxi-to-Accept / Decline Booking" style="stroke:#181818;stroke-width:1.0;"/><polygon fill="#181818" points="1211.02,147.44,1207.3923,138.2836,1207.4491,143.9402,1201.7926,143.997,1211.02,147.44" style="stroke:#181818;stroke-width:1.0;"/></g><!--link Taxi to Update location and Availability--><g id="link_Taxi_Update location and Availability"><path d="M1093.15,59.08 C1072.3,79.51 1036.8355,114.2706 1010.9555,139.6306 " fill="none" id="Taxi-to-Update location and Availability" style="stroke:#181818;stroke-width:1.0;"/><polygon fill="#181818" points="1006.67,143.83,1015.8978,140.3879,1010.2412,140.3305,1010.2986,134.674,1006.67,143.83" style="stroke:#181818;stroke-width:1.0;"/></g><!--SRC=[TO_BJiCm44Nt-OfHLcHHyGT88HKhYghos4_iKJfYQXTxmaE8VwTvbHZ2pdFdNC-zQDG7oA-zVsRNG4LEAUI04KPfK38Sk0TyvtxRFIPnYp6IQqRVUSgoG4RHDK8p1ZRUja8vV6Rmmy9gTGKNEtffAIhis5BnT_t4z3R5Wdj5RUC2LQ4p91DNP5z9ZXiXKjYWmuOEfsf9dAJoyDijd_AK8dtXMC0ojMrhuRY7krd0iSn_bYeGAiqTnJBOjrvZtDSUW_tTfukLTEY5tbWQGqU5IrYJ4NPqlWC9zdYqNH3n1fMz0tGMobTamPg5zQEx-0q0]--></g></svg>