<?xml version="1.0" encoding="us-ascii" standalone="no"?><svg xmlns="http://www.w3.org/2000/svg" xmlns:xlink="http://www.w3.org/1999/xlink" contentStyleType="text/css" height="972px" preserveAspectRatio="none" style="width:977px;height:972px;background:#FFFFFF;" version="1.1" viewBox="0 0 977 972" width="977px" zoomAndPan="magnify"><defs/><g><rect fill="none" height="451.7578" style="stroke:#000000;stroke-width:1.5;" width="960.5" x="10" y="422.125"/><rect fill="none" height="48.7031" style="stroke:#000000;stroke-width:1.5;" width="432" x="179.5" y="508.1797"/><rect fill="none" height="158.7578" style="stroke:#000000;stroke-width:1.5;" width="781" x="179.5" y="677.7734"/><line style="stroke:#181818;stroke-width:0.5;stroke-dasharray:5.0,5.0;" x1="37" x2="37" y1="82.6094" y2="890.8828"/><line style="stroke:#181818;stroke-width:0.5;stroke-dasharray:5.0,5.0;" x1="243.5" x2="243.5" y1="82.6094" y2="890.8828"/><line style="stroke:#181818;stroke-width:0.5;stroke-dasharray:5.0,5.0;" x1="392.5" x2="392.5" y1="82.6094" y2="890.8828"/><line style="stroke:#181818;stroke-width:0.5;stroke-dasharray:5.0,5.0;" x1="522.5" x2="522.5" y1="82.6094" y2="890.8828"/><line style="stroke:#181818;stroke-width:0.5;stroke-dasharray:5.0,5.0;" x1="785.5" x2="785.5" y1="82.6094" y2="890.8828"/><line style="stroke:#181818;stroke-width:0.5;stroke-dasharray:5.0,5.0;" x1="882.5" x2="882.5" y1="82.6094" y2="890.8828"/><text fill="#000000" font-family="sans-serif" font-size="14" lengthAdjust="spacing" textLength="29" x="20" y="79.5332">User</text><ellipse cx="37.5" cy="13.5" fill="#E2E2F0" rx="8" ry="8" style="stroke:#181818;stroke-width:0.5;"/><path d="M37.5,21.5 L37.5,48.5 M24.5,29.5 L50.5,29.5 M37.5,48.5 L24.5,63.5 M37.5,48.5 L50.5,63.5 " fill="none" style="stroke:#181818;stroke-width:0.5;"/><text fill="#000000" font-family="sans-serif" font-size="14" lengthAdjust="spacing" textLength="29" x="20" y="904.416">User</text><ellipse cx="37.5" cy="915.9922" fill="#E2E2F0" rx="8" ry="8" style="stroke:#181818;stroke-width:0.5;"/><path d="M37.5,923.9922 L37.5,950.9922 M24.5,931.9922 L50.5,931.9922 M37.5,950.9922 L24.5,965.9922 M37.5,950.9922 L50.5,965.9922 " fill="none" style="stroke:#181818;stroke-width:0.5;"/><rect fill="#E2E2F0" height="31.6094" rx="2.5" ry="2.5" style="stroke:#181818;stroke-width:0.5;" width="108" x="189.5" y="50"/><text fill="#000000" font-family="sans-serif" font-size="14" lengthAdjust="spacing" textLength="94" x="196.5" y="71.5332">BookingCenter</text><rect fill="#E2E2F0" height="31.6094" rx="2.5" ry="2.5" style="stroke:#181818;stroke-width:0.5;" width="108" x="189.5" y="889.8828"/><text fill="#000000" font-family="sans-serif" font-size="14" lengthAdjust="spacing" textLength="94" x="196.5" y="911.416">BookingCenter</text><rect fill="#E2E2F0" height="31.6094" rx="2.5" ry="2.5" style="stroke:#181818;stroke-width:0.5;" width="72" x="356.5" y="50"/><text fill="#000000" font-family="sans-serif" font-size="14" lengthAdjust="spacing" textLength="58" x="363.5" y="71.5332">TaxiFleet</text><rect fill="#E2E2F0" height="31.6094" rx="2.5" ry="2.5" style="stroke:#181818;stroke-width:0.5;" width="72" x="356.5" y="889.8828"/><text fill="#000000" font-family="sans-serif" font-size="14" lengthAdjust="spacing" textLength="58" x="363.5" y="911.416">TaxiFleet</text><rect fill="#E2E2F0" height="31.6094" rx="2.5" ry="2.5" style="stroke:#181818;stroke-width:0.5;" width="158" x="443.5" y="50"/><text fill="#000000" font-family="sans-serif" font-size="14" lengthAdjust="spacing" textLength="144" x="450.5" y="71.5332">CommunicationService</text><rect fill="#E2E2F0" height="31.6094" rx="2.5" ry="2.5" style="stroke:#181818;stroke-width:0.5;" width="158" x="443.5" y="889.8828"/><text fill="#000000" font-family="sans-serif" font-size="14" lengthAdjust="spacing" textLength="144" x="450.5" y="911.416">CommunicationService</text><rect fill="#E2E2F0" height="31.6094" rx="2.5" ry="2.5" style="stroke:#181818;stroke-width:0.5;" width="40" x="765.5" y="50"/><text fill="#000000" font-family="sans-serif" font-size="14" lengthAdjust="spacing" textLength="26" x="772.5" y="71.5332">Taxi</text><rect fill="#E2E2F0" height="31.6094" rx="2.5" ry="2.5" style="stroke:#181818;stroke-width:0.5;" width="40" x="765.5" y="889.8828"/><text fill="#000000" font-family="sans-serif" font-size="14" lengthAdjust="spacing" textLength="26" x="772.5" y="911.416">Taxi</text><rect fill="#E2E2F0" height="31.6094" rx="2.5" ry="2.5" style="stroke:#181818;stroke-width:0.5;" width="135" x="815.5" y="50"/><text fill="#000000" font-family="sans-serif" font-size="14" lengthAdjust="spacing" textLength="121" x="822.5" y="71.5332">PersistenceService</text><rect fill="#E2E2F0" height="31.6094" rx="2.5" ry="2.5" style="stroke:#181818;stroke-width:0.5;" width="135" x="815.5" y="889.8828"/><text fill="#000000" font-family="sans-serif" font-size="14" lengthAdjust="spacing" textLength="121" x="822.5" y="911.416">PersistenceService</text><polygon fill="#181818" points="231.5,110.9609,241.5,114.9609,231.5,118.9609,235.5,114.9609" style="stroke:#181818;stroke-width:1.0;"/><line style="stroke:#181818;stroke-width:1.0;" x1="37.5" x2="237.5" y1="114.9609" y2="114.9609"/><text fill="#000000" font-family="sans-serif" font-size="13" lengthAdjust="spacing" textLength="182" x="44.5" y="110.1045">requestBooking(pickup, dropoff)</text><line style="stroke:#181818;stroke-width:1.0;" x1="243.5" x2="285.5" y1="145.3125" y2="145.3125"/><line style="stroke:#181818;stroke-width:1.0;" x1="285.5" x2="285.5" y1="145.3125" y2="158.3125"/><line style="stroke:#181818;stroke-width:1.0;" x1="244.5" x2="285.5" y1="158.3125" y2="158.3125"/><polygon fill="#181818" points="254.5,154.3125,244.5,158.3125,254.5,162.3125,250.5,158.3125" style="stroke:#181818;stroke-width:1.0;"/><text fill="#000000" font-family="sans-serif" font-size="13" lengthAdjust="spacing" textLength="135" x="250.5" y="140.4561">create BookingRequest</text><polygon fill="#181818" points="871,184.6641,881,188.6641,871,192.6641,875,188.6641" style="stroke:#181818;stroke-width:1.0;"/><line style="stroke:#181818;stroke-width:1.0;" x1="243.5" x2="877" y1="188.6641" y2="188.6641"/><text fill="#000000" font-family="sans-serif" font-size="13" lengthAdjust="spacing" textLength="129" x="250.5" y="183.8076">save(BookingRequest)</text><path d="M248,201.6641 L248,227.6641 L384,227.6641 L384,211.6641 L374,201.6641 L248,201.6641 " fill="#FEFFDD" style="stroke:#181818;stroke-width:0.5;"/><path d="M374,201.6641 L374,211.6641 L384,211.6641 L374,201.6641 " fill="#FEFFDD" style="stroke:#181818;stroke-width:0.5;"/><text fill="#000000" font-family="sans-serif" font-size="13" lengthAdjust="spacing" textLength="115" x="254" y="220.1592">Asynchronous Task</text><polygon fill="#181818" points="380.5,251.3672,390.5,255.3672,380.5,259.3672,384.5,255.3672" style="stroke:#181818;stroke-width:1.0;"/><line style="stroke:#181818;stroke-width:1.0;" x1="243.5" x2="386.5" y1="255.3672" y2="255.3672"/><text fill="#000000" font-family="sans-serif" font-size="13" lengthAdjust="spacing" textLength="90" x="250.5" y="250.5107">AvailableTaxis()</text><polygon fill="#181818" points="871,281.7188,881,285.7188,871,289.7188,875,285.7188" style="stroke:#181818;stroke-width:1.0;"/><line style="stroke:#181818;stroke-width:1.0;" x1="392.5" x2="877" y1="285.7188" y2="285.7188"/><text fill="#000000" font-family="sans-serif" font-size="13" lengthAdjust="spacing" textLength="131" x="399.5" y="280.8623">retrieveAvailableTaxis()</text><polygon fill="#181818" points="403.5,312.0703,393.5,316.0703,403.5,320.0703,399.5,316.0703" style="stroke:#181818;stroke-width:1.0;"/><line style="stroke:#181818;stroke-width:1.0;" x1="397.5" x2="882" y1="316.0703" y2="316.0703"/><text fill="#000000" font-family="sans-serif" font-size="13" lengthAdjust="spacing" textLength="119" x="409.5" y="311.2139">return AvailableTaxis</text><polygon fill="#181818" points="254.5,342.4219,244.5,346.4219,254.5,350.4219,250.5,346.4219" style="stroke:#181818;stroke-width:1.0;"/><line style="stroke:#181818;stroke-width:1.0;" x1="248.5" x2="391.5" y1="346.4219" y2="346.4219"/><text fill="#000000" font-family="sans-serif" font-size="13" lengthAdjust="spacing" textLength="119" x="260.5" y="341.5654">return AvailableTaxis</text><polygon fill="#181818" points="510.5,372.7734,520.5,376.7734,510.5,380.7734,514.5,376.7734" style="stroke:#181818;stroke-width:1.0;"/><line style="stroke:#181818;stroke-width:1.0;" x1="243.5" x2="516.5" y1="376.7734" y2="376.7734"/><text fill="#000000" font-family="sans-serif" font-size="13" lengthAdjust="spacing" textLength="255" x="250.5" y="371.917">notifyTaxis(AvailableTaxis, BookingRequest)</text><polygon fill="#181818" points="773.5,403.125,783.5,407.125,773.5,411.125,777.5,407.125" style="stroke:#181818;stroke-width:1.0;"/><line style="stroke:#181818;stroke-width:1.0;" x1="522.5" x2="779.5" y1="407.125" y2="407.125"/><text fill="#000000" font-family="sans-serif" font-size="13" lengthAdjust="spacing" textLength="239" x="529.5" y="402.2686">publishBookingRequest(BookingRequest)</text><path d="M10,422.125 L71,422.125 L71,430.4766 L61,440.4766 L10,440.4766 L10,422.125 " fill="#EEEEEE" style="stroke:#000000;stroke-width:1.5;"/><rect fill="none" height="451.7578" style="stroke:#000000;stroke-width:1.5;" width="960.5" x="10" y="422.125"/><text fill="#000000" font-family="sans-serif" font-size="13" font-weight="bold" lengthAdjust="spacing" textLength="16" x="25" y="436.6201">alt</text><text fill="#000000" font-family="sans-serif" font-size="11" font-weight="bold" lengthAdjust="spacing" textLength="158" x="86" y="435.5439">[No taxis accept the request]</text><polygon fill="#181818" points="533.5,458.8281,523.5,462.8281,533.5,466.8281,529.5,462.8281" style="stroke:#181818;stroke-width:1.0;"/><line style="stroke:#181818;stroke-width:1.0;" x1="527.5" x2="784.5" y1="462.8281" y2="462.8281"/><text fill="#000000" font-family="sans-serif" font-size="13" lengthAdjust="spacing" textLength="164" x="539.5" y="457.9717">respondToBooking(REJECT)</text><polygon fill="#181818" points="254.5,489.1797,244.5,493.1797,254.5,497.1797,250.5,493.1797" style="stroke:#181818;stroke-width:1.0;"/><line style="stroke:#181818;stroke-width:1.0;" x1="248.5" x2="521.5" y1="493.1797" y2="493.1797"/><text fill="#000000" font-family="sans-serif" font-size="13" lengthAdjust="spacing" textLength="177" x="260.5" y="488.3232">handleTaxiResponse(REJECT)</text><path d="M179.5,508.1797 L252.5,508.1797 L252.5,516.5313 L242.5,526.5313 L179.5,526.5313 L179.5,508.1797 " fill="#EEEEEE" style="stroke:#000000;stroke-width:1.5;"/><rect fill="none" height="48.7031" style="stroke:#000000;stroke-width:1.5;" width="432" x="179.5" y="508.1797"/><text fill="#000000" font-family="sans-serif" font-size="13" font-weight="bold" lengthAdjust="spacing" textLength="28" x="194.5" y="522.6748">loop</text><text fill="#000000" font-family="sans-serif" font-size="11" font-weight="bold" lengthAdjust="spacing" textLength="146" x="267.5" y="521.5986">[Handle all taxi responses]</text><polygon fill="#181818" points="254.5,544.8828,244.5,548.8828,254.5,552.8828,250.5,548.8828" style="stroke:#181818;stroke-width:1.0;"/><line style="stroke:#181818;stroke-width:1.0;" x1="248.5" x2="521.5" y1="548.8828" y2="548.8828"/><text fill="#000000" font-family="sans-serif" font-size="13" lengthAdjust="spacing" textLength="177" x="260.5" y="544.0264">handleTaxiResponse(REJECT)</text><polygon fill="#181818" points="48.5,582.2344,38.5,586.2344,48.5,590.2344,44.5,586.2344" style="stroke:#181818;stroke-width:1.0;"/><line style="stroke:#181818;stroke-width:1.0;" x1="42.5" x2="242.5" y1="586.2344" y2="586.2344"/><text fill="#000000" font-family="sans-serif" font-size="13" lengthAdjust="spacing" textLength="150" x="54.5" y="581.3779">notify("No taxis available")</text><line style="stroke:#000000;stroke-width:1.0;stroke-dasharray:2.0,2.0;" x1="10" x2="970.5" y1="595.2344" y2="595.2344"/><text fill="#000000" font-family="sans-serif" font-size="11" font-weight="bold" lengthAdjust="spacing" textLength="176" x="15" y="606.6533">[Some taxis accept the request]</text><polygon fill="#181818" points="533.5,628.4219,523.5,632.4219,533.5,636.4219,529.5,632.4219" style="stroke:#181818;stroke-width:1.0;"/><line style="stroke:#181818;stroke-width:1.0;" x1="527.5" x2="784.5" y1="632.4219" y2="632.4219"/><text fill="#000000" font-family="sans-serif" font-size="13" lengthAdjust="spacing" textLength="167" x="539.5" y="627.5654">respondToBooking(ACCEPT)</text><polygon fill="#181818" points="254.5,658.7734,244.5,662.7734,254.5,666.7734,250.5,662.7734" style="stroke:#181818;stroke-width:1.0;"/><line style="stroke:#181818;stroke-width:1.0;" x1="248.5" x2="521.5" y1="662.7734" y2="662.7734"/><text fill="#000000" font-family="sans-serif" font-size="13" lengthAdjust="spacing" textLength="180" x="260.5" y="657.917">handleTaxiResponse(ACCEPT)</text><path d="M179.5,677.7734 L252.5,677.7734 L252.5,686.125 L242.5,696.125 L179.5,696.125 L179.5,677.7734 " fill="#EEEEEE" style="stroke:#000000;stroke-width:1.5;"/><rect fill="none" height="158.7578" style="stroke:#000000;stroke-width:1.5;" width="781" x="179.5" y="677.7734"/><text fill="#000000" font-family="sans-serif" font-size="13" font-weight="bold" lengthAdjust="spacing" textLength="28" x="194.5" y="692.2686">loop</text><text fill="#000000" font-family="sans-serif" font-size="11" font-weight="bold" lengthAdjust="spacing" textLength="146" x="267.5" y="691.1924">[Handle all taxi responses]</text><polygon fill="#181818" points="254.5,714.4766,244.5,718.4766,254.5,722.4766,250.5,718.4766" style="stroke:#181818;stroke-width:1.0;"/><line style="stroke:#181818;stroke-width:1.0;" x1="248.5" x2="521.5" y1="718.4766" y2="718.4766"/><text fill="#000000" font-family="sans-serif" font-size="13" lengthAdjust="spacing" textLength="180" x="260.5" y="713.6201">handleTaxiResponse(ACCEPT)</text><line style="stroke:#181818;stroke-width:1.0;" x1="243.5" x2="285.5" y1="748.8281" y2="748.8281"/><line style="stroke:#181818;stroke-width:1.0;" x1="285.5" x2="285.5" y1="748.8281" y2="761.8281"/><line style="stroke:#181818;stroke-width:1.0;" x1="244.5" x2="285.5" y1="761.8281" y2="761.8281"/><polygon fill="#181818" points="254.5,757.8281,244.5,761.8281,254.5,765.8281,250.5,761.8281" style="stroke:#181818;stroke-width:1.0;"/><text fill="#000000" font-family="sans-serif" font-size="13" lengthAdjust="spacing" textLength="83" x="250.5" y="743.9717">createBooking</text><polygon fill="#181818" points="871,788.1797,881,792.1797,871,796.1797,875,792.1797" style="stroke:#181818;stroke-width:1.0;"/><line style="stroke:#181818;stroke-width:1.0;" x1="243.5" x2="877" y1="792.1797" y2="792.1797"/><text fill="#000000" font-family="sans-serif" font-size="13" lengthAdjust="spacing" textLength="128" x="250.5" y="787.3232">saveBooking(Booking)</text><path d="M248,805.1797 L248,831.1797 L384,831.1797 L384,815.1797 L374,805.1797 L248,805.1797 " fill="#FEFFDD" style="stroke:#181818;stroke-width:0.5;"/><path d="M374,805.1797 L374,815.1797 L384,815.1797 L374,805.1797 " fill="#FEFFDD" style="stroke:#181818;stroke-width:0.5;"/><text fill="#000000" font-family="sans-serif" font-size="13" lengthAdjust="spacing" textLength="115" x="254" y="823.6748">Asynchronous Task</text><polygon fill="#181818" points="48.5,861.8828,38.5,865.8828,48.5,869.8828,44.5,865.8828" style="stroke:#181818;stroke-width:1.0;"/><line style="stroke:#181818;stroke-width:1.0;" x1="42.5" x2="242.5" y1="865.8828" y2="865.8828"/><text fill="#000000" font-family="sans-serif" font-size="13" lengthAdjust="spacing" textLength="156" x="54.5" y="861.0264">notify("Booking confirmed")</text><!--SRC=[hPFDJkim48NtUOfHLut4VG4MICLgTSK2LKru0EDCY5NNOsodWhV7yGzjMYIukcJZAFFDyJdZc0jF5fuSsifmwwMGXciFYtkYlTGl3BL7km3ku9xDYPQ_oOr2zB7QRkPLHeV3gANWNf9kq1wbm0YovbecAOINUMcBraddKGiyLzWsLJKPXZztmHJSWiNN4PtFbfT6YlreRg2pPAZlwof01HKMkKV8w2urPc3R1C3n8oxdvRhI57giV1ayK9-4LkvTYy6Ifd6oxlPPfDrCnIENYZyhd3AvPLs5hsK3YzvAFE8L4wgbFp2ZrHSoMIGd_Wf83jYqIt0i-_SaFQTku38TInk7OcWquxEIRfWpLmFXoiCZWPy4WGk1neCVi9n41U69WiMFHMT8TosLGzgj7zQihIEP3CHW0zTTChgB7Gvdf28oy3Som9MA1hAsGnUHVnD4tSKrZIx-LMLuoyKfOPdWegvGEOI63lW_wLUChRS_IdzE_ahwSy5JyhFBaJrU09-NeqJ8wqdeHvVasvbdMH2aUsaFs4qZ3mqV]--></g></svg>