<?xml version="1.0" encoding="us-ascii" standalone="no"?><svg xmlns="http://www.w3.org/2000/svg" xmlns:xlink="http://www.w3.org/1999/xlink" contentStyleType="text/css" height="778px" preserveAspectRatio="none" style="width:835px;height:778px;background:#FFFFFF;" version="1.1" viewBox="0 0 835 778" width="835px" zoomAndPan="magnify"><defs/><g><rect fill="none" height="341.7031" style="stroke:#000000;stroke-width:1.5;" width="818.5" x="10" y="338.0703"/><rect fill="none" height="48.7031" style="stroke:#000000;stroke-width:1.5;" width="445" x="179.5" y="424.125"/><rect fill="none" height="48.7031" style="stroke:#000000;stroke-width:1.5;" width="445" x="179.5" y="593.7188"/><line style="stroke:#181818;stroke-width:0.5;stroke-dasharray:5.0,5.0;" x1="37" x2="37" y1="82.6094" y2="696.7734"/><line style="stroke:#181818;stroke-width:0.5;stroke-dasharray:5.0,5.0;" x1="243.5" x2="243.5" y1="82.6094" y2="696.7734"/><line style="stroke:#181818;stroke-width:0.5;stroke-dasharray:5.0,5.0;" x1="392.5" x2="392.5" y1="82.6094" y2="696.7734"/><line style="stroke:#181818;stroke-width:0.5;stroke-dasharray:5.0,5.0;" x1="535.5" x2="535.5" y1="82.6094" y2="696.7734"/><line style="stroke:#181818;stroke-width:0.5;stroke-dasharray:5.0,5.0;" x1="798.5" x2="798.5" y1="82.6094" y2="696.7734"/><text fill="#000000" font-family="sans-serif" font-size="14" lengthAdjust="spacing" textLength="29" x="20" y="79.5332">User</text><ellipse cx="37.5" cy="13.5" fill="#E2E2F0" rx="8" ry="8" style="stroke:#181818;stroke-width:0.5;"/><path d="M37.5,21.5 L37.5,48.5 M24.5,29.5 L50.5,29.5 M37.5,48.5 L24.5,63.5 M37.5,48.5 L50.5,63.5 " fill="none" style="stroke:#181818;stroke-width:0.5;"/><text fill="#000000" font-family="sans-serif" font-size="14" lengthAdjust="spacing" textLength="29" x="20" y="710.3066">User</text><ellipse cx="37.5" cy="721.8828" fill="#E2E2F0" rx="8" ry="8" style="stroke:#181818;stroke-width:0.5;"/><path d="M37.5,729.8828 L37.5,756.8828 M24.5,737.8828 L50.5,737.8828 M37.5,756.8828 L24.5,771.8828 M37.5,756.8828 L50.5,771.8828 " fill="none" style="stroke:#181818;stroke-width:0.5;"/><rect fill="#E2E2F0" height="31.6094" rx="2.5" ry="2.5" style="stroke:#181818;stroke-width:0.5;" width="108" x="189.5" y="50"/><text fill="#000000" font-family="sans-serif" font-size="14" lengthAdjust="spacing" textLength="94" x="196.5" y="71.5332">BookingCenter</text><rect fill="#E2E2F0" height="31.6094" rx="2.5" ry="2.5" style="stroke:#181818;stroke-width:0.5;" width="108" x="189.5" y="695.7734"/><text fill="#000000" font-family="sans-serif" font-size="14" lengthAdjust="spacing" textLength="94" x="196.5" y="717.3066">BookingCenter</text><rect fill="#E2E2F0" height="31.6094" rx="2.5" ry="2.5" style="stroke:#181818;stroke-width:0.5;" width="72" x="356.5" y="50"/><text fill="#000000" font-family="sans-serif" font-size="14" lengthAdjust="spacing" textLength="58" x="363.5" y="71.5332">TaxiFleet</text><rect fill="#E2E2F0" height="31.6094" rx="2.5" ry="2.5" style="stroke:#181818;stroke-width:0.5;" width="72" x="356.5" y="695.7734"/><text fill="#000000" font-family="sans-serif" font-size="14" lengthAdjust="spacing" textLength="58" x="363.5" y="717.3066">TaxiFleet</text><rect fill="#E2E2F0" height="31.6094" rx="2.5" ry="2.5" style="stroke:#181818;stroke-width:0.5;" width="158" x="456.5" y="50"/><text fill="#000000" font-family="sans-serif" font-size="14" lengthAdjust="spacing" textLength="144" x="463.5" y="71.5332">CommunicationService</text><rect fill="#E2E2F0" height="31.6094" rx="2.5" ry="2.5" style="stroke:#181818;stroke-width:0.5;" width="158" x="456.5" y="695.7734"/><text fill="#000000" font-family="sans-serif" font-size="14" lengthAdjust="spacing" textLength="144" x="463.5" y="717.3066">CommunicationService</text><rect fill="#E2E2F0" height="31.6094" rx="2.5" ry="2.5" style="stroke:#181818;stroke-width:0.5;" width="40" x="778.5" y="50"/><text fill="#000000" font-family="sans-serif" font-size="14" lengthAdjust="spacing" textLength="26" x="785.5" y="71.5332">Taxi</text><rect fill="#E2E2F0" height="31.6094" rx="2.5" ry="2.5" style="stroke:#181818;stroke-width:0.5;" width="40" x="778.5" y="695.7734"/><text fill="#000000" font-family="sans-serif" font-size="14" lengthAdjust="spacing" textLength="26" x="785.5" y="717.3066">Taxi</text><polygon fill="#181818" points="231.5,110.9609,241.5,114.9609,231.5,118.9609,235.5,114.9609" style="stroke:#181818;stroke-width:1.0;"/><line style="stroke:#181818;stroke-width:1.0;" x1="37.5" x2="237.5" y1="114.9609" y2="114.9609"/><text fill="#000000" font-family="sans-serif" font-size="13" lengthAdjust="spacing" textLength="182" x="44.5" y="110.1045">requestBooking(pickup, dropoff)</text><line style="stroke:#181818;stroke-width:1.0;" x1="243.5" x2="285.5" y1="145.3125" y2="145.3125"/><line style="stroke:#181818;stroke-width:1.0;" x1="285.5" x2="285.5" y1="145.3125" y2="158.3125"/><line style="stroke:#181818;stroke-width:1.0;" x1="244.5" x2="285.5" y1="158.3125" y2="158.3125"/><polygon fill="#181818" points="254.5,154.3125,244.5,158.3125,254.5,162.3125,250.5,158.3125" style="stroke:#181818;stroke-width:1.0;"/><text fill="#000000" font-family="sans-serif" font-size="13" lengthAdjust="spacing" textLength="135" x="250.5" y="140.4561">create BookingRequest</text><polygon fill="#181818" points="380.5,184.6641,390.5,188.6641,380.5,192.6641,384.5,188.6641" style="stroke:#181818;stroke-width:1.0;"/><line style="stroke:#181818;stroke-width:1.0;" x1="243.5" x2="386.5" y1="188.6641" y2="188.6641"/><text fill="#000000" font-family="sans-serif" font-size="13" lengthAdjust="spacing" textLength="90" x="250.5" y="183.8076">AvailableTaxis()</text><line style="stroke:#181818;stroke-width:1.0;" x1="392.5" x2="434.5" y1="219.0156" y2="219.0156"/><line style="stroke:#181818;stroke-width:1.0;" x1="434.5" x2="434.5" y1="219.0156" y2="232.0156"/><line style="stroke:#181818;stroke-width:1.0;" x1="393.5" x2="434.5" y1="232.0156" y2="232.0156"/><polygon fill="#181818" points="403.5,228.0156,393.5,232.0156,403.5,236.0156,399.5,232.0156" style="stroke:#181818;stroke-width:1.0;"/><text fill="#000000" font-family="sans-serif" font-size="13" lengthAdjust="spacing" textLength="129" x="399.5" y="214.1592">searchAvailableTaxis()</text><polygon fill="#181818" points="254.5,258.3672,244.5,262.3672,254.5,266.3672,250.5,262.3672" style="stroke:#181818;stroke-width:1.0;"/><line style="stroke:#181818;stroke-width:1.0;" x1="248.5" x2="391.5" y1="262.3672" y2="262.3672"/><text fill="#000000" font-family="sans-serif" font-size="13" lengthAdjust="spacing" textLength="119" x="260.5" y="257.5107">return AvailableTaxis</text><polygon fill="#181818" points="523.5,288.7188,533.5,292.7188,523.5,296.7188,527.5,292.7188" style="stroke:#181818;stroke-width:1.0;"/><line style="stroke:#181818;stroke-width:1.0;" x1="243.5" x2="529.5" y1="292.7188" y2="292.7188"/><text fill="#000000" font-family="sans-serif" font-size="13" lengthAdjust="spacing" textLength="255" x="250.5" y="287.8623">notifyTaxis(AvailableTaxis, BookingRequest)</text><polygon fill="#181818" points="786.5,319.0703,796.5,323.0703,786.5,327.0703,790.5,323.0703" style="stroke:#181818;stroke-width:1.0;"/><line style="stroke:#181818;stroke-width:1.0;" x1="535.5" x2="792.5" y1="323.0703" y2="323.0703"/><text fill="#000000" font-family="sans-serif" font-size="13" lengthAdjust="spacing" textLength="239" x="542.5" y="318.2139">publishBookingRequest(BookingRequest)</text><path d="M10,338.0703 L71,338.0703 L71,346.4219 L61,356.4219 L10,356.4219 L10,338.0703 " fill="#EEEEEE" style="stroke:#000000;stroke-width:1.5;"/><rect fill="none" height="341.7031" style="stroke:#000000;stroke-width:1.5;" width="818.5" x="10" y="338.0703"/><text fill="#000000" font-family="sans-serif" font-size="13" font-weight="bold" lengthAdjust="spacing" textLength="16" x="25" y="352.5654">alt</text><text fill="#000000" font-family="sans-serif" font-size="11" font-weight="bold" lengthAdjust="spacing" textLength="158" x="86" y="351.4893">[No taxis accept the request]</text><polygon fill="#181818" points="546.5,374.7734,536.5,378.7734,546.5,382.7734,542.5,378.7734" style="stroke:#181818;stroke-width:1.0;"/><line style="stroke:#181818;stroke-width:1.0;" x1="540.5" x2="797.5" y1="378.7734" y2="378.7734"/><text fill="#000000" font-family="sans-serif" font-size="13" lengthAdjust="spacing" textLength="164" x="552.5" y="373.917">respondToBooking(REJECT)</text><polygon fill="#181818" points="254.5,405.125,244.5,409.125,254.5,413.125,250.5,409.125" style="stroke:#181818;stroke-width:1.0;"/><line style="stroke:#181818;stroke-width:1.0;" x1="248.5" x2="534.5" y1="409.125" y2="409.125"/><text fill="#000000" font-family="sans-serif" font-size="13" lengthAdjust="spacing" textLength="177" x="260.5" y="404.2686">handleTaxiResponse(REJECT)</text><path d="M179.5,424.125 L252.5,424.125 L252.5,432.4766 L242.5,442.4766 L179.5,442.4766 L179.5,424.125 " fill="#EEEEEE" style="stroke:#000000;stroke-width:1.5;"/><rect fill="none" height="48.7031" style="stroke:#000000;stroke-width:1.5;" width="445" x="179.5" y="424.125"/><text fill="#000000" font-family="sans-serif" font-size="13" font-weight="bold" lengthAdjust="spacing" textLength="28" x="194.5" y="438.6201">loop</text><text fill="#000000" font-family="sans-serif" font-size="11" font-weight="bold" lengthAdjust="spacing" textLength="146" x="267.5" y="437.5439">[Handle all taxi responses]</text><polygon fill="#181818" points="254.5,460.8281,244.5,464.8281,254.5,468.8281,250.5,464.8281" style="stroke:#181818;stroke-width:1.0;"/><line style="stroke:#181818;stroke-width:1.0;" x1="248.5" x2="534.5" y1="464.8281" y2="464.8281"/><text fill="#000000" font-family="sans-serif" font-size="13" lengthAdjust="spacing" textLength="177" x="260.5" y="459.9717">handleTaxiResponse(REJECT)</text><polygon fill="#181818" points="48.5,498.1797,38.5,502.1797,48.5,506.1797,44.5,502.1797" style="stroke:#181818;stroke-width:1.0;"/><line style="stroke:#181818;stroke-width:1.0;" x1="42.5" x2="242.5" y1="502.1797" y2="502.1797"/><text fill="#000000" font-family="sans-serif" font-size="13" lengthAdjust="spacing" textLength="150" x="54.5" y="497.3232">notify("No taxis available")</text><line style="stroke:#000000;stroke-width:1.0;stroke-dasharray:2.0,2.0;" x1="10" x2="828.5" y1="511.1797" y2="511.1797"/><text fill="#000000" font-family="sans-serif" font-size="11" font-weight="bold" lengthAdjust="spacing" textLength="176" x="15" y="522.5986">[Some taxis accept the request]</text><polygon fill="#181818" points="546.5,544.3672,536.5,548.3672,546.5,552.3672,542.5,548.3672" style="stroke:#181818;stroke-width:1.0;"/><line style="stroke:#181818;stroke-width:1.0;" x1="540.5" x2="797.5" y1="548.3672" y2="548.3672"/><text fill="#000000" font-family="sans-serif" font-size="13" lengthAdjust="spacing" textLength="167" x="552.5" y="543.5107">respondToBooking(ACCEPT)</text><polygon fill="#181818" points="254.5,574.7188,244.5,578.7188,254.5,582.7188,250.5,578.7188" style="stroke:#181818;stroke-width:1.0;"/><line style="stroke:#181818;stroke-width:1.0;" x1="248.5" x2="534.5" y1="578.7188" y2="578.7188"/><text fill="#000000" font-family="sans-serif" font-size="13" lengthAdjust="spacing" textLength="180" x="260.5" y="573.8623">handleTaxiResponse(ACCEPT)</text><path d="M179.5,593.7188 L252.5,593.7188 L252.5,602.0703 L242.5,612.0703 L179.5,612.0703 L179.5,593.7188 " fill="#EEEEEE" style="stroke:#000000;stroke-width:1.5;"/><rect fill="none" height="48.7031" style="stroke:#000000;stroke-width:1.5;" width="445" x="179.5" y="593.7188"/><text fill="#000000" font-family="sans-serif" font-size="13" font-weight="bold" lengthAdjust="spacing" textLength="28" x="194.5" y="608.2139">loop</text><text fill="#000000" font-family="sans-serif" font-size="11" font-weight="bold" lengthAdjust="spacing" textLength="146" x="267.5" y="607.1377">[Handle all taxi responses]</text><polygon fill="#181818" points="254.5,630.4219,244.5,634.4219,254.5,638.4219,250.5,634.4219" style="stroke:#181818;stroke-width:1.0;"/><line style="stroke:#181818;stroke-width:1.0;" x1="248.5" x2="534.5" y1="634.4219" y2="634.4219"/><text fill="#000000" font-family="sans-serif" font-size="13" lengthAdjust="spacing" textLength="180" x="260.5" y="629.5654">handleTaxiResponse(ACCEPT)</text><polygon fill="#181818" points="48.5,667.7734,38.5,671.7734,48.5,675.7734,44.5,671.7734" style="stroke:#181818;stroke-width:1.0;"/><line style="stroke:#181818;stroke-width:1.0;" x1="42.5" x2="242.5" y1="671.7734" y2="671.7734"/><text fill="#000000" font-family="sans-serif" font-size="13" lengthAdjust="spacing" textLength="156" x="54.5" y="666.917">notify("Booking confirmed")</text><!--SRC=[hP51JiCm44NtFiKegqGg5s21r5gjK1S8DU40hZCXLXsFiPqARe_Z9A8f0e4WcqIUzx__dmWPoC6JHyUiS459POK9a6s8JieySpG1NGR2muOlYKgygfr636bQxPPJJbtN6oL5K6HAT6SbCO6y_6mpEiGFneOaS7CNRuDRSFZIemzJbjmgUUhj2cf7bfgcO16QKUbG18G9FOp22QXs4LYVXTBYg76un-S5YwVppADmils2c9A4tfahaycUbn4m55JpDYgNrEegLC6YOBWv3gFGzaUjVBjayck9q04U2C9W249Aj052Y_E66CGd6Svv77fBfgveNjvXkz_ogaZa620LQuMfnw27fF2u83MHXVl4WD0w1PYyFVg4_CuGJPtUu-hItvwNbsSV3USDPWL3xH5Awl0lxTUSRnz_rFwI_9VsbuRVjf-oWYJJADTXFPIFWdS0]--></g></svg>